<svg width="51" height="50" viewBox="0 0 51 50" fill="none" xmlns="http://www.w3.org/2000/svg">
<circle cx="25.0973" cy="25" r="25" fill="black"/>
<mask id="mask0_112_7146" style="mask-type:alpha" maskUnits="userSpaceOnUse" x="0" y="0" width="51" height="50">
<circle cx="25.0973" cy="25" r="25" fill="white"/>
</mask>
<g mask="url(#mask0_112_7146)">
<path fill-rule="evenodd" clip-rule="evenodd" d="M15.0957 27.7722L16.1844 19.5218L6.74097 12.9097L15.3693 15.8575L17.4071 12.7041L24.8477 8.04749L41.2486 17.1611L42.0987 31.0665L34.7919 41.3076L29.0164 42.2002L32.0031 36.6862V31.3778L29.8315 27.232L27.6249 25.7581L24.2306 29.2872V33.022L21.5815 35.5235L18.2164 35.9346L16.7259 36.786L14.2806 35.9992L13.2617 32.2997L15.0957 29.6983V27.7722Z" fill="white"/>
<path fill-rule="evenodd" clip-rule="evenodd" d="M30.1751 12.8392C28.3761 12.4634 26.4082 12.5632 26.4082 12.5632C26.4082 12.5632 25.762 15.5756 21.7563 16.3684C21.7855 16.3684 27.0486 18.1829 30.1751 12.8392Z" fill="#94A6C3"/>
<path fill-rule="evenodd" clip-rule="evenodd" d="M31.8058 40.1743C33.9774 38.4596 35.6076 36.099 36.3587 33.4272C36.3936 33.3273 36.6963 33.1512 36.9001 33.0161C37.2378 32.8106 37.5813 32.6403 37.6453 32.3643C37.7793 31.5774 37.8491 30.7553 37.8491 29.9332C37.8491 29.6278 37.5406 29.3166 37.2378 29.0113C36.9991 28.8057 36.7604 28.565 36.7604 28.3947C36.4227 25.2765 34.9963 22.3639 32.7198 20.2441L32.4811 20.4848C34.6877 22.5753 36.1141 25.4175 36.4227 28.4299C36.4576 28.7059 36.7255 28.976 36.9991 29.252C37.2378 29.4575 37.5114 29.7688 37.5114 29.9038C37.5114 30.6907 37.4416 31.4776 37.3077 32.2645C37.2727 32.3995 36.97 32.5405 36.7313 32.6755C36.3936 32.8458 36.085 33.0161 36.021 33.2921C35.2059 36.2047 33.337 38.7415 30.8568 40.3857C31.2992 39.4286 32.6907 36.3104 33.436 34.7308L33.302 29.6631L28.9879 25.4527L26.5426 25.7933L23.8586 30.1798C23.8586 30.1798 25.1162 31.7888 23.3462 33.6738C21.6171 35.5235 20.2547 35.9346 20.2547 35.9346L18.9971 35.2475C19.3697 34.766 20.1208 34.0496 20.6972 33.5681C21.6811 32.746 22.665 32.6755 22.665 31.7888C22.7058 29.9332 20.7321 30.4441 20.7321 30.4441L20.016 31.1311L19.7132 33.6679L18.2228 35.5529L18.0539 35.5177L15.6086 34.9715C15.6086 34.9715 17.1049 34.1847 17.3436 33.2921C17.5823 32.4348 16.8662 29.5926 16.8313 29.4223C16.8662 29.4575 17.5474 30.0389 17.8502 30.9961C18.3916 29.4869 19.1077 28.0482 19.3115 27.9132C19.5153 27.7781 22.2633 26.3042 22.2633 26.3042L21.3493 28.7353L22.0304 28.3594L23.6606 24.3194C23.6606 24.3194 25.2559 23.5325 26.4436 23.5325C28.5803 23.4973 31.7417 20.8606 30.3153 16.1335C30.7229 16.3038 37.7851 19.8682 39.0077 26.8562C39.9218 32.2292 36.9001 37.2617 31.8058 40.1743Z" fill="#94A6C3"/>
<path fill-rule="evenodd" clip-rule="evenodd" d="M23.7243 13.5909C24.5044 12.6631 24.2017 11.2948 24.2017 11.2948L21.9252 14.689C21.8903 14.689 22.7345 14.7242 23.7243 13.5909Z" fill="#1B314F"/>
<path fill-rule="evenodd" clip-rule="evenodd" d="M16.0799 32.1235L16.3535 30.7553C16.3535 30.7553 15.2298 32.7401 15.1308 33.0161C15.0261 33.3273 15.2007 33.8734 15.6374 33.8382C16.0799 33.803 16.6213 33.1512 16.6213 32.6755C16.6213 32.0589 16.0799 32.1235 16.0799 32.1235Z" fill="#1B314F"/>
<path fill-rule="evenodd" clip-rule="evenodd" d="M36.2536 10.3376C36.2536 10.3376 37.9536 10.4081 39.7177 10.6136C35.7412 7.46027 31.9743 6.53833 28.9177 6.53833C24.7083 6.53833 21.8555 8.28825 21.6808 8.38808L23.0083 6.26234C23.0083 6.26234 17.7101 5.74559 15.8413 11.4005C15.3638 10.2026 14.9272 8.45267 14.9272 8.45267C14.9272 8.45267 12.1733 10.8896 13.4658 14.9297C10.3044 13.767 5.79228 12.1522 5.61762 12.1228C5.37891 12.0876 5.30905 12.1933 5.30905 12.1933C5.30905 12.1933 5.23918 12.2931 5.44295 12.4693C5.82139 12.7687 12.9535 18.0831 14.5196 19.1107C14.1819 20.3439 14.1819 20.9252 14.5196 21.5066C14.997 22.2935 15.0262 22.7045 14.9621 23.2859C14.8922 23.8672 14.2809 28.9056 14.147 29.5221C14.0131 30.1387 12.5867 32.3291 12.6507 32.9809C12.7206 33.6327 13.5997 36.4044 14.3857 36.7156C14.9621 36.9211 16.3885 37.3674 17.3375 37.3674C17.6752 37.3674 17.9838 37.2969 18.1177 37.1619C18.6941 36.651 18.8629 36.5453 19.2705 36.5453C19.3054 36.5453 19.3403 36.5453 19.3695 36.5453C19.5383 36.5453 19.7421 36.5805 19.9808 36.5805C20.5222 36.5805 21.2384 36.4748 21.7449 35.9992C22.4901 35.2475 23.7826 34.2199 24.1902 33.7384C24.7025 33.0866 24.9703 32.1999 24.8364 31.3073C24.7316 30.4852 25.1741 29.7629 25.6864 29.0465C26.3327 28.1891 27.5204 26.6506 27.5204 26.6506C29.8667 28.424 31.3281 31.1311 31.3281 34.1436C31.3281 39.4873 26.7111 43.8033 21.0055 43.8033C20.1205 43.8033 19.2763 43.7035 18.4263 43.498C21.0404 44.4199 23.247 44.7311 25.0518 44.7311C28.8886 44.7311 30.9263 43.3277 30.9263 43.3277C30.9263 43.3277 30.2161 44.2555 29.0575 45.3125C29.0924 45.3125 29.0924 45.3125 29.0924 45.3125C35.4443 44.4199 38.5359 39.1467 38.5359 39.1467C38.5359 39.1467 38.2971 40.8614 37.9944 42.0241C46.4423 35.6175 45.0159 27.6019 44.9809 27.3318C45.0508 27.4316 45.9008 28.4593 46.3375 29.0113C47.6999 14.8945 36.2536 10.3376 36.2536 10.3376ZM23.2469 32.881C23.113 33.0513 22.5366 33.5681 22.1291 33.9439C21.7215 34.3197 21.279 34.6955 20.9413 35.042C20.8074 35.1771 20.5338 35.2475 20.1262 35.2475C19.9923 35.2475 19.8526 35.2475 19.7536 35.2475C19.6838 35.2475 19.6197 35.2475 19.5499 35.2475C19.48 35.2475 19.4451 35.2475 19.416 35.2475C19.3112 35.2475 19.2122 35.2475 19.1074 35.2475C19.6197 34.5605 21.1102 32.9867 21.6225 32.6461C22.2339 32.2351 22.5424 31.824 22.164 31.1076C21.7914 30.3854 20.8074 30.5615 20.8074 30.5615C20.8074 30.5615 21.3838 30.3208 21.8962 30.3208C21.2499 30.1505 20.4348 30.3208 20.0622 30.6966C19.6547 31.0724 19.7245 32.4113 19.5557 33.2627C19.3868 34.1553 18.8105 34.6016 17.9255 35.4237C17.4481 35.87 17.1104 36.0051 16.8368 36.0051C16.2604 35.9052 15.5792 35.7291 15.1018 35.5588C14.7641 35.1125 14.2517 33.6385 14.1178 33.022C14.2168 32.6814 14.6244 31.9591 14.8281 31.548C15.2357 30.7612 15.4744 30.3149 15.5442 29.9038C15.6782 29.3225 16.1206 25.7228 16.2895 24.2195C16.732 24.8009 17.3433 25.7639 17.2036 26.3805C18.1875 24.977 17.4772 23.603 17.1337 23.0568C16.8309 22.5107 16.4234 21.4126 16.7611 20.2499C17.0988 19.0872 18.3214 15.8634 18.3214 15.8634C18.3214 15.8634 18.7289 16.5857 19.3053 16.4447C19.8817 16.3097 24.5336 9.25128 24.5336 9.25128C24.5336 9.25128 25.7912 12.023 24.4637 14.0489C23.1072 16.0689 21.7797 16.4447 21.7797 16.4447C21.7797 16.4447 23.6486 16.7853 25.3778 15.5169C26.0881 17.1964 26.7693 18.9404 26.8042 19.1812C26.6994 19.4219 25.3429 22.7104 25.209 22.9159C25.1391 22.9864 24.6675 23.1214 24.324 23.1919C23.7476 23.3622 23.4099 23.4679 23.2702 23.5677C23.0315 23.7732 21.9428 26.7857 21.4362 28.2596C20.8249 28.4299 20.2136 28.7764 19.7711 29.4575C20.0098 29.2872 20.755 29.1815 21.3023 29.117C21.7797 29.0817 23.2353 29.8686 23.6137 31.3425C23.6137 31.3778 23.6137 31.3778 23.6137 31.413C23.6894 31.9532 23.5205 32.47 23.2469 32.881ZM20.0565 33.2921C20.3651 32.8458 20.3302 32.0942 20.3651 31.8534C20.4001 31.6126 20.4641 31.1664 20.7377 31.1018C21.0114 31.0313 21.6576 31.137 21.6576 31.6126C21.6576 32.0589 21.1802 32.1588 20.8425 32.47C20.598 32.7049 20.1206 33.2216 20.0565 33.2921ZM33.6043 26.7446C33.942 25.0006 33.977 23.4914 33.878 22.2582C35.1996 24.0375 36.0147 26.1985 36.2534 28.4241C36.2883 28.7 36.5562 28.9702 36.8298 29.2462C37.0685 29.4517 37.3421 29.7277 37.3421 29.898C37.3421 30.6849 37.2723 31.4717 37.1384 32.2645C37.1034 32.3643 36.8007 32.5405 36.562 32.6755C36.2243 32.8458 35.9157 33.0161 35.8517 33.2921C35.1065 35.9287 33.5054 38.26 31.3687 39.9042C34.5242 36.5805 36.0496 31.0959 33.6043 26.7446ZM31.4682 40.2095C33.6748 38.4949 35.3748 36.099 36.1201 33.3919C36.155 33.2921 36.4577 33.1159 36.6615 32.9809C36.9992 32.8106 37.3427 32.605 37.4067 32.329C37.5407 31.5422 37.6105 30.7201 37.6105 29.898C37.6105 29.5926 37.3019 29.2814 36.9992 28.976C36.8304 28.7705 36.5567 28.5297 36.5567 28.3594C36.2831 25.8579 35.2991 23.4972 33.7737 21.5418C33.0926 17.4313 30.3795 16.1629 30.3096 16.1276C30.3795 16.2333 32.1436 18.7995 30.9209 21.8119C29.6633 24.8596 26.4379 24.384 26.1642 24.4133C25.8906 24.4133 24.8426 25.7815 23.5152 28.3183C23.3463 28.2479 22.6302 28.0776 21.8151 28.2185C22.4264 26.5038 23.3463 24.0727 23.5152 23.8672C23.585 23.7967 24.0916 23.6617 24.4351 23.5618C25.0813 23.3916 25.3841 23.2858 25.4889 23.1508C25.5587 23.0451 25.8964 22.2582 26.2341 21.4361C26.5427 21.4361 27.3228 21.3656 27.3869 21.3304C27.4568 21.2599 28.103 19.5864 28.103 19.3808C28.103 19.2105 26.7756 15.8869 26.269 14.6185C26.5077 14.3425 26.7465 14.0019 26.9793 13.6261C33.9426 14.3836 39.3804 20.3439 39.3804 27.5667C39.3804 33.1159 36.155 37.9487 31.4682 40.2095Z" fill="#1B314F"/>
<path fill-rule="evenodd" clip-rule="evenodd" d="M22.4322 21.7121C23.0784 20.9605 22.7407 19.557 21.5472 19.3163C21.8558 18.5999 22.2924 17.1612 22.2924 17.1612C22.2924 17.1612 18.8283 22.6399 18.5255 22.7456C18.217 22.8513 17.9142 21.6475 17.9142 21.6475C17.2679 24.1491 19.0029 24.4897 19.2067 23.7028C20.1557 23.4562 21.7859 22.4285 22.4322 21.7121Z" fill="#1B314F"/>
<path fill-rule="evenodd" clip-rule="evenodd" d="M19.4744 23.0451L21.2385 19.9974C21.2385 19.9974 22.2574 20.5142 21.745 21.3363C21.1046 22.2935 19.4744 23.0451 19.4744 23.0451Z" fill="#FFD923"/>
<path fill-rule="evenodd" clip-rule="evenodd" d="M41.313 37.1619C40.8006 37.8489 40.2242 38.5654 39.5489 39.2524C43.9271 30.7553 39.7527 22.9805 39.5838 22.6752C39.8924 22.9864 40.1951 23.327 40.4688 23.6323C43.8281 27.3964 44.2357 33.0514 41.313 37.1619Z" fill="#D82122"/>
<path fill-rule="evenodd" clip-rule="evenodd" d="M45.3882 26.2337C43.857 22.0879 41.6854 18.5587 36.8996 15.376C32.2827 12.2931 27.3222 12.5338 27.0486 12.5691C27.0136 12.5691 26.9787 12.5691 26.9787 12.5691C27.1475 12.4986 27.3164 12.4634 27.4852 12.434C28.539 12.0934 29.8956 11.8174 31.258 11.6471C34.8618 11.1245 38.4948 12.3577 40.9751 15.0002C41.01 15.0354 41.01 15.0354 41.0449 15.0706C43.8628 18.0831 45.3242 21.8472 45.3882 26.2337Z" fill="#D82122"/>
<path fill-rule="evenodd" clip-rule="evenodd" d="M35.8109 9.27478C30.7515 8.31761 27.4911 8.79326 25.1448 9.68583C25.0749 9.40984 24.8362 8.86372 24.6324 8.41744C23.9279 9.27478 23.1769 10.3024 22.7053 10.9542C21.4128 11.8468 20.8713 12.7041 20.8713 12.7041C21.6166 10.1321 23.794 8.21778 26.4431 7.73626C27.1883 7.6012 28.0034 7.53073 28.8884 7.53073C31.2289 7.56597 33.5694 8.14731 35.8109 9.27478Z" fill="#D82122"/>
<path fill-rule="evenodd" clip-rule="evenodd" d="M17.099 15.8516C13.1284 15.7166 14.45 11.0541 14.5198 10.7839C14.5198 10.8192 14.7877 14.4482 17.099 15.8516Z" fill="#D82122"/>
<path fill-rule="evenodd" clip-rule="evenodd" d="M21.0054 7.46027C17.9488 9.31001 18.5601 13.7259 18.5601 13.7259C15.6374 9.24541 20.7667 7.56596 21.0054 7.46027Z" fill="#D82122"/>
<path fill-rule="evenodd" clip-rule="evenodd" d="M15.9811 17.0848C16.1849 17.2551 16.3887 17.5663 16.15 18.0126C16.016 18.2534 15.8123 18.2181 15.5037 18.0831C15.0961 17.8775 12.6509 16.4389 10.4443 14.9649C12.9594 15.8575 15.5037 16.8147 15.9112 17.0202C15.9112 17.0202 15.9462 17.0554 15.9811 17.0848Z" fill="white"/>
</g>
</svg>
