<svg width="51" height="50" viewBox="0 0 51 50" fill="none" xmlns="http://www.w3.org/2000/svg">
<path d="M25.0973 50C38.9044 50 50.0973 38.8071 50.0973 25C50.0973 11.1929 38.9044 0 25.0973 0C11.2902 0 0.09729 11.1929 0.09729 25C0.09729 38.8071 11.2902 50 25.0973 50Z" fill="white"/>
<path d="M49.5973 25C49.5973 38.531 38.6283 49.5 25.0973 49.5C11.5663 49.5 0.59729 38.531 0.59729 25C0.59729 11.469 11.5663 0.5 25.0973 0.5C38.6283 0.5 49.5973 11.469 49.5973 25Z" stroke="#486FFF" stroke-opacity="0.3"/>
<circle cx="25.0973" cy="25" r="25" fill="url(#paint0_linear_112_7074)"/>
<path d="M35.7061 35.5739L27.1295 14.8588C26.6458 13.7877 25.9267 13.2653 24.9789 13.2653H24.2206C23.2727 13.2653 22.5536 13.7877 22.0699 14.8588L18.3372 23.8841H15.5132C14.67 23.8906 13.9836 24.5698 13.977 25.4188V25.4384C13.9836 26.2808 14.67 26.9665 15.5132 26.973H17.0298L13.4671 35.5739C13.4018 35.7632 13.3625 35.9592 13.3625 36.1616C13.3625 36.6449 13.5129 37.0237 13.7809 37.3175C14.0489 37.6114 14.4346 37.7551 14.9184 37.7551C15.2387 37.7486 15.5459 37.6506 15.8009 37.4612C16.0754 37.2718 16.265 36.9975 16.4153 36.6841L20.3376 26.9665H23.057C23.9002 26.96 24.5866 26.2808 24.5932 25.4318V25.3926C24.5866 24.5502 23.9002 23.8645 23.057 23.8579H21.6057L24.5997 16.4065L32.7579 36.6775C32.9083 36.991 33.0978 37.2653 33.3724 37.4547C33.6273 37.6441 33.9411 37.742 34.2549 37.7486C34.7386 37.7486 35.1178 37.6049 35.3923 37.311C35.6669 37.0171 35.8107 36.6384 35.8107 36.1551C35.8173 35.9592 35.7846 35.7567 35.7061 35.5739Z" fill="white"/>
<defs>
<linearGradient id="paint0_linear_112_7074" x1="28.0869" y1="-9.28387" x2="-9.11307" y2="22.0161" gradientUnits="userSpaceOnUse">
<stop stop-color="#B6509E"/>
<stop offset="1" stop-color="#2EBAC6"/>
</linearGradient>
</defs>
</svg>
