<svg width="51" height="50" viewBox="0 0 51 50" fill="none" xmlns="http://www.w3.org/2000/svg">
<circle cx="25.0973" cy="25" r="25" fill="#357A6E"/>
<g clip-path="url(#clip0_112_593)">
<path fill-rule="evenodd" clip-rule="evenodd" d="M13.8265 20.4403C13.7677 19.7138 13.74 19.0358 13.7262 18.4304C13.6674 15.4898 13.9995 13.5178 14.0134 13.4348L14.2763 11.8918L15.5459 12.8086C15.6151 12.8571 17.2342 14.0333 19.2545 16.1747C19.4898 16.4238 19.7389 16.6937 19.9949 16.9843L19.9395 17.1607C19.2303 19.4717 18.784 21.8622 18.6526 24.3184C17.5801 23.2529 16.4835 22.3361 15.4387 21.5612C14.8817 21.1495 14.342 20.7759 13.8265 20.4403ZM35.4348 20.4403C35.4935 19.7138 35.5213 19.0358 35.535 18.4304C35.5938 15.4898 35.2617 13.5178 35.248 13.4348L34.985 11.8918L33.7154 12.8086C33.6461 12.8571 32.027 14.0333 30.0067 16.1747C29.7715 16.4238 29.5224 16.6937 29.2665 16.9843L29.3217 17.1642C30.0309 19.4751 30.4773 21.8657 30.6087 24.3219C31.6812 23.2564 32.7779 22.3396 33.8226 21.5647C34.3796 21.153 34.9193 20.7794 35.4348 20.4438V20.4403Z" fill="white"/>
<path fill-rule="evenodd" clip-rule="evenodd" d="M24.631 40.8465C16.8228 41.2201 9.01466 34.6919 8.01832 19.9924L7.91107 18.4287L9.36407 19.0203C9.62008 19.1241 15.1761 21.4281 19.5143 26.5551C19.5074 26.3164 19.5039 26.0742 19.5039 25.8321C19.5039 19.8056 21.4793 14.1873 24.6344 9.12949C27.7895 14.1838 29.7649 19.8056 29.7649 25.8321C29.7649 26.0742 29.7614 26.3164 29.7546 26.5551C34.0928 21.4281 39.6488 19.1241 39.9047 19.0203L41.3577 18.4287L41.2505 19.9924C40.2541 34.6919 32.446 41.2201 24.6378 40.8465H24.631ZM22.9116 34.3563C22.5137 34.3563 22.3511 34.5121 22.3511 34.8926C22.3511 35.8198 23.3751 36.5705 24.631 36.5705C25.8903 36.5705 26.9108 35.8198 26.9108 34.8926C26.9108 34.5121 26.7482 34.3598 26.3504 34.3598C26.1394 34.3668 25.9248 34.3875 25.7172 34.4255L25.6965 34.4291C25.3436 34.4878 24.9873 34.519 24.631 34.5258C24.2747 34.519 23.9148 34.4878 23.5619 34.4291C23.3475 34.391 23.126 34.3702 22.9081 34.3598L22.9116 34.3563ZM18.812 30.6581C19.8257 30.6581 20.6456 31.478 20.6456 32.4916C20.6456 33.5053 19.8257 34.3253 18.812 34.3253C17.7984 34.3253 16.9785 33.5053 16.9785 32.4916C16.9785 31.478 17.7984 30.6581 18.812 30.6581ZM30.4464 30.6581C31.4601 30.6581 32.2799 31.478 32.2799 32.4916C32.2799 33.5053 31.4601 34.3253 30.4464 34.3253C29.4328 34.3253 28.6129 33.5053 28.6129 32.4916C28.6129 31.478 29.4328 30.6581 30.4464 30.6581Z" fill="white"/>
</g>
<defs>
<clipPath id="clip0_112_593">
<rect width="34.375" height="31.7308" fill="white" transform="translate(7.90979 9.13461)"/>
</clipPath>
</defs>
</svg>
