<svg id="Symbols" xmlns="http://www.w3.org/2000/svg" viewBox="0 0 64 64"><defs><style>.cls-1{fill:#fff;fill-rule:evenodd;}.cls-2{fill:#fad910;}.cls-3{fill:#fedc10;}.cls-4{fill:#7cdfd4;}.cls-5{fill:#7cdfd5;}.cls-6{fill:#313838;}.cls-7{fill:#2d3538;}.cls-8{fill:#323a3d;}.cls-9{fill:#32393c;}.cls-10{fill:#2d3537;}</style></defs><g id="HoneySwap"><path class="cls-1" d="M63.38533,32A31.38533,31.38533,0,1,1,32,.61468,31.38664,31.38664,0,0,1,63.38533,32Z"/><path class="cls-2" d="M23.71339,42.77633q-.15007.00359-.30045.00711c-1.71853-1.11776-1.75993-2.81212-1.57535-4.58418l20.49786-.00035c.13664,1.76966.27977,3.54159-1.61219,4.59951q-.12813-.00921-.25649-.01833Q32.08987,42.77831,23.71339,42.77633Z"/><path class="cls-3" d="M21.75562,33.30311c.02182-.54054.03-1.08206.06823-1.62144a2.8427,2.8427,0,0,1,1.76935-2.73435q8.51154.00007,17.023,0a2.7381,2.7381,0,0,1,1.74124,2.724c-.0002.53986.04047,1.07974.06248,1.62a.29113.29113,0,0,0-.09246.10925l-20.48133.0004A.2574.2574,0,0,0,21.75562,33.30311Z"/><path class="cls-4" d="M40.72326,42.79842c1.89194-1.05791,1.74882-2.82986,1.61219-4.59951q-.004-2.3991-.008-4.79823a.2909.2909,0,0,1,.09246-.10925c3.40894,1.95458,6.83691,3.87733,10.2154,5.8835a1.69649,1.69649,0,0,1-.16771,2.92918,11.3356,11.3356,0,0,1-3.96595,1.67083A12.53341,12.53341,0,0,1,40.72326,42.79842Z"/><path class="cls-5" d="M21.83759,38.19926c-.18458,1.77207-.14318,3.46642,1.57535,4.58418-3.76734,1.63715-7.52937,1.78545-11.16111-.29962-1.97391-1.13327-1.90127-2.67919.04275-3.7943,3.14779-1.80559,6.30678-3.59164,9.461-5.38617a.25539.25539,0,0,1,.09056.09771Z"/><path class="cls-6" d="M40.61623,28.94736q-8.5115,0-17.023,0c2.37176-1.38811,4.738-2.78582,7.11819-4.15934a2.63429,2.63429,0,0,1,2.7884-.00363Q37.06279,26.85759,40.61623,28.94736Z"/><path class="cls-7" d="M23.71339,42.77633q8.37658.00193,16.75338.00376c-2.40394,1.41094-4.76946,2.89624-7.239,4.18155a2.95034,2.95034,0,0,1-2.36912-.045C28.42281,45.63986,26.08674,44.17249,23.71339,42.77633Z"/><path class="cls-8" d="M37.76161,16.72532c.09851.08137.55353.27127.64476.57173.18239.60075-.27723.75207-.81766.84883-2.04808.36672-2.70037,1.10955-3.16691,3.27709-.06731.31268-.52637.541-.80414.80828-.21994-.2831-.61366-.55532-.63217-.85105C32.84468,19.13058,35.14537,16.76188,37.76161,16.72532Z"/><path class="cls-9" d="M26.59037,16.72108c2.60438.07763,4.83312,2.37788,4.71809,4.60333-.01625.31434-.43843.60767-.67272.91073-.25625-.28837-.68175-.54574-.74106-.87016a3.45747,3.45747,0,0,0-3.10344-3.25078c-.34539-.07682-.61244-.50616-.91566-.77273Z"/><path class="cls-10" d="M21.83759,38.19926q.00429-2.39912.00858-4.7982l20.48132-.00039q.004,2.39913.008,4.79824Z"/></g></svg>