<svg id="Symbols" xmlns="http://www.w3.org/2000/svg" viewBox="0 0 64 64"><defs><style>.cls-1{fill:#fff;fill-rule:evenodd;}</style></defs><g id="Swapr"><circle cx="32" cy="32" r="31.47793"/><path class="cls-1" d="M12.32628,38.84066V32a19.67354,19.67354,0,0,1,33.4399-14.05489l-4.18241,2.61342A14.925,14.925,0,0,0,17.07506,32h4.74876ZM22.344,43.38053A14.92512,14.92512,0,0,0,46.925,32H42.17618l9.49715-6.9536L51.67371,32A19.6735,19.6735,0,0,1,18.168,45.99ZM39.547,38.52965H34.11985l-2.11972-2.86348L29.8804,38.52965H24.45311l4.91672-6.41671-4.9171-6.64247h5.088l2.45944,3.20974,2.45943-3.20974h5.08809l-4.91723,6.64247Z"/></g></svg>