<?xml version="1.0" encoding="utf-8"?>
<!-- Generator: Adobe Illustrator 26.0.3, SVG Export Plug-In . SVG Version: 6.00 Build 0)  -->
<svg version="1.1" id="Symbols" xmlns="http://www.w3.org/2000/svg" xmlns:xlink="http://www.w3.org/1999/xlink" x="0px" y="0px"
	 viewBox="0 0 64 64" style="enable-background:new 0 0 64 64;" xml:space="preserve">
<style type="text/css">
	.st0{fill:#FFFFFF;filter:url(#Adobe_OpacityMaskFilter);}
	.st1{mask:url(#mask0_112_7146_00000008845039539712777760000007286939943601532295_);}
	.st2{fill-rule:evenodd;clip-rule:evenodd;fill:#FFFFFF;}
	.st3{fill-rule:evenodd;clip-rule:evenodd;fill:#94A6C3;}
	.st4{fill-rule:evenodd;clip-rule:evenodd;fill:#1B314F;}
	.st5{fill-rule:evenodd;clip-rule:evenodd;fill:#FFD923;}
	.st6{fill-rule:evenodd;clip-rule:evenodd;fill:#D82122;}
	.st7{fill:#40649F;}
	.st8{fill:#0000FF;}
	.st9{fill:#0028FF;}
	.st10{fill:#0018FF;}
	.st11{fill:#0000F1;}
	.st12{fill:#0000DA;}
	.st13{fill:#0058FF;}
	.st14{fill:#0048FF;}
	.st15{fill:#0014FF;}
	.st16{fill:#0000E8;}
	.st17{fill:#0000C4;}
	.st18{fill:#003CFF;}
	.st19{fill:#0008FF;}
	.st20{fill:#0000C8;}
	.st21{fill:#0090FF;}
	.st22{fill:#0084FF;}
	.st23{fill:#0068FF;}
	.st24{fill:#0000F6;}
	.st25{fill:#0000D1;}
	.st26{fill:#0000AD;}
	.st27{fill:#0000BB;}
	.st28{fill:#009CFF;}
	.st29{fill:#0078FF;}
	.st30{fill:#0000ED;}
	.st31{fill:#00CCFF;}
	.st32{fill:#002CFF;}
	.st33{fill:#00C4FF;}
	.st34{fill:#0050FF;}
	.st35{fill:#0000A4;}
	.st36{fill:#0000B6;}
	.st37{fill:#0000D6;}
	.st38{fill:#0004FF;}
	.st39{fill:#0000BF;}
	.st40{fill:#00D8FF;}
	.st41{fill:#0034FF;}
	.st42{fill:#00009F;}
	.st43{fill:#00BCFF;}
	.st44{fill:#23FFD4;}
	.st45{fill:#00ACFF;}
	.st46{fill:#1CFFDB;}
	.st47{fill:#0070FF;}
	.st48{fill:#000096;}
	.st49{fill:#26FFD1;}
	.st50{fill:#0044FF;}
	.st51{fill:#00E0FB;}
	.st52{fill:#0064FF;}
	.st53{fill:#19FFDE;}
	.st54{fill:#001CFF;}
	.st55{fill:#0000A8;}
	.st56{fill:#5AFF9D;}
	.st57{fill:#008CFF;}
	.st58{fill:#00B8FF;}
	.st59{fill:#00009B;}
	.st60{fill:#000092;}
	.st61{fill:#000CFF;}
	.st62{fill:#5DFF9A;}
	.st63{fill:#2CFFCA;}
	.st64{fill:#56FFA0;}
	.st65{fill:#000089;}
	.st66{fill:#006CFF;}
	.st67{fill:#16FFE1;}
	.st68{fill:#06ECF1;}
	.st69{fill:#94FF63;}
	.st70{fill:#0024FF;}
	.st71{fill:#005CFF;}
	.st72{fill:#0000DF;}
	.st73{fill:#0038FF;}
	.st74{fill:#90FF66;}
	.st75{fill:#00008D;}
	.st76{fill:#0030FF;}
	.st77{fill:#00A0FF;}
	.st78{fill:#33FFC4;}
	.st79{fill:#00B0FF;}
	.st80{fill:#00C8FF;}
	.st81{fill:#CAFF2C;}
	.st82{fill:#0000CD;}
	.st83{fill:#CEFF29;}
	.st84{fill:#C7FF30;}
	.st85{fill:#60FF97;}
	.st86{fill:#0040FF;}
	.st87{fill:#000080;}
	.st88{fill:#0FF8E7;}
	.st89{fill:#0060FF;}
	.st90{fill:#0054FF;}
	.st91{fill:#0074FF;}
	.st92{fill:#C1FF36;}
	.st93{fill:#000084;}
	.st94{fill:#97FF60;}
	.st95{fill:#004CFF;}
	.st96{fill:#D1FF26;}
	.st97{fill:#36FFC1;}
	.st98{fill:#8DFF6A;}
	.st99{fill:#FFEA00;}
	.st100{fill:#FBF100;}
	.st101{fill:#0080FF;}
	.st102{fill:#FFE200;}
	.st103{fill:#53FFA4;}
	.st104{fill:#007CFF;}
	.st105{fill:#63FF94;}
	.st106{fill:#0000FA;}
	.st107{fill:#F1FC06;}
	.st108{fill:#BEFF39;}
	.st109{fill:#D4FF23;}
	.st110{fill:#FFDB00;}
	.st111{fill:#0094FF;}
	.st112{fill:#FFB200;}
	.st113{fill:#13FCE4;}
	.st114{fill:#FFBD00;}
	.st115{fill:#0020FF;}
	.st116{fill:#FFA700;}
	.st117{fill:#3CFFBA;}
	.st118{fill:#00D0FF;}
	.st119{fill:#00A4FF;}
	.st120{fill:#EBFF0C;}
	.st121{fill:#FFC800;}
	.st122{fill:#00DCFE;}
	.st123{fill:#B7FF40;}
	.st124{fill:#FFD700;}
	.st125{fill:#FF7A00;}
	.st126{fill:#FF9C00;}
	.st127{fill:#FF8900;}
	.st128{fill:#00E4F8;}
	.st129{fill:#D7FF1F;}
	.st130{fill:#02E8F4;}
	.st131{fill:#FF6F00;}
	.st132{fill:#FF9800;}
	.st133{fill:#00A8FF;}
	.st134{fill:#1FFFD7;}
	.st135{fill:#E1FF16;}
	.st136{fill:#0CF4EB;}
	.st137{fill:#FF6000;}
	.st138{fill:#43FFB4;}
	.st139{fill:#FF4E00;}
	.st140{fill:#FFAB00;}
	.st141{fill:#FF9400;}
	.st142{fill:#FF6400;}
	.st143{fill:#50FFA7;}
	.st144{fill:#4DFFAA;}
	.st145{fill:#B4FF43;}
	.st146{fill:#00D4FF;}
	.st147{fill:#FF3F00;}
	.st148{fill:#FFD300;}
	.st149{fill:#49FFAD;}
	.st150{fill:#66FF90;}
	.st151{fill:#09F0EE;}
	.st152{fill:#FF3B00;}
	.st153{fill:#FF8600;}
	.st154{fill:#46FFB1;}
	.st155{fill:#FF2900;}
	.st156{fill:#80FF77;}
	.st157{fill:#FFB900;}
	.st158{fill:#8AFF6D;}
	.st159{fill:#29FFCE;}
	.st160{fill:#FF3000;}
	.st161{fill:#FF5900;}
	.st162{fill:#0098FF;}
	.st163{fill:#FF1600;}
	.st164{fill:#00B4FF;}
	.st165{fill:#FF9100;}
	.st166{fill:#39FFBE;}
	.st167{fill:#FF2200;}
	.st168{fill:#ADFF49;}
	.st169{fill:#FF3800;}
	.st170{fill:#F60B00;}
	.st171{fill:#00C0FF;}
	.st172{fill:#FFCC00;}
	.st173{fill:#AAFF4D;}
	.st174{fill:#BAFF3C;}
	.st175{fill:#FFD000;}
	.st176{fill:#F10800;}
	.st177{fill:#DF0000;}
	.st178{fill:#E4FF13;}
	.st179{fill:#FA0F00;}
	.st180{fill:#FF2500;}
	.st181{fill:#DBFF1C;}
	.st182{fill:#0000B2;}
	.st183{fill:#A7FF50;}
	.st184{fill:#FF5500;}
	.st185{fill:#30FFC7;}
	.st186{fill:#ED0400;}
	.st187{fill:#FF1E00;}
	.st188{fill:#C80000;}
	.st189{fill:#CD0000;}
	.st190{fill:#D10000;}
	.st191{fill:#A4FF53;}
	.st192{fill:#FF8D00;}
	.st193{fill:#FFB600;}
	.st194{fill:#E40000;}
	.st195{fill:#FFC100;}
	.st196{fill:#F8F500;}
	.st197{fill:#FF7E00;}
	.st198{fill:#83FF73;}
	.st199{fill:#FFC400;}
	.st200{fill:#40FFB7;}
	.st201{fill:#6AFF8D;}
	.st202{fill:#FF1300;}
	.st203{fill:#D60000;}
	.st204{fill:#FF4300;}
	.st205{fill:#FF6C00;}
	.st206{fill:#BB0000;}
	.st207{fill:#FF4700;}
	.st208{fill:#FFA300;}
	.st209{fill:#FF5200;}
	.st210{fill:#B20000;}
	.st211{fill:#A0FF56;}
	.st212{fill:#FF8200;}
	.st213{fill:#87FF70;}
	.st214{fill:#E7FF0F;}
	.st215{fill:#FF5D00;}
	.st216{fill:#FF3400;}
	.st217{fill:#BF0000;}
	.st218{fill:#FF6800;}
	.st219{fill:#7DFF7A;}
	.st220{fill:#FFE600;}
	.st221{fill:#FF7300;}
	.st222{fill:#A40000;}
	.st223{fill:#DA0000;}
	.st224{fill:#9DFF5A;}
	.st225{fill:#E80000;}
	.st226{fill:#FFAE00;}
	.st227{fill:#DEFF19;}
	.st228{fill:#9F0000;}
	.st229{fill:#A80000;}
	.st230{fill:#FEED00;}
	.st231{fill:#FF1A00;}
	.st232{fill:#C4FF33;}
	.st233{fill:#B60000;}
	.st234{fill:#9AFF5D;}
	.st235{fill:#960000;}
	.st236{fill:#F4F802;}
	.st237{fill:#EEFF09;}
	.st238{fill:#FF9F00;}
	.st239{fill:#FFDE00;}
	.st240{fill:#6DFF8A;}
	.st241{fill:#B1FF46;}
	.st242{fill:#890000;}
	.st243{fill:#FF2D00;}
	.st244{fill:#9B0000;}
	.st245{fill:#8D0000;}
	.st246{fill:#0010FF;}
	.st247{fill:#0000E3;}
	.st248{fill:#800000;}
	.st249{fill:#840000;}
	.st250{fill:#920000;}
	.st251{fill:#0088FF;}
	.st252{fill:#AD0000;}
	.st253{fill:#FF4A00;}
	.st254{fill:#C40000;}
	.st255{fill:#FF7700;}
	.st256{fill:url(#SVGID_1_);}
	.st257{fill:#FFFFFF;}
	.st258{fill:#357A6E;}
	.st259{fill-rule:evenodd;clip-rule:evenodd;fill:#2081E2;}
	.st260{opacity:0.3;}
	.st261{fill:#909090;}
	.st262{fill-rule:evenodd;clip-rule:evenodd;fill:#633001;}
	.st263{fill-rule:evenodd;clip-rule:evenodd;fill:#FEDC90;}
	.st264{fill-rule:evenodd;clip-rule:evenodd;fill:#D1884F;}
	.st265{fill:#005EDE;}
	.st266{fill:#294661;}
	.st267{fill:url(#Burn_00000147899586689794539410000009439742064035621800_);}
	.st268{fill:#C5C2C6;}
	.st269{fill-rule:evenodd;clip-rule:evenodd;fill:#12141E;}
	.st270{fill:#FFFFFF;filter:url(#Adobe_OpacityMaskFilter_00000094575823316702899980000006128424964360429465_);}
	.st271{mask:url(#mask0_112_10953_00000092452469575815252120000016433094664549502848_);}
	.st272{fill-rule:evenodd;clip-rule:evenodd;fill:#94FEBF;}
	.st273{fill:#FF007A;}
	.st274{fill-rule:evenodd;clip-rule:evenodd;fill:#FF007A;}
	.st275{fill:#253743;}
	.st276{fill-rule:evenodd;clip-rule:evenodd;fill:#FB6706;}
	.st277{fill:#FAD910;}
	.st278{fill:#FEDC10;}
	.st279{fill:#7CDFD4;}
	.st280{fill:#7CDFD5;}
	.st281{fill:#313838;}
	.st282{fill:#2D3538;}
	.st283{fill:#323A3D;}
	.st284{fill:#32393C;}
	.st285{fill:#2D3537;}
	.st286{opacity:0.5;fill-rule:evenodd;clip-rule:evenodd;fill:#FFFFFF;}
	.st287{fill:#FCFCFC;}
	.st288{fill:#AEB4BE;}
	.st289{fill:#3B382C;}
	.st290{fill:#3B3829;}
	.st291{fill:#5D5D5D;}
	.st292{fill:#575757;}
	.st293{fill:#282828;}
	.st294{fill:#1E1E1E;}
	.st295{fill:#CDB141;}
	.st296{fill:#D3B743;}
	.st297{fill-rule:evenodd;clip-rule:evenodd;fill:#0097A7;}
	.st298{fill:#4189C9;}
	.st299{fill:#262F71;}
	.st300{fill:#161F42;}
	.st301{fill:#5C94CE;}
	.st302{fill:#6497D0;}
	.st303{fill:#689AD1;}
	.st304{fill:#4E8FCC;}
	.st305{fill:#5591CD;}
	.st306{fill:#418AC9;}
	.st307{fill:#468CCA;}
	.st308{fill:#488DCA;}
	.st309{fill:#428AC9;}
	.st310{fill:#182144;}
	.st311{fill:#458CCA;}
	.st312{fill:#263154;}
	.st313{fill:#424A7F;}
	.st314{fill:#5A5D76;}
	.st315{fill:#4F668A;}
	.st316{fill:#555A73;}
	.st317{fill:#6D9CD2;}
	.st318{fill:#729FD4;}
	.st319{fill:#78A2D5;}
	.st320{fill:#7DA5D6;}
	.st321{fill:#81A7D8;}
	.st322{fill:#0E1F66;}
	.st323{fill:#699AD1;}
	.st324{fill:#88ABD9;}
	.st325{fill:url(#SVGID_00000179604506623419504390000005507413853468593852_);}
	.st326{fill:url(#SVGID_00000004547912484260724130000010125516015492100234_);}
	.st327{fill:url(#SVGID_00000041265882678027191570000002897052281130039224_);}
	.st328{fill:url(#SVGID_00000139990273917009018430000018253489592084195740_);}
	.st329{fill:url(#SVGID_00000115515274706779731510000000190510547247150497_);}
	.st330{fill:url(#SVGID_00000052064520747484602380000008244286682092129712_);}
	.st331{fill:url(#SVGID_00000139253445710349735430000012766834200743845041_);}
	.st332{fill:url(#SVGID_00000139978074476749837310000004150165226106520748_);}
	.st333{fill:url(#SVGID_00000036962842337258577400000004422906717926957716_);}
	.st334{fill:url(#SVGID_00000124138514345118973260000013536821160355894443_);}
	.st335{fill:url(#SVGID_00000150817759952124903130000008832442763438244737_);}
	.st336{fill:url(#SVGID_00000133499831654701460980000007213216992753813413_);}
	.st337{fill:url(#SVGID_00000005255328691523110240000013991097391020537505_);}
	.st338{fill:#F5A676;}
	.st339{fill:url(#SVGID_00000176019853604039714790000007245377025057611919_);}
	.st340{fill:url(#SVGID_00000087388407102431535600000002554908982699686541_);}
	.st341{fill:url(#SVGID_00000093882586533802795030000000599547555095430064_);}
	.st342{fill:#ECBB2B;}
	.st343{fill:#5B4E29;}
	.st344{fill:#766329;}
	.st345{fill:#C8A02A;}
	.st346{fill:#786429;}
	.st347{fill:#7B6629;}
	.st348{fill:#CCA32A;}
	.st349{fill:#796529;}
	.st350{fill:#AD8C29;}
	.st351{fill:#8D7429;}
	.st352{fill:#B18E2A;}
	.st353{fill:#A08229;}
	.st354{fill:#A48529;}
	.st355{fill:#8E7429;}
	.st356{fill:#8C7329;}
	.st357{fill:#BA962A;}
	.st358{fill:#D0A62B;}
	.st359{fill:#CBA22A;}
	.st360{fill:#CEA42A;}
	.st361{fill:#967A29;}
	.st362{fill:#CDA42A;}
	.st363{fill:#D3A82B;}
	.st364{fill:#B08E29;}
	.st365{fill:#C79F2A;}
	.st366{fill:#B9942A;}
	.st367{fill:#D2A72B;}
	.st368{fill:#907629;}
	.st369{fill:#A28329;}
	.st370{fill:#957A29;}
	.st371{fill:#B29029;}
	.st372{fill:#CAA22A;}
	.st373{fill:#F1EDBA;}
	.st374{fill:#FDFDFD;}
	.st375{fill:#776329;}
	.st376{fill:#947929;}
	.st377{fill:#AA8A29;}
	.st378{fill:#7A6529;}
</style>
<g id="NFTBeez">
	<circle class="st342" cx="32" cy="32" r="31.478"/>
	<g>
		<path class="st343" d="M43.481,61.37c-2.494,1.027-5.08,1.682-7.768,1.925c-0.401,0.002-0.426-0.308-0.396-0.564
			c0.194-1.62,0.131-3.258,0.357-4.875c0.124-0.891,0.134-1.793,0.283-2.682c0.101-0.6,0.228-1.193,0.409-1.772
			c0.203-0.647,0.226-1.298,0.226-1.977c0-1.338,0.232-2.65,0.898-3.847c0.625-0.158,1.254-0.019,1.866,0.037
			c2.982,0.273,5.97,0.219,8.957,0.227c0.332,0.001,0.671-0.037,0.99,0.099c0.203,0.139,0.1,0.235-0.046,0.324
			c-0.48,0.045-0.716,0.314-0.831,0.784c-0.149,0.606-0.421,1.181-0.661,1.753c-0.35,0.834-0.578,1.699-0.875,2.545
			c-0.894,2.543-1.834,5.07-2.953,7.526C43.836,61.093,43.696,61.263,43.481,61.37z"/>
		<path class="st343" d="M17.147,59.759c-1.435-0.689-2.753-1.562-3.998-2.549c-0.119-0.528-0.016-1.075,0.13-1.544
			c0.315-1.012,0.233-2.089,0.58-3.077c0.642-1.831,0.879-3.79,1.778-5.54c0.308-0.6,0.327-1.292,0.508-1.935
			c0.182-0.647,0.346-1.294,0.732-1.858c0.239-0.116,0.451,0.01,0.659,0.089c2.738,1.041,5.55,1.826,8.405,2.465
			c0.199,0.045,0.42,0.051,0.56,0.24c-0.574,1.413-1.285,2.757-2.124,4.027c-0.393,0.595-0.701,1.234-1.065,1.844
			c-0.997,1.67-2.148,3.234-3.258,4.824c-0.663,0.949-1.516,1.766-2.207,2.707C17.686,59.667,17.459,59.837,17.147,59.759z"/>
		<path class="st344" d="M37.433,47.683c-0.162,1.112-0.629,2.161-0.664,3.301c-0.022,0.698,0.168,1.406-0.105,2.094
			c-0.673,1.694-0.653,3.51-0.885,5.276c-0.192,1.457-0.073,2.947-0.327,4.408c-0.039,0.226,0.077,0.402,0.261,0.533
			c-0.336,0.156-0.692,0.094-1.042,0.098c-0.103-0.89,0.004-1.777,0.017-2.666c0.024-1.713,0.486-3.382,0.442-5.098
			c-0.018-0.696,0.154-1.37,0.369-2.027c0.289-0.882,0.437-1.768,0.399-2.708c-0.047-1.158,0.194-2.277,0.789-3.298
			C36.952,47.484,37.209,47.445,37.433,47.683z"/>
		<path class="st345" d="M56.698,12.543c-0.062,1.116,0.002,2.215,0.175,3.329c0.099,0.638,0.184,1.338,0.009,2.022
			c-0.102,0.398-0.168,0.812,0.041,1.257c0.238,0.506-0.233,0.982-0.258,1.498c-0.005,0.101-0.103,0.226-0.069,0.297
			c0.576,1.189-0.382,2.244-0.298,3.392c0.015,0.2-0.015,0.373,0.082,0.579c0.224,0.476-0.052,0.915-0.171,1.373
			c-0.281,1.079-0.518,2.17-0.772,3.256c-0.377,0.006-0.461-0.264-0.525-0.554c-0.042-0.942,0.354-1.799,0.549-2.694
			c0.219-1.005-0.011-2.036,0.286-3.038c0.172-0.58,0.345-1.189,0.11-1.832c-0.092-0.252,0.046-0.58,0.145-0.854
			c0.141-0.389,0.164-0.772,0.072-1.171c-0.052-0.225-0.098-0.471-0.031-0.685c0.28-0.896,0.014-1.817,0.156-2.72
			c0.071-0.454-0.132-0.904-0.205-1.353c-0.175-1.075-0.13-2.201-0.656-3.207c-0.086-0.165-0.156-0.35-0.023-0.533
			C55.835,11.401,56.297,11.946,56.698,12.543z"/>
		<path class="st346" d="M17.147,59.759c0.359-0.148,0.61-0.401,0.836-0.723c0.555-0.79,1.2-1.507,1.845-2.228
			c0.437-0.488,0.809-1.067,1.148-1.621c0.955-1.559,2.146-2.966,2.918-4.649c0.297-0.647,0.779-1.225,1.144-1.857
			c0.396-0.686,0.748-1.39,1.057-2.118c0.08-0.189,0.15-0.402,0.409-0.426c0.222-0.166,0.433-0.165,0.628,0.044
			c-0.604,1.246-0.937,2.636-1.982,3.65c-0.25,0.242-0.356,0.609-0.485,0.942c-0.274,0.708-0.652,1.354-1.163,1.919
			c-0.07,0.078-0.151,0.149-0.203,0.239c-1.174,2.025-2.612,3.864-4.029,5.717c-0.299,0.367-0.662,0.676-0.946,1.058
			c-0.163,0.22-0.381,0.375-0.685,0.313C17.449,59.981,17.279,59.906,17.147,59.759z"/>
		<path class="st347" d="M16.908,43.285c-0.233,0.815-0.59,1.592-0.725,2.437c-0.248,1.552-1.212,2.87-1.451,4.423
			c-0.187,1.214-0.878,2.305-0.934,3.531c-0.051,1.112-0.488,2.141-0.542,3.242c-0.005,0.099-0.069,0.195-0.106,0.292
			c-0.248-0.119-0.45-0.296-0.635-0.495c-0.137-0.763,0.162-1.473,0.299-2.196c0.112-0.594,0.29-1.171,0.295-1.786
			c0.007-0.712,0.382-1.317,0.651-1.949c0.091-0.213,0.219-0.417,0.203-0.652c-0.069-1.039,0.415-1.912,0.863-2.78
			c0.298-0.576,0.426-1.161,0.484-1.795c0.086-0.93,0.418-1.777,1.065-2.477C16.606,43.01,16.79,43.063,16.908,43.285z"/>
		<path class="st348" d="M51.289,48.047c-0.02,0.57-0.145,1.112-0.484,1.58c-0.961,1.328-1.258,2.883-1.54,4.446
			c-0.032,0.179-0.088,0.388-0.207,0.511c-0.673,0.697-0.8,1.609-1.061,2.479c-0.138,0.459-0.22,0.945-0.549,1.354
			c-0.308,0.383-0.528,0.845-0.557,1.364c-0.272,0.205-0.566,0.367-0.893,0.466c-0.183-0.224-0.07-0.435,0.036-0.64
			c0.426-0.823,0.712-1.693,0.886-2.602c0.039-0.205,0.059-0.422,0.192-0.592c0.938-1.199,1.097-2.679,1.474-4.079
			c0.059-0.22,0.036-0.472,0.18-0.659c0.765-0.99,0.974-2.202,1.352-3.347c0.046-0.14,0.076-0.284,0.214-0.37
			C50.665,47.841,50.992,47.789,51.289,48.047z"/>
		<path class="st349" d="M43.481,61.37c0.693-1.235,1.201-2.554,1.682-3.877c0.59-1.621,1.389-3.171,1.746-4.869
			c0.128-0.607,0.423-1.13,0.626-1.697c0.256-0.716,0.56-1.416,0.786-2.141c0.138-0.443,0.325-0.714,0.829-0.616
			c0.297,0.51,0.109,1.028-0.144,1.428c-0.952,1.508-1.201,3.244-1.696,4.901c-0.048,0.161-0.06,0.345-0.177,0.466
			c-0.569,0.594-0.7,1.378-0.891,2.119c-0.191,0.743-0.471,1.43-0.887,2.068c-0.244,0.373-0.378,0.795-0.517,1.212
			c-0.09,0.269-0.216,0.499-0.474,0.637C44.092,61.179,43.8,61.308,43.481,61.37z"/>
		<path class="st350" d="M18.667,60.534c-0.174-0.088-0.348-0.176-0.522-0.264c0.222-0.512,0.671-0.842,1.008-1.261
			c0.17-0.211,0.313-0.444,0.417-0.698c0.097-0.196,0.245-0.342,0.44-0.441c0.729-0.72,1.499-1.408,1.84-2.423
			c0.039-0.081,0.096-0.147,0.168-0.2c0.648-0.444,0.926-1.136,1.216-1.82c0.037-0.083,0.091-0.155,0.157-0.217
			c0.71-0.512,0.963-1.356,1.362-2.059c0.55-0.969,1.298-1.834,1.645-2.917c0.25-0.412,0.484-0.831,0.659-1.284
			c0.13-0.338,0.304-0.654,0.727-0.7c0.262-0.005,0.537-0.063,0.735,0.185c-0.549,0.777-0.807,1.727-1.502,2.426
			c-0.353,0.355-0.451,0.892-0.655,1.35c-0.326,0.733-0.878,1.313-1.284,1.984c-0.764,1.26-1.569,2.483-2.526,3.605
			c-0.234,0.274-0.353,0.616-0.513,0.933c-0.719,0.863-1.422,1.742-2.154,2.59C19.52,59.746,19.209,60.271,18.667,60.534z"/>
		<path class="st351" d="M36.686,47.65c-0.2,0.866-0.677,1.719-0.596,2.589c0.149,1.605-0.345,3.071-0.689,4.576
			c-0.205,0.898,0.053,1.822-0.221,2.716c-0.362,1.18-0.115,2.426-0.361,3.631c-0.147,0.722,0.095,1.497-0.149,2.231
			c-0.085,0.01-0.169,0.021-0.254,0.031c-0.107,0.043-0.209,0.053-0.3-0.036c-0.11-0.665-0.159-1.333-0.075-2.005
			c0.05-0.16,0.085-0.323,0.1-0.489c0.124-1.365,0.149-2.741,0.471-4.085c0.103-0.429-0.17-0.86-0.071-1.301
			c0.207-1.118,0.614-2.189,0.77-3.32c0.051-0.373,0.09-0.74,0.003-1.11c0.017-1.238,0.443-2.392,0.73-3.575
			C36.301,47.367,36.524,47.377,36.686,47.65z"/>
		<path class="st352" d="M55.314,10.905c0.163,0.597,0.468,1.138,0.599,1.759c0.139,0.658,0.034,1.336,0.275,1.982
			c0.33,0.886,0.003,1.844,0.235,2.756c0.065,0.257-0.062,0.575-0.14,0.854c-0.116,0.416-0.145,0.831-0.005,1.235
			c0.209,0.603-0.208,1.11-0.22,1.677c-0.002,0.097-0.117,0.225-0.084,0.284c0.479,0.842-0.071,1.617-0.165,2.413
			c-0.131,1.104,0.055,2.246-0.374,3.313c-0.244,0.607-0.334,1.243-0.392,1.887c-0.358-0.05-0.531-0.268-0.565-0.615
			c0.184-0.664,0.305-1.343,0.514-2.003c0.182-0.573,0.272-1.162,0.181-1.787c-0.094-0.648,0.15-1.282,0.302-1.91
			c0.07-0.29,0.11-0.567,0.073-0.865c-0.07-0.563,0.019-1.121,0.051-1.683c0.074-1.278,0.249-2.55,0.126-3.844
			c-0.09-0.944-0.119-1.9-0.206-2.846c-0.087-0.945-0.387-1.834-0.932-2.625c-0.157-0.228-0.353-0.415-0.644-0.464
			c-0.51-0.113-0.917-0.534-1.48-0.493c-0.173-0.037-0.386-0.004-0.436-0.252c0.675-0.411,1.363-0.278,2.052-0.047
			C54.535,10.014,54.955,10.43,55.314,10.905z"/>
		<path class="st353" d="M50.286,48.064c-0.214,1.199-0.498,2.373-1.202,3.4c-0.176,0.256-0.305,0.515-0.327,0.857
			c-0.053,0.792-0.338,1.543-0.598,2.284c-0.524,1.492-1.316,2.886-1.658,4.447c-0.095,0.434-0.549,0.708-0.504,1.195
			c-0.278,0.16-0.533,0.377-0.881,0.372c-0.106-0.722,0.176-1.353,0.564-1.906c0.423-0.604,0.67-1.253,0.763-1.964
			c0.058-0.447,0.177-0.88,0.411-1.242c0.733-1.137,1.035-2.409,1.271-3.709c0.057-0.311,0.191-0.599,0.311-0.887
			c0.37-0.885,0.944-1.678,1.186-2.623c0.036-0.141,0.149-0.25,0.289-0.318C50.054,47.93,50.187,47.931,50.286,48.064z"/>
		<path class="st354" d="M12.016,56.313c-0.163-0.075-0.299-0.181-0.387-0.34c0.003-0.751,0.023-1.497,0.414-2.176
			c0.096-0.167,0.097-0.362,0.079-0.552c-0.055-0.582,0.12-1.115,0.339-1.642c0.257-0.617,0.472-1.234,0.511-1.923
			c0.04-0.717,0.442-1.344,0.701-2.005c0.284-0.726,0.613-1.398,0.678-2.236c0.075-0.974,0.631-1.887,1.021-2.81
			c0.284-0.105,0.458,0.046,0.606,0.259c0.116,0.517-0.19,0.933-0.364,1.369c-0.204,0.509-0.375,1.012-0.454,1.56
			c-0.116,0.815-0.45,1.569-0.782,2.318c-0.34,0.769-0.653,1.544-0.691,2.4c-0.007,0.167-0.034,0.337-0.101,0.492
			c-0.646,1.493-0.88,3.092-1.221,4.664C12.316,55.927,12.309,56.205,12.016,56.313z"/>
		<path class="st355" d="M12.016,56.313c0.288-1.272,0.607-2.537,0.852-3.817c0.146-0.761,0.673-1.384,0.679-2.195
			c0.008-1.061,0.575-1.963,0.959-2.911c0.244-0.603,0.455-1.207,0.517-1.852c0.075-0.768,0.525-1.398,0.745-2.111
			c0.055-0.179,0.16-0.341,0.139-0.539c0.257-0.089,0.414,0.018,0.503,0.258c-0.547,0.906-0.99,1.849-0.991,2.936
			c-0.001,0.933-0.679,1.593-0.953,2.418c-0.159,0.478-0.378,0.93-0.317,1.446c0.081,0.68-0.426,1.154-0.609,1.743
			c-0.091,0.292-0.253,0.591-0.258,0.885c-0.022,1.427-0.523,2.76-0.768,4.141C12.348,56.581,12.182,56.447,12.016,56.313z"/>
		<path class="st356" d="M49.906,48.06c-0.392,1.269-1.187,2.364-1.59,3.62c-0.155,0.481-0.254,1.01-0.323,1.509
			c-0.151,1.091-0.842,1.924-1.201,2.908c-0.235,0.642-0.196,1.35-0.526,1.967c-0.064,0.12-0.053,0.287-0.171,0.389
			c-0.657,0.573-0.69,1.427-0.978,2.165c-0.267,0.097-0.449,0.359-0.753,0.384c0.635-1.699,1.728-3.215,2.014-5.053
			c0.019-0.121,0.023-0.267,0.092-0.354c1.051-1.304,1.079-2.961,1.538-4.467c0.162-0.53,0.56-0.908,0.779-1.402
			c0.223-0.504,0.361-1.01,0.363-1.556c0.086-0.036,0.172-0.072,0.257-0.107C49.573,47.894,49.739,47.895,49.906,48.06z"/>
		<path class="st357" d="M15.402,42.653c-0.025,0.705-0.413,1.291-0.637,1.93c-0.162,0.464-0.383,0.879-0.268,1.426
			c0.128,0.604-0.434,1.036-0.61,1.582c-0.274,0.852-0.72,1.621-0.793,2.571c-0.062,0.8-0.579,1.554-0.726,2.36
			c-0.146,0.8-0.214,1.592-0.555,2.361c-0.127,0.285,0.147,0.758-0.184,1.089c-0.176-0.076-0.309-0.202-0.414-0.36
			c-0.071-0.439-0.02-0.848,0.153-1.273c0.195-0.477,0.291-0.988,0.283-1.523c-0.009-0.601,0.381-1.09,0.585-1.631
			c0.169-0.448,0.383-0.881,0.27-1.381c0.008-0.699,0.427-1.254,0.658-1.874c0.288-0.775,0.583-1.521,0.689-2.377
			c0.127-1.018,0.659-1.968,1.129-2.902c0.028-0.056,0.075-0.1,0.12-0.144C15.265,42.428,15.352,42.503,15.402,42.653z"/>
		<path class="st358" d="M34.169,63.38c0.083,0.015,0.165,0.029,0.248,0.044c-0.581,0.148-1.172,0.094-1.76,0.081
			c0.182-0.505,0.391-1.006,0.135-1.55c-0.025-0.052-0.019-0.125-0.01-0.186c0.211-1.403,0.036-2.842,0.39-4.23
			c0.039-0.154,0.156-0.288,0.236-0.432c-0.031-1.091,0.113-2.158,0.445-3.199c0.02-0.062,0.089-0.081,0.146-0.102
			c0.175,0.099,0.206,0.277,0.172,0.438c-0.297,1.406,0.074,2.899-0.553,4.262c-0.026,0.056-0.052,0.124-0.043,0.182
			c0.173,1.142-0.163,2.275-0.061,3.414c0.021,0.231,0.056,0.459,0.001,0.686c-0.062,0.252,0.004,0.411,0.282,0.44
			C33.938,63.241,34.059,63.298,34.169,63.38z"/>
		<path class="st359" d="M54.081,9.631c-0.678,0.082-1.375-0.141-2.04,0.133c-0.259,0.235-0.605,0.171-0.905,0.263
			c-0.634-0.059-1.01,0.416-1.445,0.738c-0.342,0.253-0.67,0.546-0.928,0.897c-0.055,0.064-0.118,0.12-0.186,0.17
			c-0.181,0.111-0.354,0.231-0.449,0.433c-0.024,0.049-0.052,0.095-0.081,0.142c-0.169,0.313-0.489,0.532-0.562,0.905
			c-0.068,0.157-0.189,0.277-0.288,0.412c-0.302,0.296-0.51,0.649-0.645,1.048c-0.039,0.171-0.064,0.347-0.195,0.48
			c-0.19,0.128-0.318,0.382-0.61,0.305c-0.015-0.467,0.185-0.839,0.524-1.139c0.096-0.085,0.175-0.164,0.228-0.286
			c0.704-1.607,1.809-2.891,3.186-3.96c1.148-0.892,2.472-1.109,3.875-1.041C53.773,9.257,53.946,9.424,54.081,9.631z"/>
		<path class="st358" d="M12.635,49.803c0.223,0.519-0.057,0.96-0.23,1.411c-0.198,0.518-0.58,1.024-0.588,1.54
			c-0.007,0.486-0.066,0.952-0.219,1.377c-0.175,0.488-0.19,1.006-0.384,1.482c-0.113-0.1-0.226-0.2-0.34-0.3
			c0.041-0.51,0.024-1.032,0.391-1.46c0.072-0.084,0.116-0.235,0.101-0.345c-0.151-1.091,0.403-1.994,0.763-2.95
			C12.305,50.311,12.098,49.808,12.635,49.803z"/>
		<path class="st360" d="M18.667,60.534c0.651-0.871,1.37-1.68,2.116-2.472c0.403-0.428,0.581-1.058,1.165-1.336
			c0.152-0.118,0.251-0.346,0.509-0.25c-0.023,0.12-0.003,0.301-0.075,0.352c-0.604,0.429-0.895,1.122-1.386,1.623
			c-0.573,0.584-1.021,1.26-1.578,1.848c-0.145,0.153-0.257,0.327-0.492,0.336C18.827,60.632,18.721,60.649,18.667,60.534z"/>
		<path class="st361" d="M19.686,58.364c-0.31,0.8-0.943,1.339-1.541,1.906c-0.194-0.033-0.366-0.11-0.506-0.251
			c0.705-0.258,0.91-1.066,1.543-1.403C19.314,58.46,19.425,58.262,19.686,58.364z"/>
		<path d="M15.402,42.653c-0.084-0.038-0.169-0.076-0.253-0.114c-0.304,0.12-0.471-0.067-0.626-0.28
			c-2.46-1.231-4.817-2.62-6.865-4.481c-2.194-1.994-3.886-4.332-4.802-7.171C1.469,26.307,2.89,22.164,6.671,19.35
			c1.029-0.766,2.151-1.369,3.311-1.909c0.197-0.092,0.394-0.116,0.605-0.126c5.327-0.255,10.641-0.083,15.943,0.485
			c0.229,0.024,0.46,0.027,0.69,0.039c0.44,0.063,0.89-0.167,1.326,0.042c0.243,0.013,0.486,0.029,0.724,0.08
			c2.32,0.263,4.606,0.713,6.884,1.214c0.284,0.063,0.569,0.129,0.845,0.223c0.191,0.035,0.372,0.107,0.56,0.15
			c0.177,0.037,0.347,0.104,0.525,0.137c0.17,0.038,0.336,0.094,0.508,0.129c0.141,0.031,0.279,0.075,0.416,0.12
			c0.172,0.046,0.317,0.139,0.449,0.255c1.086,0.347,2.172,0.694,3.259,1.04c0.128,0.083,0.275-0.029,0.405,0.037
			c0.213,0.067,0.424,0.142,0.628,0.233c0.13,0.056,0.265,0.097,0.397,0.148c0.287,0.143,0.599,0.228,0.889,0.365
			c2.711,1.193,5.31,2.573,7.594,4.49c0.241,0.202,0.476,0.409,0.696,0.632c0.207,0.227,0.425,0.444,0.642,0.662
			c0.093,0.095,0.184,0.192,0.279,0.286c0.136,0.126,0.246,0.27,0.314,0.445c0.114,0.222,0.296,0.382,0.484,0.539
			c0.092,0.192,0.22,0.354,0.393,0.479c1.793,2.376,3.022,4.999,3.468,7.961c0.404,2.679,0.293,5.347-0.316,7.981
			c-0.152,0.657-0.55,1.257-0.829,1.886c-0.147,0.332-0.454,0.253-0.708,0.271c-1.92,0.141-3.841,0.27-5.761,0.403
			c-0.334,0.006-0.668,0.011-1.003,0.017c-0.127-0.001-0.254-0.002-0.381-0.004c-0.166,0.001-0.332,0.002-0.498,0.003
			c-1.215-0.004-2.43-0.021-3.644-0.008c-2.784,0.029-5.557-0.174-8.33-0.371c-0.249-0.011-0.498-0.022-0.747-0.033
			c-0.202-0.093-0.413-0.122-0.632-0.095c-0.106,0.11-0.243,0.124-0.385,0.125c-0.309-0.025-0.594-0.134-0.878-0.248
			c-1.878-0.264-3.757-0.528-5.635-0.792c-0.196-0.131-0.451,0.049-0.639-0.122c-0.232-0.143-0.493-0.117-0.748-0.131
			c-0.192-0.135-0.462,0.124-0.631-0.126c-0.19-0.152-0.42-0.103-0.636-0.125c-1.875-0.491-3.771-0.901-5.626-1.479
			c-1.339-0.417-2.656-0.888-3.969-1.374c-0.168-0.039-0.302-0.2-0.498-0.139c-0.168-0.086-0.335-0.172-0.503-0.258
			C15.738,42.809,15.57,42.731,15.402,42.653z"/>
		<path class="st362" d="M39.457,20.19c-0.167-0.044-0.334-0.088-0.501-0.132c-0.085-0.789,0.005-1.578,0.282-2.302
			c0.299-0.783,0.272-1.593,0.366-2.388c0.079-0.672,0.02-1.365,0.05-2.051c0.048-1.101-0.263-2.059-1.484-2.643
			c-0.863-0.413-1.611-0.492-2.402,0.06c-0.119,0.083-0.279,0.084-0.416,0.134c-1.047,0.207-1.779,0.939-2.588,1.544
			c-0.634,0.474-1.108,1.116-1.711,1.623c-0.178,0.061-0.356,0.155-0.537,0.01c0.499-0.994,1.348-1.67,2.19-2.334
			c0.616-0.485,1.262-0.969,1.968-1.294c1.327-0.609,2.759-0.919,4.17-0.383c0.935,0.355,1.455,1.082,1.573,2.211
			c0.156,1.488-0.002,2.954-0.136,4.403C40.171,17.833,39.925,19.054,39.457,20.19z"/>
		<path class="st363" d="M14.522,42.258c0.209,0.093,0.418,0.187,0.626,0.28c-0.333,0.846-0.619,1.715-1.019,2.528
			c-0.202,0.411-0.076,0.806-0.167,1.198c-0.223,0.958-0.719,1.807-1.078,2.711c-0.108,0.272-0.242,0.528-0.249,0.827
			c-0.341,0.136-0.28,0.542-0.505,0.755c-0.156-1.125,0.448-2.049,0.857-3.005c0.182-0.426,0.168-0.956,0.575-1.286
			c0.036-0.029,0.055-0.129,0.034-0.174c-0.525-1.138,0.497-1.914,0.687-2.886C14.344,42.894,14.543,42.603,14.522,42.258z"/>
		<path class="st364" d="M31.017,13.92c0.893-1.057,1.943-1.935,3.089-2.703c0.361-0.242,0.736-0.455,1.192-0.446
			c0.035,0.054,0.041,0.112,0.024,0.173c-0.437,0.414-0.969,0.702-1.454,1.046c-0.535,0.38-0.953,0.855-1.427,1.284
			c-0.573,0.518-0.974,1.173-1.549,1.69c-0.47,0.422-0.853,0.982-1.169,1.531c-0.34,0.591-0.75,1.093-1.226,1.56
			c-0.425-0.072-0.85-0.145-1.275-0.217c0.086-0.013,0.171-0.027,0.257-0.04c0.589-0.293,1.095-0.663,1.312-1.331
			c0.099-0.304,0.314-0.523,0.584-0.706c0.509-0.345,0.656-1,1.147-1.373C30.698,14.253,30.834,14.058,31.017,13.92z"/>
		<path class="st345" d="M43.081,21.365c-0.135-0.009-0.272-0.012-0.365-0.135c0.365-0.257,0.297-0.679,0.417-1.034
			c0.135-0.4,0.474-0.685,0.652-1.102c0.528-1.24,1.124-2.461,1.963-3.537c0.169-0.126,0.338-0.251,0.507-0.377
			c0.232,0.418,0.022,0.744-0.277,0.981c-0.349,0.276-0.47,0.615-0.474,1.029c-0.068,0.334-0.215,0.622-0.476,0.852
			c-0.4,0.354-0.43,0.886-0.608,1.343c-0.281,0.725-0.809,1.295-1.17,1.967C43.221,21.405,43.14,21.391,43.081,21.365z"/>
		<path class="st365" d="M31.017,13.92c-0.574,0.691-0.967,1.534-1.728,2.07c-0.31,0.218-0.405,0.582-0.526,0.899
			c-0.234,0.614-0.709,0.818-1.285,0.911c0.72-0.588,1.133-1.433,1.672-2.156c0.425-0.569,0.996-0.995,1.364-1.597
			C30.681,14.004,30.849,13.962,31.017,13.92z"/>
		<path class="st366" d="M34.791,47.432c0.304-0.047,0.592,0.038,0.881,0.112c0.093,0.802-0.145,1.554-0.357,2.308
			c-0.157,0.56-0.356,1.116-0.06,1.691c0.081,0.276-0.012,0.541-0.055,0.809c-0.357,1.003-0.526,2.054-0.773,3.085
			c-0.098,0.41,0.04,0.784,0.1,1.172c0.038,0.316-0.055,0.614-0.118,0.917c-0.272,0.764-0.526,1.53-0.359,2.361
			c0.025,0.123,0.037,0.252,0.01,0.373c-0.188,0.838-0.239,1.682-0.147,2.537c0.021,0.201,0.028,0.42-0.125,0.595
			c-0.433,0.065-0.603-0.132-0.468-0.533c0.1-0.297,0.033-0.561-0.002-0.851c-0.043-0.367-0.161-0.725,0.039-1.138
			c0.162-0.334,0.226-0.773,0.07-1.207c-0.22-0.611-0.015-1.198,0.218-1.787c0.374-0.942,0.087-1.962,0.262-2.934
			c0.066-0.366,0.088-0.739,0.13-1.109c-0.125-0.311-0.011-0.591,0.113-0.87c0.216-0.588,0.306-1.191,0.235-1.816
			c-0.035-0.309-0.001-0.617,0.042-0.924c0.145-0.623,0.251-1.253,0.483-1.857c0.096-0.249,0.212-0.549,0.004-0.823
			C34.874,47.505,34.833,47.469,34.791,47.432z"/>
		<path class="st359" d="M28.518,46.519c0.218,0.015,0.445-0.021,0.639,0.122c-0.371-0.016-0.583,0.108-0.736,0.502
			c-0.256,0.66-0.487,1.313-1.087,1.839c-0.539,0.473-0.769,1.266-1.038,1.966c-0.145,0.376-0.307,0.72-0.673,0.944
			c-0.152,0.093-0.3,0.254-0.366,0.417c-0.494,1.232-1.388,2.211-2.063,3.328c-0.197,0.326-0.615,0.451-0.736,0.838
			c-0.176,0.071-0.287,0.273-0.509,0.25c0.068-0.42,0.223-0.813,0.543-1.089c0.421-0.363,0.738-0.773,0.939-1.299
			c0.137-0.359,0.345-0.672,0.732-0.89c0.361-0.203,0.398-0.705,0.598-1.064c0.43-0.769,1.176-1.345,1.425-2.219
			c0.344-1.208,1.438-1.986,1.785-3.189C28.044,46.721,28.235,46.552,28.518,46.519z"/>
		<path class="st367" d="M34.915,47.542c0.393,0.071,0.282,0.387,0.23,0.592c-0.175,0.689-0.397,1.366-0.601,2.047
			c-0.204,0.954-0.108,1.935-0.254,2.895c-0.225,0.205-0.055,0.542-0.252,0.756c-0.374,0.784-0.28,1.662-0.498,2.479
			c-0.069,0.259-0.089,0.531-0.132,0.796c-0.211-0.878-0.191-1.758,0.071-2.613c0.357-1.162,0.472-2.364,0.669-3.554
			c0.133-0.803,0.265-1.612,0.499-2.388C34.748,48.217,34.777,47.864,34.915,47.542z"/>
		<path class="st368" d="M27.139,46.262c0.214,0.022,0.442-0.025,0.631,0.126c-0.453,0.06-0.509,0.463-0.631,0.777
			c-0.161,0.414-0.349,0.801-0.653,1.127c-1.006,1.68-1.962,3.389-3.023,5.036c-0.042,0.042-0.083,0.084-0.125,0.126
			c-0.437,0.618-0.83,1.266-1.26,1.888c-0.042,0.042-0.084,0.084-0.126,0.126c-0.595,0.865-1.226,1.703-1.889,2.517
			c-0.168,0.084-0.294,0.21-0.377,0.378c-0.168,0.084-0.336,0.168-0.504,0.252c0.137-0.59,0.671-0.888,0.985-1.347
			c0.565-0.823,1.077-1.708,1.703-2.457c0.74-0.886,1.135-1.981,1.949-2.803c0.379-0.382,0.563-0.917,0.755-1.425
			c0.17-0.449,0.392-0.857,0.747-1.205c0.675-0.661,0.925-1.566,1.289-2.403C26.731,46.699,26.755,46.346,27.139,46.262z"/>
		<path class="st361" d="M23.463,53.328c-0.06-0.326,0.15-0.606,0.308-0.796c1.039-1.244,1.563-2.799,2.521-4.086
			c0.048-0.064,0.128-0.103,0.194-0.154c-0.164,0.652-0.528,1.19-0.901,1.743c-0.54,0.799-1.01,1.65-1.451,2.509
			C23.964,52.876,23.754,53.124,23.463,53.328z"/>
		<path class="st361" d="M20.063,57.986c0.072-0.355,0.222-0.654,0.538-0.864c0.418-0.278,0.455-0.828,0.799-1.161
			c0.177-0.171,0.367-0.329,0.552-0.492c-0.168,0.547-0.31,1.106-0.846,1.441c-0.234,0.146-0.388,0.37-0.504,0.621
			C20.494,57.764,20.358,57.97,20.063,57.986z"/>
		<path class="st361" d="M22.078,55.342c0.206-0.772,0.65-1.385,1.26-1.888C23.098,54.204,22.82,54.928,22.078,55.342z"/>
		<path class="st354" d="M33.789,63.392c-0.075-1.007-0.096-1.998,0.06-3.017c0.113-0.735-0.022-1.516,0.171-2.274
			c0.06-0.233,0.158-0.422,0.27-0.618c0.353,0.054,0.194,0.29,0.171,0.479c-0.138,1.138-0.296,2.275-0.296,3.425
			c-0.055,0.665,0.155,1.329,0.004,1.993C34.043,63.384,33.916,63.388,33.789,63.392z"/>
		<path class="st354" d="M35.171,51.568c-0.443-0.348-0.249-0.788-0.158-1.2c0.209-0.943,0.438-1.882,0.659-2.823
			c0.127,0.004,0.254,0.007,0.381,0.011c0.142,0.833-0.356,1.548-0.434,2.342c-0.038,0.39-0.129,0.776-0.196,1.164
			C35.482,51.301,35.351,51.447,35.171,51.568z"/>
		<path class="st369" d="M34.166,61.387c-0.419-0.776,0.032-1.525,0.065-2.288c0.023-0.539,0.235-1.071,0.06-1.616
			c0.041-0.293,0.083-0.586,0.124-0.88c0.069-0.378-0.179-0.799,0.153-1.142c0.033,0.002,0.067,0.005,0.1,0.008
			c0.278,1.909-0.391,3.754-0.384,5.646C34.285,61.205,34.207,61.296,34.166,61.387z"/>
		<path class="st369" d="M35.171,51.568c-0.017-0.22,0.181-0.332,0.253-0.507c0.266,0.459,0.082,0.916,0.008,1.38
			c-0.163,1.033-0.468,2.029-0.764,3.028c0,0-0.001-0.001-0.001-0.001c-0.279-0.215-0.235-0.463-0.147-0.773
			c0.22-0.78,0.485-1.553,0.526-2.374C35.088,52.07,35.129,51.819,35.171,51.568z"/>
		<path class="st369" d="M54.56,28.527c-0.123-0.131-0.245-0.262-0.368-0.394c0.021-0.674,0.222-1.315,0.409-1.95
			c0.156-0.531,0.262-1.051,0.215-1.6c-0.077-0.888,0.05-1.75,0.324-2.594c0.106-1.409,0.249-2.813,0.29-4.229
			c0.023-0.794,0.003-1.579-0.036-2.368c-0.012-0.249,0.014-0.506-0.126-0.733c-0.039-0.094-0.055-0.193-0.052-0.294
			c0.061-0.416,0.153-0.834-0.07-1.234c-0.025-0.052-0.043-0.107-0.055-0.163c-0.017-0.286,0.114-0.6-0.159-0.837
			c-0.027-0.047-0.045-0.098-0.054-0.151c0.03-0.227-0.029-0.406-0.262-0.496c-0.069-0.049-0.123-0.112-0.164-0.186
			c-0.09-0.385-0.434-0.642-0.519-1.029c0.903,0.153,1.084,0.966,1.362,1.613c0.418,0.972,0.469,2.033,0.501,3.092
			c0.035,1.155,0.105,2.303,0.095,3.464c-0.012,1.272-0.458,2.527-0.125,3.826c0.104,0.404-0.188,0.917-0.323,1.373
			c-0.268,0.905,0.138,1.868-0.248,2.76C54.898,27.082,54.911,27.859,54.56,28.527z"/>
		<path class="st370" d="M53.932,10.269c0.342,0.253,0.551,0.589,0.63,1.007c-0.214,0.147-0.39,0.02-0.472-0.14
			c-0.463-0.898-1.272-0.714-2.031-0.664c-0.247,0.016-0.489,0.124-0.725-0.034c-0.072-0.477,0.305-0.51,0.608-0.6
			c0.195-0.058,0.416,0.055,0.607-0.072C53.101,9.684,53.449,10.16,53.932,10.269z"/>
		<path class="st364" d="M52.549,9.766c-0.443,0.165-0.953,0.194-1.261,0.629c-0.019,0.023-0.038,0.047-0.056,0.071
			c-0.552,0.179-0.923,0.607-1.342,0.971c-0.179,0.156-0.343,0.389-0.641,0.232c-0.131-0.264,0.042-0.426,0.216-0.562
			c0.165-0.129,0.272-0.293,0.374-0.466c0.368-0.299,0.692-0.669,1.198-0.75c0.328-0.099,0.66-0.158,1.004-0.127
			C52.21,9.764,52.379,9.765,52.549,9.766z"/>
		<path class="st371" d="M45.371,17.193c-0.053-0.483,0.044-0.884,0.514-1.148c0.322-0.181,0.329-0.541,0.369-0.865
			c0.182-0.131,0.108-0.326,0.126-0.499c0.393-0.232,0.511-0.669,0.754-1.013c-0.019-0.195,0.176-0.245,0.252-0.375
			c0.118-0.125,0.162-0.396,0.433-0.22c0.091,0.147,0.094,0.307,0.072,0.471c-0.105,0.522-0.271,1.012-0.701,1.371
			c-0.132,0.111-0.205,0.275-0.241,0.435c-0.129,0.563-0.48,0.96-0.921,1.297C45.775,16.787,45.744,17.197,45.371,17.193z"/>
		<path class="st372" d="M51.036,9.891c-0.378,0.252-0.755,0.505-1.133,0.757c-0.194,0.388-0.603,0.593-0.824,0.965
			c-0.078,0.131-0.276,0.169-0.435,0.04C49.293,10.864,49.93,10.059,51.036,9.891z"/>
		<path class="st371" d="M48.644,11.654c0.621-0.083,0.749-0.784,1.259-1.006c0.011,0.214-0.034,0.393-0.249,0.502
			c-0.202,0.103-0.371,0.245-0.381,0.5c-0.014,0.091-0.066,0.157-0.141,0.207c-0.318,0.112-0.46,0.395-0.629,0.653
			c-0.035,0.05-0.076,0.093-0.122,0.132c-0.139,0.09-0.278,0.144-0.414-0.005c-0.029-0.124-0.033-0.246,0.049-0.355l0,0.001
			c0.169-0.167,0.337-0.335,0.503-0.504C48.56,11.738,48.602,11.696,48.644,11.654z"/>
		<path class="st372" d="M47.134,13.668c-0.037,0.497-0.247,0.866-0.754,1.013C46.635,14.346,46.691,13.863,47.134,13.668z"/>
		<path class="st372" d="M48.015,12.283c-0.001,0.125-0.003,0.251-0.004,0.376c-0.021,0.166-0.104,0.292-0.25,0.377
			c-0.125,0.086-0.25,0.171-0.376,0.257C47.35,12.803,47.815,12.626,48.015,12.283z"/>
		<path class="st372" d="M48.518,11.78c-0.036,0.3-0.205,0.466-0.503,0.504C48.05,11.984,48.219,11.816,48.518,11.78z"/>
		<path class="st373" d="M25.012,21.644c-0.841,1.364-1.478,2.727-1.79,4.211c-1.071,5.087,0.375,9.389,4.254,12.795
			c7.335,6.442,19.612,3.884,23.755-4.899c0.266-0.565,0.478-1.156,0.736-1.785c2.348,2.496,3.618,5.379,3.536,8.807
			c-0.025,1.051-0.183,2.084-0.417,3.109c-0.081,0.356-0.242,0.474-0.59,0.496c-4.61,0.292-9.217,0.343-13.831,0.056
			c-4.167-0.259-8.306-0.71-12.395-1.554c-5.136-1.06-10.139-2.509-14.657-5.277c-2.743-1.681-5.065-3.787-6.476-6.755
			c-0.71-1.494-1.026-3.062-0.734-4.702c0.381-2.139,1.767-3.543,3.517-4.674c0.815-0.527,1.656-0.782,2.649-0.769
			C16.704,20.758,20.816,21.104,25.012,21.644z"/>
		<path class="st343" d="M53.302,27.266c-2.439-2.139-5.189-3.774-8.168-5.038c-0.055-0.023-0.098-0.074-0.146-0.112
			c-0.134-0.527,0.177-0.949,0.41-1.341c0.647-1.087,0.948-2.321,1.567-3.42c0.779-1.382,1.575-2.752,2.392-4.111
			c0.462-0.767,1.035-1.411,1.737-1.957c1.122-0.873,2.57-0.366,2.834,1.04c0.3,1.6,0.459,3.213,0.448,4.85
			c-0.01,1.569,0.086,3.148-0.172,4.696c-0.247,1.488-0.342,2.988-0.547,4.477C53.615,26.671,53.58,27.023,53.302,27.266z"/>
		<path class="st374" d="M33.619,30.669c0.105-2.096,0.914-4.326,2.664-6.18c0.324-0.343,0.629-0.454,1.104-0.283
			c1.179,0.424,2.377,0.798,3.574,1.171c0.304,0.095,0.451,0.269,0.485,0.567c0.378,3.272-0.569,6.077-2.974,8.355
			c-0.254,0.241-0.572,0.428-0.887,0.587c-1.43,0.725-2.754,0.27-3.464-1.171C33.713,32.886,33.607,31.997,33.619,30.669z"/>
		<path class="st343" d="M37.069,19.56c-2.268-0.508-4.545-0.97-6.844-1.317c-0.322-0.049-0.675,0.059-0.969-0.159
			c0.019-0.023,0.038-0.047,0.056-0.07c0.341-0.137,0.604-0.361,0.807-0.671c1.048-1.599,2.357-2.99,3.601-4.429
			c0.443-0.512,0.962-0.992,1.567-1.344c0.062-0.031,0.125-0.052,0.192-0.068c0.272-0.022,0.528-0.123,0.801-0.142
			c0.99-0.071,1.641,0.422,1.692,1.417c0.111,2.152-0.079,4.283-0.633,6.373C37.293,19.318,37.204,19.453,37.069,19.56z"/>
		<path class="st375" d="M53.302,27.266c0.287-1.251,0.206-2.563,0.459-3.792c0.311-1.508,0.452-3.014,0.452-4.523
			c0-1.122,0.087-2.251-0.053-3.385c-0.081-0.653-0.086-1.352-0.174-1.999c-0.116-0.851-0.079-1.854-1.069-2.392
			c-0.588-0.32-1.082-0.24-1.563,0.111c-1.116,0.814-1.873,1.909-2.49,3.137c-0.461,0.917-1.101,1.745-1.555,2.666
			c-0.816,1.655-1.552,3.35-2.321,5.028c-0.317-0.084-0.631-0.176-0.907-0.364c0.53-0.666,0.669-1.518,1.052-2.24
			c0.795-1.5,1.354-3.124,2.423-4.489c0.439-0.561,0.665-1.29,1.054-1.912c0.576-0.921,1.325-1.656,2.212-2.267
			c0.659-0.496,1.437-0.605,2.199-0.486c0.811,0.127,1.245,0.798,1.556,1.499c0.292,0.658,0.335,1.385,0.384,2.089
			c0.099,1.414,0.187,2.828,0.19,4.25c0.003,1.255-0.3,2.494-0.143,3.75c0.018,0.148-0.031,0.29-0.063,0.433
			c-0.196,0.857-0.341,1.707-0.297,2.606c0.05,1.012-0.399,1.948-0.711,2.897C53.678,27.724,53.482,27.503,53.302,27.266z"/>
		<path class="st376" d="M28.496,18.055c0.009-0.083-0.013-0.211,0.032-0.242c0.618-0.433,0.855-1.142,1.259-1.727
			c0.545-0.789,1.174-1.542,1.831-2.195c0.68-0.675,1.198-1.548,2.132-2.006c0.534-0.262,0.968-0.751,1.547-0.986
			c0.526-0.188,1.035-0.421,1.613-0.426c1.339-0.012,2.343,0.855,2.416,2.188c0.073,1.324,0.057,2.639-0.095,3.973
			c-0.118,1.032-0.737,1.967-0.525,3.041c0.019,0.097-0.063,0.195-0.134,0.275c-0.169-0.044-0.338-0.089-0.507-0.133
			c-0.422-0.263-0.303-0.659-0.213-1.013c0.497-1.954,0.716-3.939,0.587-5.948c-0.093-1.452-1.302-2.319-2.944-1.455
			c-0.166,0.088-0.314,0.208-0.469,0.315c-1.206,0.493-1.956,1.512-2.792,2.431c-0.77,0.847-1.377,1.829-2.188,2.645
			c-0.355,0.357-0.425,0.908-0.802,1.258c0,0,0.009,0.035,0.009,0.035C29.002,18.074,28.749,18.065,28.496,18.055z"/>
		<path class="st355" d="M53.937,27.881c-0.044-0.47,0.075-0.911,0.236-1.346c0.232-0.629,0.376-1.268,0.269-1.948
			c-0.076-0.484,0.03-0.964,0.139-1.428c0.36-1.526,0.248-3.085,0.359-4.629c0.105-1.458-0.028-2.91-0.135-4.36
			c-0.049-0.662-0.118-1.327-0.289-1.975c-0.339-1.285-1.37-2.136-2.893-1.679c-0.339,0.102-0.458,0.511-0.838,0.508
			c-0.104-0.428,0.238-0.497,0.504-0.629c0,0,0,0,0,0c0.538,0.017,1.057-0.145,1.601-0.143c0.556,0.003,0.965,0.15,1.225,0.652
			c0.096,0.184,0.191,0.378,0.448,0.372c0.042,0.042,0.084,0.084,0.126,0.126c0.205,0.161,0.18,0.415,0.252,0.629l0,0
			c0.22,0.255,0.124,0.6,0.251,0.882c0,0.042,0.001,0.084,0.001,0.126c0.132,0.411,0.102,0.838,0.126,1.259c0,0.084,0,0.168,0,0.251
			c0.28,1.355,0.168,2.718,0.113,4.085c-0.046,1.156-0.258,2.308-0.114,3.47c-0.37,0.939-0.401,1.899-0.296,2.9
			c0.066,0.628-0.274,1.23-0.434,1.843c-0.113,0.434-0.074,0.917-0.394,1.287C54.107,28.049,54.022,27.965,53.937,27.881z"/>
		<path class="st370" d="M51.288,10.395c-0.212,0.175-0.417,0.354-0.504,0.629c-1.344,1.038-2.292,2.346-2.971,3.918
			c-0.244,0.564-0.676,1.117-1.049,1.656c-0.3,0.434-0.565,0.858-0.657,1.396c-0.085,0.5-0.529,0.834-0.727,1.283
			c-0.234,0.528-0.418,1.08-0.591,1.631c-0.122,0.39-0.396,0.627-0.707,0.845c-0.127-0.023-0.265-0.022-0.349-0.146
			c-0.24-0.362-0.009-0.66,0.184-0.907c0.396-0.508,0.652-1.069,0.765-1.692c0.124-0.682,0.661-1.141,0.911-1.756
			c0.092-0.228,0.176-0.463,0.287-0.685c0.385-0.325,0.745-0.638,0.885-1.181c0.176-0.682,0.928-1.08,1-1.84
			c0.174-0.359,0.408-0.68,0.629-1.009l0,0c0.249-0.254,0.462-0.544,0.752-0.756c0.043-0.043,0.086-0.085,0.129-0.128
			c0.451-0.067,0.686-0.458,0.953-0.736C50.54,10.588,50.865,10.428,51.288,10.395z"/>
		<path class="st377" d="M38.574,19.949c-0.049-0.809-0.016-1.564,0.36-2.353c0.226-0.474,0.155-1.156,0.239-1.746
			c0.158-1.11,0.081-2.245-0.024-3.353c-0.137-1.453-1.564-2.148-2.871-1.773c-0.322,0.092-0.635,0.214-0.98,0.173
			c0-0.043,0-0.085-0.001-0.128c0.495-0.139,0.856-0.568,1.393-0.627c1.284-0.141,2.507,0.692,2.945,1.947
			c0.192,0.549,0.296,1.044,0.105,1.624c-0.107,0.327-0.035,0.775,0.032,1.08c0.164,0.748-0.295,1.423-0.102,2.142
			c0.028,0.105-0.015,0.258-0.077,0.356c-0.535,0.849-0.317,1.869-0.638,2.765C38.829,20.021,38.701,19.985,38.574,19.949z"/>
		<path class="st349" d="M37.069,19.56c0.247-1.244,0.629-2.48,0.7-3.734c0.058-1.027,0.141-2.075,0.042-3.112
			c-0.088-0.925-0.767-1.369-1.77-1.153c-0.249,0.053-0.49,0.096-0.742,0.093c0.272-0.656,1.608-0.85,2.26-0.4
			c0.522,0.361,0.791,0.808,0.844,1.446c0.188,2.261-0.223,4.458-0.664,6.653c-0.025,0.126-0.078,0.238-0.173,0.328
			C37.399,19.641,37.234,19.601,37.069,19.56z"/>
		<path class="st378" d="M37.564,19.682c0.005-1.135,0.412-2.201,0.563-3.314c0.143-1.05,0.116-2.092,0.103-3.141
			c-0.002-0.145-0.038-0.293-0.018-0.434c0.075-0.545-0.065-1.043-0.541-1.303c-0.568-0.311-1.186-0.657-1.855-0.176
			c-0.168,0.12-0.345,0.227-0.518,0.34c0,0,0.001,0,0.001,0c-0.127,0.087-0.254,0.112-0.38-0.001
			c0.344-0.352,0.765-0.554,1.237-0.683c1.093-0.299,1.937,0.207,2.321,1.284c0.324,0.909,0.135,1.815,0.114,2.716
			c-0.018,0.773-0.185,1.563-0.273,2.318c-0.096,0.823-0.695,1.65-0.25,2.528C37.9,19.772,37.732,19.727,37.564,19.682z"/>
		<path class="st364" d="M45.879,16.565c-0.006,0.578-0.209,1.063-0.59,1.51c-0.232,0.272-0.348,0.637-0.445,0.998
			c-0.161,0.599-0.31,1.199-0.782,1.673c-0.208,0.209-0.352,0.522-0.329,0.859c-0.234-0.035-0.455-0.104-0.652-0.241
			c0.965-1.28,1.35-2.878,2.29-4.171C45.54,16.984,45.709,16.775,45.879,16.565z"/>
		<path class="st354" d="M35.046,52.321c0.288,0.64-0.145,1.184-0.245,1.77c-0.078,0.458-0.347,0.892-0.133,1.377
			c-0.285,0.334,0.017,0.798-0.253,1.135c-0.323-0.656-0.192-1.307,0.005-1.965c0.106-0.354,0.172-0.72,0.253-1.081
			C34.768,53.136,34.849,52.711,35.046,52.321z"/>
		<path class="st358" d="M34.291,53.076c-0.148-0.985-0.094-1.953,0.254-2.895C34.518,51.151,34.733,52.142,34.291,53.076z"/>
		<path class="st370" d="M55.317,22.104c-0.138-0.446-0.226-0.875-0.169-1.369c0.143-1.235,0.244-2.479,0.17-3.727
			c-0.031-0.514,0.267-1.055,0.046-1.517c-0.169-0.354-0.127-0.624-0.046-0.942c0.14,0.069,0.262,0.179,0.24,0.335
			c-0.117,0.846,0.118,1.676,0.076,2.535c-0.047,0.983-0.212,1.964-0.185,2.95C55.465,20.955,55.391,21.528,55.317,22.104z"/>
		<path class="st370" d="M55.317,14.298c-0.224-0.402-0.251-0.823-0.126-1.259C55.601,13.421,55.491,13.856,55.317,14.298z"/>
		<path class="st370" d="M55.191,12.913c-0.289-0.235-0.252-0.564-0.251-0.882C55.375,12.225,55.318,12.559,55.191,12.913z"/>
		<path class="st370" d="M54.94,12.031c-0.201-0.163-0.26-0.383-0.252-0.629C55.136,11.466,55.102,11.723,54.94,12.031z"/>
		<path class="st364" d="M48.393,12.535c-0.034,0.446-0.277,0.762-0.629,1.009c-0.001-0.169-0.001-0.339-0.002-0.508
			c0-0.181,0.085-0.305,0.25-0.377C48.138,12.618,48.266,12.577,48.393,12.535z"/>
		<path class="st364" d="M49.145,11.779c-0.13,0.372-0.385,0.62-0.752,0.756C48.535,12.176,48.631,11.77,49.145,11.779z"/>
		<path class="st349" d="M34.918,11.653c0.127,0,0.254,0.001,0.38,0.001c-2.008,1.763-3.675,3.822-5.209,5.997
			c-0.206,0.292-0.451,0.501-0.843,0.398c0.186-0.618,0.493-1.147,0.943-1.632c0.66-0.711,1.203-1.529,1.849-2.254
			C32.89,13.208,33.59,12.066,34.918,11.653z"/>
	</g>
</g>
</svg>
