<?xml version="1.0" encoding="utf-8"?>
<!-- Generator: Adobe Illustrator 26.4.1, SVG Export Plug-In . SVG Version: 6.00 Build 0)  -->
<svg version="1.1" id="Symbols" xmlns="http://www.w3.org/2000/svg" xmlns:xlink="http://www.w3.org/1999/xlink" x="0px" y="0px"
	 viewBox="0 0 64 64" style="enable-background:new 0 0 64 64;" xml:space="preserve">
<style type="text/css">
	.st0{fill:#DD5205;}
	.st1{fill-rule:evenodd;clip-rule:evenodd;fill:#FFFFFF;}
</style>
<g id="Symmetric">
	<circle class="st0" cx="32" cy="32" r="31.5"/>
	<path class="st1" d="M48.5,18.2c0,0-0.3-0.3-1.7-0.3s-17,0-17,0l3.5-6.5c0,0,5.5,0,7.7,0c2.3,0,3.8,0.8,5.3,3.2
		C47.5,16.3,47.8,16.9,48.5,18.2z"/>
	<path class="st1" d="M27.3,11.3c0,0-7.9,14-8.8,15.7S17,29.1,17,30.7s0.3,3.9,3.7,3.8c0,0,16.5,0,18,0c1.3,0,1.7,0.2,1.7,0.7
		c-0.3,0.9-0.8,1.7-1.3,2.5c-0.3,0.5-0.7,1.1-1,1.7c-0.5,0.8-0.8,1.5-1.8,1.5c0,0-18.7,0-20.7,0c-2.4,0-3.3-0.4-4.8-3.2
		s-1.8-3-1.8-5s0.5-2.5,1.8-4.8s5.8-10.2,7.5-13s3.5-3.5,5.8-3.5L27.3,11.3L27.3,11.3z"/>
	<path id="Shape_7_copy" class="st1" d="M15.5,45.8c0,0,0.3,0.3,1.7,0.3s17,0,17,0l-3.5,6.5c0,0-5.5,0-7.7,0c-2.3,0-3.8-0.8-5.3-3.2
		C16.5,47.7,16.2,47.1,15.5,45.8z"/>
	<path id="Shape_8_copy" class="st1" d="M36.7,52.7c0,0,7.9-14,8.8-15.7s1.5-2.1,1.5-3.7s-0.3-3.9-3.7-3.8c0,0-16.5,0-18,0
		c-1.3,0-1.7-0.2-1.7-0.7c0.3-0.9,0.8-1.7,1.3-2.5c0.3-0.5,0.7-1.1,1-1.7c0.5-0.8,0.8-1.5,1.8-1.5c0,0,18.7,0,20.7,0
		c2.4,0,3.3,0.4,4.8,3.2s1.8,3,1.8,5s-0.5,2.5-1.8,4.8s-5.8,10.2-7.5,13s-3.5,3.5-5.8,3.5L36.7,52.7L36.7,52.7z"/>
</g>
</svg>
