<svg id="Symbols" xmlns="http://www.w3.org/2000/svg" xmlns:xlink="http://www.w3.org/1999/xlink" viewBox="0 0 64 64"><defs><style>.cls-1{fill:#294661;}.cls-2{fill:url(#Unbenannter_Verlauf_3);}.cls-3{fill:#c5c2c6;}</style><linearGradient id="Unbenannter_Verlauf_3" x1="7.75337" y1="33.1358" x2="48.859" y2="33.1358" gradientTransform="matrix(1, 0, 0, -1, 0, 65)" gradientUnits="userSpaceOnUse"><stop offset="0" stop-color="#6194c3"/><stop offset="1" stop-color="#b5cbe2"/></linearGradient></defs><g id="Ricochet"><circle class="cls-1" cx="32" cy="32" r="31.54191"/><g id="Gradient"><path id="Burn" class="cls-2" d="M38.92269,21.80992l-19.5334-.04157,4.84678,3.81844L7.75337,31.74914l16.66582,6.30577-4.82934,3.90514,19.33284-.27749A9.9363,9.9363,0,0,0,48.859,31.74625C48.859,25.80362,43.38668,21.76835,38.92269,21.80992Zm0,17.68726a7.751,7.751,0,1,1,7.751-7.751A7.75095,7.75095,0,0,1,38.92269,39.49718Z"/><path class="cls-3" d="M37.30293,36.64108H35.51286V31.13974s1.79035.117,1.79035,1.17919Z"/><path class="cls-3" d="M35.61353,25.77788h4.37162c1.24131,0,3.47429.4225,3.47429,3.37967a3.02077,3.02077,0,0,1-2.89677,3.13836l2.73657,4.34517h-1.809l-2.37534-3.74177V31.13974s2.59506.37159,2.59506-2.042A1.77457,1.77457,0,0,0,39.898,27.28581l-3.37966-.1205A1.35028,1.35028,0,0,1,35.61353,25.77788Z"/></g></g></svg>