<?xml version="1.0" encoding="utf-8"?>
<!-- Generator: Adobe Illustrator 27.4.1, SVG Export Plug-In . SVG Version: 6.00 Build 0)  -->
<svg version="1.1" id="Symbols" xmlns="http://www.w3.org/2000/svg" xmlns:xlink="http://www.w3.org/1999/xlink" x="0px" y="0px"
	 viewBox="0 0 64 64" style="enable-background:new 0 0 64 64;" xml:space="preserve">
<style type="text/css">
	.st0{fill:#FFFFFF;}
	.st1{fill:#333132;}
	.st2{fill:#3981C3;}
</style>
<path class="st0" d="M32,0.7C14.7,0.7,0.7,14.7,0.7,32s14,31.3,31.3,31.3s31.3-14,31.3-31.3l0,0C63.3,14.7,49.3,0.7,32,0.7z"/>
<g>
	<path class="st1" d="M34.9,43.7l-7.4-7.4c-1.2-1.2-1.9-2.8-1.9-4.4l0,0c0-1.6,0.6-3.2,1.7-4.3l0,0l0.1-0.1l0,0l2.1-2.1l0,0l-3-3
		c-1.1-1.1-1.7-2.6-1.7-4.2l-3.3,3.3c-2.8,2.7-4.3,6.4-4.3,10.3l0,0l0,0l0,0l0,0l0,0c0,3.9,1.6,7.6,4.3,10.3l7.4,7.4
		c1.6,1.6,4.3,1.7,6,0C36.6,47.9,36.6,45.3,34.9,43.7L34.9,43.7L34.9,43.7z"/>
	<path class="st2" d="M38.3,31.9c0,1.6-0.6,3.2-1.7,4.3l0,0l-2.2,2.2l0,0l3,3c1.1,1.1,1.7,2.6,1.7,4.2l3.3-3.3
		c2.7-2.7,4.3-6.4,4.3-10.3l0,0v-0.1l0,0v-0.1l0,0c0-3.9-1.6-7.5-4.3-10.3L35,14.1c-1.8-1.4-4.4-1.2-5.9,0.6c-1.2,1.5-1.2,3.7,0,5.2
		l3,3l1.9,1.9l2.6,2.6C37.6,28.6,38.3,30.2,38.3,31.9L38.3,31.9z"/>
</g>
</svg>
