<?xml version="1.0" encoding="utf-8"?>
<!-- Generator: Adobe Illustrator 28.0.0, SVG Export Plug-In . SVG Version: 6.00 Build 0)  -->
<svg version="1.1" id="Symbols" xmlns="http://www.w3.org/2000/svg" xmlns:xlink="http://www.w3.org/1999/xlink" x="0px" y="0px"
	 viewBox="0 0 64 64" style="enable-background:new 0 0 64 64;" xml:space="preserve">
<style type="text/css">
	.st0{fill:#FFFFFF;}
</style>
<path class="st0" d="M32,0.7C14.7,0.7,0.7,14.7,0.7,32s14,31.3,31.3,31.3s31.3-14,31.3-31.3l0,0C63.3,14.7,49.3,0.7,32,0.7z"/>
<g id="Revoke">
	<path id="Shield" d="M48.79,18.996c0-0.748,0.215-1.862-0.296-2.477c-0.703-0.847-1.998-0.308-2.906-0.205
		c-2.27,0.256-4.574,0.142-6.797-0.413c-1.532-0.383-2.978-0.968-4.379-1.692c-0.681-0.352-1.4-1.042-2.222-0.864
		c-0.406,0.088-0.749,0.348-1.111,0.538c-0.708,0.371-1.413,0.736-2.157,1.033c-1.992,0.797-4.073,1.261-6.209,1.408
		c-0.846,0.058-1.703,0.113-2.549,0.013c-0.39-0.046-0.784-0.047-1.176-0.094c-0.92-0.11-2.146-0.529-2.68,0.533
		c-0.304,0.605-0.131,1.56-0.131,2.222v5.032c0,2.406-0.148,4.865,0.149,7.255c0.714,5.74,3.792,11.067,8.216,14.754
		c1.792,1.493,3.73,2.779,5.817,3.823c0.694,0.347,1.609,0.972,2.418,0.8c0.675-0.144,1.347-0.558,1.961-0.865
		c1.461-0.73,2.875-1.594,4.183-2.573c4.811-3.603,8.435-8.712,9.514-14.697c0.442-2.448,0.354-4.908,0.354-7.385L48.79,18.996
		L48.79,18.996z M46.005,32.101c-0.948,5.259-4.018,9.691-8.26,12.867c-1.102,0.825-2.298,1.564-3.529,2.181
		c-0.492,0.246-1.034,0.59-1.569,0.725c-0.263,0.067-0.485-0.059-0.719-0.163c-0.421-0.185-0.831-0.389-1.242-0.595
		c-1.909-0.955-3.714-2.206-5.294-3.639c-3.194-2.897-5.603-6.767-6.377-11.05c-0.457-2.53-0.355-5.085-0.355-7.647v-4.248v-1.242
		c0-0.18-0.03-0.405,0.049-0.573c0.147-0.314,0.604-0.196,0.867-0.146c0.861,0.164,1.741,0.196,2.614,0.196
		c2.487,0,4.855-0.381,7.189-1.27c0.719-0.274,1.409-0.617,2.091-0.969c0.277-0.143,0.55-0.359,0.85-0.452
		c0.275-0.085,0.494,0.083,0.719,0.219c0.341,0.207,0.693,0.404,1.046,0.59c1.372,0.724,2.872,1.216,4.379,1.562
		c1.832,0.421,3.754,0.489,5.621,0.308c0.503-0.049,1.002-0.142,1.503-0.212c0.192-0.027,0.45-0.079,0.605,0.076
		c0.135,0.135,0.113,0.365,0.114,0.54l0,1.372v5.49C46.307,28.06,46.368,30.089,46.005,32.101z"/>
	<path id="Left" d="M31.223,17.587c-0.724,0.362-1.495,0.689-2.263,0.945c-2.219,0.74-4.64,1.157-6.983,1.055
		c-0.802-0.035-1.596-0.155-2.392-0.256v7.241c0,1.915-0.056,3.799,0.298,5.69c1.25,6.671,6.444,12.202,12.633,14.741v-2.287
		l-7.34-11.022l7.34,4.62V36.83l-7.34-4.62l7.34-12.984v-2.287C32.064,17.103,31.653,17.373,31.223,17.587z"/>
	<path id="Right" d="M32.516,32.25v4.581l7.34-4.62l-7.34-12.984V32.25z M32.516,38.314l7.34-4.62l-7.34,11.023
		C32.516,42.583,32.516,40.448,32.516,38.314L32.516,38.314z"/>
</g>
</svg>
