<?xml version="1.0" encoding="utf-8"?>
<!-- Generator: Adobe Illustrator 26.5.0, SVG Export Plug-In . SVG Version: 6.00 Build 0)  -->
<svg version="1.1" id="Symbols" xmlns="http://www.w3.org/2000/svg" xmlns:xlink="http://www.w3.org/1999/xlink" x="0px" y="0px"
	 viewBox="0 0 64 64" style="enable-background:new 0 0 64 64;" xml:space="preserve">
<style type="text/css">
	.st0{fill:#FFFFFF;filter:url(#Adobe_OpacityMaskFilter);}
	.st1{mask:url(#mask0_112_7146_00000008845039539712777760000007286939943601532295_);}
	.st2{fill-rule:evenodd;clip-rule:evenodd;fill:#FFFFFF;}
	.st3{fill-rule:evenodd;clip-rule:evenodd;fill:#94A6C3;}
	.st4{fill-rule:evenodd;clip-rule:evenodd;fill:#1B314F;}
	.st5{fill-rule:evenodd;clip-rule:evenodd;fill:#FFD923;}
	.st6{fill-rule:evenodd;clip-rule:evenodd;fill:#D82122;}
	.st7{fill:#40649F;}
	.st8{fill:#0000FF;}
	.st9{fill:#0028FF;}
	.st10{fill:#0018FF;}
	.st11{fill:#0000F1;}
	.st12{fill:#0000DA;}
	.st13{fill:#0058FF;}
	.st14{fill:#0048FF;}
	.st15{fill:#0014FF;}
	.st16{fill:#0000E8;}
	.st17{fill:#0000C4;}
	.st18{fill:#003CFF;}
	.st19{fill:#0008FF;}
	.st20{fill:#0000C8;}
	.st21{fill:#0090FF;}
	.st22{fill:#0084FF;}
	.st23{fill:#0068FF;}
	.st24{fill:#0000F6;}
	.st25{fill:#0000D1;}
	.st26{fill:#0000AD;}
	.st27{fill:#0000BB;}
	.st28{fill:#009CFF;}
	.st29{fill:#0078FF;}
	.st30{fill:#0000ED;}
	.st31{fill:#00CCFF;}
	.st32{fill:#002CFF;}
	.st33{fill:#00C4FF;}
	.st34{fill:#0050FF;}
	.st35{fill:#0000A4;}
	.st36{fill:#0000B6;}
	.st37{fill:#0000D6;}
	.st38{fill:#0004FF;}
	.st39{fill:#0000BF;}
	.st40{fill:#00D8FF;}
	.st41{fill:#0034FF;}
	.st42{fill:#00009F;}
	.st43{fill:#00BCFF;}
	.st44{fill:#23FFD4;}
	.st45{fill:#00ACFF;}
	.st46{fill:#1CFFDB;}
	.st47{fill:#0070FF;}
	.st48{fill:#000096;}
	.st49{fill:#26FFD1;}
	.st50{fill:#0044FF;}
	.st51{fill:#00E0FB;}
	.st52{fill:#0064FF;}
	.st53{fill:#19FFDE;}
	.st54{fill:#001CFF;}
	.st55{fill:#0000A8;}
	.st56{fill:#5AFF9D;}
	.st57{fill:#008CFF;}
	.st58{fill:#00B8FF;}
	.st59{fill:#00009B;}
	.st60{fill:#000092;}
	.st61{fill:#000CFF;}
	.st62{fill:#5DFF9A;}
	.st63{fill:#2CFFCA;}
	.st64{fill:#56FFA0;}
	.st65{fill:#000089;}
	.st66{fill:#006CFF;}
	.st67{fill:#16FFE1;}
	.st68{fill:#06ECF1;}
	.st69{fill:#94FF63;}
	.st70{fill:#0024FF;}
	.st71{fill:#005CFF;}
	.st72{fill:#0000DF;}
	.st73{fill:#0038FF;}
	.st74{fill:#90FF66;}
	.st75{fill:#00008D;}
	.st76{fill:#0030FF;}
	.st77{fill:#00A0FF;}
	.st78{fill:#33FFC4;}
	.st79{fill:#00B0FF;}
	.st80{fill:#00C8FF;}
	.st81{fill:#CAFF2C;}
	.st82{fill:#0000CD;}
	.st83{fill:#CEFF29;}
	.st84{fill:#C7FF30;}
	.st85{fill:#60FF97;}
	.st86{fill:#0040FF;}
	.st87{fill:#000080;}
	.st88{fill:#0FF8E7;}
	.st89{fill:#0060FF;}
	.st90{fill:#0054FF;}
	.st91{fill:#0074FF;}
	.st92{fill:#C1FF36;}
	.st93{fill:#000084;}
	.st94{fill:#97FF60;}
	.st95{fill:#004CFF;}
	.st96{fill:#D1FF26;}
	.st97{fill:#36FFC1;}
	.st98{fill:#8DFF6A;}
	.st99{fill:#FFEA00;}
	.st100{fill:#FBF100;}
	.st101{fill:#0080FF;}
	.st102{fill:#FFE200;}
	.st103{fill:#53FFA4;}
	.st104{fill:#007CFF;}
	.st105{fill:#63FF94;}
	.st106{fill:#0000FA;}
	.st107{fill:#F1FC06;}
	.st108{fill:#BEFF39;}
	.st109{fill:#D4FF23;}
	.st110{fill:#FFDB00;}
	.st111{fill:#0094FF;}
	.st112{fill:#FFB200;}
	.st113{fill:#13FCE4;}
	.st114{fill:#FFBD00;}
	.st115{fill:#0020FF;}
	.st116{fill:#FFA700;}
	.st117{fill:#3CFFBA;}
	.st118{fill:#00D0FF;}
	.st119{fill:#00A4FF;}
	.st120{fill:#EBFF0C;}
	.st121{fill:#FFC800;}
	.st122{fill:#00DCFE;}
	.st123{fill:#B7FF40;}
	.st124{fill:#FFD700;}
	.st125{fill:#FF7A00;}
	.st126{fill:#FF9C00;}
	.st127{fill:#FF8900;}
	.st128{fill:#00E4F8;}
	.st129{fill:#D7FF1F;}
	.st130{fill:#02E8F4;}
	.st131{fill:#FF6F00;}
	.st132{fill:#FF9800;}
	.st133{fill:#00A8FF;}
	.st134{fill:#1FFFD7;}
	.st135{fill:#E1FF16;}
	.st136{fill:#0CF4EB;}
	.st137{fill:#FF6000;}
	.st138{fill:#43FFB4;}
	.st139{fill:#FF4E00;}
	.st140{fill:#FFAB00;}
	.st141{fill:#FF9400;}
	.st142{fill:#FF6400;}
	.st143{fill:#50FFA7;}
	.st144{fill:#4DFFAA;}
	.st145{fill:#B4FF43;}
	.st146{fill:#00D4FF;}
	.st147{fill:#FF3F00;}
	.st148{fill:#FFD300;}
	.st149{fill:#49FFAD;}
	.st150{fill:#66FF90;}
	.st151{fill:#09F0EE;}
	.st152{fill:#FF3B00;}
	.st153{fill:#FF8600;}
	.st154{fill:#46FFB1;}
	.st155{fill:#FF2900;}
	.st156{fill:#80FF77;}
	.st157{fill:#FFB900;}
	.st158{fill:#8AFF6D;}
	.st159{fill:#29FFCE;}
	.st160{fill:#FF3000;}
	.st161{fill:#FF5900;}
	.st162{fill:#0098FF;}
	.st163{fill:#FF1600;}
	.st164{fill:#00B4FF;}
	.st165{fill:#FF9100;}
	.st166{fill:#39FFBE;}
	.st167{fill:#FF2200;}
	.st168{fill:#ADFF49;}
	.st169{fill:#FF3800;}
	.st170{fill:#F60B00;}
	.st171{fill:#00C0FF;}
	.st172{fill:#FFCC00;}
	.st173{fill:#AAFF4D;}
	.st174{fill:#BAFF3C;}
	.st175{fill:#FFD000;}
	.st176{fill:#F10800;}
	.st177{fill:#DF0000;}
	.st178{fill:#E4FF13;}
	.st179{fill:#FA0F00;}
	.st180{fill:#FF2500;}
	.st181{fill:#DBFF1C;}
	.st182{fill:#0000B2;}
	.st183{fill:#A7FF50;}
	.st184{fill:#FF5500;}
	.st185{fill:#30FFC7;}
	.st186{fill:#ED0400;}
	.st187{fill:#FF1E00;}
	.st188{fill:#C80000;}
	.st189{fill:#CD0000;}
	.st190{fill:#D10000;}
	.st191{fill:#A4FF53;}
	.st192{fill:#FF8D00;}
	.st193{fill:#FFB600;}
	.st194{fill:#E40000;}
	.st195{fill:#FFC100;}
	.st196{fill:#F8F500;}
	.st197{fill:#FF7E00;}
	.st198{fill:#83FF73;}
	.st199{fill:#FFC400;}
	.st200{fill:#40FFB7;}
	.st201{fill:#6AFF8D;}
	.st202{fill:#FF1300;}
	.st203{fill:#D60000;}
	.st204{fill:#FF4300;}
	.st205{fill:#FF6C00;}
	.st206{fill:#BB0000;}
	.st207{fill:#FF4700;}
	.st208{fill:#FFA300;}
	.st209{fill:#FF5200;}
	.st210{fill:#B20000;}
	.st211{fill:#A0FF56;}
	.st212{fill:#FF8200;}
	.st213{fill:#87FF70;}
	.st214{fill:#E7FF0F;}
	.st215{fill:#FF5D00;}
	.st216{fill:#FF3400;}
	.st217{fill:#BF0000;}
	.st218{fill:#FF6800;}
	.st219{fill:#7DFF7A;}
	.st220{fill:#FFE600;}
	.st221{fill:#FF7300;}
	.st222{fill:#A40000;}
	.st223{fill:#DA0000;}
	.st224{fill:#9DFF5A;}
	.st225{fill:#E80000;}
	.st226{fill:#FFAE00;}
	.st227{fill:#DEFF19;}
	.st228{fill:#9F0000;}
	.st229{fill:#A80000;}
	.st230{fill:#FEED00;}
	.st231{fill:#FF1A00;}
	.st232{fill:#C4FF33;}
	.st233{fill:#B60000;}
	.st234{fill:#9AFF5D;}
	.st235{fill:#960000;}
	.st236{fill:#F4F802;}
	.st237{fill:#EEFF09;}
	.st238{fill:#FF9F00;}
	.st239{fill:#FFDE00;}
	.st240{fill:#6DFF8A;}
	.st241{fill:#B1FF46;}
	.st242{fill:#890000;}
	.st243{fill:#FF2D00;}
	.st244{fill:#9B0000;}
	.st245{fill:#8D0000;}
	.st246{fill:#0010FF;}
	.st247{fill:#0000E3;}
	.st248{fill:#800000;}
	.st249{fill:#840000;}
	.st250{fill:#920000;}
	.st251{fill:#0088FF;}
	.st252{fill:#AD0000;}
	.st253{fill:#FF4A00;}
	.st254{fill:#C40000;}
	.st255{fill:#FF7700;}
	.st256{fill:url(#SVGID_1_);}
	.st257{fill:#FFFFFF;}
	.st258{fill:#357A6E;}
	.st259{fill-rule:evenodd;clip-rule:evenodd;fill:#2081E2;}
	.st260{opacity:0.3;}
	.st261{fill:#909090;}
	.st262{fill-rule:evenodd;clip-rule:evenodd;fill:#633001;}
	.st263{fill-rule:evenodd;clip-rule:evenodd;fill:#FEDC90;}
	.st264{fill-rule:evenodd;clip-rule:evenodd;fill:#D1884F;}
	.st265{fill:#005EDE;}
	.st266{fill:#294661;}
	.st267{fill:url(#Burn_00000047055902171064558330000004318670494666263685_);}
	.st268{fill:#C5C2C6;}
	.st269{fill-rule:evenodd;clip-rule:evenodd;fill:#12141E;}
	.st270{fill:#FFFFFF;filter:url(#Adobe_OpacityMaskFilter_00000052071584081780929540000008091185372487378308_);}
	.st271{mask:url(#mask0_112_10953_00000092452469575815252120000016433094664549502848_);}
	.st272{fill-rule:evenodd;clip-rule:evenodd;fill:#94FEBF;}
	.st273{fill:#FF007A;}
	.st274{fill-rule:evenodd;clip-rule:evenodd;fill:#FF007A;}
	.st275{fill:#253743;}
	.st276{fill-rule:evenodd;clip-rule:evenodd;fill:#FB6706;}
	.st277{fill:#FAD910;}
	.st278{fill:#FEDC10;}
	.st279{fill:#7CDFD4;}
	.st280{fill:#7CDFD5;}
	.st281{fill:#313838;}
	.st282{fill:#2D3538;}
	.st283{fill:#323A3D;}
	.st284{fill:#32393C;}
	.st285{fill:#2D3537;}
	.st286{opacity:0.5;fill-rule:evenodd;clip-rule:evenodd;fill:#FFFFFF;}
	.st287{fill:#FCFCFC;}
	.st288{fill:#AEB4BE;}
	.st289{fill:#3B382C;}
	.st290{fill:#3B3829;}
	.st291{fill:#5D5D5D;}
	.st292{fill:#575757;}
	.st293{fill:#282828;}
	.st294{fill:#1E1E1E;}
	.st295{fill:#CDB141;}
	.st296{fill:#D3B743;}
	.st297{fill-rule:evenodd;clip-rule:evenodd;fill:#0097A7;}
	.st298{fill:#4189C9;}
	.st299{fill:#262F71;}
	.st300{fill:#161F42;}
	.st301{fill:#5C94CE;}
	.st302{fill:#6497D0;}
	.st303{fill:#689AD1;}
	.st304{fill:#4E8FCC;}
	.st305{fill:#5591CD;}
	.st306{fill:#418AC9;}
	.st307{fill:#468CCA;}
	.st308{fill:#488DCA;}
	.st309{fill:#428AC9;}
	.st310{fill:#182144;}
	.st311{fill:#458CCA;}
	.st312{fill:#263154;}
	.st313{fill:#424A7F;}
	.st314{fill:#5A5D76;}
	.st315{fill:#4F668A;}
	.st316{fill:#555A73;}
	.st317{fill:#6D9CD2;}
	.st318{fill:#729FD4;}
	.st319{fill:#78A2D5;}
	.st320{fill:#7DA5D6;}
	.st321{fill:#81A7D8;}
	.st322{fill:#0E1F66;}
	.st323{fill:#699AD1;}
	.st324{fill:#88ABD9;}
	.st325{fill:url(#SVGID_00000080168237164394183970000010608641286007124123_);}
	.st326{fill:url(#SVGID_00000119838129066904707910000006301235304519269025_);}
	.st327{fill:url(#SVGID_00000103245055769334329060000004258462732213384350_);}
	.st328{fill:url(#SVGID_00000080174730280945584550000004274640906472423572_);}
	.st329{fill:url(#SVGID_00000051370424771910363990000012188777972766108813_);}
	.st330{fill:url(#SVGID_00000006693538819567060210000003141293027589471408_);}
	.st331{fill:url(#SVGID_00000142169364610930528960000009614729154513199493_);}
	.st332{fill:url(#SVGID_00000046320232687425953220000008503746020184214968_);}
	.st333{fill:url(#SVGID_00000179647328412847962160000006546631298557527465_);}
	.st334{fill:url(#SVGID_00000181049819309570599650000001671954871492225171_);}
	.st335{fill:url(#SVGID_00000149378942721698093590000015554791439726715312_);}
	.st336{fill:url(#SVGID_00000026160840250663107190000007650106355863016860_);}
	.st337{fill:url(#SVGID_00000117639143796151791670000001075479139406321850_);}
	.st338{fill:#F5A676;}
	.st339{fill:url(#SVGID_00000047744328309493816280000005811435207593836953_);}
	.st340{fill:url(#SVGID_00000069383398686128948640000007059302857838719882_);}
	.st341{fill:url(#SVGID_00000103248330146891650410000013178316201994646412_);}
	.st342{fill:#BC423E;}
	.st343{fill:#343738;}
	.st344{fill:#59C6F2;}
	.st345{fill:#FEDA03;}
	.st346{fill:#33363F;}
	.st347{fill:#FFE804;}
	.st348{fill:#211F24;}
	.st349{fill:#F2AF4E;}
	.st350{fill-rule:evenodd;clip-rule:evenodd;fill:#6441D2;}
	.st351{fill:#F1716A;}
	.st352{fill:#A14741;}
	.st353{fill:#D5D5D5;}
	.st354{fill:#DA5B54;}
	.st355{fill:#876B59;}
	.st356{fill:#BC957F;}
	.st357{fill:#888888;}
	.st358{fill:#3C1A26;}
	.st359{fill:#29121A;}
	.st360{fill:#886B59;}
	.st361{fill:#BD957E;}
	.st362{fill:#9F3D5C;}
	.st363{fill:#C55362;}
	.st364{fill:#9C4052;}
	.st365{fill:#2D141D;}
	.st366{fill:#BE967F;}
	.st367{fill:#AC3D52;}
	.st368{fill:#A7395B;}
	.st369{fill:#B64866;}
	.st370{fill:#C4505F;}
	.st371{fill:#C65163;}
	.st372{fill:#AF3C54;}
	.st373{fill:#C55062;}
	.st374{fill:#B9486D;}
	.st375{fill:#C77576;}
	.st376{fill:#C67274;}
	.st377{fill:#B03C56;}
	.st378{fill:#CA757C;}
	.st379{fill:#AD7262;}
	.st380{fill:#A24742;}
	.st381{fill:#903341;}
	.st382{fill:#9D413F;}
	.st383{fill:#D85A54;}
	.st384{fill:#8A2E39;}
	.st385{fill:#FDFDFD;}
	.st386{fill:#483138;}
	.st387{fill:#FAF9F9;}
	.st388{fill:#4B333A;}
	.st389{fill:#30181D;}
	.st390{fill:#9A3D58;}
	.st391{fill:#AF3C53;}
	.st392{fill:#C55060;}
	.st393{fill:#DA8573;}
	.st394{fill:#A5394D;}
	.st395{fill:#B36B72;}
	.st396{fill:#D85D56;}
	.st397{fill:#C24E5E;}
	.st398{fill:#D45C55;}
	.st399{fill:#D55953;}
	.st400{fill:#D88170;}
	.st401{fill:#8D2F4D;}
	.st402{fill:#A66168;}
	.st403{fill:#923545;}
	.st404{fill:#AC7364;}
	.st405{fill:#AB696E;}
	.st406{fill:#C0504B;}
	.st407{fill:#A14642;}
	.st408{fill:#C97F6C;}
	.st409{fill:#BF5550;}
	.st410{fill:#C2524C;}
	.st411{fill:#A74E47;}
	.st412{fill:#B64767;}
	.st413{fill:#C87577;}
	.st414{fill:#D65953;}
	.st415{fill:#B17664;}
	.st416{fill:#DA8673;}
	.st417{fill:#B34146;}
</style>
<path id="Head_00000088098526227724906220000015026353214469287087_" class="st2" d="M32,0.5221
	C14.6133,0.5221,0.5221,14.6133,0.5221,32S14.6133,63.4779,32,63.4779S63.4779,49.3867,63.4779,32S49.3867,0.5221,32,0.5221z"/>
<g>
	<path class="st351" d="M12.4839,14.9876c0.0674-0.3303,0.3742-0.4101,0.6069-0.5442c5.9201-3.4127,11.8475-6.8127,17.7628-10.2336
		c0.4592-0.2655,0.7901-0.2891,1.2688-0.0096c5.847,3.4136,11.7107,6.7986,17.5665,10.1973
		c0.2582,0.1498,0.6114,0.2194,0.6601,0.6067c-1.156,0.9428-2.502,1.584-3.7843,2.3148c-4.7134,2.6863-9.3999,5.4189-14.1102,8.1102
		c-0.326,0.1863-0.6282,0.4292-1.0172,0.4877c-0.9755-0.1442-1.6947-0.8138-2.5041-1.2753
		c-5.2531-2.9953-10.4645-6.0633-15.697-9.0947C12.9624,15.3882,12.6852,15.2407,12.4839,14.9876z"/>
	<path class="st352" d="M12.4839,14.9876c1.9985,0.8498,3.7869,2.0784,5.6599,3.1527c4.43,2.5409,8.8431,5.1111,13.2631,7.6694
		c0.2619,0.2332,0.2964,0.5522,0.2958,0.8673c-0.0036,1.9849,0.0801,3.9707-0.0431,5.9527
		c-0.0211,0.1036-0.0614,0.2023-0.1162,0.2929c-0.2447,0.2771-0.5159,0.1618-0.7656,0.0232
		c-2.3901-1.3265-4.7368-2.7282-7.0993-4.1026c-0.164-0.0954-0.2565-0.2744-0.3935-0.4036
		c-0.6991-0.4369-1.3982-0.8737-2.0973-1.3106c-0.9958-0.1348-1.741-0.7904-2.587-1.2388
		c-1.8323-0.9711-3.5502-2.1414-5.3971-3.0863c-0.2874-0.147-0.5023-0.3718-0.7077-0.6107
		C12.4919,19.7913,12.4879,17.3895,12.4839,14.9876z"/>
	<path class="st353" d="M31.2337,45.6702c0.7093-0.0065,1.2104-0.5011,1.766-0.8171c5.475-3.1138,10.9283-6.2659,16.3898-9.4035
		c0.7735-0.4444,1.4334-1.131,2.4052-1.1826c0.2095,1.2812,0.1476,2.455-0.8391,3.4224c-0.2095,0.2054-0.4234,0.4731-0.4396,0.814
		c-0.9012,1.2394-1.5957,2.6587-3.005,3.4559c-0.0947,0.0739-0.1855,0.1527-0.2655,0.2429
		c-0.1925,0.2555-0.3721,0.5205-0.5708,0.7714c-0.3507,0.4606-0.6022,0.9916-1.0042,1.416
		c-0.3158,0.2117-0.6386-0.1277-0.9537,0.0169c-0.3758,0.3384-0.5847,0.7878-0.8254,1.2159
		c-0.483,0.684-0.8457,1.4547-1.4686,2.0384c-0.1249,0.0632-0.258,0.0909-0.3972,0.0933c-0.2785-0.0046-0.528-0.1127-0.7786-0.2171
		c-0.4357-0.1624-0.8542-0.3833-1.3338-0.3871c-0.3544,0.2275-0.4096,0.7131-0.7913,0.9161
		c-0.3344,0.1414-0.6757,0.0959-1.003-0.0002c-0.5708-0.1677-1.0968-0.1071-1.5897,0.2299
		c-0.2399,0.0682-0.4802,0.0588-0.7212,0.0109c-0.3275-0.0834-0.6605-0.1235-0.9987-0.1204
		c-0.5605-0.0719-1.1151-0.1864-1.6786-0.2335c-0.3621-0.1158-0.6877-0.0096-1.0017,0.1704
		c-0.2328,0.0951-0.4658,0.1751-0.7089,0.0311C30.9963,47.3533,31.1083,46.5122,31.2337,45.6702z"/>
	<path class="st354" d="M31.4267,32.9792c-0.0065-2.3899-0.013-4.7799-0.0197-7.1696c2.654-1.5435,5.3053-3.092,7.963-4.6295
		c3.3673-1.948,6.7383-3.8896,10.1129-5.8248c0.2677-0.1535,0.5764-0.2358,0.866-0.3511c0.0563,2.3968,0.0945,4.7936-0.0029,7.1904
		c-0.4801,0.6617-1.2436,0.8912-1.9175,1.2585c-0.8142,0.0027-1.3763-0.573-2.0145-0.9369
		c-0.5835-0.3326-1.0835-0.3443-1.6887-0.1263c-2.9247,1.053-5.6014,2.5277-7.9546,4.5707
		c-0.3588,0.3116-0.6906,0.6422-0.8432,1.1101c-0.182,0.8319,0.0514,1.6928-0.1802,2.5198
		C34.4683,31.6764,33.0813,32.5699,31.4267,32.9792z"/>
	<path class="st355" d="M12.496,22.1932c2.6363,1.296,5.0863,2.9196,7.6475,4.3477c0.349,0.1946,0.6963,0.3921,1.0443,0.5882
		c-0.5285-0.0337-0.8558,0.3961-1.2973,0.5627c0.1387,1.9398,0.0568,3.8822,0.0641,5.8234c0.003,0.7993-0.3179,1.5325-0.501,2.2931
		c-0.2716,1.1283-0.5732,2.2495-0.7281,3.4019c-0.2022,0.4406-0.4893,0.2131-0.7629,0.0975
		c-0.3079-0.1813-0.6307-0.3381-0.9441-0.5109c-0.2901-0.2382-0.6261-0.3833-0.9874-0.4769
		c-0.4052-0.3554-0.8556-0.6422-1.3408-0.8764c-0.3877-0.2563-0.7543-0.5477-1.2005-0.7034
		c-0.4146-0.1917-0.5665-0.0115-0.5718,0.3947c-0.0052,0.3997,0.003,0.7992,0.0097,1.1991c0.0314,0.4361-0.1027,0.8998,0.2263,1.284
		c0.0643,0.0686,0.1693,0.1518,0.1557,0.2221c-0.1599,0.8262-0.2375,1.6809-0.7577,2.3934
		C12.4973,35.5535,12.3915,28.8737,12.496,22.1932z"/>
	<path class="st356" d="M31.4267,32.9792c1.3888-0.7613,2.7777-1.5225,4.1665-2.2838c1.0902,0.1864,2.0456,0.5965,2.6476,1.5946
		c-0.4597,0.4422-1.0608,0.6648-1.5849,1.0085c-0.4041,0.265-0.6223,0.6007-0.6251,1.0865
		c-0.0073,1.2577-0.0022,2.5153-0.0026,3.773c-0.0002,0.593,0.2465,0.6218,0.6997,0.3555c0.5419-0.3184,1.0964-0.6157,1.6268-0.9545
		c1.768-0.6037,2.604-1.8109,2.3966-3.695c0.3846-0.4284,0.7098,0.0589,1.066,0.0672c0.4118-0.1079,0.6154-0.4992,0.9558-0.6985
		c0.2077-0.1216,0.3782-0.4767,0.6932-0.1602c0.0266,0.1232-0.0178-0.0173,0.0452,0.0806c0.2381,0.3699-0.2283,1.039,0.3858,1.1782
		c0.5346,0.1212,1.5953-0.9461,1.662-1.5225c0.0595-0.5147-0.1149-1.0628,0.2178-1.5393c0.0847-0.0403,0.1702-0.0433,0.2563-0.0049
		c0.4265,0.4813,0.0046,1.1362,0.3373,1.6308c0.1242-0.0394,0.2285-0.1099,0.343-0.1548c1.1864-0.4654,1.779-1.2649,1.4751-2.5828
		c-0.0346-0.1501-0.0134-0.3082,0.0634-0.4518c0.6613-0.3746,1.2171-1.0772,2.1248-0.6831
		c0.0042,1.2269-0.0101,2.4542,0.0221,3.6803c0.0123,0.4684-0.1496,0.761-0.5496,0.9908
		c-5.9405,3.413-11.8761,6.8347-17.8163,10.2483c-0.1841,0.1058-0.4053,0.1469-0.6093,0.2181
		c-0.2941-0.4416-0.31-0.9408-0.3098-1.4471c0.0015-2.79-0.0035-5.58,0.0046-8.37c0.0014-0.4646-0.0553-0.9499,0.283-1.3475
		L31.4267,32.9792z"/>
	<path class="st357" d="M18.5436,39.4111c-0.1186-1.218,0.2241-2.3827,0.6113-3.4876c0.7737-2.2078,0.4328-4.4661,0.5409-6.7056
		c0.0245-0.5082-0.2207-1.0642,0.1946-1.5261c0.1169,0.099,0.218,0.2431,0.353,0.2902c1.5785,0.551,2.001,1.703,1.7323,3.242
		c-0.4692,2.6874,0.4734,4.8113,2.3334,6.7788c1.9649,2.0784,3.6619,4.4103,5.4716,6.6349c0.391,0.4806,0.9281,0.7454,1.4528,1.0325
		c0.3101,0.4882,0.124,1.0323,0.1752,1.5496c0.0326,0.3296-0.1074,0.6921,0.1821,0.9737c0.0024,0.1743-0.1162,0.2128-0.2556,0.2288
		c-0.8813-0.2671-1.5663-0.8969-2.3806-1.2887c-0.2124-0.1387-0.4183-0.2881-0.6463-0.4025
		c-0.8049-0.4792-1.6012-0.9721-2.3925-1.4729c-0.3258-0.1882-0.6366-0.4012-0.9648-0.5857
		c-0.29-0.1617-0.5619-0.3528-0.8499-0.5177c-0.4433-0.2279-0.8397-0.532-1.2718-0.7777c-0.2217-0.123-0.4739-0.1603-0.7082-0.2492
		c-0.2081-0.0866-0.3877-0.214-0.5452-0.3738c-0.7148-0.6706-1.6644-0.9632-2.4489-1.522
		c-0.3263-0.2324-0.7226-0.3925-0.7859-0.8624c-0.0307-0.192-0.033-0.3839-0.0037-0.5764
		C18.3658,39.6441,18.4341,39.5164,18.5436,39.4111z"/>
	<path class="st351" d="M35.7833,27.8577c0.5797-1.2712,1.8317-1.829,2.8474-2.6169c1.7717-1.3744,3.8399-2.2126,5.9068-3.0396
		c0.7376-0.2951,1.3601-0.3546,2.0827,0.1631c0.539,0.3862,1.1103,0.8235,1.8069,0.9644c0.7448,0.206,1.3648,0.6208,1.9183,1.1467
		c0.1448,0.1137,0.2816,0.2397,0.4355,0.3392c1.3138,0.8484,1.6754,2.044,1.0891,3.6204c-0.3774-0.434-0.2129-0.9609-0.2369-1.4505
		c-0.0449-0.9154-0.1418-0.9825-1.0116-0.6976c-2.8593,0.9365-5.3543,2.4916-7.6112,4.4552
		c-0.3791,0.3299-0.7346,0.7055-1.301,0.6765c-2.0283-0.8781-3.8873-2.0582-5.7444-3.2411
		C35.8566,28.1082,35.8054,27.9864,35.7833,27.8577z"/>
	<path class="st355" d="M31.4018,32.9959c0.0074,3.7215,0.0148,7.4431,0.0221,11.1646c-0.8702-0.643-1.4204-1.5726-2.0975-2.3836
		c-1.895-2.27-3.7389-4.5826-5.6142-6.8693c-0.2892-0.3526-0.4805-0.6944-0.4702-1.1803c0.0374-1.7621,0.0321-3.525,0.0429-5.2877
		c2.1009,1.1912,4.2003,2.385,6.3036,3.5722C30.1873,32.3498,30.7971,32.6684,31.4018,32.9959z"/>
	<path class="st358" d="M42.0205,53.7561c-0.0564,0.0243-0.1639,0.0548-0.1618,0.072c0.1549,1.28-0.8814,1.5654-1.694,2.0344
		c-1.9371,1.1181-3.8734,2.2375-5.8166,3.3448c-0.1831,0.1043-0.3763,0.4204-0.6334,0.0848
		c-0.1993-1.0239-0.123-2.0622-0.0745-3.0864c0.0482-1.0174-0.1495-1.8487-1.0529-2.4132
		c-0.2293-0.4574,0.1647-0.6078,0.4212-0.7934c0.4545-0.3289,0.9906-0.5196,1.4679-0.812c0.2239-0.1382,0.4529-0.2689,0.6818-0.399
		c0.5292-0.3332,1.0874-0.6159,1.6286-0.9287c0.139-0.0944,0.2808-0.1841,0.4285-0.2646c0.2285-0.1197,0.4575-0.2381,0.6762-0.3763
		c0.8714-0.4003,1.5625-1.1841,2.6042-1.2248c1.2832,0.4272,1.4567,0.5825,1.3979,1.8597
		C41.8487,51.8315,42.2531,52.7788,42.0205,53.7561z"/>
	<path class="st358" d="M49.4068,43.94c1.0518,0.3637,1.5246,1.0227,1.3691,2.2015c-0.1226,0.9293-0.0629,1.8911-0.0024,2.8332
		c0.0399,0.6224-0.1755,0.963-0.7143,1.2635c-2.1996,1.2272-4.3723,2.5026-6.5594,3.7524
		c-0.3066,0.1752-0.6295,0.5106-0.9746,0.0431c0.3388-1.3338,0.1537-2.6895,0.1579-4.036c0.0024-0.7728-0.7535-0.937-1.1869-1.3587
		c-0.2091-0.7536,0.4473-0.733,0.8448-0.9438c1.7382-1.0504,3.4937-2.073,5.2518-3.0908c0.2339-0.1276,0.424-0.3224,0.6648-0.4404
		C48.6334,44.0537,48.9645,43.7087,49.4068,43.94z"/>
	<path class="st359" d="M32.5353,53.6095c1.0636,0.3718,1.5219,1.0765,1.3614,2.2312c-0.1586,1.1408,0.2009,2.3163-0.1818,3.4514
		c-3.5368-2.0285-7.0737-4.0571-10.6105-6.0856c-0.0747-0.2541,0.0631-0.4435,0.2464-0.5542
		c0.953-0.5755,1.8277-1.2948,2.9201-1.6197c0.4841,0.0142,0.822,0.353,1.2243,0.5498c0.7666,0.4203,1.5066,0.8865,2.2644,1.3219
		c0.5554,0.294,1.0213,0.7683,1.6894,0.8328C31.8228,53.7949,32.1396,53.3592,32.5353,53.6095z"/>
	<path class="st354" d="M41.6555,31.2783c1.2408-0.4027,2.0128-1.4582,3.0128-2.1934c1.9504-1.434,4.1126-2.4143,6.3667-3.2256
		c0.4997-0.1799,0.8674-0.078,0.8401,0.5895c-0.027,0.661-0.0052,1.3241-0.0049,1.9862c-0.4978,0.196-0.9955,0.392-1.4933,0.588
		c-0.8012-0.0212-1.3661,0.5968-2.0939,0.7742c-0.4526,0.7627-1.3611,0.8809-1.9832,1.4047
		c-0.1199,0.0639-0.2469,0.0849-0.3809,0.0603c-0.0487,0.0008-0.095,0.0117-0.1388,0.0329c-0.694,0.7377-1.4271,1.4194-2.437,1.706
		c-0.507,0.4218-1.014,0.8435-1.521,1.2653C41.3976,33.2909,41.5145,32.2853,41.6555,31.2783z"/>
	<path class="st360" d="M19.6771,54.5798c-1.8849-1.0747-3.7636-2.1607-5.6599-3.215c-0.3902-0.2169-0.3914-0.5214-0.3897-0.8721
		c0.0062-1.2282,0.0091-2.4563,0.0133-3.6845c0.2245-0.1097,0.4229-0.0043,0.6252,0.0735c0.6187,0.2802,1.1527,0.7246,1.8092,0.9331
		c0.2275,0.1222,0.4368,0.2738,0.6587,0.4058c0.6053,0.4407,1.2365,0.8368,1.9298,1.1294c0.5335,0.3567,1.1813,0.5869,1.4139,1.2777
		c0.0413,1.2945,0.2023,2.5916-0.1027,3.8767C19.8969,54.6134,19.7975,54.6384,19.6771,54.5798z"/>
	<path class="st361" d="M19.6771,54.5798c0.062-0.0128,0.124-0.0256,0.186-0.0385c0.2355-1.1185,0.0585-2.2501,0.1006-3.3749
		c0.0161-0.43,0.0402-0.7836,0.6167-0.64c0.2726,0.081,0.4791,0.2821,0.7251,0.413c0.1477,0.0786,0.3309,0.2627,0.4638,0.0094
		c0.0764-0.1455-0.0637-0.2912-0.1403-0.4252c-0.1282-0.1846-0.2756-0.3589-0.3102-0.5924c0.0086-0.0959,0.0459-0.1793,0.107-0.2532
		c0.4527-0.337,0.7881-0.1806,1.0591,0.25c0.173,0.5519,0.4609,0.7737,1.0219,0.4111c0.415-0.2682,0.8388-0.526,1.2784-0.7556
		c0.3002-0.1568,0.4937-0.3767,0.3725-0.7473c-0.0765-0.2401-0.281-0.4465-0.1955-0.7293c0.1573-0.3081,0.4799-0.3669,0.7525-0.5023
		c0.3289-0.1285,0.6261-0.3507,1.0016-0.3446c0.2464,0.0491,0.3991,0.1934,0.4481,0.4427c-0.0029,0.2981-0.2233,0.4337-0.4426,0.546
		c-0.355,0.1818-0.3974,0.4396-0.2364,0.7707c0.0431,0.1418,0.0664,0.2856,0.0734,0.4335
		c-0.0398,0.5712,0.1839,1.1817-0.2559,1.6909c-1.0482,0.7155-2.3089,1.1015-3.1986,2.0628
		c-0.9552,0.1283-1.6343,0.8137-2.4567,1.2092C20.35,54.559,20.0733,54.9687,19.6771,54.5798z"/>
	<path class="st362" d="M12.5522,42.2336c0.2944-0.6793-0.1161-1.5614,0.6422-2.13c0.13-0.0975-0.151-0.2804-0.3399-0.3229
		c0.0605-0.4511,0.4117-0.4028,0.7239-0.422c0.215,0.1016,0.3025,0.3098,0.416,0.4963c0.2355,0.3838,0.4649,0.7724,0.7691,1.108
		c0.5405,0.3153,1.0151-0.4464,1.5562-0.095c0.1511,0.1152,0.2442,0.2613,0.244,0.457c-0.0163,0.0929-0.0654,0.1701-0.1115,0.2512
		c-0.2026,0.3565-1.0234,0.2667-0.799,0.8423c0.2883,0.7395,0.6556,1.4808,1.2385,2.0582c0.1737,0.1721,0.4117,0.03,0.6125-0.0532
		c0.2844-0.1178,0.5612-0.285,0.8887-0.1453c0.2101,0.151,0.3116,0.3436,0.2335,0.6054c-0.3757,0.4352-0.9243,0.5962-1.3964,0.8796
		c-0.2391,0.0669-0.4738,0.1383-0.7018,0.2462c-1.1811,0.5589-2.0926-0.1064-2.0247-1.4679
		c0.4642-0.323,0.8063,0.1173,1.2998,0.2212c-0.4038-0.514-0.6423-1.0411-0.9338-1.5389c-0.2225-0.3801-0.4375-0.6421-0.964-0.3817
		c-0.539,0.2666-0.5394,0.5933-0.3002,1.0383c-0.2651,1.1407-0.8729,1.4182-1.8476,0.8457
		C11.7506,43.8084,11.4219,42.7886,12.5522,42.2336z"/>
	<path class="st363" d="M47.2934,41.8623c1.184-0.5119,1.6431-1.7092,2.438-2.5884c0.2475-0.2738,0.4278-0.6096,0.7846-0.7703
		c0.0006,1.1812-0.0663,2.3677,0.0237,3.5422c0.0709,0.9261-0.2477,1.4714-1.1107,1.7352
		c-0.5476,0.2799-0.9677,0.0993-1.2494-0.3975C47.8901,42.8727,47.5051,42.4176,47.2934,41.8623z"/>
	<path class="st364" d="M14.5739,44.5323c-0.0219,0.6205,0.3636,1.0547,0.7702,1.409c0.5518,0.4807,0.9315-0.0652,1.3363-0.3566
		c0.1924-0.1385,0.3475,0.0133,0.5106,0.0862c0.5338,0.2048,1.0289,0.4685,1.4022,0.9182
		c-0.0315,0.3715-0.3855,0.6446-0.3201,1.0469c-0.0879,0.183-0.2399,0.2421-0.4322,0.2248
		c-0.6089-0.4649-1.1598,0.2266-1.7521,0.0887c-0.7813-0.0211-1.2927-0.5834-1.9023-0.9488
		c-0.0088-0.254,0.1323-0.4867,0.1007-0.7451c-0.1046-0.8552-0.635-1.1042-1.3383-0.6268c-0.249,0.169-0.4646,0.4639-0.826,0.2283
		c-0.6669-0.2011-0.3116-0.732-0.365-1.131c1.1875,0.1832,1.4749,0.0206,1.6767-0.9483
		C14.0403,43.6883,14.5111,43.8024,14.5739,44.5323z"/>
	<path class="st365" d="M41.4074,48.4805c1.4749,0.5058,1.5642,0.6268,1.5644,2.1228c0.0001,0.8805-0.0005,1.761,0.0001,2.6415
		c0.0002,0.3481,0.0438,0.7193-0.4467,0.7889c-0.1682-0.0925-0.3364-0.1851-0.5046-0.2776
		c-0.2778-0.8377-0.4625-1.7074-0.3563-2.5776c0.1354-1.109-0.2316-1.798-1.3376-2.053c0.01-0.3099,0.2362-0.4497,0.4623-0.5906
		C40.9882,48.4421,41.1872,48.3365,41.4074,48.4805z"/>
	<path class="st362" d="M12.1228,45.8569c0.3229,0.0042,0.4814-0.2571,0.7059-0.4208c0.3461-0.2523,0.7422-0.846,1.1509-0.2727
		c0.3594,0.5041,1.1351,1.1234,0.2068,1.8371c-0.1819-0.0641-0.3638-0.1283-0.5456-0.1924
		C13.1349,46.4911,12.6289,46.174,12.1228,45.8569z"/>
	<path class="st366" d="M50.3456,24.4754c-0.7225-0.2429-1.3632-0.6226-1.9179-1.1467c0.5672-0.4999,1.2539-0.7983,1.9185-1.1342
		C50.3459,22.9548,50.3458,23.7151,50.3456,24.4754z"/>
	<path class="st367" d="M47.2934,41.8623c0.3855,0.2296,0.6558,0.5281,0.8337,0.9669c0.223,0.5499,0.5333,1.0956,1.3018,0.9518
		c-0.0031,0.0537-0.0103,0.1068-0.0219,0.1592c-0.3824,0.1259-0.7646,0.252-1.1468,0.3782c-0.1325-0.0407-0.2533-0.1003-0.3436-0.21
		c-0.3174-0.6592-1.0834-1.1463-0.7894-2.042C47.1826,41.9983,47.238,41.9303,47.2934,41.8623z"/>
	<path class="st368" d="M35.2267,51.9398c-0.1962,0.1171-0.3924,0.2343-0.5886,0.3514c-0.493-0.3914-0.9621-0.3269-1.5151-0.0542
		c-0.5526,0.2725-1.0412,0.8042-1.7629,0.6184c-0.1164-0.1599-0.1359-0.3393-0.1105-0.528c0.0187-0.0903,0.0539-0.1747,0.1004-0.254
		c0.3985-0.4185,0.9128-0.6425,1.4448-0.824c0.6005-0.2049,0.7425-0.4542,0.3939-1.0875c-0.3907-0.7098-1.0408-1.3278-1.0187-2.2326
		c0.2284-0.1896,0.4434-0.4294,0.7817-0.2101c0.4663,0.517,0.7292,1.1622,1.0628,1.7571c0.3484,0.6213,0.7298,0.8766,1.4307,0.5623
		c0.442-0.1982,0.9027-0.2599,0.8323,0.4911c-0.1068,0.2751-0.3416,0.4237-0.5887,0.531
		C35.286,51.2356,35.1877,51.5456,35.2267,51.9398z"/>
	<path class="st369" d="M32.1699,47.9293c0.4614,0.8126,0.8937,1.6438,1.3951,2.4309c0.3011,0.4726,0.2186,0.7135-0.2768,0.9162
		c-0.6288,0.2574-1.243,0.5506-1.8635,0.8284c-0.022-0.0222-0.0541-0.0406-0.0645-0.0673
		c-0.1652-0.4243-0.1239-3.2814,0.0512-3.7018c0.0601-0.0476,0.1203-0.0952,0.18-0.1424
		C31.784,48.1055,31.977,48.0174,32.1699,47.9293z"/>
	<path class="st370" d="M36.1491,50.5858c0.0471-0.5581-0.213-0.586-0.6122-0.3473c-0.7932,0.4744-1.2989,0.2863-1.6725-0.5817
		c-0.2809-0.6527-0.8022-1.198-0.9128-1.9376c0.6264,0.0804,1.2527,0.1608,1.8791,0.2413c0.4162,0.0795,0.5741,0.4031,0.7485,0.7402
		c0.2108,0.4076,0.4177,0.8542,0.9922,0.8563c0.2963,0.0962,0.4096,0.3161,0.413,0.6104c-0.0969,0.2842-0.3276,0.4076-0.5915,0.4914
		C36.3014,50.6694,36.2205,50.6432,36.1491,50.5858z"/>
	<path class="st368" d="M47.7081,44.7327c-1.7301,1.0736-3.4367,2.1881-5.2943,3.0397c-0.0533-0.0446-0.0754-0.0931-0.0663-0.1457
		c0.0095-0.0545,0.0219-0.0818,0.0372-0.0818c0.4555-0.6838,0.911-1.3677,1.3665-2.0515c0.2013-0.0746,0.3397,0.1094,0.5148,0.1269
		c0.5658,0.0566,0.7845-0.2327,0.5541-0.749c-0.1118-0.2506-0.2866-0.4755-0.188-0.7732c0.3864-0.2802,0.5855,0.4231,0.9641,0.1835
		c0.3974,0.3806,0.811,0.5123,1.3472,0.2263C47.1941,44.3742,47.599,44.1745,47.7081,44.7327z"/>
	<path class="st371" d="M42.3848,47.545c0.0097,0.0758,0.0193,0.1516,0.029,0.2274c-0.3354,0.2361-0.6708,0.4722-1.0063,0.7082
		c-0.1768,0.0588-0.3535,0.1177-0.5302,0.1766c-0.3486-0.0457-0.6473,0.3077-1.0136,0.1288
		c-0.6597-0.3274-1.1405,0.153-1.6668,0.384c-1.077,0.4726-1.5332,0.2046-1.6623-1.0103c0.2893-0.4653,0.651-0.6056,1.2091-0.427
		c0.4526,0.1449,0.9285,0.3428,1.4348,0.207c0.599-0.1599,0.5463-0.6605,0.5827-1.1144c0.5448,0.0728,1.0404,0.2846,1.5211,0.5384
		c-0.0133,0.2692-0.294,0.3605-0.4155,0.6305c0.4237-0.0784,0.7646-0.2847,1.1397-0.3728
		C42.1325,47.5959,42.2586,47.5704,42.3848,47.545z"/>
	<path class="st372" d="M36.5346,48.1596c0.6609,1.2472,0.6489,1.2212,1.9936,0.6002c0.4277-0.1975,0.9196-0.859,1.4177-0.0555
		c-0.0898,0.5762-0.617,0.602-1.0085,0.7853c-0.4478,0.2098-0.9421,0.3499-1.0689,0.9245
		c-0.1956,0.1166-0.3912,0.2333-0.5868,0.3499c-0.2374-0.1045-0.4778-0.2068-0.3735-0.5452
		c-0.1172-0.1931-0.2344-0.3862-0.3516-0.5793c-0.4979-0.3888-0.8823-0.8354-0.7809-1.53
		C36.0287,48.1262,36.2816,48.1429,36.5346,48.1596z"/>
	<path class="st373" d="M47.7081,44.7327c-0.3382-0.407-0.6478-0.0704-0.9098,0.0807c-0.6775,0.3909-1.0586,0.228-1.2019-0.5317
		c0.2689-0.5202,0.5782-1.013,0.9791-1.4437c0.3804-0.0633,0.4583,0.2634,0.5659,0.4878c0.2028,0.4228,0.5289,0.672,0.9482,0.8311
		c0.0569,0.0539,0.1139,0.1078,0.1707,0.1615C48.059,44.4336,48.0097,44.7512,47.7081,44.7327z"/>
	<path class="st374" d="M44.6322,44.0981c0.1037,0.1908,0.1907,0.3933,0.3145,0.57c0.2457,0.3506,0.5994,0.6362-0.0016,1.0381
		c-0.5265,0.3522-0.8837,0.3588-1.1938-0.2128C43.9527,44.9701,44.28,44.5263,44.6322,44.0981z"/>
	<path class="st375" d="M35.7758,48.1094c0.2601,0.51,0.5203,1.0201,0.7807,1.5301c-0.3802,0.3784-0.5537,0.0844-0.801-0.198
		c-0.3924-0.4481-0.4308-1.1059-0.9247-1.481C35.15,47.9831,35.4885,47.8838,35.7758,48.1094z"/>
	<path class="st376" d="M48.0896,44.1569c-0.4265,0.2868-0.6823,0.0531-0.9046-0.2937c-0.2147-0.335-0.284-0.7563-0.6095-1.0252
		c0.1839-0.2572,0.3678-0.5145,0.5518-0.7718C47.1386,42.9055,47.9407,43.3809,48.0896,44.1569z"/>
	<path class="st377" d="M42.0064,47.6213c-0.0864,0.0895-0.1578,0.2284-0.2617,0.2599c-0.4159,0.1258-0.9142,0.7627-1.2288,0.2404
		c-0.3053-0.5068,0.5647-0.4243,0.7664-0.7579C41.5236,47.4495,41.765,47.5354,42.0064,47.6213z"/>
	<path class="st378" d="M39.7612,46.8252c0.0068,0.0601,0.0012,0.125,0.0223,0.1796c0.4127,1.0692,0.4133,1.0689-0.605,0.9349
		C39.3262,47.5438,39.4773,47.1498,39.7612,46.8252z"/>
	<path class="st352" d="M41.6555,31.2783c0.3671,0.9789,0.111,1.9925,0.1667,2.9884c-0.2999-0.171-0.5998-0.3415-0.8996-0.512
		c-0.1161,0.0952-0.2463,0.1175-0.3891,0.0766c-0.6955-0.6333-1.716-0.8095-2.2856-1.6209
		c-0.8849-0.5049-1.7697-1.0097-2.6546-1.5147c0.1016-0.9434-0.2424-1.9165,0.1901-2.8377
		C37.7407,28.9979,39.6981,30.1381,41.6555,31.2783z"/>
	<path class="st379" d="M13.8156,39.9978c-0.0649-0.1907-0.1297-0.3814-0.1946-0.572c0.082-0.3063,0.3603-0.3996,0.593-0.5375
		c0.2428-0.1438,0.3776-0.3131,0.1988-0.5935c-0.2231-0.5873-0.9117-0.9604-0.7849-1.7067c0.4776,0.1105,0.8565,0.369,1.1448,0.7633
		c0.476,0.2569,0.6956,0.8771,1.3163,0.9291c0.4394-0.1973,0.713,0.0275,0.9406,0.3693c-0.4235,0.3456-0.9117,0.6619-0.6087,1.3391
		c-0.0373,0.1877-0.1328,0.3348-0.298,0.4333c-0.0871,0.0262-0.175,0.0276-0.2624,0.0017c-0.418-0.4909-0.8561-0.8691-1.5314-0.3831
		C14.1833,40.1458,13.9772,40.1311,13.8156,39.9978z"/>
	<path class="st380" d="M13.6279,36.5881c0.3188,0.5624,0.6377,1.1248,0.9565,1.6872c-0.7804,0.8651-1.2872,0.8737-1.885,0.0319
		c-0.0073-0.4049-0.0299-0.8102-0.0167-1.2144c0.0088-0.2685-0.1283-0.6063,0.1343-0.7888
		C13.1673,36.0608,13.3515,36.5001,13.6279,36.5881z"/>
	<path class="st381" d="M12.6994,38.3073c0.641,0.7466,1.2616,0.2795,1.8849-0.0318c0.3246,0.2069,0.4763,0.4218,0.0232,0.6543
		c-0.3274,0.168-0.6575,0.3308-0.9865,0.4959c-0.2555,0.1185-0.5109,0.2369-0.7664,0.3551
		C12.511,39.3202,12.7501,38.7985,12.6994,38.3073z"/>
	<path class="st382" d="M16.2854,39.9717c-0.5159-0.8707-0.0951-1.214,0.7443-1.3216c0.3176,0.1376,0.6352,0.2753,0.9527,0.4131
		c-0.0411,0.5406-0.5573,0.5898-0.8732,0.8474c-0.1947,0.0961-0.3907,0.1894-0.6145,0.1934
		C16.4056,40.0909,16.3358,40.0466,16.2854,39.9717z"/>
	<path class="st383" d="M17.0123,39.7983c0.3234-0.2452,0.6468-0.4903,0.9702-0.7353c0.1871,0.1163,0.3741,0.2323,0.5612,0.3483
		c-0.0034,0.1292-0.0068,0.2585-0.0102,0.3878C17.7059,40.5221,17.3911,40.5219,17.0123,39.7983z"/>
	<path class="st384" d="M16.089,38.2806c-0.3747,0.2589-0.6743,0.266-0.886-0.2136c-0.1115-0.2527-0.285-0.4781-0.4304-0.7157
		C15.3319,37.4907,15.8382,37.7047,16.089,38.2806z"/>
	<path class="st385" d="M38.2478,32.2103c0.749,0.5216,1.7113,0.7202,2.2849,1.5075c-0.1002,0.3837-0.4318,0.5515-0.7377,0.6835
		c-0.925,0.3992-1.2169,1.094-1.1218,2.0523c0.0425,0.4279,0.0836,0.8913-0.2397,1.2664c-0.5984,0.5813-1.3978,0.8407-2.0764,1.2943
		c-0.3481,0.2327-0.5598,0.2202-0.5552-0.2968c0.014-1.5754,0.0019-3.1511-0.0028-4.7267
		c-0.0008-0.2632,0.0258-0.5281,0.2839-0.6548C36.8136,32.9776,37.4258,32.3914,38.2478,32.2103z"/>
	<path class="st386" d="M38.4336,37.72c-0.0106-0.1234-0.0285-0.2467-0.0307-0.3702c-0.0434-2.457-0.043-2.457,2.1295-3.6317
		c0.1302,0.0119,0.2601,0.0242,0.3901,0.0365c-0.0087,0.1256-0.0488,0.2584-0.0215,0.3755
		C41.3899,36.2309,40.1377,37.1297,38.4336,37.72z"/>
	<path class="st387" d="M43.3431,33.001c0.8088-0.5737,1.5362-1.2637,2.437-1.7059c0.0046,0.1568,0.0121,0.3136,0.0136,0.4704
		c0.0184,1.9644-0.1405,2.1856-1.9712,2.9694c-0.3977,0.1702-0.5115,0.0651-0.5028-0.3224
		C43.3302,33.942,43.3356,33.4715,43.3431,33.001z"/>
	<path class="st388" d="M46.1844,31.0843c0.609-0.5765,1.4037-0.8504,2.0984-1.2874c0.458,1.9711,0.1075,2.5528-2.064,3.4263
		C46.0093,32.5135,46.0599,31.7995,46.1844,31.0843z"/>
	<path class="st389" d="M46.1844,31.0843c0.0114,0.7129,0.0228,1.4258,0.0343,2.1388c-0.5312-0.1017-0.1911-0.503-0.2361-0.7548
		c-0.0703-0.3931-0.0471-0.803-0.0636-1.206C46.0074,31.2028,46.0959,31.1436,46.1844,31.0843z"/>
	<path class="st390" d="M31.4114,48.3357c0.3073,1.2553,0.0598,2.5126,0.0133,3.7692c-0.0017,0.0647-0.0034,0.1295-0.0051,0.1943
		c-0.5629,0.2617-1.0935,0.5962-1.702,0.7552c-0.8221-0.3291-1.5498-0.8236-2.2855-1.3041
		c-0.1008-0.7119-0.8633-1.1652-0.7646-1.9558c0.1115-0.1101,0.2561-0.1618,0.3937-0.2277
		c0.8861-0.4244,0.8943-0.4535,0.4226-1.3643c-0.0927-0.1631-0.1631-0.3314-0.1256-0.5256c0.4-0.5491,0.9628-0.7241,1.612-0.6997
		C29.8746,47.2671,30.5815,47.9119,31.4114,48.3357z"/>
	<path class="st391" d="M17.0123,39.7983c0.5067,0.8434,1.0143-0.0416,1.5213,0.0008c0.0002,0.1919,0.0005,0.3839,0.0007,0.5758
		c-0.4673,0.5315-0.4827,1.0428,0.0602,1.5372c0.41,0.3734,0.3455,1.1505,0.9734,1.2964c0.5456,0.1268,0.9662-0.3619,1.4654-0.5151
		c0.2391-0.0734,0.4741-0.1605,0.7222-0.0387c0.1353,0.1185,0.2706,0.237,0.4059,0.3555c-0.0096,0.0431-0.0192,0.0863-0.0281,0.1297
		c-0.354,0.5386-0.952,0.7065-1.491,0.946c-0.4826,0.2145-0.6167,0.4604-0.3205,0.9402c0.2535,0.4107,0.4924,0.8798-0.2577,1.0799
		c-0.5513-0.3634-0.7789-0.9771-1.1485-1.4817c-0.6214-1.1454-1.3282-2.2399-1.9986-3.3561
		c-0.2339-0.3894-0.5875-0.7433-0.4587-1.2671C16.643,39.9337,16.8276,39.866,17.0123,39.7983z"/>
	<path class="st392" d="M21.7555,42.6548c-0.5186,0.2261-1.0373,0.4521-1.5557,0.6786c-0.0289,0.0126-0.0575,0.0265-0.0841,0.0433
		c-0.6373,0.4037-1.2183,0.0683-1.1982-0.4848c0.0323-0.8897-2.2602-1.4173-0.383-2.517c0.537,0.7852,1.4459,1.0313,2.1957,1.5067
		C21.0943,42.1125,21.5351,42.2351,21.7555,42.6548z"/>
	<path class="st393" d="M24.2156,43.9884c0.2618,0.1745,0.5235,0.3489,0.7853,0.5234c-0.7213,0.5107-0.7213,1.0762-0.1469,1.7055
		c0.1461,0.16,0.2543,0.3583,0.346,0.5607c0.1643,0.5056,0.1017,0.8732-0.5414,0.8849c-0.1922-0.0627-0.317-0.2041-0.426-0.3635
		c-0.0706-0.1031-0.128-0.2153-0.1923-0.3233c-0.8105-1.3614-0.8109-1.3619-2.3149-0.7494c-0.2046,0.0833-0.407,0.175-0.634,0.1598
		c-0.2379-0.0159-0.4274-0.1261-0.516-0.351c-0.0962-0.2443,0.0285-0.4277,0.2198-0.5655c0.3336-0.2404,0.704-0.4209,1.0818-0.5729
		c0.518-0.2084,0.7068-0.4831,0.339-0.9907c-0.1895-0.2615-0.306-0.5579-0.0847-0.8725c0,0,0.0299-0.0233,0.03-0.0234
		c0.2533,0.0401,0.5489-0.0771,0.7387,0.1985C23.2716,43.5817,23.5041,44.1892,24.2156,43.9884z"/>
	<path class="st354" d="M24.9891,46.8063c-0.1675-0.2561-0.3344-0.5126-0.5026-0.7683c-0.6621-1.0062-0.6236-1.1208,0.5143-1.526
		c0.374,0.0906,0.6533,0.3356,0.9365,0.5743c0.2475,0.217,0.4994,0.4314,0.4866,0.806
		C26.1301,46.4858,25.6925,46.8549,24.9891,46.8063z"/>
	<path class="st394" d="M26.3184,45.8567c-0.1271-0.2567-0.2541-0.5134-0.3811-0.7703c0.8574,0.4356,1.6917,0.9081,2.4339,1.5272
		c-0.4257,0.5435-1.037,0.6814-1.673,0.7649c-0.3131,0.1287-0.6262,0.2575-0.9393,0.3863c-0.243,0.14-0.4326,0.0738-0.4941-0.1894
		c-0.0625-0.2674,0.0879-0.4696,0.3052-0.6231C25.9549,46.6805,26.5089,46.5222,26.3184,45.8567z"/>
	<path class="st395" d="M26.6981,47.3786c0.5578-0.2549,1.1156-0.5099,1.6732-0.7649c0.2732-0.0002,0.4698,0.1261,0.5988,0.3636
		c-0.4545,0.3601-1.1023,0.3396-1.5205,0.7714c-0.1223,0.1202-0.2456,0.1189-0.37,0.0032
		C26.9525,47.6275,26.8253,47.503,26.6981,47.3786z"/>
	<path class="st396" d="M24.2156,43.9884c-1.0663,0.7994-0.995-0.3207-1.3156-0.7795
		C23.3385,43.4688,23.777,43.7286,24.2156,43.9884z"/>
	<path class="st397" d="M31.4246,52.8674c0.6621-0.3315,1.3522-0.6178,1.9786-1.0068c0.6476-0.4022,1.0137-0.2597,1.235,0.4307
		c-0.7009,0.4394-1.4018,0.8789-2.1028,1.3183c-0.4004,0.035-0.661,0.476-1.1062,0.3807
		C31.1401,53.6171,31.0976,53.243,31.4246,52.8674z"/>
	<path class="st398" d="M37.8685,50.4141c-0.4084-0.4467-0.0475-0.6137,0.2823-0.8154c0.5732-0.3505,1.2975-0.3952,1.7951-0.8945
		c0.313,0.0331,0.6031-0.3843,0.9314-0.0471c-0.1836,0.1561-0.3671,0.3121-0.5507,0.4683
		C39.5072,49.555,38.6879,49.9846,37.8685,50.4141z"/>
	<path class="st399" d="M36.1491,50.5858c0.0659,0.002,0.1318,0.004,0.1977,0.006c0.2476,0.0439,0.4448,0.1602,0.5617,0.3916
		c-0.5606,0.3187-1.1212,0.6375-1.6818,0.9563c-0.4934-0.4314-0.4221-0.7475,0.184-0.9829
		C35.6662,50.8576,35.9035,50.7109,36.1491,50.5858z"/>
	<path class="st400" d="M36.9085,50.9834c-0.269-0.0133-0.4582-0.141-0.5617-0.3916c0.1872-0.1244,0.3744-0.2488,0.5615-0.3731
		c0.1244,0.1818,0.2489,0.3636,0.3734,0.5453C37.1573,50.8371,37.0329,50.9103,36.9085,50.9834z"/>
	<path class="st401" d="M31.4246,52.8674c0.0015,0.3743,0.003,0.7486,0.0045,1.1228c-0.6693-0.1312-1.2048-0.5072-1.7114-0.9359
		c0.4435-0.5308,1.0035-0.7991,1.702-0.7552C31.4212,52.4886,31.4229,52.678,31.4246,52.8674z"/>
	<path class="st402" d="M26.7054,49.8408c0.2414,0.4239,0.4946,0.8417,0.7188,1.2746c0.1014,0.1958,0.3262,0.421,0.0079,0.6348
		c-0.3763-0.2021-0.7526-0.4042-1.1289-0.6063c0.0098-0.6265,0.0197-1.253,0.0296-1.8795
		C26.7116,49.2919,26.7791,49.5207,26.7054,49.8408z"/>
	<path class="st403" d="M17.7966,47.755c0.1523-0.0028,0.2906-0.034,0.3715-0.1822c0.0694-0.0702,0.1488-0.0807,0.2371-0.0403
		c0.3604,0.3149,0.5814,0.7317,0.7548,1.1591c0.2822,0.6956,0.659,1.0368,1.4007,0.5678c0.1555-0.0984,0.3475-0.1319,0.5404-0.0921
		c0.2932,0.1388,0.4952,0.3177,0.2951,0.6723l-0.0006,0.0034c-0.3946,0.4824-0.8476,0.8088-1.5136,0.5667
		c-0.4461-0.3149-0.8922-0.6297-1.3383-0.9446c-0.3757-0.4397-0.7613-0.8736-0.8628-1.4742
		C17.6927,47.8993,17.7316,47.8207,17.7966,47.755z"/>
	<path class="st404" d="M19.882,50.4098c0.6021,0.0716,0.9611-0.5056,1.5135-0.5667c0.125,0.1849,0.25,0.3698,0.375,0.5547
		c-0.2398,0.3179-0.5355,0.4977-0.9498,0.3843c-0.491-0.1603-0.7733-0.1713-0.7849,0.5335c-0.0177,1.074,0.2576,2.1732-0.1726,3.226
		C19.8694,53.1642,19.8757,51.787,19.882,50.4098z"/>
	<path class="st364" d="M17.7785,47.927c0.1911,0.5445,0.7241,0.9189,0.7653,1.5381c-0.7299-0.2113-1.3773-0.5598-1.8885-1.1349
		C16.912,47.8681,17.2864,47.7339,17.7785,47.927z"/>
	<path class="st405" d="M17.7785,47.927c-0.3744,0.1343-0.7488,0.2686-1.1232,0.4031c-0.2655-0.0129-0.4604-0.1309-0.5665-0.3808
		c0.5675-0.0806,1.0321-1.0638,1.7078-0.1943C17.7875,47.812,17.7815,47.8694,17.7785,47.927z"/>
	<path class="st406" d="M25.355,48.7172c0.2988,0.4267,0.2281,0.7266-0.2614,0.9666c-0.5319,0.2608-1.0689,0.5354-1.5419,0.8871
		c-0.7919,0.5889-1.0862,0.2372-1.2192-0.5502c0.1383-0.1888,0.3251-0.3155,0.5309-0.4189
		c0.5713-0.2934,1.1436-0.5857,1.7383-0.8292C24.8417,48.6743,25.0842,48.4581,25.355,48.7172z"/>
	<path class="st407" d="M26.7054,49.8408c-0.1244-0.1922-0.2487-0.3843-0.3729-0.5765c-0.0135-0.1217-0.0273-0.2434-0.041-0.3651
		c0.3398-0.4486,0.7792-0.7224,1.3484-0.7686C28.4131,49.2657,28.2624,49.5413,26.7054,49.8408z"/>
	<path class="st408" d="M25.355,48.7172c-0.8172,0.3668-1.6344,0.7335-2.4516,1.1003c-0.2669-0.0982-0.3533-0.2963-0.3133-0.5646
		c0.586-0.7223,1.4351-0.9343,2.2732-1.1682c0.0405,0.0221,0.081,0.0447,0.1215,0.0673
		C25.1082,48.3404,25.2316,48.5288,25.355,48.7172z"/>
	<path class="st404" d="M22.713,49.2717c0.0635,0.1821,0.127,0.3641,0.1904,0.546c-0.1903,0.0676-0.3806,0.1353-0.571,0.203
		c-0.2299-0.4857-0.571-0.3962-0.9363-0.181c-0.0033-0.2709-0.1248-0.4677-0.3688-0.5876
		c-0.4015-0.3559-0.7041-0.7565-0.6043-1.3388c0.2774-0.1757,0.537-0.0574,0.7977,0.0469
		C21.7786,48.3278,21.8993,49.1931,22.713,49.2717z"/>
	<path class="st409" d="M26.3184,45.8567c0.6354,0.6169,0.1785,0.8654-0.3567,1.1343c-0.6816,0.3425-0.6722,0.3613-0.203,0.7737
		c-0.2579,0.129-0.5159,0.2579-0.7739,0.387c0,0.0002-0.0085-0.0485-0.0085-0.0485c-0.2477-0.1039-0.5008-0.2044-0.3599-0.5586
		c0.5441-0.0342,0.594-0.3178,0.3727-0.7383C25.4657,46.5368,25.985,46.3267,26.3184,45.8567z"/>
	<path class="st410" d="M27.6399,48.1306c-0.4133,0.3193-0.8352,0.6237-1.3482,0.7685c-0.2895-0.1897-0.5231-0.3801-0.0569-0.6419
		c0.286-0.1606,0.5634-0.3363,0.8449-0.5052c0.1234-0.0011,0.2467-0.0021,0.3701-0.0032
		C27.5131,47.876,27.5765,48.0033,27.6399,48.1306z"/>
	<path class="st411" d="M20.8207,50.7821c0.3166-0.1281,0.6332-0.2562,0.9498-0.3843c0.2388,0.2884,0.6145,0.7065,0.2007,0.9378
		C21.5582,51.5662,21.1121,51.1766,20.8207,50.7821z"/>
	<path class="st392" d="M18.3559,44.3461c-0.0309,0.0036-0.0639,0.0012-0.0924,0.0115c-1.5656,0.569-1.5806,0.5766-2.3765-1.0104
		c-0.2191-0.4368-0.7993-0.8253-0.6254-1.2854c0.1543-0.4083,0.887-0.3471,1.2117-0.7537
		C17.4831,42.084,18.0463,43.1365,18.3559,44.3461z"/>
	<path class="st412" d="M14.5739,44.5323c-0.2041-0.5166-0.7296-0.5482-1.1392-0.7548c-0.0628-0.2668-0.8483-0.3893-0.3072-0.6909
		c0.4561-0.2542,0.9856-1.1802,1.623-0.4025c0.5989,0.7307,1.0025,1.6215,1.5669,2.5674
		C15.5806,45.0996,15.1715,44.5783,14.5739,44.5323z"/>
	<path class="st413" d="M18.3559,44.3461c-0.6276-1.0126-1.2552-2.0252-1.8827-3.0378c-0.0658-0.1282-0.1316-0.2563-0.1975-0.3844
		c-0.2263-0.1256-0.3894-0.2748-0.2072-0.5533c0.0722-0.1328,0.1445-0.2656,0.2168-0.3986
		c0.0578,0.0097,0.1155,0.0195,0.1731,0.0294c0.8802,1.5145,1.7604,3.0289,2.6406,4.5432c-0.0607,0.1684-0.1369,0.325-0.31,0.4081
		c-0.0894,0.0239-0.1703,0.0066-0.2425-0.0514C18.483,44.7162,18.4195,44.5311,18.3559,44.3461z"/>
	<path class="st354" d="M18.5465,44.9013c0.0627,0.0062,0.1255,0.0105,0.1885,0.0129c0.933,0.8008,0.9557,1.3504,0.0751,1.8223
		c-0.1053,0.0008-0.1992-0.0321-0.2816-0.0979c-0.4646-0.2964-1.0422-0.4367-1.3372-0.9677
		C17.526,45.2085,18.0287,45.0416,18.5465,44.9013z"/>
	<path class="st352" d="M13.8156,39.9978c0.1745-0.0593,0.3762-0.0809,0.5189-0.1842c0.7931-0.5739,1.2873-0.3549,1.5499,0.547
		c-0.2928,0.5009-0.7294,0.7583-1.3094,0.7729C14.3219,40.7549,14.0687,40.3764,13.8156,39.9978z"/>
	<path class="st414" d="M14.575,41.1335c0.4365-0.2576,0.8731-0.5151,1.3095-0.7728c0.0612,0.0068,0.1227,0.0101,0.1842,0.0098
		c0.0689,0.1846,0.138,0.3691,0.207,0.5535c-0.3882-0.0111-0.7066,0.1815-1.033,0.3522
		C14.9819,41.4125,14.7236,41.527,14.575,41.1335z"/>
	<path class="st415" d="M18.5285,46.6386c0.069-0.0024,0.1381-0.0048,0.2071-0.0072c0.2728,0.1227,0.655,0.1377,0.5875,0.5963
		c-0.2766,0.2429-0.5569,0.4765-0.9673,0.3481l-0.0938-0.0052c0,0-0.0939,0.0021-0.0939,0.0022
		C17.9779,47.1417,18.1756,46.8602,18.5285,46.6386z"/>
	<path class="st354" d="M22.1312,43.0338c0.0082,0.0936,0.0111,0.1881,0.0254,0.2807c0.0804,0.52,0.8877,0.8684,0.583,1.3549
		c-0.238,0.38-0.9163,0.4665-1.3647,0.7395c-0.2449,0.1491-0.8341,0.1384-0.5957,0.62c0.2103,0.425,0.6106,0.1004,0.9053-0.0348
		c1.6158-0.741,1.6151-0.7456,2.5218,0.7783c0.0795,0.1336,0.1324,0.283,0.1977,0.4251c-0.3201,0.7615-1.0329,1.0727-1.6987,1.3894
		c-0.5507,0.262-0.8395-0.2133-1.1214-0.5986c-0.3608-0.4931-0.5064-1.1713-1.1888-1.3898
		c-0.2016-0.1286-0.4265-0.2448-0.3183-0.5516c0.5442-0.2695,0.2939-0.6452,0.062-0.9209c-0.5839-0.6944-0.323-0.9878,0.4284-1.2491
		C21.1195,43.685,21.612,43.3211,22.1312,43.0338z"/>
	<path class="st416" d="M20.0767,46.047c0.1195,0.126,0.2391,0.2521,0.3586,0.3781c0.4173,0.4951,0.8608,0.9787,0.7548,1.7053
		c-0.2477-0.0654-0.4955-0.1308-0.7432-0.1962c-0.4466-0.1589-0.841-0.3937-1.1329-0.7779
		c-0.1717-0.1984-0.486-0.2397-0.5784-0.5251c1.2024-0.5726,0.0447-1.1446-0.0006-1.717c0.1214-0.1233,0.2428-0.2466,0.3641-0.3697
		C19.4249,45.0454,19.7508,45.5462,20.0767,46.047z"/>
	<path class="st417" d="M21.1901,48.1304c-0.2071-0.5881-0.6621-1.0665-0.7547-1.7053c0.5757-0.0719,0.7253,0.4099,0.9401,0.7619
		c1.0841,1.7766,0.7408,1.5221,2.3631,0.52c0.2366-0.1461,0.4444-0.3387,0.6654-0.5097c0.0706,0.1159,0.1414,0.2318,0.2122,0.3474
		c0.1201,0.1862,0.2402,0.3726,0.3601,0.5587c-0.7545,0.3892-1.5089,0.7786-2.2634,1.1681c-0.5035,0.2078-0.8886,0.1723-1.089-0.435
		C21.5397,48.5813,21.3383,48.3646,21.1901,48.1304z"/>
	<path class="st352" d="M19.3141,47.1563c0.4902,0.0955,0.8642,0.36,1.1328,0.7779c0.1934,0.4393,0.3868,0.8787,0.5803,1.318
		c-0.1947,0.0991-0.4021,0.1798-0.5821,0.3012c-0.6063,0.4087-1.0177,0.3066-1.3041-0.3975
		c-0.221-0.5433-0.5205-1.0547-0.7851-1.5802C18.6752,47.4359,18.9946,47.2961,19.3141,47.1563z"/>
</g>
</svg>
