<svg id="Symbols" xmlns="http://www.w3.org/2000/svg" viewBox="0 0 64 64"><defs><style>.cls-1{fill:#fff;fill-rule:evenodd;opacity:0.5;}.cls-2{fill:#fcfcfc;}.cls-3{fill:#aeb4be;}.cls-4{fill:#3b382c;}.cls-5{fill:#3b3829;}.cls-6{fill:#5d5d5d;}.cls-7{fill:#575757;}.cls-8{fill:#282828;}.cls-9{fill:#1e1e1e;}.cls-10{fill:#cdb141;}.cls-11{fill:#d3b743;}</style></defs><g id="Cowswap"><path class="cls-1" d="M63.38533,32A31.38533,31.38533,0,1,1,32,.61468,31.38664,31.38664,0,0,1,63.38533,32Z"/><path d="M44.4967,20.45816c-1.88961.137-2.73806-.19922-3.06271-2.2713-.45884-2.92821-2.24729-4.95934-5.79471-5.97825,1.66938,2.83266,2.96727,5.24378,2.06814,8.09409-.40424,1.28146-.85494,2.3545-2.65689,1.54837a8.57389,8.57389,0,0,0-5.18381-.33317c-3.18179.61929-4.32273-.462-4.07114-3.79881.1452-1.92555,1.38611-3.45264,2.3686-5.70636-3.08047,1.14779-5.1179,2.67869-5.49894,5.20969-.42923,2.851-1.60719,3.55079-4.32964,3.25817-2.36159-.25385-2.871.84009-1.81218,3.11608a11.41342,11.41342,0,0,0,4.81451,5.34018,2.26819,2.26819,0,0,1,1.49718,2.24345c-.12834,2.33188-.15393,4.6694-.22206,7.00458-4.91553,3.6433-4.54966,8.7534.82606,11.18637,5.43816,2.46123,10.90267,2.84338,16.36879.059l.001-.00036c5.45778-2.46537,6.34549-6.6449,2.26654-10.67157-2.156-2.12836-1.53126-8.45054,1.00366-10.18181a12.01955,12.01955,0,0,0,3.86712-4.31016C48.597,21.18523,48.04137,20.20105,44.4967,20.45816ZM42.067,41.96707c.75561,2.23135.00855,3.88666-1.92473,5.12975-.70711.45465-1.59725.78178-1.78444,1.72982-1.01477-.6446-2.01166-.04428-2.94826.20974a14.76091,14.76091,0,0,1-10.50341-1.29124c-2.02851-.9698-3.99975-2.212-3.57263-5.03824.264-1.39241,1.8153-2.09159,2.02319-3.51536a1.68575,1.68575,0,0,0,1.73746-.86769,1.11788,1.11788,0,0,0,.02549-.16883,23.11481,23.11481,0,0,1,13.56469.00609c.00086.00712-.00007.01414.00086.02126C39.25142,39.944,41.59612,40.12031,42.067,41.96707Zm.02556-15.38127a7.12778,7.12778,0,0,0-3.25511,7.29093,15.09032,15.09032,0,0,1-.05123,2.63252c-.00218.102-.01288.20345-.02273.305-4.37467-1.07734-8.75854-1.60287-13.17565-.0092a2.48013,2.48013,0,0,1-.76019.15905,1.9931,1.9931,0,0,1-.17341-.67227,13.01654,13.01654,0,0,1-.06558-2.92191c.33555-3.09648-.53365-5.517-3.398-7.134a4.49911,4.49911,0,0,1-2.29092-3.20128c4.82756-1.262,4.82756-1.262,5.10813-4.56631.33669,5.05021,1.20245,5.805,6.03449,5.13785A14.10573,14.10573,0,0,1,33.8258,23.578c1.70618.2203,3.51439.77455,4.86666-.96293a4.80439,4.80439,0,0,0,.98646-2.62665c.41773,2.162,2.48233,2.93728,5.40863,2.61723A6.32694,6.32694,0,0,1,42.09259,26.5858Z"/><path class="cls-2" d="M45.6389,21.73017c-4.40471,1.23109-5.533-1.27227-5.94619-4.8173-.01353-.1161-.2976-.20066-.45783-.29677a29.14387,29.14387,0,0,1-.22629,3.46867c-.40639,2.23658-1.30122,3.85015-4.10654,2.9671a11.081,11.081,0,0,0-5.19727-.18217c-3.90571.65-4.87962-.18985-5.13076-4.21287-.04511-.72257-.0064-1.45032-.0064-2.491A5.75913,5.75913,0,0,0,23.325,20.26269c.12752,1.49282-.4763,1.78888-1.87572,1.58028-1.286-.19171-3.26515-.87246-3.78127.23065-.676,1.445,1.02428,2.72735,1.97675,3.90966a4.64718,4.64718,0,0,0,1.76181,1.49722c2.50157.94109,2.90351,2.8228,2.66248,5.15238-.13962,1.34948-.1065,2.71686-.15115,4.07617.91413,1.2335,2.11415.72618,3.17255.46628a14.78458,14.78458,0,0,0-2.123,1.02408l-1.58739.68955c-.97284,1.03466-2.24492,1.842-2.56307,3.374-.443,2.35217.95787,3.79548,2.77811,4.56585a19.54037,19.54037,0,0,0,16.40018-.04554c2.15346-.9951,3.31482-2.6747,2.69173-5.19312-.65283-1.73976-2.2751-2.41163-3.67108-3.33275a20.76131,20.76131,0,0,0-1.96992-.88624,2.76217,2.76217,0,0,0,2.57392-.33952c.02813-1.26424.15751-2.536.06325-3.791-.19363-2.57785.05084-4.71277,2.91386-5.94006,1.681-.72059,2.714-2.46641,3.5174-4.16758C46.3953,22.53833,46.71312,21.42992,45.6389,21.73017Z"/><path class="cls-3" d="M20.817,42.263c.545,2.93391,2.74991,4.1119,5.287,4.71616,4.49842,1.0714,9.00453,1.28867,13.34967-.729,1.96633-.91307,3.375-2.261,3.23333-4.65993,1.26017,3.27544.29866,4.94055-4.216,7.30106-4.89383,1.8771-9.73881,1.88617-14.35688-.72792C21.93037,46.92719,19.67272,45.47655,20.817,42.263Z"/><path class="cls-4" d="M31.57014,30.706c-.49713,1.84793-2.04451,2.08881-3.45888,2.20627A2.0335,2.0335,0,0,1,25.759,30.58553a2.01165,2.01165,0,0,1,2.39538-1.98332C29.61156,28.73056,31.07149,28.99666,31.57014,30.706Z"/><path class="cls-5" d="M35.2648,32.927c-1.19357-.48987-3.12367-.49635-2.907-2.24214.23012-1.85385,2.09556-2.11055,3.6878-2.05941A1.911,1.911,0,0,1,38.01,30.97334C37.82814,32.5427,36.71353,32.99488,35.2648,32.927Z"/><path class="cls-6" d="M23.18341,23.75591c-2.19807,1.24178-2.19807,1.24178-3.71541-.80268Z"/><path class="cls-7" d="M44.46449,23.28817c-1.14237,1.90843-2.29236,1.764-3.94536,1.0231A5.07752,5.07752,0,0,1,44.46449,23.28817Z"/><path class="cls-8" d="M26.59709,44.31976c-1.02177-.04793-1.63779-.55772-1.63278-1.59927.00417-.86692.17963-2.11713,1.02788-2.11262.94551.005,2.53525.68792,2.68458,1.341C28.92953,43.05441,27.85139,43.97766,26.59709,44.31976Z"/><path class="cls-9" d="M34.74513,42.12244c.46119-.92358,1.74753-.79983,2.52382-1.46742.59183-.509,1.07833.99527,1.19821,1.818a1.40019,1.40019,0,0,1-1.40929,1.78909C35.90365,44.23967,35.14828,43.4364,34.74513,42.12244Z"/><path class="cls-10" d="M30.08351,30.68236c-.85821.91831-1.69853,1.40625-2.77322.63249a.635.635,0,0,1-.06191-1.01013C28.27381,29.45191,29.154,29.912,30.08351,30.68236Z"/><path class="cls-11" d="M33.7682,30.64822c1.07383-.83611,1.95112-1.0703,2.81607-.32893.13838.1186.0254.84777-.18557,1.00239C35.42234,32.03727,34.62654,31.55328,33.7682,30.64822Z"/></g></svg>