<?xml version="1.0" encoding="utf-8"?>
<!-- Generator: Adobe Illustrator 27.4.1, SVG Export Plug-In . SVG Version: 6.00 Build 0)  -->
<svg version="1.1" id="Ebene_1" xmlns="http://www.w3.org/2000/svg" xmlns:xlink="http://www.w3.org/1999/xlink" x="0px" y="0px"
	 viewBox="0 0 40 40" style="enable-background:new 0 0 40 40;" xml:space="preserve">
<style type="text/css">
	.st0{fill:#FFFFFF;}
	.st1{fill-rule:evenodd;clip-rule:evenodd;fill:#0FCE7C;stroke:#0FCE7C;stroke-width:0.1496;stroke-miterlimit:1.1966;}
	.st2{fill:#25E899;}
</style>
<path class="st0" d="M20,0.2C30.9,0.2,39.8,9,39.8,20S30.9,39.8,20,39.8S0.2,30.9,0.2,20S9.1,0.2,20,0.2z"/>
<path id="Path" class="st1" d="M25.802,24.372l-1.1981-1.1052c0.8824-0.8665,1.3682-2.0089,1.3682-3.2161
	c0.0011-0.7346-0.1807-1.4578-0.5291-2.104c-0.2455-0.4533-0.5642-0.8625-0.9433-1.211l-0.6251-0.5781l0.6703-0.602l0.5711,0.5762
	l0.546-0.5353c1.2753,1.1795,1.9782,2.7614,1.9782,4.4541C27.6403,21.673,26.9876,23.2076,25.802,24.372z"/>
<polygon id="particle2" class="st2" points="29.523,9.2583 28.8954,9.888 28.2678,9.2583 28.8954,8.6286 "/>
<polygon id="particle1" class="st2" points="24.5023,9.2583 23.8747,9.888 23.2471,9.2583 23.8747,8.6286 "/>
<path d="M22.9082,19.9639c0-0.0081-0.0016-0.0159-0.0017-0.024c0.0001-0.0058,0.0017-0.0112,0.0017-0.017
	c0-0.0338-0.0088-0.0652-0.0099-0.0988c-0.0057-0.1233-0.0165-0.2448-0.0367-0.3637c-0.0153-0.0954-0.0362-0.1876-0.0604-0.2797
	c-0.0137-0.0507-0.0302-0.0999-0.0464-0.1495c-0.0749-0.2321-0.1716-0.4529-0.299-0.6555l2.3648-2.2213l0.0201,0.0214l2.7997-2.6808
	l-0.6451-0.6556c-1.5593-1.5851-3.5494-2.5662-5.6998-2.8538V7.9388c0-0.3147-0.2811-0.5697-0.6276-0.5697
	s-0.6276,0.255-0.6276,0.5697v1.9521c-0.019-0.0001-0.0375-0.0028-0.0565-0.0028c-0.8234,0-1.6193,0.1138-2.3848,0.3069V8.0668
	c0-0.3854-0.2812-0.6978-0.6276-0.6978s-0.6276,0.3124-0.6276,0.6978v2.5338c-3.67,1.4787-6.2759,5.1142-6.2759,9.3632
	c0,5.5007,4.3618,9.9839,9.7546,10.0714v0.0044h7.7131v-4.3358l-5.1996-3.9768C22.7086,21.2154,22.9091,20.5977,22.9082,19.9639z
	 M19.9899,21.0902c-0.6302,0-1.1364-0.502-1.1591-1.1266c0.0001-0.6461,0.5172-1.1711,1.1528-1.1711
	c0.6351,0,1.1522,0.5252,1.1522,1.1713c0,0.1555-0.033,0.3027-0.0873,0.4386C20.8649,20.8063,20.4625,21.0902,19.9899,21.0902z
	 M25.7637,26.6025v1.636h-0.0006H19.983c-4.4892,0-8.1424-3.7123-8.1424-8.2747c0-3.2326,1.8373-6.0303,4.503-7.3914v2.9152
	c0,0.3854,0.2811,0.6978,0.6276,0.6978s0.6276-0.3124,0.6276-0.6978v-3.4348c0.7549-0.2354,1.5555-0.3638,2.3854-0.3638
	c0.0187,0,0.0371,0.0023,0.0558,0.0024v2.3064c0,0.3146,0.2812,0.5697,0.6276,0.5697s0.6276-0.2551,0.6276-0.5697v-2.2001
	c1.3754,0.225,2.6633,0.8008,3.7574,1.688l-3.9676,3.7255c-0.349-0.145-0.7231-0.2197-1.1008-0.2197
	c-1.188,0-2.2079,0.7263-2.6653,1.7623c-0.0052,0.012-0.0132,0.0223-0.0184,0.0344c-0.1537,0.3611-0.2408,0.7579-0.2408,1.1757
	c0,1.6385,1.3116,2.9724,2.9246,2.9724c0.28-0.0002,0.5584-0.0414,0.8265-0.1222L25.7637,26.6025z"/>
</svg>
