<?xml version="1.0" encoding="utf-8"?>
<!-- Generator: Adobe Illustrator 26.0.3, SVG Export Plug-In . SVG Version: 6.00 Build 0)  -->
<svg version="1.1" id="Symbols" xmlns="http://www.w3.org/2000/svg" xmlns:xlink="http://www.w3.org/1999/xlink" x="0px" y="0px"
	 viewBox="0 0 64 64" style="enable-background:new 0 0 64 64;" xml:space="preserve">
<style type="text/css">
	.st0{fill:#FFFFFF;filter:url(#Adobe_OpacityMaskFilter);}
	.st1{mask:url(#mask0_112_7146_00000008845039539712777760000007286939943601532295_);}
	.st2{fill-rule:evenodd;clip-rule:evenodd;fill:#FFFFFF;}
	.st3{fill-rule:evenodd;clip-rule:evenodd;fill:#94A6C3;}
	.st4{fill-rule:evenodd;clip-rule:evenodd;fill:#1B314F;}
	.st5{fill-rule:evenodd;clip-rule:evenodd;fill:#FFD923;}
	.st6{fill-rule:evenodd;clip-rule:evenodd;fill:#D82122;}
	.st7{fill:#40649F;}
	.st8{fill:#0000FF;}
	.st9{fill:#0028FF;}
	.st10{fill:#0018FF;}
	.st11{fill:#0000F1;}
	.st12{fill:#0000DA;}
	.st13{fill:#0058FF;}
	.st14{fill:#0048FF;}
	.st15{fill:#0014FF;}
	.st16{fill:#0000E8;}
	.st17{fill:#0000C4;}
	.st18{fill:#003CFF;}
	.st19{fill:#0008FF;}
	.st20{fill:#0000C8;}
	.st21{fill:#0090FF;}
	.st22{fill:#0084FF;}
	.st23{fill:#0068FF;}
	.st24{fill:#0000F6;}
	.st25{fill:#0000D1;}
	.st26{fill:#0000AD;}
	.st27{fill:#0000BB;}
	.st28{fill:#009CFF;}
	.st29{fill:#0078FF;}
	.st30{fill:#0000ED;}
	.st31{fill:#00CCFF;}
	.st32{fill:#002CFF;}
	.st33{fill:#00C4FF;}
	.st34{fill:#0050FF;}
	.st35{fill:#0000A4;}
	.st36{fill:#0000B6;}
	.st37{fill:#0000D6;}
	.st38{fill:#0004FF;}
	.st39{fill:#0000BF;}
	.st40{fill:#00D8FF;}
	.st41{fill:#0034FF;}
	.st42{fill:#00009F;}
	.st43{fill:#00BCFF;}
	.st44{fill:#23FFD4;}
	.st45{fill:#00ACFF;}
	.st46{fill:#1CFFDB;}
	.st47{fill:#0070FF;}
	.st48{fill:#000096;}
	.st49{fill:#26FFD1;}
	.st50{fill:#0044FF;}
	.st51{fill:#00E0FB;}
	.st52{fill:#0064FF;}
	.st53{fill:#19FFDE;}
	.st54{fill:#001CFF;}
	.st55{fill:#0000A8;}
	.st56{fill:#5AFF9D;}
	.st57{fill:#008CFF;}
	.st58{fill:#00B8FF;}
	.st59{fill:#00009B;}
	.st60{fill:#000092;}
	.st61{fill:#000CFF;}
	.st62{fill:#5DFF9A;}
	.st63{fill:#2CFFCA;}
	.st64{fill:#56FFA0;}
	.st65{fill:#000089;}
	.st66{fill:#006CFF;}
	.st67{fill:#16FFE1;}
	.st68{fill:#06ECF1;}
	.st69{fill:#94FF63;}
	.st70{fill:#0024FF;}
	.st71{fill:#005CFF;}
	.st72{fill:#0000DF;}
	.st73{fill:#0038FF;}
	.st74{fill:#90FF66;}
	.st75{fill:#00008D;}
	.st76{fill:#0030FF;}
	.st77{fill:#00A0FF;}
	.st78{fill:#33FFC4;}
	.st79{fill:#00B0FF;}
	.st80{fill:#00C8FF;}
	.st81{fill:#CAFF2C;}
	.st82{fill:#0000CD;}
	.st83{fill:#CEFF29;}
	.st84{fill:#C7FF30;}
	.st85{fill:#60FF97;}
	.st86{fill:#0040FF;}
	.st87{fill:#000080;}
	.st88{fill:#0FF8E7;}
	.st89{fill:#0060FF;}
	.st90{fill:#0054FF;}
	.st91{fill:#0074FF;}
	.st92{fill:#C1FF36;}
	.st93{fill:#000084;}
	.st94{fill:#97FF60;}
	.st95{fill:#004CFF;}
	.st96{fill:#D1FF26;}
	.st97{fill:#36FFC1;}
	.st98{fill:#8DFF6A;}
	.st99{fill:#FFEA00;}
	.st100{fill:#FBF100;}
	.st101{fill:#0080FF;}
	.st102{fill:#FFE200;}
	.st103{fill:#53FFA4;}
	.st104{fill:#007CFF;}
	.st105{fill:#63FF94;}
	.st106{fill:#0000FA;}
	.st107{fill:#F1FC06;}
	.st108{fill:#BEFF39;}
	.st109{fill:#D4FF23;}
	.st110{fill:#FFDB00;}
	.st111{fill:#0094FF;}
	.st112{fill:#FFB200;}
	.st113{fill:#13FCE4;}
	.st114{fill:#FFBD00;}
	.st115{fill:#0020FF;}
	.st116{fill:#FFA700;}
	.st117{fill:#3CFFBA;}
	.st118{fill:#00D0FF;}
	.st119{fill:#00A4FF;}
	.st120{fill:#EBFF0C;}
	.st121{fill:#FFC800;}
	.st122{fill:#00DCFE;}
	.st123{fill:#B7FF40;}
	.st124{fill:#FFD700;}
	.st125{fill:#FF7A00;}
	.st126{fill:#FF9C00;}
	.st127{fill:#FF8900;}
	.st128{fill:#00E4F8;}
	.st129{fill:#D7FF1F;}
	.st130{fill:#02E8F4;}
	.st131{fill:#FF6F00;}
	.st132{fill:#FF9800;}
	.st133{fill:#00A8FF;}
	.st134{fill:#1FFFD7;}
	.st135{fill:#E1FF16;}
	.st136{fill:#0CF4EB;}
	.st137{fill:#FF6000;}
	.st138{fill:#43FFB4;}
	.st139{fill:#FF4E00;}
	.st140{fill:#FFAB00;}
	.st141{fill:#FF9400;}
	.st142{fill:#FF6400;}
	.st143{fill:#50FFA7;}
	.st144{fill:#4DFFAA;}
	.st145{fill:#B4FF43;}
	.st146{fill:#00D4FF;}
	.st147{fill:#FF3F00;}
	.st148{fill:#FFD300;}
	.st149{fill:#49FFAD;}
	.st150{fill:#66FF90;}
	.st151{fill:#09F0EE;}
	.st152{fill:#FF3B00;}
	.st153{fill:#FF8600;}
	.st154{fill:#46FFB1;}
	.st155{fill:#FF2900;}
	.st156{fill:#80FF77;}
	.st157{fill:#FFB900;}
	.st158{fill:#8AFF6D;}
	.st159{fill:#29FFCE;}
	.st160{fill:#FF3000;}
	.st161{fill:#FF5900;}
	.st162{fill:#0098FF;}
	.st163{fill:#FF1600;}
	.st164{fill:#00B4FF;}
	.st165{fill:#FF9100;}
	.st166{fill:#39FFBE;}
	.st167{fill:#FF2200;}
	.st168{fill:#ADFF49;}
	.st169{fill:#FF3800;}
	.st170{fill:#F60B00;}
	.st171{fill:#00C0FF;}
	.st172{fill:#FFCC00;}
	.st173{fill:#AAFF4D;}
	.st174{fill:#BAFF3C;}
	.st175{fill:#FFD000;}
	.st176{fill:#F10800;}
	.st177{fill:#DF0000;}
	.st178{fill:#E4FF13;}
	.st179{fill:#FA0F00;}
	.st180{fill:#FF2500;}
	.st181{fill:#DBFF1C;}
	.st182{fill:#0000B2;}
	.st183{fill:#A7FF50;}
	.st184{fill:#FF5500;}
	.st185{fill:#30FFC7;}
	.st186{fill:#ED0400;}
	.st187{fill:#FF1E00;}
	.st188{fill:#C80000;}
	.st189{fill:#CD0000;}
	.st190{fill:#D10000;}
	.st191{fill:#A4FF53;}
	.st192{fill:#FF8D00;}
	.st193{fill:#FFB600;}
	.st194{fill:#E40000;}
	.st195{fill:#FFC100;}
	.st196{fill:#F8F500;}
	.st197{fill:#FF7E00;}
	.st198{fill:#83FF73;}
	.st199{fill:#FFC400;}
	.st200{fill:#40FFB7;}
	.st201{fill:#6AFF8D;}
	.st202{fill:#FF1300;}
	.st203{fill:#D60000;}
	.st204{fill:#FF4300;}
	.st205{fill:#FF6C00;}
	.st206{fill:#BB0000;}
	.st207{fill:#FF4700;}
	.st208{fill:#FFA300;}
	.st209{fill:#FF5200;}
	.st210{fill:#B20000;}
	.st211{fill:#A0FF56;}
	.st212{fill:#FF8200;}
	.st213{fill:#87FF70;}
	.st214{fill:#E7FF0F;}
	.st215{fill:#FF5D00;}
	.st216{fill:#FF3400;}
	.st217{fill:#BF0000;}
	.st218{fill:#FF6800;}
	.st219{fill:#7DFF7A;}
	.st220{fill:#FFE600;}
	.st221{fill:#FF7300;}
	.st222{fill:#A40000;}
	.st223{fill:#DA0000;}
	.st224{fill:#9DFF5A;}
	.st225{fill:#E80000;}
	.st226{fill:#FFAE00;}
	.st227{fill:#DEFF19;}
	.st228{fill:#9F0000;}
	.st229{fill:#A80000;}
	.st230{fill:#FEED00;}
	.st231{fill:#FF1A00;}
	.st232{fill:#C4FF33;}
	.st233{fill:#B60000;}
	.st234{fill:#9AFF5D;}
	.st235{fill:#960000;}
	.st236{fill:#F4F802;}
	.st237{fill:#EEFF09;}
	.st238{fill:#FF9F00;}
	.st239{fill:#FFDE00;}
	.st240{fill:#6DFF8A;}
	.st241{fill:#B1FF46;}
	.st242{fill:#890000;}
	.st243{fill:#FF2D00;}
	.st244{fill:#9B0000;}
	.st245{fill:#8D0000;}
	.st246{fill:#0010FF;}
	.st247{fill:#0000E3;}
	.st248{fill:#800000;}
	.st249{fill:#840000;}
	.st250{fill:#920000;}
	.st251{fill:#0088FF;}
	.st252{fill:#AD0000;}
	.st253{fill:#FF4A00;}
	.st254{fill:#C40000;}
	.st255{fill:#FF7700;}
	.st256{fill:url(#SVGID_1_);}
	.st257{fill:#FFFFFF;}
	.st258{fill:#357A6E;}
	.st259{fill-rule:evenodd;clip-rule:evenodd;fill:#2081E2;}
	.st260{opacity:0.3;}
	.st261{fill:#909090;}
	.st262{fill-rule:evenodd;clip-rule:evenodd;fill:#633001;}
	.st263{fill-rule:evenodd;clip-rule:evenodd;fill:#FEDC90;}
	.st264{fill-rule:evenodd;clip-rule:evenodd;fill:#D1884F;}
	.st265{fill:#005EDE;}
	.st266{fill:#294661;}
	.st267{fill:url(#Burn_00000088123034638510157370000009205930839390567865_);}
	.st268{fill:#C5C2C6;}
	.st269{fill-rule:evenodd;clip-rule:evenodd;fill:#12141E;}
	.st270{fill:#FFFFFF;filter:url(#Adobe_OpacityMaskFilter_00000169552060060562413700000011596256570319530680_);}
	.st271{mask:url(#mask0_112_10953_00000092452469575815252120000016433094664549502848_);}
	.st272{fill-rule:evenodd;clip-rule:evenodd;fill:#94FEBF;}
	.st273{fill:#FF007A;}
	.st274{fill-rule:evenodd;clip-rule:evenodd;fill:#FF007A;}
	.st275{fill:#253743;}
	.st276{fill-rule:evenodd;clip-rule:evenodd;fill:#FB6706;}
	.st277{fill:#FAD910;}
	.st278{fill:#FEDC10;}
	.st279{fill:#7CDFD4;}
	.st280{fill:#7CDFD5;}
	.st281{fill:#313838;}
	.st282{fill:#2D3538;}
	.st283{fill:#323A3D;}
	.st284{fill:#32393C;}
	.st285{fill:#2D3537;}
	.st286{opacity:0.5;fill-rule:evenodd;clip-rule:evenodd;fill:#FFFFFF;}
	.st287{fill:#FCFCFC;}
	.st288{fill:#AEB4BE;}
	.st289{fill:#3B382C;}
	.st290{fill:#3B3829;}
	.st291{fill:#5D5D5D;}
	.st292{fill:#575757;}
	.st293{fill:#282828;}
	.st294{fill:#1E1E1E;}
	.st295{fill:#CDB141;}
	.st296{fill:#D3B743;}
	.st297{fill:url(#SVGID_00000100367857838568281460000002576555199287563443_);}
	.st298{fill:#F5A676;}
	.st299{fill:url(#SVGID_00000140702816146095062660000016014203268316503464_);}
	.st300{fill:url(#SVGID_00000083786020076873916650000000590345362874844039_);}
	.st301{fill:url(#SVGID_00000060719721315439599100000011620196933780494215_);}
	.st302{fill-rule:evenodd;clip-rule:evenodd;fill:#0097A7;}
	.st303{fill:#4189C9;}
	.st304{fill:#262F71;}
	.st305{fill:#161F42;}
	.st306{fill:#5C94CE;}
	.st307{fill:#6497D0;}
	.st308{fill:#689AD1;}
	.st309{fill:#4E8FCC;}
	.st310{fill:#5591CD;}
	.st311{fill:#418AC9;}
	.st312{fill:#468CCA;}
	.st313{fill:#488DCA;}
	.st314{fill:#428AC9;}
	.st315{fill:#182144;}
	.st316{fill:#458CCA;}
	.st317{fill:#263154;}
	.st318{fill:#424A7F;}
	.st319{fill:#5A5D76;}
	.st320{fill:#4F668A;}
	.st321{fill:#555A73;}
	.st322{fill:#6D9CD2;}
	.st323{fill:#729FD4;}
	.st324{fill:#78A2D5;}
	.st325{fill:#7DA5D6;}
	.st326{fill:#81A7D8;}
	.st327{fill:#0E1F66;}
	.st328{fill:#699AD1;}
	.st329{fill:#88ABD9;}
	.st330{fill:url(#SVGID_00000067946715021957002800000008326291185764172174_);}
	.st331{fill:url(#SVGID_00000047055275177249287880000012646765276089585049_);}
	.st332{fill:url(#SVGID_00000029762519146405079190000011505756527547085245_);}
	.st333{fill:url(#SVGID_00000144311867008969078100000008538375720691640210_);}
	.st334{fill:url(#SVGID_00000083076472226142054970000013430570817998230920_);}
	.st335{fill:url(#SVGID_00000059285405713696701890000004016285431507287734_);}
	.st336{fill:url(#SVGID_00000127021906876115526680000007984663965767130510_);}
	.st337{fill:url(#SVGID_00000142156176892470166430000014212268795126523060_);}
	.st338{fill:url(#SVGID_00000176029452306735167920000006901903408114654885_);}
	.st339{fill:url(#SVGID_00000121974950783002259160000016412986530020277927_);}
	.st340{fill:url(#SVGID_00000050648215734173950970000014295185889560800172_);}
	.st341{fill:url(#SVGID_00000043422884114173184790000005084094131729296777_);}
</style>
<g id="PancakeSwap">
	<path class="st2" d="M62.8404,32c0,17.03167-13.80873,30.84039-30.8404,30.84039S1.1596,49.03167,1.1596,32
		S14.96834,1.15961,32,1.15961C49.03526,1.15961,62.8404,14.96833,62.8404,32z"/>
	<g class="st260">
		<path class="st261" d="M32,63.44037C14.66358,63.44037,0.55963,49.33641,0.55963,32S14.66358,0.55963,32,0.55963
			S63.44037,14.66358,63.44037,32S49.33641,63.44037,32,63.44037z M32,1.81725C15.35748,1.81725,1.81725,15.35748,1.81725,32
			S15.35748,62.18275,32,62.18275S62.18275,48.64252,62.18275,32S48.64252,1.81725,32,1.81725z"/>
	</g>
	<g>
		<path class="st262" d="M18.15807,17.13952c-0.68188-3.51252,2.04564-6.75478,5.59135-6.75478
			c3.13662,0,5.72768,2.5668,5.72768,5.67398v7.02504c0.8182,0,1.63641-0.13519,2.45474-0.13519
			c0.81821,0,1.50008,0,2.31829,0.13519v-7.02504c0-3.10718,2.59119-5.67398,5.72781-5.67398
			c3.54572,0,6.27311,3.24226,5.72768,6.75478l-1.50008,8.24077c5.31845,2.29666,9.40973,6.34957,9.40973,11.34809v3.10719
			c0,4.18786-2.72752,7.70037-6.68234,9.99703c-3.95482,2.43173-9.13707,3.78266-15.00108,3.78266
			c-5.86413,0-11.04626-1.35093-15.00121-3.78266c-3.81837-2.29665-6.5459-5.80917-6.5459-9.99703v-3.10719
			c0-4.99851,3.95483-9.05143,9.27341-11.34809L18.15807,17.13952z"/>
		<path class="st262" d="M42.16015,26.46109l1.77286-9.72689c0.40911-2.43172-1.36376-4.72831-3.95482-4.72831
			c-2.18209,0-3.95495,1.75618-3.95495,3.91777v8.91624c-0.54543-0.13507-1.22731-0.13507-1.77286-0.13507
			c-0.81821,0-1.50008-0.13507-2.31829-0.13507c-0.8182,0-1.63653,0-2.45474,0.13507c-0.54555,0-1.22731,0.13507-1.77286,0.13507
			v-8.78117c0-2.16146-1.77286-3.91773-3.95482-3.91773c-2.45474,0-4.36405,2.29667-3.81849,4.72839l1.77286,9.72677
			c-5.72768,2.16159-9.54618,5.94424-9.54618,10.26729v3.10719c0,6.61971,8.8643,12.02343,19.77423,12.02343
			s19.77423-5.40372,19.77423-12.02343v-3.10719C51.84265,32.40533,48.02415,28.62268,42.16015,26.46109z"/>
		<path class="st263" d="M51.84252,39.83557c0,6.61958-8.8643,12.02343-19.77423,12.02343s-19.77418-5.40385-19.77418-12.02343
			v-3.10719l39.55658,0.02373"/>
		<path class="st264" d="M19.93106,16.86926c-0.54555-2.4316,1.36376-4.72828,3.81849-4.72828
			c2.18196,0,3.95482,1.75628,3.95482,3.91775v8.91636c1.36376-0.13519,2.72751-0.27026,4.2276-0.27026
			c1.36376,0,2.72752,0.13507,4.09127,0.27026v-8.91636c0-2.16146,1.77274-3.91775,3.95482-3.91775
			c2.45474,0,4.36392,2.29668,3.95482,4.72828l-1.77286,9.72689c5.72768,2.16159,9.6825,5.94424,9.6825,10.26729
			c0,6.61971-8.8643,12.02342-19.77423,12.02342s-19.77418-5.40372-19.77418-12.02342c0-4.32305,3.81845-8.10571,9.54613-10.26729
			L19.93106,16.86926z"/>
		<path class="st262" d="M26.47656,35.91772c0,1.75626-0.95465,3.24238-2.18209,3.24238c-1.2273,0-2.18196-1.48612-2.18196-3.24238
			c0-1.75626,0.95465-3.24226,2.18196-3.24226C25.52191,32.67546,26.47656,34.16146,26.47656,35.91772z"/>
		<path class="st262" d="M41.61422,35.91772c0,1.75626-0.95453,3.24238-2.18196,3.24238c-1.2273,0-2.18196-1.48612-2.18196-3.24238
			c0-1.75626,0.95465-3.24226,2.18196-3.24226C40.65969,32.67546,41.61422,34.16146,41.61422,35.91772z"/>
	</g>
</g>
</svg>
