<?xml version="1.0" encoding="utf-8"?>
<!-- Generator: Adobe Illustrator 26.4.1, SVG Export Plug-In . SVG Version: 6.00 Build 0)  -->
<svg version="1.1" id="Symbols" xmlns="http://www.w3.org/2000/svg" xmlns:xlink="http://www.w3.org/1999/xlink" x="0px" y="0px"
	 viewBox="0 0 64 64" style="enable-background:new 0 0 64 64;" xml:space="preserve">
<style type="text/css">
	.st0{fill:#FFFFFF;}
	.st1{fill:#F2AF4E;}
</style>
<g id="Snapshot">
	<circle class="st0" cx="32" cy="32" r="31.5"/>
	<path class="st1" d="M29.9,35.3c-0.2,0-0.3,0-0.4,0c-4.2,0-8.4,0-12.7,0c-0.2,0-0.4,0-0.6-0.1c-0.7-0.2-1-1.1-0.5-1.7
		c0.2-0.3,0.5-0.5,0.8-0.8c5.9-5.1,11.8-10.2,17.7-15.3c1.9-1.6,3.8-3.2,5.7-4.9c0.8-0.7,1.8-0.2,1.9,0.5c0.1,0.3-0.1,0.6-0.2,0.9
		c-0.9,1.8-1.9,3.6-2.8,5.4c-1.5,3-3.1,5.9-4.6,8.9c-0.1,0.1-0.1,0.2-0.2,0.4c0.2,0,0.3,0,0.4,0c4.2,0,8.5,0,12.7,0
		c0.7,0,1.1,0.3,1.2,0.9c0.1,0.5-0.1,0.8-0.4,1.1c-2.1,1.8-4.1,3.6-6.2,5.3c-4.2,3.6-8.4,7.3-12.6,10.9c-1.7,1.5-3.4,3-5.2,4.5
		c-0.6,0.5-1.2,0.4-1.7-0.1c-0.3-0.4-0.3-0.7-0.1-1.1c0.5-1,1-2,1.5-3c2-3.9,4-7.7,6-11.6C29.8,35.5,29.8,35.4,29.9,35.3z"/>
</g>
</svg>
