<svg id="Symbols" xmlns="http://www.w3.org/2000/svg" xmlns:xlink="http://www.w3.org/1999/xlink" viewBox="0 0 64 64"><defs><style>.cls-1{fill:url(#Unbenannter_Verlauf_2);}.cls-2{fill:#fff;}</style><linearGradient id="Unbenannter_Verlauf_2" x1="55.51749" y1="52.78756" x2="8.58317" y2="13.29713" gradientTransform="matrix(1, 0, 0, -1, 0, 65)" gradientUnits="userSpaceOnUse"><stop offset="0" stop-color="#b6509e"/><stop offset="1" stop-color="#2ebac6"/></linearGradient></defs><g id="AAVE"><circle class="cls-1" cx="32" cy="32" r="31.54191"/><path class="cls-2" d="M45.38488,45.34084,34.564,19.20509a2.90727,2.90727,0,0,0-2.71336-2.01048h-.95673a2.9073,2.9073,0,0,0-2.71348,2.01048l-4.70946,11.387H19.908a1.95105,1.95105,0,0,0-1.93818,1.93629v.02473A1.95644,1.95644,0,0,0,19.908,34.48929h1.91346l-4.495,10.85155a2.26626,2.26626,0,0,0-.132.74148,2.07764,2.07764,0,0,0,.52788,1.45838,1.85342,1.85342,0,0,0,1.43516.55211A1.91994,1.91994,0,0,0,20.271,47.722a2.40814,2.40814,0,0,0,.77517-.98045l4.94868-12.26046h3.431a1.95107,1.95107,0,0,0,1.93818-1.9363v-.04946A1.95663,1.95663,0,0,0,29.42581,30.559H27.59474l3.77746-9.40126,10.293,25.57545a2.40809,2.40809,0,0,0,.7753.98057,1.94013,1.94013,0,0,0,1.11343.37081,1.86526,1.86526,0,0,0,1.435-.55211,2.04109,2.04109,0,0,0,.52789-1.45837A1.72437,1.72437,0,0,0,45.38488,45.34084Z"/></g></svg>