<svg id="Symbols" xmlns="http://www.w3.org/2000/svg" xmlns:xlink="http://www.w3.org/1999/xlink" viewBox="0 0 64 64"><defs><style>.cls-1{fill:#fff;}.cls-2{mask:url(#mask);}.cls-3{fill:#94febf;fill-rule:evenodd;}</style><mask id="mask" x="0.39412" y="0.39411" width="63.21177" height="63.21177" maskUnits="userSpaceOnUse"><g id="mask0_112_10953" data-name="mask0 112 10953"><circle class="cls-1" cx="32" cy="32" r="31.60589"/></g></mask></defs><g id="TornadoCash"><circle cx="32" cy="32" r="31.60589"/><g class="cls-2"><path class="cls-3" d="M41.28417,20.74047A11.35252,11.35252,0,0,1,51.65494,31.40733,16.90108,16.90108,0,0,0,20.6416,22.617a11.35263,11.35263,0,0,1,10.667-10.37065,17.008,17.008,0,0,0-16.198,17.77831,16.67748,16.67748,0,0,0,7.40767,13.2349A11.26068,11.26068,0,0,1,12.24631,32.59267,16.87821,16.87821,0,0,0,43.1608,41.5805,11.23554,11.23554,0,0,1,32.59255,51.75368a16.90157,16.90157,0,0,0,8.69162-31.01321ZM31.90076,39.11132a6.63934,6.63934,0,0,1-4.93836-2.0741,7.00426,7.00426,0,0,1,0-9.87684,6.984,6.984,0,0,1,9.87684,9.87684A6.63941,6.63941,0,0,1,31.90076,39.11132Z"/><path class="cls-3" d="M43.22844,18.48848a13.639,13.639,0,0,1,12.476,12.80039,20.34317,20.34317,0,0,0-37.30923-10.5484A13.64142,13.64142,0,0,1,31.22768,8.29559a20.42965,20.42965,0,0,0-19.48636,21.334,20.00152,20.00152,0,0,0,8.91141,15.882A13.5283,13.5283,0,0,1,8.29557,32.71113,20.31552,20.31552,0,0,0,45.486,43.4967,13.501,13.501,0,0,1,32.77232,55.70441,20.29607,20.29607,0,0,0,52.37745,34.72594,20.08783,20.08783,0,0,0,43.22844,18.48848ZM31.94058,40.53359a7.99668,7.99668,0,0,1-5.941-2.4889,8.39021,8.39021,0,0,1,0-11.85221A8.39129,8.39129,0,0,1,37.88148,38.04469,7.9966,7.9966,0,0,1,31.94058,40.53359Z"/></g></g></svg>