<?xml version="1.0" encoding="utf-8"?>
<!-- Generator: Adobe Illustrator 26.5.0, SVG Export Plug-In . SVG Version: 6.00 Build 0)  -->
<svg version="1.1" id="Symbols" xmlns="http://www.w3.org/2000/svg" xmlns:xlink="http://www.w3.org/1999/xlink" x="0px" y="0px"
	 viewBox="0 0 64 64" style="enable-background:new 0 0 64 64;" xml:space="preserve">
<style type="text/css">
	.st0{fill-rule:evenodd;clip-rule:evenodd;fill:#3488EC;}
	.st1{fill-rule:evenodd;clip-rule:evenodd;fill:#FFFFFF;}
	.st2{fill:#E4C6C6;}
	.st3{fill:#FFFFFF;}
</style>
<path id="Head_00000097485628292933068570000000547719126033592987_" class="st0" d="M32,0.5221
	C14.6133,0.5221,0.5221,14.6133,0.5221,32S14.6133,63.4779,32,63.4779S63.4779,49.3867,63.4779,32S49.3867,0.5221,32,0.5221z"/>
<path class="st1" d="M30.4059,36.5467c1.7607,0,3.1882-1.4274,3.1882-3.1882c0-1.7607-1.4274-3.1882-3.1882-3.1882
	c-1.7607,0-3.1882,1.4274-3.1882,3.1882C27.2178,35.1193,28.6452,36.5467,30.4059,36.5467z M30.4059,38.6722
	c2.9347,0,5.3136-2.3789,5.3136-5.3136s-2.3789-5.3136-5.3136-5.3136s-5.3136,2.3789-5.3136,5.3136S27.4713,38.6722,30.4059,38.6722
	z"/>
<g>
	<path class="st2" d="M29.8151,28.0774c-0.3891,0.7006-0.6244,1.4984-0.6602,2.3478c0.3841-0.164,0.807-0.2549,1.2511-0.2549
		c0.3087,0,0.607,0.0439,0.8893,0.1257c0.084-0.7523,0.4295-1.4255,0.9438-1.9264c-0.5714-0.21-1.1888-0.3247-1.8331-0.3247
		C30.2062,28.045,30.009,28.056,29.8151,28.0774z"/>
</g>
<path class="st1" d="M34.4636,33.8416c1.7607,0,3.1882-1.4274,3.1882-3.1882c0-1.7607-1.4274-3.1882-3.1882-3.1882
	c-1.7607,0-3.1882,1.4274-3.1882,3.1882C31.2754,32.4142,32.7028,33.8416,34.4636,33.8416z M34.4636,35.9671
	c2.9347,0,5.3136-2.3789,5.3136-5.3136c0-2.9346-2.3789-5.3136-5.3136-5.3136s-5.3136,2.379-5.3136,5.3136
	S31.5289,35.9671,34.4636,35.9671z"/>
<g>
	<path class="st3" d="M35.7147,33.5868c-0.3841,0.164-0.807,0.2549-1.2511,0.2549c-0.3087,0-0.6071-0.0439-0.8893-0.1257
		c-0.084,0.7523-0.4296,1.4255-0.9439,1.9265c0.5715,0.2099,1.1889,0.3246,1.8332,0.3246c0.1997,0,0.3969-0.011,0.5909-0.0325
		C35.4435,35.234,35.6787,34.4362,35.7147,33.5868z"/>
</g>
<rect x="39.6806" y="18.2873" class="st3" width="3.1882" height="20.3849"/>
<path class="st1" d="M53.0129,31.9094c0,2.0276-1.6436,3.6712-3.6712,3.6712s-3.6712-1.6436-3.6712-3.6712
	s1.6436-3.6712,3.6712-3.6712C51.3692,28.2382,53.0129,29.8818,53.0129,31.9094z M53.5925,37.1695
	c-1.1615,0.9397-2.6405,1.5027-4.2509,1.5027c-3.735,0-6.7628-3.0278-6.7628-6.7628s3.0278-6.7628,6.7628-6.7628
	c1.6104,0,3.0894,0.5629,4.2509,1.5027v-1.5027h3.1882v13.5255h-3.1882V37.1695z"/>
<path class="st3" d="M25.1889,31.0613v1.4476l-0.0032,1.6419v4.5214h-3.0411v-7.0265c0-1.9082-0.5786-3.5861-2.1727-3.5861
	c-1.4009,0-2.2551,0.71-2.2551,3.6514v6.9612h-3.0412v-7.3163c0-1.9082-0.5429-3.3088-2.1911-3.2963
	c-1.4402,0.0094-2.2493,0.9032-2.2493,3.4248v7.169H7.2193V25.719h3.0159v1.1844c1.0715-1.2251,1.9571-1.5635,3.1042-1.5635
	c1.6261,0,2.8079,0.7081,3.5328,1.9489c0.2837-0.3917,0.5894-0.7269,0.936-0.9776c0.7973-0.5859,1.5568-0.9494,2.9119-0.9494
	C24.7225,25.3618,25.1889,28.351,25.1889,31.0613z"/>
<path class="st1" d="M25.4545,31.4264c-0.2338,0.5989-0.3622,1.2505-0.3622,1.9322c0,2.9347,2.3789,5.3136,5.3136,5.3136
	s5.3136-2.3789,5.3136-5.3136c0-0.6817-0.1284-1.3333-0.3622-1.9322H32.942c0.409,0.5361,0.652,1.2058,0.652,1.9322
	c0,1.7607-1.4274,3.1882-3.1882,3.1882c-1.7607,0-3.1882-1.4274-3.1882-3.1882c0-0.7264,0.243-1.3961,0.652-1.9322
	C27.8696,31.4264,25.4545,31.4264,25.4545,31.4264z"/>
</svg>
