<?xml version="1.0" encoding="utf-8"?>
<!-- Generator: Adobe Illustrator 26.0.3, SVG Export Plug-In . SVG Version: 6.00 Build 0)  -->
<svg version="1.1" id="Symbols" xmlns="http://www.w3.org/2000/svg" xmlns:xlink="http://www.w3.org/1999/xlink" x="0px" y="0px"
	 viewBox="0 0 64 64" style="enable-background:new 0 0 64 64;" xml:space="preserve">
<style type="text/css">
	.st0{fill:#FFFFFF;}
	.st1{fill:#BC423E;}
	.st2{fill:#343738;}
</style>
<circle class="st0" cx="32" cy="32" r="31.478"/>
<rect x="23.249" y="24.209" class="st1" width="17.339" height="15.293"/>
<path class="st2" d="M47.438,14.01H23.992c-0.801,0-1.447,0.646-1.447,1.447v8.201h-5.982c-0.801,0-1.447,0.646-1.447,1.447v23.437
	c0,0.801,0.646,1.447,1.447,1.447h23.446c0.801,0,1.447-0.646,1.447-1.447v-8.201h5.982c0.801,0,1.447-0.646,1.447-1.447V15.457
	C48.885,14.666,48.229,14.01,47.438,14.01z M40.491,48.552c0,0.27-0.212,0.482-0.482,0.482H16.562c-0.27,0-0.482-0.212-0.482-0.482
	V25.106c0-0.27,0.212-0.482,0.482-0.482h5.982v14.271c0,0.801,0.646,1.447,1.447,1.447H40.49L40.491,48.552L40.491,48.552z
	 M40.491,39.386H23.992c-0.27,0-0.482-0.212-0.482-0.482v-14.28h16.499c0.27,0,0.482,0.212,0.482,0.482V39.386z M47.92,38.904
	c0,0.27-0.212,0.482-0.482,0.482h-5.982v-14.28c0-0.801-0.646-1.447-1.447-1.447h-16.5v-8.201c0-0.27,0.212-0.482,0.482-0.482
	h23.446c0.27,0,0.482,0.212,0.482,0.482L47.92,38.904L47.92,38.904z"/>
</svg>
