<?xml version="1.0" encoding="utf-8"?>
<!-- Generator: Adobe Illustrator 27.2.0, SVG Export Plug-In . SVG Version: 6.00 Build 0)  -->
<svg version="1.1" id="Ebene_1" xmlns="http://www.w3.org/2000/svg" xmlns:xlink="http://www.w3.org/1999/xlink" x="0px" y="0px"
	 viewBox="0 0 40 40" style="enable-background:new 0 0 40 40;" xml:space="preserve">
<style type="text/css">
	.st0{fill:#00FFC4;}
	.st1{fill:#111111;}
</style>
<path class="st0" d="M20,0.2c10.9,0,19.8,8.8,19.8,19.8S30.9,39.8,20,39.8S0.2,30.9,0.2,20S9.1,0.2,20,0.2z"/>
<g>
	<path class="st1" d="M21.9,27.3c-0.3,0-0.5,0-0.6,0c-0.1,0-0.3,0-0.5,0.1c-0.2,0-0.4,0.1-0.6,0.2c-0.2,0.1-0.3,0.2-0.3,0.1
		c-0.1-0.1-0.2-0.1-0.3-0.2c-0.2-0.1-0.4-0.2-0.6-0.3c-0.2-0.1-0.5-0.1-0.7-0.1c-0.2,0-0.4,0-0.6,0.1c-0.2,0-0.4,0.1-0.7,0.2
		c-0.3,0.1-0.6,0.3-0.9,0.5c-0.3,0.2-0.7,0.4-1,0.6c-0.3,0.1-0.6,0.3-0.8,0.4c-0.2,0.1-0.4,0.1-0.5,0.1c-0.1,0-0.2,0-0.3-0.1
		c-0.1,0-0.1-0.1-0.2-0.2c-0.1-0.1-0.1-0.2-0.1-0.4c0-0.2,0-0.3,0.1-0.4c0.1-0.1,0.1-0.2,0.2-0.2c0.1-0.1,0.2-0.1,0.3-0.1
		c0.1,0,0.2,0,0.2,0h0.1v0h0v0h0l0.1,0h0v0h0v0h0l0,0l0,0h0v0h0v0L14,27.6c-0.1,0-0.3-0.1-0.4-0.1c-0.2,0-0.3,0-0.4,0.1L13,27.7
		l-0.1,0l0,0c0,0,0,0,0,0c0,0,0,0-0.1,0.1c-0.1,0.1-0.1,0.2-0.2,0.3c-0.1,0.1-0.1,0.2-0.1,0.4c0,0.1,0,0.3,0,0.4
		c0,0.2,0.1,0.3,0.1,0.5c0.1,0.2,0.2,0.3,0.3,0.5c0.1,0.1,0.2,0.2,0.4,0.4c0.2,0.1,0.3,0.2,0.5,0.2c0.2,0.1,0.5,0.2,0.8,0.2
		c0.3,0.1,0.5,0.1,0.6,0.1c0.2,0,0.4,0,0.6,0c0.3,0,0.7-0.1,1.1-0.1c0.4-0.1,0.8-0.1,1.2-0.3c0.3-0.1,0.6-0.2,1-0.3
		c0.3-0.1,0.5-0.2,0.7-0.4c0.2-0.1,0.3-0.2,0.4-0.3c0.1,0,0.1-0.1,0.1,0c0.1,0.1,0.2,0.1,0.3,0.2c0.2,0.1,0.4,0.3,0.6,0.4
		c0.3,0.1,0.6,0.3,0.9,0.4c0.4,0.1,0.8,0.2,1.2,0.3c0.4,0.1,0.8,0.1,1.2,0.1c0.4,0,0.7,0,1,0c0.3,0,0.6-0.1,0.8-0.2
		c0.2,0,0.5-0.1,0.7-0.2c0.2-0.1,0.3-0.2,0.5-0.3c0.1-0.1,0.2-0.2,0.3-0.4c0.1-0.1,0.2-0.3,0.2-0.5c0.1-0.3,0.1-0.6,0-0.9
		c0-0.1-0.1-0.3-0.2-0.4c-0.1-0.1-0.2-0.2-0.3-0.3c-0.1-0.1-0.2-0.1-0.3-0.2c-0.1,0-0.2-0.1-0.4-0.1c-0.1,0-0.3,0-0.4,0.1
		c-0.1,0.1-0.2,0.1-0.2,0.1l-0.1,0v0l0,0l0,0v0h0v0h0v0l0,0v0h0.1v0h0v0h0v0h0v0h0c0,0,0,0,0.1-0.1c0.1,0,0.1-0.1,0.2-0.1
		c0.1,0,0.2,0,0.3,0c0.1,0,0.1,0.1,0.2,0.1c0.1,0.1,0.1,0.2,0.2,0.2c0.1,0.1,0.1,0.3,0.1,0.4c0,0.2,0,0.3-0.1,0.4
		c-0.2,0.2-0.4,0.3-0.7,0.2c-0.2,0-0.4,0-0.5-0.1c-0.2-0.1-0.6-0.2-1.1-0.6c-0.4-0.3-0.8-0.5-1.2-0.7c-0.2-0.1-0.5-0.2-0.7-0.3
		C22.4,27.3,22.2,27.3,21.9,27.3z"/>
	<path class="st1" d="M30.1,19.4c-0.5,0.1-0.6,0.8-0.9,1.1c-0.6,0.7-1.4,1-2.3,1.2c-0.6,0.1-1.3,0.2-1.9,0.3
		c-1.6,0.2-3.2,0.2-4.7,0.2h-0.6c-1.6,0-3.2,0-4.7-0.2c-0.6-0.1-1.3-0.1-1.9-0.3c-0.9-0.2-1.7-0.5-2.3-1.2c-0.3-0.3-0.4-1-0.9-1.1
		C9.2,19.2,9,20.2,9,20.6c0,0.9,0.8,1.8,1.5,2.3c0.9,0.7,2,1,3.1,1.3c2,0.5,4,0.6,6.1,0.6h0.5c2,0,4.1-0.1,6.1-0.6
		c1.1-0.3,2.2-0.6,3.1-1.3c0.7-0.5,1.5-1.4,1.5-2.3C31,20.2,30.8,19.2,30.1,19.4z"/>
	<path class="st1" d="M27.8,11.4c0.1-0.6-0.2-1.2-0.8-1.4c-2.2-1-11.9-1-14.1,0c-0.5,0.3-0.9,0.8-0.8,1.4c0.3,2.5,0.6,5,0.7,7.5
		l0.1,1.2h14.2v0C27.2,17.2,27.4,14.3,27.8,11.4z M22.4,16.5c-0.3,0.2-0.8,0.1-1,0.4c-0.1,0.2,0,0.4,0,0.4l0,0l-0.1,0l0,0.1
		c0,0,0,0.1,0,0.1c-0.1,0.1-0.2,0.1-0.2,0.1c-0.1,0-0.1,0.1-0.2,0.1c-0.1,0-0.1,0-0.2,0c-0.1,0-0.1,0.1-0.2,0.1c-0.1,0-0.3,0-0.2,0
		s-0.1,0.1-0.2,0.1c0,0-0.1,0-0.1,0c0,0,0,0-0.1,0c-0.1,0-0.2-0.1-0.2-0.1c0,0-0.1,0-0.2,0c-0.1,0-0.1,0-0.2-0.1c-0.1,0-0.1,0-0.2,0
		c-0.1,0-0.1-0.1-0.2-0.1c0,0-0.1,0-0.2-0.1c0,0,0-0.1,0-0.1l0-0.1l-0.1-0.1l0,0c0-0.1,0.1-0.2,0-0.4c-0.1-0.3-0.6-0.2-1-0.4
		c-0.3-0.2-0.3-0.8-0.3-1.2c0-0.4-0.5-0.6-0.1-2.4c0.2-0.8,0.8-1.2,1.4-1.5c0.4-0.2,0.8-0.3,1.2-0.3l0.2,0h0c0.5,0,1,0.1,1.4,0.3
		c0.6,0.3,1.2,0.7,1.4,1.5c0.4,1.8-0.1,2-0.1,2.4C22.8,15.7,22.8,16.3,22.4,16.5z"/>
	<path class="st1" d="M18.8,14.2c-0.3-0.2-0.9,0-0.9,0.4c0,0.4,0.3,0.8,0.6,0.9c0.3,0.1,1-0.3,1.1-0.4c0.1-0.1,0.1-0.2,0-0.4
		c0-0.2-0.2-0.3-0.4-0.4C19.1,14.3,19,14.3,18.8,14.2z"/>
	<path class="st1" d="M22,14.6c0-0.4-0.6-0.6-0.9-0.4c-0.2,0.1-0.3,0.1-0.5,0.2c-0.2,0-0.3,0.2-0.4,0.4c0,0.1,0,0.3,0,0.4
		c0.1,0.2,0.8,0.5,1.1,0.4C21.8,15.5,22,15,22,14.6z"/>
</g>
</svg>
