<svg id="Symbols" xmlns="http://www.w3.org/2000/svg" xmlns:xlink="http://www.w3.org/1999/xlink" viewBox="0 0 64 64"><defs><style>.cls-1{fill:#fff;}.cls-2{fill:url(#Unbenannter_Verlauf_8);}.cls-3{fill:url(#Unbenannter_Verlauf_21);}.cls-4{fill:url(#Unbenannter_Verlauf_14);}.cls-5{fill:url(#Unbenannter_Verlauf_12);}.cls-6{fill:url(#Unbenannter_Verlauf_20);}.cls-7{fill:url(#Unbenannter_Verlauf_14-2);}</style><linearGradient id="Unbenannter_Verlauf_8" x1="-1148.25987" y1="115.82641" x2="-1146.0111" y2="115.82641" gradientTransform="matrix(8.97075, 4.51858, 4.51858, -8.97075, 9793.81262, 6265.67222)" gradientUnits="userSpaceOnUse"><stop offset="0" stop-color="#8277a6"/><stop offset="1" stop-color="#655880"/></linearGradient><linearGradient id="Unbenannter_Verlauf_21" x1="-1201.8155" y1="-33.03106" x2="-1199.56673" y2="-33.03106" gradientTransform="matrix(6.51794, -9.55954, -9.55954, -6.51794, 7548.08086, -11646.42996)" gradientUnits="userSpaceOnUse"><stop offset="0" stop-color="#665a82"/><stop offset="0.23712" stop-color="#73638d"/><stop offset="1" stop-color="#b4a6d1"/></linearGradient><linearGradient id="Unbenannter_Verlauf_14" x1="-1178.78082" y1="-34.87687" x2="-1176.53205" y2="-34.87687" gradientTransform="matrix(6.85262, -7.55972, -7.55972, -6.85262, 7855.48196, -9108.77858)" gradientUnits="userSpaceOnUse"><stop offset="0" stop-color="#b0a0ce"/><stop offset="1" stop-color="#cec6e2"/></linearGradient><linearGradient id="Unbenannter_Verlauf_12" x1="-1135.12206" y1="-339.15909" x2="-1132.87329" y2="-339.15909" gradientTransform="matrix(0.96648, -2.89934, -2.89934, -0.96648, 136.16823, -3578.85507)" gradientUnits="userSpaceOnUse"><stop offset="0" stop-color="#887cae"/><stop offset="1" stop-color="#7a6e9b"/></linearGradient><linearGradient id="Unbenannter_Verlauf_20" x1="-1545.2921" y1="61.4305" x2="-1543.04333" y2="61.4305" gradientTransform="matrix(-4.55178, 0, 0, 4.55178, -6999.15213, -257.49638)" gradientUnits="userSpaceOnUse"><stop offset="0" stop-color="#b0a0ce"/><stop offset="1" stop-color="#887cae"/></linearGradient><linearGradient id="Unbenannter_Verlauf_14-2" x1="-1050.24791" y1="258.8566" x2="-1047.99913" y2="258.8566" gradientTransform="matrix(3.21116, 3.04786, 3.04786, -3.21116, 2619.0579, 4057.67137)" xlink:href="#Unbenannter_Verlauf_14"/></defs><g id="Stakewise"><circle class="cls-1" cx="32" cy="32" r="31.54191"/><path class="cls-2" d="M12.26507,45.77113,32.0155,55.844V36.09339Z"/><path class="cls-3" d="M32.01591,55.84343l19.719-10.03089-19.719-9.71975Z"/><path class="cls-4" d="M32.01591,36.09258l19.719,9.71976L43.67873,30.3995Z"/><path class="cls-5" d="M12.26507,45.77113,32.0155,36.0934l-11.65016-5.718Z"/><path class="cls-6" d="M20.36453,30.36992l11.65016,5.718V8.156Z"/><path class="cls-7" d="M32.01591,36.09258l11.66282-5.69309L32.01591,8.15965Z"/><path class="cls-2" d="M12.26507,45.77113,32.0155,55.844V36.09339Z"/><path class="cls-3" d="M32.01591,55.84343l19.719-10.03089-19.719-9.71975Z"/><path class="cls-4" d="M32.01591,36.09258l19.719,9.71976L43.67873,30.3995Z"/><path class="cls-5" d="M12.26507,45.77113,32.0155,36.0934l-11.65016-5.718Z"/><path class="cls-6" d="M20.36453,30.36992l11.65016,5.718V8.156Z"/><path class="cls-7" d="M32.01591,36.09258l11.66282-5.69309L32.01591,8.15965Z"/></g></svg>