<?xml version="1.0" encoding="utf-8"?>
<svg version="1.1" id="Symbols" xmlns="http://www.w3.org/2000/svg" xmlns:xlink="http://www.w3.org/1999/xlink" x="0px" y="0px"
	 viewBox="0 0 64 64" style="enable-background:new 0 0 64 64;" xml:space="preserve">
<style type="text/css">
	.st0{fill:#FFFFFF;}
	.st1{fill:#F1F333;}
	.st2{fill:#FFC900;}
</style>
<g id="zeroalpha">
	<circle class="st0" cx="32" cy="32" r="31.5"/>
</g>
<g>
	<path class="st1" d="M38.3,29.2c-1.9-0.3-4-2.9-4.2-5c-0.2-2.5-0.9-5.2-2.7-7.3c-3.8-4.5-8.3-2.9-12.3,0.6c-3.6,3.2-4,7.7-0.2,12.2
		c1.8,2.1,4.1,3.5,6.3,3.9c1.9,0.3,4,2.9,4.2,5c0.2,2.5,1.3,5.1,3.1,7.3c3.8,4.5,9.6,5.3,12.9,1.8c3.3-3.5,3-10-0.8-14.5
		C42.8,31,40.5,29.6,38.3,29.2z"/>
	<path d="M40.3,50.4c-0.1,0-0.2,0-0.3,0c-2.9-0.1-5.8-1.6-7.9-4.2c-1.8-2.1-3-4.8-3.2-7.6c-0.2-1.8-2.1-4.2-3.7-4.5
		c-2.4-0.4-4.8-1.9-6.6-4.1c-3.9-4.6-3.8-9.5,0.2-13c2.8-2.5,5.4-3.6,7.9-3.4c1.9,0.1,3.7,1.1,5.2,3c1.6,1.9,2.5,4.4,2.8,7.6
		c0.2,1.8,2.1,4.2,3.7,4.5c2.4,0.4,4.8,1.9,6.6,4.1c4,4.7,4.3,11.6,0.8,15.3C44.4,49.6,42.5,50.4,40.3,50.4z M26.2,14.7
		c-2,0-4.2,1.1-6.6,3.2c-3.5,3.1-3.6,7.3-0.1,11.4c1.7,2,3.8,3.3,6,3.7c2.1,0.4,4.4,3.2,4.7,5.5c0.2,2.5,1.3,5,2.9,6.9
		c2,2.3,4.6,3.7,7.1,3.8c1.9,0.1,3.7-0.6,5-2c3.1-3.3,2.7-9.5-0.9-13.8c-1.7-2-3.8-3.3-6-3.7l0,0c-2.1-0.4-4.4-3.2-4.7-5.5
		c-0.3-3-1.1-5.3-2.6-7c-1.3-1.6-2.8-2.4-4.4-2.6C26.4,14.7,26.3,14.7,26.2,14.7z"/>
	<path class="st2" d="M45.9,46.2l-0.2,0.2c-0.4,0.4-1,0.5-1.4,0.1l-2.3-2c-0.4-0.4-0.5-1-0.1-1.4l0.1-0.2c0.4-0.4,1-0.5,1.4-0.1
		l2.3,2C46.2,45.1,46.3,45.7,45.9,46.2z"/>
	<path class="st2" d="M46.1,41.5l-0.1,0.2c-0.3,0.4-1,0.5-1.4,0.1l-2.2-1.9c-0.4-0.3-0.5-1-0.1-1.4l0.1-0.2c0.3-0.4,1-0.5,1.4-0.1
		l2.2,1.9C46.4,40.5,46.4,41.1,46.1,41.5z"/>
	<path class="st2" d="M45.3,36.7l-0.1,0.2c-0.3,0.4-1,0.5-1.4,0.1l-2.2-1.9c-0.4-0.3-0.5-1-0.1-1.4l0.1-0.2c0.3-0.4,1-0.5,1.4-0.1
		l2.2,1.9C45.6,35.7,45.6,36.3,45.3,36.7z"/>
	<path class="st2" d="M40.9,46.1l-0.2,0.2c-0.4,0.4-1,0.5-1.4,0.1l-2.3-2c-0.4-0.4-0.5-1-0.1-1.4l0.1-0.2c0.4-0.4,1-0.5,1.4-0.1
		l2.3,2C41.2,45,41.3,45.6,40.9,46.1z"/>
	<path class="st2" d="M41,41.5l-0.2,0.2c-0.4,0.4-1,0.5-1.4,0.1l-2.3-2c-0.4-0.4-0.5-1-0.1-1.4l0.1-0.2c0.4-0.4,1-0.5,1.4-0.1l2.3,2
		C41.3,40.4,41.3,41.1,41,41.5z"/>
	<path class="st2" d="M40.1,36.5L40,36.7c-0.4,0.4-1,0.5-1.4,0.1l-2.3-2c-0.4-0.4-0.5-1-0.1-1.4l0.1-0.2c0.4-0.4,1-0.5,1.4-0.1
		l2.3,2C40.4,35.5,40.5,36.1,40.1,36.5z"/>
	<path d="M24.7,27.9c0.3,0.3,0.3,0.9-0.1,1.2c-0.3,0.3-0.9,0.3-1.2-0.1s-0.3-0.9,0.1-1.2C23.9,27.6,24.4,27.6,24.7,27.9z"/>
	<path d="M31.4,22c0.3,0.3,0.3,0.9-0.1,1.2c-0.3,0.3-0.9,0.3-1.2-0.1c-0.3-0.3-0.3-0.9,0.1-1.2C30.5,21.6,31,21.6,31.4,22z"/>
	<path d="M27.8,29.1c-0.2,0-0.5,0-0.7-0.1c-0.3-0.1-0.5-0.3-0.5-0.7c0.1-0.3,0.3-0.5,0.7-0.5c0.8,0.1,1.6-0.1,2.1-0.6
		c0.5-0.5,0.8-1.2,0.7-2c0-0.3,0.2-0.6,0.5-0.6c0.3,0,0.6,0.2,0.6,0.5c0.1,1.2-0.3,2.2-1.1,3C29.6,28.8,28.7,29.1,27.8,29.1z"/>
</g>
</svg>
