<svg id="Symbols" xmlns="http://www.w3.org/2000/svg" viewBox="0 0 64 64"><defs><style>.cls-1{opacity:0.3;}.cls-2{fill:#909090;}.cls-3{fill:#633001;}.cls-3,.cls-4,.cls-5{fill-rule:evenodd;}.cls-4{fill:#fedc90;}.cls-5{fill:#d1884f;}</style></defs><g id="PancakeSwap"><g class="cls-1"><path class="cls-2" d="M32,63.44037A31.44037,31.44037,0,1,1,63.44037,32,31.47581,31.47581,0,0,1,32,63.44037ZM32,1.81725A30.18275,30.18275,0,1,0,62.18275,32,30.21733,30.21733,0,0,0,32,1.81725Z"/></g><path class="cls-3" d="M18.15807,17.13952a5.708,5.708,0,1,1,11.319-1.08079v7.025c.81821,0,1.63641-.13519,2.45474-.13519a13.34446,13.34446,0,0,1,2.31829.13519v-7.025a5.73552,5.73552,0,0,1,5.72781-5.674,5.85969,5.85969,0,0,1,5.72768,6.75477l-1.50009,8.24077c5.31846,2.29666,9.40973,6.34957,9.40973,11.34809v3.10719c0,4.18786-2.72752,7.70037-6.68234,9.997a28.6723,28.6723,0,0,1-15.00108,3.78265,28.67274,28.67274,0,0,1-15.0012-3.78265c-3.81837-2.29666-6.5459-5.80917-6.5459-9.997V36.72838c0-4.99852,3.95483-9.05143,9.27341-11.34809Z"/><path class="cls-3" d="M42.16015,26.46109l1.77286-9.7269a4.004,4.004,0,0,0-3.95482-4.7283,3.93925,3.93925,0,0,0-3.95495,3.91777V24.8399a7.84877,7.84877,0,0,0-1.77286-.13507c-.8182,0-1.50008-.13507-2.31829-.13507a14.96336,14.96336,0,0,0-2.45473.13507c-.54556,0-1.22731.13507-1.77286.13507V16.05873a3.92789,3.92789,0,1,0-7.77332.81066L21.704,26.59616c-5.72768,2.16158-9.54618,5.94424-9.54618,10.26729v3.10719c0,6.6197,8.8643,12.02342,19.77423,12.02342s19.77423-5.40372,19.77423-12.02342V36.86345C51.84265,32.40533,48.02416,28.62268,42.16015,26.46109Z"/><path class="cls-4" d="M51.84252,39.83557c0,6.61958-8.8643,12.02342-19.77423,12.02342S12.29411,46.45515,12.29411,39.83557V36.72838l39.55659.02373"/><path class="cls-5" d="M19.93105,16.86926a3.92788,3.92788,0,1,1,7.77332-.81053v8.91636a41.659,41.659,0,0,1,4.2276-.27026c1.36376,0,2.72751.13507,4.09127.27026V16.05873A3.9392,3.9392,0,0,1,39.97806,12.141a4.0758,4.0758,0,0,1,3.95482,4.72828L42.16,26.59616c5.72768,2.16158,9.6825,5.94424,9.6825,10.26729,0,6.61971-8.8643,12.02342-19.77423,12.02342S12.29411,43.48316,12.29411,36.86345c0-4.32305,3.81845-8.10571,9.54613-10.26729Z"/><path class="cls-3" d="M26.47656,35.91772c0,1.75626-.95465,3.24238-2.18209,3.24238-1.2273,0-2.182-1.48612-2.182-3.24238s.95466-3.24226,2.182-3.24226C25.52191,32.67546,26.47656,34.16146,26.47656,35.91772Z"/><path class="cls-3" d="M41.61422,35.91772c0,1.75626-.95453,3.24238-2.182,3.24238-1.22731,0-2.182-1.48612-2.182-3.24238s.95465-3.24226,2.182-3.24226C40.65969,32.67546,41.61422,34.16146,41.61422,35.91772Z"/></g></svg>