<svg id="Symbols" xmlns="http://www.w3.org/2000/svg" xmlns:xlink="http://www.w3.org/1999/xlink" viewBox="0 0 64 64"><defs><style>.cls-1,.cls-3{fill:#fff;}.cls-2{mask:url(#mask);}.cls-3,.cls-4,.cls-5,.cls-6,.cls-7{fill-rule:evenodd;}.cls-4{fill:#94a6c3;}.cls-5{fill:#1b314f;}.cls-6{fill:#ffd923;}.cls-7{fill:#d82122;}</style><mask id="mask" x="0.34501" y="0.345" width="63.30999" height="63.30999" maskUnits="userSpaceOnUse"><g id="mask0_112_7146" data-name="mask0 112 7146"><circle class="cls-1" cx="32" cy="32" r="31.655"/></g></mask></defs><g id="_1inch" data-name="1inch"><circle cx="32" cy="32" r="31.655"/><g class="cls-2"><path class="cls-3" d="M19.336,35.51016,20.71449,25.0635,8.75722,16.69126l10.92519,3.73251,2.58026-3.99284,9.42129-5.8962L52.45078,22.07439l1.07639,17.607L44.2753,52.64868l-7.31294,1.13021,3.78177-6.98183V40.07557l-2.74969-5.24941-2.794-1.86625-4.29786,4.46854v4.729l-3.35429,3.1674-4.26089.52054-1.88727,1.078-3.09624-.99625-1.29013-4.6843L19.336,37.949Z"/><path class="cls-4" d="M38.42951,16.602a21.58125,21.58125,0,0,0-4.76965-.34947s-.81822,3.8143-5.89023,4.81814A9.07732,9.07732,0,0,0,38.42951,16.602Z"/><path class="cls-4" d="M40.4943,51.2137a16.732,16.732,0,0,0,5.76488-8.54318c.0442-.12649.42747-.34947.68553-.52053.42759-.26021.86253-.47584.94357-.82531a18.43865,18.43865,0,0,0,.258-3.07826c0-.3867-.39062-.78074-.774-1.16731-.30224-.26033-.60448-.56511-.60448-.78074a16.53666,16.53666,0,0,0-5.11621-10.32029l-.30224.30477a16.23581,16.23581,0,0,1,4.99085,10.06009,2.20145,2.20145,0,0,0,.72984,1.04094c.30224.26021.64867.65437.64867.82531a17.79481,17.79481,0,0,1-.25792,2.98912c-.04432.17094-.4276.34947-.72984.52041-.42759.21563-.81835.43127-.89938.78073a16.02405,16.02405,0,0,1-6.53891,8.98192c.56017-1.21188,2.32208-5.16015,3.26578-7.16023l-.16967-6.41672-5.46251-5.33121L33.83,33.00448l-3.39848,5.55418s1.59237,2.03732-.6488,4.42411a10.17723,10.17723,0,0,1-3.91446,2.86262l-1.59237-.87a16.82781,16.82781,0,0,1,2.15267-2.12645c1.24581-1.041,2.49163-1.13021,2.49163-2.253.05165-2.34956-2.44744-1.70266-2.44744-1.70266l-.90673.86988-.38341,3.21209-1.88714,2.38679-.21386-.04457-3.09624-.6916s1.89462-.99624,2.19686-2.12646c.30224-1.08551-.60449-4.6843-.64868-4.89993a4.73046,4.73046,0,0,1,1.29014,1.99274A15.79823,15.79823,0,0,1,24.674,35.68869c.25806-.17106,3.73757-2.03731,3.73757-2.03731l-1.1573,3.07826.8624-.476,2.06416-5.11544a10.05615,10.05615,0,0,1,3.52384-.99638c2.70549-.04457,6.70845-3.38316,4.90234-9.36861.51611.21563,9.45826,4.72888,11.00632,13.57708C50.77078,41.15361,46.94471,47.52576,40.4943,51.2137Z"/><path class="cls-5" d="M30.26151,17.5538a3.73854,3.73854,0,0,0,.60448-2.90732l-2.8825,4.29773A3.32637,3.32637,0,0,0,30.26151,17.5538Z"/><path class="cls-5" d="M20.58217,41.01978l.34643-1.73242S19.50578,41.80051,19.38042,42.15c-.13257.394.08851,1.08551.64146,1.04094a1.72031,1.72031,0,0,0,1.24581-1.47221A.61684.61684,0,0,0,20.58217,41.01978Z"/><path class="cls-5" d="M46.12611,13.43447s2.15254.08927,4.38624.34947c-5.035-3.99274-9.80469-5.1601-13.675-5.1601A18.57205,18.57205,0,0,0,27.674,10.966l1.68088-2.69161a8.92094,8.92094,0,0,0-9.07485,6.50594,35.85067,35.85067,0,0,1-1.15744-3.73255A7.8824,7.8824,0,0,0,17.2722,19.249c-4.003-1.47221-9.71621-3.51687-9.93737-3.5541-.30225-.04457-.39071.08927-.39071.08927s-.08847.12637.16955.34947c.47918.3791,9.50985,7.10819,11.49285,8.40934-.4276,1.56148-.4276,2.29752,0,3.03369a3.04409,3.04409,0,0,1,.56029,2.25295c-.0885.736-.86253,7.11566-1.03208,7.89627-.16954.78074-1.97565,3.55423-1.89461,4.37953.08851.82532,1.20162,4.33484,2.19686,4.72888a13.706,13.706,0,0,0,3.73756.82531,1.5166,1.5166,0,0,0,.98789-.2602c.72984-.6469.94358-.78074,1.45968-.78074h.12535c.21374,0,.47179.04457.774.04457a3.25087,3.25087,0,0,0,2.2337-.736c.94358-.9518,2.58014-2.25295,3.09624-2.86262a4.05262,4.05262,0,0,0,.81822-3.07826,4.14571,4.14571,0,0,1,1.07627-2.86262C33.56427,36.038,35.06813,34.09,35.06813,34.09a11.86819,11.86819,0,0,1,4.82131,9.48764c0,6.76619-5.846,12.2311-13.07047,12.2311a13.72479,13.72479,0,0,1-3.26579-.38656,25.174,25.174,0,0,0,8.38921,1.56134,13.88691,13.88691,0,0,0,7.43829-1.777,21.53026,21.53026,0,0,1-2.36627,2.51315h.04419A17.62632,17.62632,0,0,0,49.016,49.91255s-.30237,2.17115-.68565,3.64336c10.69673-8.112,8.89062-18.26138,8.8463-18.60338.08851.12636,1.16478,1.42763,1.71773,2.12658C60.61941,19.20442,46.12611,13.43447,46.12611,13.43447ZM29.657,41.97892c-.16955.21563-.89939.87-1.41536,1.34585-.51611.47583-1.0764.95167-1.504,1.39041a1.49323,1.49323,0,0,1-1.03207.2602h-1.29a22.94819,22.94819,0,0,1,3.18462-3.29389c.77416-.52041,1.16478-1.04094.68565-1.948-.47179-.91445-1.71773-.69147-1.71773-.69147a4.24054,4.24054,0,0,1,1.37864-.30477,2.63854,2.63854,0,0,0-2.32221.47583c-.516.47584-.4276,2.17116-.64133,3.2492-.21386,1.13021-.94357,1.69532-2.06416,2.73626a2.11735,2.11735,0,0,1-1.37851.73617,14.59745,14.59745,0,0,1-2.19686-.56511,12.47527,12.47527,0,0,1-1.24594-3.2121,17.70588,17.70588,0,0,1,.89938-1.86637,8.20063,8.20063,0,0,0,.90673-2.08189c.16967-.736.72984-5.294.9437-7.19746.56029.73617,1.33432,1.95552,1.15743,2.73626a3.68687,3.68687,0,0,0-.08851-4.20847,4.81015,4.81015,0,0,1-.47178-3.55409c.42759-1.47222,1.97565-5.55419,1.97565-5.55419s.516.91457,1.24581.736c.72984-.17094,6.62007-9.10831,6.62007-9.10831s1.59238,3.50955-.0885,6.07475c-1.7176,2.55772-3.39848,3.03356-3.39848,3.03356a6.39435,6.39435,0,0,0,4.55591-1.17478c.89938,2.12658,1.76192,4.33483,1.80611,4.63974-.1327.30477-1.8503,4.46867-2.01984,4.72887a4.275,4.275,0,0,1-1.12059.34947,6.0438,6.0438,0,0,0-1.33432.47584,48.68526,48.68526,0,0,0-2.32221,5.94088A3.57085,3.57085,0,0,0,25.256,37.64409a6.03272,6.03272,0,0,1,1.9388-.43114,3.86626,3.86626,0,0,1,2.9267,2.81792v.08927A2.69725,2.69725,0,0,1,29.657,41.97892Zm-4.03969.52053a4.05472,4.05472,0,0,0,.39075-1.82168c.04432-.3049.12535-.86987.47179-.95167.34656-.08927,1.16477.04457,1.16477.64677,0,.56511-.60448.6916-1.03207,1.08564C26.303,41.75594,25.6985,42.41019,25.61734,42.49945ZM42.77157,34.209a20.994,20.994,0,0,0,.34655-5.68068,16.01534,16.01534,0,0,1,3.00773,7.80727,2.20213,2.20213,0,0,0,.72984,1.04094c.30224.2602.64867.60967.64867.82531a17.94766,17.94766,0,0,1-.25792,2.99646c-.04431.12637-.42759.34947-.72984.52041-.42759.21563-.81834.43127-.89938.78073a16.16938,16.16938,0,0,1-5.67637,8.37225C43.93634,46.66323,45.8678,39.71863,42.77157,34.209ZM40.06684,51.25827a16.69541,16.69541,0,0,0,5.89023-8.63245c.04419-.12637.42747-.34947.68552-.52041.42759-.21563.86254-.476.94357-.82543a18.43593,18.43593,0,0,0,.258-3.07813c0-.3867-.39075-.78074-.774-1.16744-.21373-.2602-.56029-.56511-.56029-.78074a17.08629,17.08629,0,0,0-3.52383-8.63244c-.86241-5.20472-4.29774-6.81076-4.38624-6.85546a8.00352,8.00352,0,0,1,.774,7.19746c-1.59237,3.859-5.67637,3.25679-6.02293,3.29389-.34643,0-1.67341,1.73242-3.35416,4.94451a4.607,4.607,0,0,0-2.15267-.12637c.774-2.17115,1.93881-5.24941,2.15267-5.50961a6.51744,6.51744,0,0,1,1.16477-.3867c.81822-.21551,1.20163-.34947,1.33432-.52041.08839-.13384.516-1.13021.94358-2.17115a9.63314,9.63314,0,0,0,1.45967-.13384,16.23218,16.23218,0,0,0,.90673-2.46858c0-.21563-1.68075-4.424-2.32221-6.03a9.98938,9.98938,0,0,0,.89938-1.25658,17.78348,17.78348,0,0,1,5.68385,33.6599Z"/><path class="cls-5" d="M28.62545,27.83686a1.897,1.897,0,0,0-1.12059-3.03356c.39076-.90711.94358-2.72879.94358-2.72879s-4.38624,6.93713-4.76965,7.071c-.39062.13384-.774-1.39042-.774-1.39042-.81834,3.16753,1.37851,3.5988,1.63656,2.60243A10.9845,10.9845,0,0,0,28.62545,27.83686Z"/><path class="cls-6" d="M24.88029,29.5247l2.2337-3.859s1.29013.65437.64133,1.69531A8.34292,8.34292,0,0,1,24.88029,29.5247Z"/><path class="cls-7" d="M52.53232,47.3994a25.37529,25.37529,0,0,1-2.2337,2.647,23.48023,23.48023,0,0,0,.04419-20.99005c.39074.394.774.82531,1.12058,1.21188A13.82159,13.82159,0,0,1,52.53232,47.3994Z"/><path class="cls-7" d="M57.69233,33.56211a26.03225,26.03225,0,0,0-10.74826-13.748A21.72237,21.72237,0,0,0,34.47074,16.26h-.08851a2.92942,2.92942,0,0,1,.64133-.17107,27.2711,27.2711,0,0,1,4.77712-.99637,14.07652,14.07652,0,0,1,12.30379,4.2457l.08838.08913A20.48163,20.48163,0,0,1,57.69233,33.56211Z"/><path class="cls-7" d="M45.56556,12.08873c-6.40621-1.212-10.53453-.6097-13.50541.52047a12.92839,12.92839,0,0,0-.6488-1.606c-.892,1.08556-1.843,2.38673-2.4401,3.212A8.77594,8.77594,0,0,0,26.649,16.43093a8.98986,8.98986,0,0,1,7.055-6.29028,17.38158,17.38158,0,0,1,3.09624-.26024A20.10633,20.10633,0,0,1,45.56556,12.08873Z"/><path class="cls-7" d="M21.87256,20.4163c-5.02758-.17094-3.35417-6.0746-3.26579-6.41672C18.60677,14.04427,18.946,18.63931,21.87256,20.4163Z"/><path class="cls-7" d="M26.81884,9.7912c-3.87027,2.34214-3.09624,7.93354-3.09624,7.93354C20.02188,12.05154,26.5166,9.925,26.81884,9.7912Z"/><path class="cls-3" d="M20.45707,21.97778a.87605.87605,0,0,1,.21386,1.17478c-.16967.3049-.42759.2602-.81834.08926-.51611-.26033-3.61222-2.08188-6.40621-3.94826,3.18461,1.13021,6.40621,2.34221,6.92218,2.60242C20.36856,21.896,20.41288,21.94055,20.45707,21.97778Z"/></g></g></svg>