<?xml version="1.0" encoding="utf-8"?>
<!-- Generator: Adobe Illustrator 26.0.3, SVG Export Plug-In . SVG Version: 6.00 Build 0)  -->
<svg version="1.1" id="Symbols" xmlns="http://www.w3.org/2000/svg" xmlns:xlink="http://www.w3.org/1999/xlink" x="0px" y="0px"
	 viewBox="0 0 64 64" style="enable-background:new 0 0 64 64;" xml:space="preserve">
<style type="text/css">
	.st0{fill:#FFFFFF;filter:url(#Adobe_OpacityMaskFilter);}
	.st1{mask:url(#mask0_112_7146_00000008845039539712777760000007286939943601532295_);}
	.st2{fill-rule:evenodd;clip-rule:evenodd;fill:#FFFFFF;}
	.st3{fill-rule:evenodd;clip-rule:evenodd;fill:#94A6C3;}
	.st4{fill-rule:evenodd;clip-rule:evenodd;fill:#1B314F;}
	.st5{fill-rule:evenodd;clip-rule:evenodd;fill:#FFD923;}
	.st6{fill-rule:evenodd;clip-rule:evenodd;fill:#D82122;}
	.st7{fill:#40649F;}
	.st8{fill:#0000FF;}
	.st9{fill:#0028FF;}
	.st10{fill:#0018FF;}
	.st11{fill:#0000F1;}
	.st12{fill:#0000DA;}
	.st13{fill:#0058FF;}
	.st14{fill:#0048FF;}
	.st15{fill:#0014FF;}
	.st16{fill:#0000E8;}
	.st17{fill:#0000C4;}
	.st18{fill:#003CFF;}
	.st19{fill:#0008FF;}
	.st20{fill:#0000C8;}
	.st21{fill:#0090FF;}
	.st22{fill:#0084FF;}
	.st23{fill:#0068FF;}
	.st24{fill:#0000F6;}
	.st25{fill:#0000D1;}
	.st26{fill:#0000AD;}
	.st27{fill:#0000BB;}
	.st28{fill:#009CFF;}
	.st29{fill:#0078FF;}
	.st30{fill:#0000ED;}
	.st31{fill:#00CCFF;}
	.st32{fill:#002CFF;}
	.st33{fill:#00C4FF;}
	.st34{fill:#0050FF;}
	.st35{fill:#0000A4;}
	.st36{fill:#0000B6;}
	.st37{fill:#0000D6;}
	.st38{fill:#0004FF;}
	.st39{fill:#0000BF;}
	.st40{fill:#00D8FF;}
	.st41{fill:#0034FF;}
	.st42{fill:#00009F;}
	.st43{fill:#00BCFF;}
	.st44{fill:#23FFD4;}
	.st45{fill:#00ACFF;}
	.st46{fill:#1CFFDB;}
	.st47{fill:#0070FF;}
	.st48{fill:#000096;}
	.st49{fill:#26FFD1;}
	.st50{fill:#0044FF;}
	.st51{fill:#00E0FB;}
	.st52{fill:#0064FF;}
	.st53{fill:#19FFDE;}
	.st54{fill:#001CFF;}
	.st55{fill:#0000A8;}
	.st56{fill:#5AFF9D;}
	.st57{fill:#008CFF;}
	.st58{fill:#00B8FF;}
	.st59{fill:#00009B;}
	.st60{fill:#000092;}
	.st61{fill:#000CFF;}
	.st62{fill:#5DFF9A;}
	.st63{fill:#2CFFCA;}
	.st64{fill:#56FFA0;}
	.st65{fill:#000089;}
	.st66{fill:#006CFF;}
	.st67{fill:#16FFE1;}
	.st68{fill:#06ECF1;}
	.st69{fill:#94FF63;}
	.st70{fill:#0024FF;}
	.st71{fill:#005CFF;}
	.st72{fill:#0000DF;}
	.st73{fill:#0038FF;}
	.st74{fill:#90FF66;}
	.st75{fill:#00008D;}
	.st76{fill:#0030FF;}
	.st77{fill:#00A0FF;}
	.st78{fill:#33FFC4;}
	.st79{fill:#00B0FF;}
	.st80{fill:#00C8FF;}
	.st81{fill:#CAFF2C;}
	.st82{fill:#0000CD;}
	.st83{fill:#CEFF29;}
	.st84{fill:#C7FF30;}
	.st85{fill:#60FF97;}
	.st86{fill:#0040FF;}
	.st87{fill:#000080;}
	.st88{fill:#0FF8E7;}
	.st89{fill:#0060FF;}
	.st90{fill:#0054FF;}
	.st91{fill:#0074FF;}
	.st92{fill:#C1FF36;}
	.st93{fill:#000084;}
	.st94{fill:#97FF60;}
	.st95{fill:#004CFF;}
	.st96{fill:#D1FF26;}
	.st97{fill:#36FFC1;}
	.st98{fill:#8DFF6A;}
	.st99{fill:#FFEA00;}
	.st100{fill:#FBF100;}
	.st101{fill:#0080FF;}
	.st102{fill:#FFE200;}
	.st103{fill:#53FFA4;}
	.st104{fill:#007CFF;}
	.st105{fill:#63FF94;}
	.st106{fill:#0000FA;}
	.st107{fill:#F1FC06;}
	.st108{fill:#BEFF39;}
	.st109{fill:#D4FF23;}
	.st110{fill:#FFDB00;}
	.st111{fill:#0094FF;}
	.st112{fill:#FFB200;}
	.st113{fill:#13FCE4;}
	.st114{fill:#FFBD00;}
	.st115{fill:#0020FF;}
	.st116{fill:#FFA700;}
	.st117{fill:#3CFFBA;}
	.st118{fill:#00D0FF;}
	.st119{fill:#00A4FF;}
	.st120{fill:#EBFF0C;}
	.st121{fill:#FFC800;}
	.st122{fill:#00DCFE;}
	.st123{fill:#B7FF40;}
	.st124{fill:#FFD700;}
	.st125{fill:#FF7A00;}
	.st126{fill:#FF9C00;}
	.st127{fill:#FF8900;}
	.st128{fill:#00E4F8;}
	.st129{fill:#D7FF1F;}
	.st130{fill:#02E8F4;}
	.st131{fill:#FF6F00;}
	.st132{fill:#FF9800;}
	.st133{fill:#00A8FF;}
	.st134{fill:#1FFFD7;}
	.st135{fill:#E1FF16;}
	.st136{fill:#0CF4EB;}
	.st137{fill:#FF6000;}
	.st138{fill:#43FFB4;}
	.st139{fill:#FF4E00;}
	.st140{fill:#FFAB00;}
	.st141{fill:#FF9400;}
	.st142{fill:#FF6400;}
	.st143{fill:#50FFA7;}
	.st144{fill:#4DFFAA;}
	.st145{fill:#B4FF43;}
	.st146{fill:#00D4FF;}
	.st147{fill:#FF3F00;}
	.st148{fill:#FFD300;}
	.st149{fill:#49FFAD;}
	.st150{fill:#66FF90;}
	.st151{fill:#09F0EE;}
	.st152{fill:#FF3B00;}
	.st153{fill:#FF8600;}
	.st154{fill:#46FFB1;}
	.st155{fill:#FF2900;}
	.st156{fill:#80FF77;}
	.st157{fill:#FFB900;}
	.st158{fill:#8AFF6D;}
	.st159{fill:#29FFCE;}
	.st160{fill:#FF3000;}
	.st161{fill:#FF5900;}
	.st162{fill:#0098FF;}
	.st163{fill:#FF1600;}
	.st164{fill:#00B4FF;}
	.st165{fill:#FF9100;}
	.st166{fill:#39FFBE;}
	.st167{fill:#FF2200;}
	.st168{fill:#ADFF49;}
	.st169{fill:#FF3800;}
	.st170{fill:#F60B00;}
	.st171{fill:#00C0FF;}
	.st172{fill:#FFCC00;}
	.st173{fill:#AAFF4D;}
	.st174{fill:#BAFF3C;}
	.st175{fill:#FFD000;}
	.st176{fill:#F10800;}
	.st177{fill:#DF0000;}
	.st178{fill:#E4FF13;}
	.st179{fill:#FA0F00;}
	.st180{fill:#FF2500;}
	.st181{fill:#DBFF1C;}
	.st182{fill:#0000B2;}
	.st183{fill:#A7FF50;}
	.st184{fill:#FF5500;}
	.st185{fill:#30FFC7;}
	.st186{fill:#ED0400;}
	.st187{fill:#FF1E00;}
	.st188{fill:#C80000;}
	.st189{fill:#CD0000;}
	.st190{fill:#D10000;}
	.st191{fill:#A4FF53;}
	.st192{fill:#FF8D00;}
	.st193{fill:#FFB600;}
	.st194{fill:#E40000;}
	.st195{fill:#FFC100;}
	.st196{fill:#F8F500;}
	.st197{fill:#FF7E00;}
	.st198{fill:#83FF73;}
	.st199{fill:#FFC400;}
	.st200{fill:#40FFB7;}
	.st201{fill:#6AFF8D;}
	.st202{fill:#FF1300;}
	.st203{fill:#D60000;}
	.st204{fill:#FF4300;}
	.st205{fill:#FF6C00;}
	.st206{fill:#BB0000;}
	.st207{fill:#FF4700;}
	.st208{fill:#FFA300;}
	.st209{fill:#FF5200;}
	.st210{fill:#B20000;}
	.st211{fill:#A0FF56;}
	.st212{fill:#FF8200;}
	.st213{fill:#87FF70;}
	.st214{fill:#E7FF0F;}
	.st215{fill:#FF5D00;}
	.st216{fill:#FF3400;}
	.st217{fill:#BF0000;}
	.st218{fill:#FF6800;}
	.st219{fill:#7DFF7A;}
	.st220{fill:#FFE600;}
	.st221{fill:#FF7300;}
	.st222{fill:#A40000;}
	.st223{fill:#DA0000;}
	.st224{fill:#9DFF5A;}
	.st225{fill:#E80000;}
	.st226{fill:#FFAE00;}
	.st227{fill:#DEFF19;}
	.st228{fill:#9F0000;}
	.st229{fill:#A80000;}
	.st230{fill:#FEED00;}
	.st231{fill:#FF1A00;}
	.st232{fill:#C4FF33;}
	.st233{fill:#B60000;}
	.st234{fill:#9AFF5D;}
	.st235{fill:#960000;}
	.st236{fill:#F4F802;}
	.st237{fill:#EEFF09;}
	.st238{fill:#FF9F00;}
	.st239{fill:#FFDE00;}
	.st240{fill:#6DFF8A;}
	.st241{fill:#B1FF46;}
	.st242{fill:#890000;}
	.st243{fill:#FF2D00;}
	.st244{fill:#9B0000;}
	.st245{fill:#8D0000;}
	.st246{fill:#0010FF;}
	.st247{fill:#0000E3;}
	.st248{fill:#800000;}
	.st249{fill:#840000;}
	.st250{fill:#920000;}
	.st251{fill:#0088FF;}
	.st252{fill:#AD0000;}
	.st253{fill:#FF4A00;}
	.st254{fill:#C40000;}
	.st255{fill:#FF7700;}
	.st256{fill:url(#SVGID_1_);}
	.st257{fill:#FFFFFF;}
	.st258{fill:#357A6E;}
	.st259{fill-rule:evenodd;clip-rule:evenodd;fill:#2081E2;}
	.st260{opacity:0.3;}
	.st261{fill:#909090;}
	.st262{fill-rule:evenodd;clip-rule:evenodd;fill:#633001;}
	.st263{fill-rule:evenodd;clip-rule:evenodd;fill:#FEDC90;}
	.st264{fill-rule:evenodd;clip-rule:evenodd;fill:#D1884F;}
	.st265{fill:#005EDE;}
	.st266{fill:#294661;}
	.st267{fill:url(#Burn_00000029755222137962226890000004639987152015406516_);}
	.st268{fill:#C5C2C6;}
	.st269{fill-rule:evenodd;clip-rule:evenodd;fill:#12141E;}
	.st270{fill:#FFFFFF;filter:url(#Adobe_OpacityMaskFilter_00000052070528450465667690000002965991901846779013_);}
	.st271{mask:url(#mask0_112_10953_00000092452469575815252120000016433094664549502848_);}
	.st272{fill-rule:evenodd;clip-rule:evenodd;fill:#94FEBF;}
	.st273{fill:#FF007A;}
	.st274{fill-rule:evenodd;clip-rule:evenodd;fill:#FF007A;}
	.st275{fill:#253743;}
	.st276{fill-rule:evenodd;clip-rule:evenodd;fill:#FB6706;}
	.st277{fill:#FAD910;}
	.st278{fill:#FEDC10;}
	.st279{fill:#7CDFD4;}
	.st280{fill:#7CDFD5;}
	.st281{fill:#313838;}
	.st282{fill:#2D3538;}
	.st283{fill:#323A3D;}
	.st284{fill:#32393C;}
	.st285{fill:#2D3537;}
	.st286{opacity:0.5;fill-rule:evenodd;clip-rule:evenodd;fill:#FFFFFF;}
	.st287{fill:#FCFCFC;}
	.st288{fill:#AEB4BE;}
	.st289{fill:#3B382C;}
	.st290{fill:#3B3829;}
	.st291{fill:#5D5D5D;}
	.st292{fill:#575757;}
	.st293{fill:#282828;}
	.st294{fill:#1E1E1E;}
	.st295{fill:#CDB141;}
	.st296{fill:#D3B743;}
	.st297{fill-rule:evenodd;clip-rule:evenodd;fill:#0097A7;}
	.st298{fill:#4189C9;}
	.st299{fill:#262F71;}
	.st300{fill:#161F42;}
	.st301{fill:#5C94CE;}
	.st302{fill:#6497D0;}
	.st303{fill:#689AD1;}
	.st304{fill:#4E8FCC;}
	.st305{fill:#5591CD;}
	.st306{fill:#418AC9;}
	.st307{fill:#468CCA;}
	.st308{fill:#488DCA;}
	.st309{fill:#428AC9;}
	.st310{fill:#182144;}
	.st311{fill:#458CCA;}
	.st312{fill:#263154;}
	.st313{fill:#424A7F;}
	.st314{fill:#5A5D76;}
	.st315{fill:#4F668A;}
	.st316{fill:#555A73;}
	.st317{fill:#6D9CD2;}
	.st318{fill:#729FD4;}
	.st319{fill:#78A2D5;}
	.st320{fill:#7DA5D6;}
	.st321{fill:#81A7D8;}
	.st322{fill:#0E1F66;}
	.st323{fill:#699AD1;}
	.st324{fill:#88ABD9;}
	.st325{fill:url(#SVGID_00000049936402806359691990000013289151511671650189_);}
	.st326{fill:url(#SVGID_00000178904536687576968800000011014585282143708840_);}
	.st327{fill:url(#SVGID_00000118375029220274948740000006013482455516953011_);}
	.st328{fill:url(#SVGID_00000081635174441258847190000011035861349100000156_);}
	.st329{fill:url(#SVGID_00000054250179846648664320000017228118449897651099_);}
	.st330{fill:url(#SVGID_00000083083132204740658830000016189815821882383789_);}
	.st331{fill:url(#SVGID_00000183227619997477384170000011633201972809239479_);}
	.st332{fill:url(#SVGID_00000039131700223912581930000001970869965305169825_);}
	.st333{fill:url(#SVGID_00000060714218835173504860000008437504257112704168_);}
	.st334{fill:url(#SVGID_00000084503759662076012700000010818918674641302920_);}
	.st335{fill:url(#SVGID_00000136407910883477111390000009628375611259268495_);}
	.st336{fill:url(#SVGID_00000097493684842169048690000015134288077082594694_);}
	.st337{fill:url(#SVGID_00000094590203023546656750000006114331756542364308_);}
	.st338{fill:#F5A676;}
	.st339{fill:url(#SVGID_00000058577126174781415360000002085524967523360702_);}
	.st340{fill:url(#SVGID_00000072276824607716468350000015355341781325165757_);}
	.st341{fill:url(#SVGID_00000106148213447541293440000016054625305894060424_);}
</style>
<g id="Beefy">
	<circle class="st257" cx="32" cy="32" r="31.478"/>
	<path d="M50.457,38.121h-0.006h-0.006h-0.037c-0.216-0.009-0.477-0.036-0.761-0.182l-0.166-0.087l-0.026-0.096
		c-0.309-0.38-0.351-0.826-0.351-1.218c0.008-1.708,0.006-3.413,0.003-5.121v-0.625c0-1.008-0.564-1.959-1.37-2.462
		c0.458,0.859,0.682,1.786,0.671,2.764c-0.009,0.61-0.042,1.221-0.076,1.816c-0.017,0.278-0.031,0.556-0.045,0.835l-0.05,1.077
		c-0.031,0.673-0.062,1.349-0.095,2.022c-0.028,0.535-0.059,1.071-0.087,1.606c-0.022,0.401-0.045,0.799-0.067,1.2
		c-0.017,0.29-0.028,0.577-0.042,0.868c-0.011,0.242-0.022,0.482-0.033,0.724c-0.025,0.529-0.054,1.062-0.082,1.591l-0.087,1.687
		c-0.028,0.556-0.056,1.11-0.081,1.666c-0.037,0.829-0.716,1.532-1.483,1.535c-1.373,0.006-2.746,0.006-4.117,0
		c-0.688-0.003-1.317-0.571-1.463-1.319c-0.101-0.527-0.213-1.053-0.323-1.58l-0.205-0.99c-0.059-0.281-0.115-0.562-0.171-0.844
		c-2.092,0.003-4.178,0.003-6.265,0.003h-1.822l-0.056,0.266c-0.095,0.443-0.191,0.886-0.284,1.331
		c-0.051,0.242-0.101,0.488-0.152,0.73c-0.079,0.389-0.16,0.781-0.244,1.17c-0.157,0.709-0.755,1.224-1.427,1.23
		c-0.73,0.003-1.426,0.006-2.103,0.006c-0.691,0-1.359-0.003-2.016-0.006c-0.817-0.006-1.477-0.733-1.502-1.654
		c-0.008-0.341-0.014-0.679-0.02-1.02c-0.006-0.347-0.011-0.691-0.02-1.038c-0.017-0.616-0.042-1.233-0.065-1.852l-0.098-2.722
		l0.006-0.021c-0.011-0.159-0.014-0.308-0.014-0.449l-0.011-0.042v-0.066c0-0.066-0.023-0.191-0.126-0.428
		c-0.073-0.162-0.169-0.224-0.351-0.233l-0.045-0.003c-0.028-0.003-0.056-0.006-0.084-0.006l-0.385-0.009h-2.142
		c-0.051,0-0.093,0.003-0.132,0.006l-0.042,0.003h-0.073c-0.174,0-0.348,0-0.522,0.006h-0.017h-0.017
		c-0.025,0-0.048-0.003-0.076-0.003c-0.143-0.006-0.264-0.012-0.385-0.015l-0.281-0.048l-0.188-0.084
		c-1.741-0.368-2.901-1.499-3.423-3.354c-0.095-0.341-0.143-0.73-0.146-1.185c-0.011-2.456-0.011-5.044,0-7.697
		c0-0.063-0.006-0.093-0.006-0.102c-0.003,0-0.022-0.015-0.07-0.042c-1.266-0.673-2.148-1.783-2.617-3.297
		c-0.09-0.293-0.18-0.613-0.202-0.948c-0.022-0.338,0.07-0.649,0.267-0.877c0.202-0.233,0.503-0.365,0.845-0.368
		c0.694-0.006,1.387-0.012,2.084-0.015l0.621-0.003v-0.087c0.003-0.392,0.003-0.784,0-1.179c-0.011-1.05,0.584-1.968,1.485-2.283
		c0.696-0.242,1.424-0.138,1.999,0.287c0.567,0.419,0.907,1.089,0.935,1.834c0.014,0.356,0.008,0.715,0.006,1.059
		c0,0.117-0.003,0.233-0.003,0.35h2.446c0.003-0.141,0.003-0.278,0.006-0.419c0.003-0.395,0.008-0.805,0.036-1.215
		c0.065-0.933,0.798-1.786,1.702-1.98c1.157-0.248,2.294,0.476,2.592,1.648c0.053,0.209,0.079,0.437,0.087,0.736
		c0.006,0.314,0.006,0.628,0.006,0.942c0,0.102,0,0.206,0,0.308l1.008,0.006c0.559,0.003,1.115,0.006,1.674,0.012
		c0.362,0.003,0.646,0.12,0.848,0.344c0.202,0.224,0.298,0.532,0.286,0.918c-0.017,0.547-0.202,1.032-0.374,1.445
		c-0.427,1.026-1.045,1.834-1.836,2.414l2.634,0.006c2.651,0.003,5.304,0.009,7.955,0.015c2.468,0.006,4.543,0.015,6.649,0.036
		c2.207,0.021,4.153,1.535,4.841,3.763c0.171,0.556,0.258,1.17,0.261,1.879c0.006,1.122,0.006,2.247,0.003,3.369
		c0,0.706,0,1.412,0,2.118c0,0.293,0,0.646-0.157,0.969L50.457,38.121z M24.665,39.497l0.093,2.624
		c0.023,0.619,0.045,1.238,0.065,1.858c0.011,0.35,0.014,0.7,0.02,1.05c0.006,0.335,0.011,0.673,0.02,1.008
		c0.011,0.446,0.298,0.781,0.666,0.784c1.294,0.009,2.637,0.009,4.111,0c0.286-0.003,0.545-0.227,0.612-0.535
		c0.084-0.383,0.163-0.769,0.242-1.155c0.05-0.245,0.101-0.491,0.152-0.736c0.093-0.446,0.191-0.889,0.286-1.334l0.183-0.844
		l0.27-0.087c0.036-0.012,0.095-0.036,0.177-0.036h2.075c2.134,0,4.265,0,6.4-0.003c0,0,0,0,0.003,0
		c0.351,0,0.592,0.215,0.666,0.589c0.062,0.32,0.126,0.637,0.194,0.957l0.205,0.987c0.112,0.53,0.222,1.062,0.326,1.592
		c0.064,0.332,0.354,0.604,0.643,0.604c1.37,0.006,2.741,0.006,4.111,0c0.32,0,0.626-0.326,0.643-0.682
		c0.025-0.559,0.053-1.116,0.081-1.672l0.087-1.687c0.028-0.529,0.056-1.059,0.081-1.589c0.011-0.239,0.023-0.479,0.034-0.718
		c0.014-0.293,0.026-0.583,0.042-0.877c0.022-0.401,0.045-0.802,0.067-1.203c0.031-0.533,0.062-1.068,0.087-1.6
		c0.034-0.673,0.065-1.346,0.096-2.019l0.05-1.077c0.014-0.281,0.028-0.562,0.045-0.844c0.034-0.583,0.067-1.185,0.076-1.774
		c0.014-1.104-0.34-2.136-1.05-3.069c-0.036-0.048-0.067-0.096-0.101-0.159l-0.424-0.7l0.755-0.057
		c0.042-0.006,0.104-0.012,0.174-0.003c1.671,0.242,3.033,1.903,3.035,3.698v0.625c0.003,1.708,0.003,3.416-0.003,5.124
		c0,0.308,0.037,0.485,0.141,0.619c0.067,0.027,0.132,0.042,0.205,0.051l0.129,0.009c0.011-0.003,0.022-0.003,0.031-0.006
		c0.008-0.006,0.017-0.012,0.025-0.018l0.025-0.018c0.166-0.123,0.183-0.272,0.18-0.664c0-0.727,0-1.433,0-2.142
		c0-1.122,0-2.244-0.003-3.366c-0.003-0.613-0.073-1.14-0.219-1.604c-0.576-1.864-2.204-3.129-4.049-3.147
		c-2.103-0.021-4.175-0.03-6.644-0.036c-2.651-0.006-5.304-0.012-7.955-0.015l-3.434-0.006h-0.031c-0.053,0-0.107,0.003-0.16-0.006
		c-0.056-0.009-0.112-0.021-0.163-0.033l-0.27-0.06l-0.079-0.239c-0.129-0.401,0.025-0.763,0.399-0.921
		c0.048-0.021,0.095-0.042,0.14-0.066c0.913-0.494,1.578-1.262,2.033-2.348c0.146-0.35,0.289-0.724,0.301-1.107
		c0.003-0.129-0.017-0.224-0.053-0.266c-0.037-0.042-0.129-0.066-0.247-0.066c-0.556-0.006-1.115-0.009-1.671-0.012l-1.134-0.009
		c-0.065,0-0.132-0.006-0.202-0.009l-0.472-0.027l-0.025-0.5c-0.006-0.075-0.008-0.141-0.008-0.206c0-0.156,0-0.311,0-0.467
		c0-0.305,0.003-0.61-0.006-0.915c-0.003-0.141-0.011-0.347-0.056-0.524c-0.16-0.628-0.806-1.176-1.615-1.002
		c-0.531,0.114-0.991,0.637-1.028,1.167c-0.025,0.38-0.031,0.757-0.034,1.158c-0.003,0.185-0.003,0.374-0.009,0.559
		c-0.011,0.072-0.017,0.15-0.022,0.227l-0.028,0.515h-4.089v-0.778c0-0.159,0.003-0.317,0.003-0.476
		c0.003-0.335,0.006-0.682-0.006-1.017c-0.017-0.461-0.225-0.874-0.573-1.131c-0.357-0.263-0.814-0.326-1.258-0.174
		c-0.55,0.191-0.913,0.763-0.907,1.418c0.006,0.398,0.003,0.796,0,1.194v0.236c0,0.075-0.006,0.147-0.011,0.227l-0.034,0.515
		l-1.412,0.006c-0.694,0.006-1.387,0.009-2.081,0.015c-0.104,0-0.188,0.03-0.233,0.081c-0.039,0.054-0.045,0.141-0.042,0.203
		c0.017,0.236,0.087,0.494,0.163,0.733c0.396,1.277,1.134,2.211,2.193,2.773c0.376,0.2,0.545,0.494,0.542,0.951
		c-0.011,2.651-0.011,5.235,0,7.688c0.003,0.371,0.037,0.676,0.11,0.933c0.432,1.535,1.351,2.432,2.805,2.743
		c0.065,0.015,0.129,0.036,0.185,0.066c0.006,0.003,0.008,0.003,0.014,0.006c0.008,0.003,0.017,0.006,0.025,0.009
		c0.017,0.003,0.034,0.009,0.051,0.012c0.025,0.003,0.051,0.006,0.076,0.012c0.11,0.003,0.219,0.009,0.329,0.012
		c0.017,0,0.051,0,0.084,0c0.18-0.006,0.359-0.006,0.539-0.006h0.053c0.067-0.006,0.135-0.009,0.202-0.009h2.951v0.054
		c0.362,0.09,0.637,0.329,0.806,0.703c0.084,0.188,0.196,0.47,0.208,0.763c0.008,0.045,0.011,0.09,0.011,0.132
		c0,0.141,0,0.287,0.014,0.428C24.671,39.41,24.668,39.455,24.665,39.497z M19.142,38.127c0.008,0.003,0.017,0.006,0.022,0.009
		L19.142,38.127z M26.266,46.078c-0.505,0-0.705-0.212-0.708-0.76l-0.031-5.732c-0.003-0.7-0.008-1.4-0.02-2.097
		c-0.006-0.338,0.124-0.589,0.399-0.763c0.789-0.497,1.331-1.218,1.609-2.136c0.076-0.251,0.118-0.55,0.118-0.865
		c0.009-1.472,0.009-2.944,0.009-4.415v-1.475v-0.087c0-0.045,0-0.087,0-0.132c-0.009-0.242,0.084-0.392,0.16-0.479
		c0.076-0.084,0.211-0.191,0.441-0.183h0.865c0.8,0,1.603,0,2.404,0h0.309h11.193v0.054c0.396,0,0.789-0.003,1.185-0.003
		c0.003,0,0.003,0,0.006,0c0.295,0,0.536,0.117,0.733,0.359c0.211,0.254,0.441,0.517,0.688,0.787c0.89,0.957,1.297,2.106,1.216,3.41
		c-0.039,0.631-0.07,1.263-0.098,1.894l-0.211,4.293c-0.065,1.322-0.132,2.645-0.199,3.967c-0.034,0.661-0.07,1.319-0.107,1.98
		l-0.135,2.375h-3.903l-0.079-0.338c-0.199-0.844-0.382-1.708-0.559-2.543c-0.129-0.613-0.261-1.229-0.399-1.849
		c-3.535,0-7.068-0.003-10.603,0c-0.09,0.431-0.185,0.862-0.281,1.292l-0.199,0.906c-0.135,0.625-0.27,1.251-0.402,1.876
		c-0.107,0.515-0.284,0.667-0.758,0.667L26.266,46.078z M26.35,37.49c0.011,0.712,0.017,1.403,0.02,2.091l0.031,5.6h2.454
		c0.129-0.625,0.264-1.236,0.396-1.849l0.199-0.909c0.098-0.443,0.194-0.886,0.287-1.328c0.09-0.425,0.233-0.658,0.741-0.658
		c3.589,0,7.177,0,10.763,0c0.067,0,0.135,0.006,0.205,0.015l0.376,0.036l0.073,0.314c0.166,0.73,0.32,1.46,0.475,2.184
		c0.152,0.718,0.309,1.457,0.475,2.184h2.451l0.087-1.529c0.036-0.658,0.073-1.316,0.107-1.977c0.067-1.322,0.135-2.642,0.199-3.964
		l0.211-4.29c0.031-0.637,0.059-1.274,0.098-1.909c0.067-1.053-0.253-1.941-0.975-2.719c-0.258-0.278-0.503-0.556-0.722-0.826
		c-0.042-0.051-0.048-0.051-0.104-0.051c-0.536,0.003-1.073,0.003-1.609,0.003h-0.421v-0.054l-10.35,0.003c-0.904,0-1.808,0-2.713,0
		h-0.626v1.454c0,1.475,0.003,2.95-0.008,4.425c-0.003,0.404-0.059,0.796-0.16,1.131C27.976,35.994,27.313,36.876,26.35,37.49z
		 M28.237,27.854C28.234,27.854,28.234,27.854,28.237,27.854L28.237,27.854z M19.97,36.703c-0.789,0-1.432-0.197-1.957-0.607
		c-0.859-0.664-1.295-1.6-1.297-2.782c0-1.918,0-3.835,0-5.75v-2.531c0-0.048,0-0.099,0-0.147c-0.006-0.123-0.028-0.221-0.278-0.302
		c-0.96-0.311-1.71-1.002-2.224-2.052c-0.031-0.063-0.056-0.132-0.079-0.2c-0.037-0.117-0.02-0.215-0.014-0.257L14.18,21.7
		l0.362-0.039h6.986v0.888c0,0.194-0.003,0.389-0.003,0.583c-0.006,0.428-0.011,0.835,0.02,1.239
		c0.079,1.032,0.345,2.076,0.789,3.105c0.396,0.918,0.913,1.726,1.533,2.399c0.859,0.93,1.778,1.538,2.811,1.858
		c0.438,0.138,0.458,0.509,0.455,0.619c-0.006,0.183-0.003,0.362,0.003,0.545c0.011,0.398,0.02,0.811-0.07,1.242
		c-0.225,1.059-0.817,1.828-1.766,2.286c-0.388,0.188-0.812,0.275-1.339,0.275h-1.446c-0.842,0-1.688,0-2.53,0.003
		C19.979,36.703,19.976,36.703,19.97,36.703z M15.211,22.562c0.382,0.586,0.868,0.969,1.471,1.167
		c0.73,0.236,0.862,0.805,0.873,1.125c0.003,0.063,0.003,0.129,0.003,0.191v2.525c0,1.918,0,3.832,0,5.75
		c0,0.889,0.312,1.562,0.949,2.055c0.385,0.299,0.859,0.434,1.474,0.434c0.845-0.003,1.688-0.003,2.533-0.003h1.446
		c0.402,0,0.716-0.063,0.991-0.194c0.705-0.341,1.129-0.889,1.292-1.669c0.067-0.32,0.059-0.661,0.051-1.02
		c-0.003-0.126-0.006-0.251-0.006-0.377c-1.104-0.377-2.117-1.059-3.021-2.04c-0.688-0.745-1.261-1.639-1.696-2.653
		c-0.486-1.125-0.775-2.271-0.862-3.407c-0.034-0.446-0.028-0.892-0.022-1.322c0.003-0.185,0.006-0.374,0.003-0.559H15.211z
		 M24.868,29.556h-0.003c-0.315,0-0.629-0.147-0.862-0.401c-0.23-0.251-0.36-0.586-0.351-0.918c0.017-0.691,0.565-1.268,1.199-1.268
		c0.006,0,0.011,0,0.014,0c0.334,0.006,0.677,0.177,0.91,0.458c0.213,0.254,0.315,0.565,0.289,0.874
		C26.05,28.981,25.505,29.556,24.868,29.556z M24.851,27.863c-0.174,0-0.351,0.197-0.357,0.395c-0.003,0.09,0.039,0.191,0.112,0.269
		c0.073,0.081,0.171,0.132,0.261,0.132c0.174,0,0.354-0.198,0.357-0.392l0.003-0.042c0.006-0.06-0.025-0.138-0.081-0.204
		c-0.079-0.093-0.191-0.156-0.292-0.156C24.854,27.863,24.854,27.863,24.851,27.863z M19.193,21.045h-1.441l-0.07-0.413
		c-0.011-0.054-0.025-0.126-0.025-0.209c-0.003-0.494-0.006-0.987,0-1.481c0.003-0.185,0.031-0.347,0.087-0.485
		c0.146-0.35,0.545-0.58,0.887-0.509c0.404,0.084,0.691,0.446,0.696,0.883c0.006,0.428,0.003,0.859,0,1.286l-0.003,0.368
		c0,0.093-0.022,0.165-0.037,0.206L19.193,21.045z M18.519,18.831c0,0-0.003,0-0.003,0.003
		C18.519,18.831,18.521,18.831,18.519,18.831C18.521,18.831,18.521,18.831,18.519,18.831z M26.193,21.039h-1.668V20.07
		c0-0.425-0.003-0.838,0.006-1.25c0.008-0.455,0.354-0.844,0.786-0.88c0.213-0.018,0.441,0.069,0.612,0.23
		c0.163,0.156,0.255,0.359,0.261,0.577c0.011,0.44,0.011,0.886,0.008,1.316L26.193,21.039z"/>
</g>
</svg>
