<?xml version="1.0" encoding="utf-8"?>
<!-- Generator: Adobe Illustrator 26.5.0, SVG Export Plug-In . SVG Version: 6.00 Build 0)  -->
<svg version="1.1" id="Symbols" xmlns="http://www.w3.org/2000/svg" xmlns:xlink="http://www.w3.org/1999/xlink" x="0px" y="0px"
	 viewBox="0 0 64 64" style="enable-background:new 0 0 64 64;" xml:space="preserve">
<style type="text/css">
	.st0{fill:#FFFFFF;filter:url(#Adobe_OpacityMaskFilter);}
	.st1{mask:url(#mask0_112_7146_00000008845039539712777760000007286939943601532295_);}
	.st2{fill-rule:evenodd;clip-rule:evenodd;fill:#FFFFFF;}
	.st3{fill-rule:evenodd;clip-rule:evenodd;fill:#94A6C3;}
	.st4{fill-rule:evenodd;clip-rule:evenodd;fill:#1B314F;}
	.st5{fill-rule:evenodd;clip-rule:evenodd;fill:#FFD923;}
	.st6{fill-rule:evenodd;clip-rule:evenodd;fill:#D82122;}
	.st7{fill:#40649F;}
	.st8{fill:#0000FF;}
	.st9{fill:#0028FF;}
	.st10{fill:#0018FF;}
	.st11{fill:#0000F1;}
	.st12{fill:#0000DA;}
	.st13{fill:#0058FF;}
	.st14{fill:#0048FF;}
	.st15{fill:#0014FF;}
	.st16{fill:#0000E8;}
	.st17{fill:#0000C4;}
	.st18{fill:#003CFF;}
	.st19{fill:#0008FF;}
	.st20{fill:#0000C8;}
	.st21{fill:#0090FF;}
	.st22{fill:#0084FF;}
	.st23{fill:#0068FF;}
	.st24{fill:#0000F6;}
	.st25{fill:#0000D1;}
	.st26{fill:#0000AD;}
	.st27{fill:#0000BB;}
	.st28{fill:#009CFF;}
	.st29{fill:#0078FF;}
	.st30{fill:#0000ED;}
	.st31{fill:#00CCFF;}
	.st32{fill:#002CFF;}
	.st33{fill:#00C4FF;}
	.st34{fill:#0050FF;}
	.st35{fill:#0000A4;}
	.st36{fill:#0000B6;}
	.st37{fill:#0000D6;}
	.st38{fill:#0004FF;}
	.st39{fill:#0000BF;}
	.st40{fill:#00D8FF;}
	.st41{fill:#0034FF;}
	.st42{fill:#00009F;}
	.st43{fill:#00BCFF;}
	.st44{fill:#23FFD4;}
	.st45{fill:#00ACFF;}
	.st46{fill:#1CFFDB;}
	.st47{fill:#0070FF;}
	.st48{fill:#000096;}
	.st49{fill:#26FFD1;}
	.st50{fill:#0044FF;}
	.st51{fill:#00E0FB;}
	.st52{fill:#0064FF;}
	.st53{fill:#19FFDE;}
	.st54{fill:#001CFF;}
	.st55{fill:#0000A8;}
	.st56{fill:#5AFF9D;}
	.st57{fill:#008CFF;}
	.st58{fill:#00B8FF;}
	.st59{fill:#00009B;}
	.st60{fill:#000092;}
	.st61{fill:#000CFF;}
	.st62{fill:#5DFF9A;}
	.st63{fill:#2CFFCA;}
	.st64{fill:#56FFA0;}
	.st65{fill:#000089;}
	.st66{fill:#006CFF;}
	.st67{fill:#16FFE1;}
	.st68{fill:#06ECF1;}
	.st69{fill:#94FF63;}
	.st70{fill:#0024FF;}
	.st71{fill:#005CFF;}
	.st72{fill:#0000DF;}
	.st73{fill:#0038FF;}
	.st74{fill:#90FF66;}
	.st75{fill:#00008D;}
	.st76{fill:#0030FF;}
	.st77{fill:#00A0FF;}
	.st78{fill:#33FFC4;}
	.st79{fill:#00B0FF;}
	.st80{fill:#00C8FF;}
	.st81{fill:#CAFF2C;}
	.st82{fill:#0000CD;}
	.st83{fill:#CEFF29;}
	.st84{fill:#C7FF30;}
	.st85{fill:#60FF97;}
	.st86{fill:#0040FF;}
	.st87{fill:#000080;}
	.st88{fill:#0FF8E7;}
	.st89{fill:#0060FF;}
	.st90{fill:#0054FF;}
	.st91{fill:#0074FF;}
	.st92{fill:#C1FF36;}
	.st93{fill:#000084;}
	.st94{fill:#97FF60;}
	.st95{fill:#004CFF;}
	.st96{fill:#D1FF26;}
	.st97{fill:#36FFC1;}
	.st98{fill:#8DFF6A;}
	.st99{fill:#FFEA00;}
	.st100{fill:#FBF100;}
	.st101{fill:#0080FF;}
	.st102{fill:#FFE200;}
	.st103{fill:#53FFA4;}
	.st104{fill:#007CFF;}
	.st105{fill:#63FF94;}
	.st106{fill:#0000FA;}
	.st107{fill:#F1FC06;}
	.st108{fill:#BEFF39;}
	.st109{fill:#D4FF23;}
	.st110{fill:#FFDB00;}
	.st111{fill:#0094FF;}
	.st112{fill:#FFB200;}
	.st113{fill:#13FCE4;}
	.st114{fill:#FFBD00;}
	.st115{fill:#0020FF;}
	.st116{fill:#FFA700;}
	.st117{fill:#3CFFBA;}
	.st118{fill:#00D0FF;}
	.st119{fill:#00A4FF;}
	.st120{fill:#EBFF0C;}
	.st121{fill:#FFC800;}
	.st122{fill:#00DCFE;}
	.st123{fill:#B7FF40;}
	.st124{fill:#FFD700;}
	.st125{fill:#FF7A00;}
	.st126{fill:#FF9C00;}
	.st127{fill:#FF8900;}
	.st128{fill:#00E4F8;}
	.st129{fill:#D7FF1F;}
	.st130{fill:#02E8F4;}
	.st131{fill:#FF6F00;}
	.st132{fill:#FF9800;}
	.st133{fill:#00A8FF;}
	.st134{fill:#1FFFD7;}
	.st135{fill:#E1FF16;}
	.st136{fill:#0CF4EB;}
	.st137{fill:#FF6000;}
	.st138{fill:#43FFB4;}
	.st139{fill:#FF4E00;}
	.st140{fill:#FFAB00;}
	.st141{fill:#FF9400;}
	.st142{fill:#FF6400;}
	.st143{fill:#50FFA7;}
	.st144{fill:#4DFFAA;}
	.st145{fill:#B4FF43;}
	.st146{fill:#00D4FF;}
	.st147{fill:#FF3F00;}
	.st148{fill:#FFD300;}
	.st149{fill:#49FFAD;}
	.st150{fill:#66FF90;}
	.st151{fill:#09F0EE;}
	.st152{fill:#FF3B00;}
	.st153{fill:#FF8600;}
	.st154{fill:#46FFB1;}
	.st155{fill:#FF2900;}
	.st156{fill:#80FF77;}
	.st157{fill:#FFB900;}
	.st158{fill:#8AFF6D;}
	.st159{fill:#29FFCE;}
	.st160{fill:#FF3000;}
	.st161{fill:#FF5900;}
	.st162{fill:#0098FF;}
	.st163{fill:#FF1600;}
	.st164{fill:#00B4FF;}
	.st165{fill:#FF9100;}
	.st166{fill:#39FFBE;}
	.st167{fill:#FF2200;}
	.st168{fill:#ADFF49;}
	.st169{fill:#FF3800;}
	.st170{fill:#F60B00;}
	.st171{fill:#00C0FF;}
	.st172{fill:#FFCC00;}
	.st173{fill:#AAFF4D;}
	.st174{fill:#BAFF3C;}
	.st175{fill:#FFD000;}
	.st176{fill:#F10800;}
	.st177{fill:#DF0000;}
	.st178{fill:#E4FF13;}
	.st179{fill:#FA0F00;}
	.st180{fill:#FF2500;}
	.st181{fill:#DBFF1C;}
	.st182{fill:#0000B2;}
	.st183{fill:#A7FF50;}
	.st184{fill:#FF5500;}
	.st185{fill:#30FFC7;}
	.st186{fill:#ED0400;}
	.st187{fill:#FF1E00;}
	.st188{fill:#C80000;}
	.st189{fill:#CD0000;}
	.st190{fill:#D10000;}
	.st191{fill:#A4FF53;}
	.st192{fill:#FF8D00;}
	.st193{fill:#FFB600;}
	.st194{fill:#E40000;}
	.st195{fill:#FFC100;}
	.st196{fill:#F8F500;}
	.st197{fill:#FF7E00;}
	.st198{fill:#83FF73;}
	.st199{fill:#FFC400;}
	.st200{fill:#40FFB7;}
	.st201{fill:#6AFF8D;}
	.st202{fill:#FF1300;}
	.st203{fill:#D60000;}
	.st204{fill:#FF4300;}
	.st205{fill:#FF6C00;}
	.st206{fill:#BB0000;}
	.st207{fill:#FF4700;}
	.st208{fill:#FFA300;}
	.st209{fill:#FF5200;}
	.st210{fill:#B20000;}
	.st211{fill:#A0FF56;}
	.st212{fill:#FF8200;}
	.st213{fill:#87FF70;}
	.st214{fill:#E7FF0F;}
	.st215{fill:#FF5D00;}
	.st216{fill:#FF3400;}
	.st217{fill:#BF0000;}
	.st218{fill:#FF6800;}
	.st219{fill:#7DFF7A;}
	.st220{fill:#FFE600;}
	.st221{fill:#FF7300;}
	.st222{fill:#A40000;}
	.st223{fill:#DA0000;}
	.st224{fill:#9DFF5A;}
	.st225{fill:#E80000;}
	.st226{fill:#FFAE00;}
	.st227{fill:#DEFF19;}
	.st228{fill:#9F0000;}
	.st229{fill:#A80000;}
	.st230{fill:#FEED00;}
	.st231{fill:#FF1A00;}
	.st232{fill:#C4FF33;}
	.st233{fill:#B60000;}
	.st234{fill:#9AFF5D;}
	.st235{fill:#960000;}
	.st236{fill:#F4F802;}
	.st237{fill:#EEFF09;}
	.st238{fill:#FF9F00;}
	.st239{fill:#FFDE00;}
	.st240{fill:#6DFF8A;}
	.st241{fill:#B1FF46;}
	.st242{fill:#890000;}
	.st243{fill:#FF2D00;}
	.st244{fill:#9B0000;}
	.st245{fill:#8D0000;}
	.st246{fill:#0010FF;}
	.st247{fill:#0000E3;}
	.st248{fill:#800000;}
	.st249{fill:#840000;}
	.st250{fill:#920000;}
	.st251{fill:#0088FF;}
	.st252{fill:#AD0000;}
	.st253{fill:#FF4A00;}
	.st254{fill:#C40000;}
	.st255{fill:#FF7700;}
	.st256{fill:url(#SVGID_1_);}
	.st257{fill:#FFFFFF;}
	.st258{fill:#357A6E;}
	.st259{fill-rule:evenodd;clip-rule:evenodd;fill:#2081E2;}
	.st260{opacity:0.3;}
	.st261{fill:#909090;}
	.st262{fill-rule:evenodd;clip-rule:evenodd;fill:#633001;}
	.st263{fill-rule:evenodd;clip-rule:evenodd;fill:#FEDC90;}
	.st264{fill-rule:evenodd;clip-rule:evenodd;fill:#D1884F;}
	.st265{fill:#005EDE;}
	.st266{fill:#294661;}
	.st267{fill:url(#Burn_00000132789694457587597710000018259183826578786491_);}
	.st268{fill:#C5C2C6;}
	.st269{fill-rule:evenodd;clip-rule:evenodd;fill:#12141E;}
	.st270{fill:#FFFFFF;filter:url(#Adobe_OpacityMaskFilter_00000026159306759970185920000013416567205223381147_);}
	.st271{mask:url(#mask0_112_10953_00000092452469575815252120000016433094664549502848_);}
	.st272{fill-rule:evenodd;clip-rule:evenodd;fill:#94FEBF;}
	.st273{fill:#FF007A;}
	.st274{fill-rule:evenodd;clip-rule:evenodd;fill:#FF007A;}
	.st275{fill:#253743;}
	.st276{fill-rule:evenodd;clip-rule:evenodd;fill:#FB6706;}
	.st277{fill:#FAD910;}
	.st278{fill:#FEDC10;}
	.st279{fill:#7CDFD4;}
	.st280{fill:#7CDFD5;}
	.st281{fill:#313838;}
	.st282{fill:#2D3538;}
	.st283{fill:#323A3D;}
	.st284{fill:#32393C;}
	.st285{fill:#2D3537;}
	.st286{opacity:0.5;fill-rule:evenodd;clip-rule:evenodd;fill:#FFFFFF;}
	.st287{fill:#FCFCFC;}
	.st288{fill:#AEB4BE;}
	.st289{fill:#3B382C;}
	.st290{fill:#3B3829;}
	.st291{fill:#5D5D5D;}
	.st292{fill:#575757;}
	.st293{fill:#282828;}
	.st294{fill:#1E1E1E;}
	.st295{fill:#CDB141;}
	.st296{fill:#D3B743;}
	.st297{fill-rule:evenodd;clip-rule:evenodd;fill:#0097A7;}
	.st298{fill:#4189C9;}
	.st299{fill:#262F71;}
	.st300{fill:#161F42;}
	.st301{fill:#5C94CE;}
	.st302{fill:#6497D0;}
	.st303{fill:#689AD1;}
	.st304{fill:#4E8FCC;}
	.st305{fill:#5591CD;}
	.st306{fill:#418AC9;}
	.st307{fill:#468CCA;}
	.st308{fill:#488DCA;}
	.st309{fill:#428AC9;}
	.st310{fill:#182144;}
	.st311{fill:#458CCA;}
	.st312{fill:#263154;}
	.st313{fill:#424A7F;}
	.st314{fill:#5A5D76;}
	.st315{fill:#4F668A;}
	.st316{fill:#555A73;}
	.st317{fill:#6D9CD2;}
	.st318{fill:#729FD4;}
	.st319{fill:#78A2D5;}
	.st320{fill:#7DA5D6;}
	.st321{fill:#81A7D8;}
	.st322{fill:#0E1F66;}
	.st323{fill:#699AD1;}
	.st324{fill:#88ABD9;}
	.st325{fill:url(#SVGID_00000041265541259173769960000014761045034995663264_);}
	.st326{fill:url(#SVGID_00000183933624268084547730000000940326150583398838_);}
	.st327{fill:url(#SVGID_00000037659987434203220030000010364196958815987899_);}
	.st328{fill:url(#SVGID_00000030456012760146915860000013059548823170593942_);}
	.st329{fill:url(#SVGID_00000093170154441685631090000009025226394787021995_);}
	.st330{fill:url(#SVGID_00000065783015815217251450000012394986841582325422_);}
	.st331{fill:url(#SVGID_00000072260101959621910990000007577709868965530553_);}
	.st332{fill:url(#SVGID_00000168117277500882133070000009477899354721027476_);}
	.st333{fill:url(#SVGID_00000079452292725276154970000009107382410433569215_);}
	.st334{fill:url(#SVGID_00000164473946846307213110000008923820883845651612_);}
	.st335{fill:url(#SVGID_00000070806067952967712330000018142752661110110124_);}
	.st336{fill:url(#SVGID_00000058559261778008866250000015453772726232369583_);}
	.st337{fill:url(#SVGID_00000140733632814787476260000017693506845050852023_);}
	.st338{fill:#F5A676;}
	.st339{fill:url(#SVGID_00000003099155215640181420000006692098712470707599_);}
	.st340{fill:url(#SVGID_00000127022436875431591410000003515166316657141183_);}
	.st341{fill:url(#SVGID_00000113327965753270689150000000704011950627877266_);}
	.st342{fill:#BC423E;}
	.st343{fill:#343738;}
	.st344{fill:#59C6F2;}
	.st345{fill:#FEDA03;}
	.st346{fill:#33363F;}
	.st347{fill:#FFE804;}
	.st348{fill:#211F24;}
	.st349{fill:#F2AF4E;}
	.st350{fill-rule:evenodd;clip-rule:evenodd;fill:#6441D2;}
	.st351{fill:#F1716A;}
	.st352{fill:#A14741;}
	.st353{fill:#D5D5D5;}
	.st354{fill:#DA5B54;}
	.st355{fill:#876B59;}
	.st356{fill:#BC957F;}
	.st357{fill:#888888;}
	.st358{fill:#3C1A26;}
	.st359{fill:#29121A;}
	.st360{fill:#886B59;}
	.st361{fill:#BD957E;}
	.st362{fill:#9F3D5C;}
	.st363{fill:#C55362;}
	.st364{fill:#9C4052;}
	.st365{fill:#2D141D;}
	.st366{fill:#BE967F;}
	.st367{fill:#AC3D52;}
	.st368{fill:#A7395B;}
	.st369{fill:#B64866;}
	.st370{fill:#C4505F;}
	.st371{fill:#C65163;}
	.st372{fill:#AF3C54;}
	.st373{fill:#C55062;}
	.st374{fill:#B9486D;}
	.st375{fill:#C77576;}
	.st376{fill:#C67274;}
	.st377{fill:#B03C56;}
	.st378{fill:#CA757C;}
	.st379{fill:#AD7262;}
	.st380{fill:#A24742;}
	.st381{fill:#903341;}
	.st382{fill:#9D413F;}
	.st383{fill:#D85A54;}
	.st384{fill:#8A2E39;}
	.st385{fill:#FDFDFD;}
	.st386{fill:#483138;}
	.st387{fill:#FAF9F9;}
	.st388{fill:#4B333A;}
	.st389{fill:#30181D;}
	.st390{fill:#9A3D58;}
	.st391{fill:#AF3C53;}
	.st392{fill:#C55060;}
	.st393{fill:#DA8573;}
	.st394{fill:#A5394D;}
	.st395{fill:#B36B72;}
	.st396{fill:#D85D56;}
	.st397{fill:#C24E5E;}
	.st398{fill:#D45C55;}
	.st399{fill:#D55953;}
	.st400{fill:#D88170;}
	.st401{fill:#8D2F4D;}
	.st402{fill:#A66168;}
	.st403{fill:#923545;}
	.st404{fill:#AC7364;}
	.st405{fill:#AB696E;}
	.st406{fill:#C0504B;}
	.st407{fill:#A14642;}
	.st408{fill:#C97F6C;}
	.st409{fill:#BF5550;}
	.st410{fill:#C2524C;}
	.st411{fill:#A74E47;}
	.st412{fill:#B64767;}
	.st413{fill:#C87577;}
	.st414{fill:#D65953;}
	.st415{fill:#B17664;}
	.st416{fill:#DA8673;}
	.st417{fill:#B34146;}
	.st418{fill-rule:evenodd;clip-rule:evenodd;fill:#2C2F36;}
	.st419{fill-rule:evenodd;clip-rule:evenodd;fill:#8878C3;}
	.st420{fill:#6D619A;}
	.st421{fill:#BFB7DE;stroke:#6D619A;stroke-width:4;}
	.st422{fill:#E3DFF3;stroke:#6D619A;stroke-width:4;}
	.st423{fill:#E4C6C6;}
</style>
<g id="Ubeswap">
	<path id="Head_00000038414717615016532900000015689687603780906151_" class="st418" d="M32,0.5221
		C14.6133,0.5221,0.5221,14.6133,0.5221,32S14.6133,63.4779,32,63.4779S63.4779,49.3867,63.4779,32S49.3867,0.5221,32,0.5221z"/>
	<g>
		<path class="st2" d="M36.8696,18.2152c-4.772,2.1474-10.2358,6.4766-12.5363,8.8708c-0.0882,0.0784-0.1746,0.1595-0.2591,0.2433
			c-2.8685,2.8505-2.4194,7.9117,0.9001,11.6579l-0.0691-0.0002c-5.2756,0-9.6207,1.7041-10.1912,3.8955
			c-0.1818,0.5002-0.1146,1.9081-0.0795,2.6447c0.0089,0.1898,0.016,0.3349,0.016,0.4085c0,2.0124,4.6481,4.0989,10.2696,4.0989
			s10.1784-1.8021,10.1784-4.0246c0-0.0462,0.003-0.1714,0.0073-0.3463c0.0116-0.4805,0.0323-1.3353,0.0242-1.9527
			c0.0557-0.3116,0.0337-0.632-0.0638-0.9331c1.1511-0.2664,2.2004-0.7986,3.0578-1.6062l-0.0631,0.0636
			c-0.208,0.2068-0.4302,0.3987-0.6651,0.5744c1.4376-0.7401,2.4919-2.3125,3.8135-4.351
			c4.1921-7.1989,8.2027-14.6695,8.9288-19.8724c0.5138-3.6826-1.0101-3.5689-4.7059-2.6623
			C43.6398,15.3639,38.4364,17.5099,36.8696,18.2152L36.8696,18.2152z M34.7321,42.1155c-1.1373-1.628-4.4257-2.859-8.4544-3.0895
			c-0.1009-0.0057-0.2023-0.0109-0.304-0.0155c-3.6022-3.6202-4.0172-8.572-1.3972-11.1756
			c2.6734-2.6562,7.8595-2.2515,11.6099,1.3799l-9.9086,9.8113l9.9087-9.8113c3.7494,3.6327,4.2149,8.6908,1.5561,11.3339h-0.0002
			C36.9332,41.3537,35.8932,41.8775,34.7321,42.1155z M43.9822,24.7631c0-0.9064-1.6028-3.96-2.7717-4.5337
			c-1.8489-0.9064-1.8489,0,0,1.8131c0.7807,0.7667,1.3966,1.533,1.8475,2.094c0.6163,0.7668,0.9242,1.1502,0.9242,0.6268
			L43.9822,24.7631z M42.2534,31.6834c0.1773-0.5703-0.2349-2.7929-0.8574-3.3746c-0.9864-0.9185-1.165-0.348-0.3559,1.1411
			c0.3413,0.6286,0.5788,1.2261,0.7531,1.6641C42.0315,31.7132,42.1507,32.0131,42.2534,31.6834z M33.8471,44.5797
			c0.4306-0.4354,0.6-0.842,0.6-1.2061s-0.1695-0.7709-0.6-1.2061c-0.4334-0.4384-1.096-0.8657-1.971-1.2402
			c-1.7477-0.7476-4.2119-1.2273-6.9709-1.2273s-5.2234,0.4797-6.9709,1.2273c-0.875,0.3744-1.5378,0.8018-1.971,1.2402
			c-0.4306,0.4352-0.6,0.8421-0.6,1.2061s0.1695,0.7708,0.5999,1.2061c0.4334,0.4382,1.096,0.8658,1.9712,1.24
			c1.7477,0.7476,4.2119,1.2273,6.9709,1.2273s5.2232-0.4797,6.9709-1.2273C32.7511,45.4454,33.4137,45.0179,33.8471,44.5797z"/>
		<path class="st419" d="M36.8696,18.2152c-4.772,2.1474-10.2358,6.4766-12.5363,8.8708c-0.0882,0.0784-0.1746,0.1595-0.2591,0.2433
			c-2.8685,2.8505-2.4194,7.9117,0.9001,11.6579l-0.0691-0.0002c-5.2756,0-9.6207,1.7041-10.1912,3.8955
			c-0.1818,0.5002-0.1146,1.9081-0.0795,2.6447c0.0089,0.1898,0.016,0.3349,0.016,0.4085c0,2.0124,4.6481,4.0989,10.2696,4.0989
			s10.1784-1.8021,10.1784-4.0246c0-0.0462,0.003-0.1714,0.0073-0.3463c0.0116-0.4805,0.0323-1.3353,0.0242-1.9527
			c0.0557-0.3116,0.0337-0.632-0.0638-0.9331c1.1511-0.2664,2.2004-0.7986,3.0578-1.6062l-0.0631,0.0636
			c-0.208,0.2068-0.4302,0.3987-0.6651,0.5744c1.4376-0.7401,2.4919-2.3125,3.8135-4.351
			c4.1921-7.1989,8.2027-14.6695,8.9288-19.8724c0.5138-3.6826-1.0101-3.5689-4.7059-2.6623
			C43.6398,15.3639,38.4364,17.5099,36.8696,18.2152L36.8696,18.2152z M34.8369,42.277c-1.0734-1.7841-4.7048-3.1289-9.1225-3.2764
			c-3.5206-3.65-3.9463-8.6258-1.2633-11.292c2.7676-2.7502,8.0682-2.2927,11.8594,1.3781
			c3.7906,3.6724,4.3145,8.8482,1.5579,11.5884h-0.0002C37.0462,41.4925,36.0005,42.0266,34.8369,42.277L34.8369,42.277z
			 M43.9822,24.7633c0-0.9066-1.6028-3.9602-2.7717-4.5337c-1.8489-0.9066-1.8489,0,0,1.8129
			c0.7807,0.7667,1.3966,1.533,1.8475,2.094C43.6742,24.9033,43.9822,25.2867,43.9822,24.7633L43.9822,24.7633z M42.2534,31.6834
			c0.1773-0.5703-0.2349-2.7929-0.8574-3.3746c-0.9864-0.9185-1.165-0.348-0.3559,1.1411c0.3413,0.6286,0.5788,1.2261,0.7531,1.664
			C42.0315,31.7132,42.1507,32.0131,42.2534,31.6834z M33.9738,44.705c0.4527-0.4576,0.6515-0.9069,0.6515-1.3314
			s-0.1989-0.8739-0.6515-1.3316c-0.4548-0.4598-1.1393-0.8985-2.0277-1.2785c-1.7748-0.7592-4.2637-1.2418-7.0411-1.2418
			c-2.7771,0-5.2661,0.4826-7.0408,1.2418c-0.8884,0.3799-1.5731,0.8187-2.0279,1.2785c-0.4527,0.4576-0.6514,0.9071-0.6514,1.3316
			c0,0.4245,0.1989,0.8738,0.6514,1.3314c0.4548,0.46,1.1395,0.8987,2.0279,1.2787c1.7746,0.759,4.2637,1.2416,7.041,1.2416
			c2.7773,0,5.2662-0.4826,7.041-1.2416C32.8345,45.6037,33.519,45.1649,33.9738,44.705z"/>
		<path class="st420" d="M41.2105,20.2296c1.1691,0.5735,2.7719,3.6271,2.7719,4.5337c0,0.9066-0.924-0.9066-2.7719-2.7208
			C39.3615,20.2296,39.3615,19.323,41.2105,20.2296z M41.396,28.3088c0.6225,0.5817,1.0347,2.8042,0.8574,3.3746
			c-0.1775,0.5706-0.4051-0.7444-1.2131-2.2335C40.2312,27.9607,40.4096,27.3903,41.396,28.3088z"/>
		<path class="st421" d="M37.9939,40.8014c-2.8608,2.8448-8.2749,2.333-12.1079-1.3765c-3.8315-3.7121-4.4148-9.0065-1.5606-11.8427
			c2.8621-2.8439,8.2772-2.3337,12.1089,1.3765C40.2659,32.6707,40.8483,37.9641,37.9939,40.8014z"/>
		<path class="st422" d="M34.8036,43.3735c0,0.4847-0.2283,0.9766-0.7029,1.4567c-0.4762,0.4815-1.183,0.9315-2.0845,1.3172
			c-1.8017,0.7708-4.3156,1.256-7.111,1.256s-5.3093-0.4853-7.111-1.256c-0.9016-0.3857-1.6084-0.8356-2.0845-1.3172
			c-0.4746-0.4801-0.7029-0.972-0.7029-1.4567c0-0.4849,0.2281-0.9768,0.7029-1.4569c0.4762-0.4815,1.183-0.9315,2.0845-1.3172
			c1.8017-0.7706,4.3156-1.256,7.111-1.256s5.3093,0.4854,7.111,1.256c0.9016,0.3857,1.6084,0.8356,2.0845,1.3172
			C34.5753,42.3968,34.8036,42.8886,34.8036,43.3735z"/>
	</g>
</g>
</svg>
