<?xml version="1.0" encoding="utf-8"?>
<!-- Generator: Adobe Illustrator 27.5.0, SVG Export Plug-In . SVG Version: 6.00 Build 0)  -->
<svg version="1.1" id="Ebene_1" xmlns="http://www.w3.org/2000/svg" xmlns:xlink="http://www.w3.org/1999/xlink" x="0px" y="0px"
	 viewBox="0 0 64 64" style="enable-background:new 0 0 64 64;" xml:space="preserve">
<style type="text/css">
	.st0{fill:#FFFFFF;}
	.st1{fill-rule:evenodd;clip-rule:evenodd;fill:#0085FF;}
</style>
<g>
	<ellipse class="st0" cx="32.5486" cy="30.9934" rx="22.9985" ry="22.4758"/>
	<path class="st1" d="M32.0001,62.8c17.0174,0,30.813-13.7897,30.813-30.8c0-17.0104-13.7956-30.8-30.813-30.8
		C14.9825,1.2,1.1869,14.9896,1.1869,32C1.1869,49.0103,14.9825,62.8,32.0001,62.8z M31.9869,51.9596
		c-7.3736-12.7257-18.8812-32.5864-18.8812-32.5864h16.3936l3.2898,5.6755h-9.7362l12.2811,21.134
		C35.3341,46.1826,33.2942,49.7037,31.9869,51.9596z M36.8559,43.5565l14.0122-24.1833h-6.687l-7.3354,12.6837l-2.5785-4.4411
		h-6.6658L36.8559,43.5565z"/>
</g>
</svg>
