<svg id="Symbols" xmlns="http://www.w3.org/2000/svg" viewBox="0 0 64 64"><defs><style>.cls-1{fill:#357a6e;}.cls-2{fill:#fff;fill-rule:evenodd;}</style></defs><g id="AGAVE"><circle class="cls-1" cx="32" cy="32" r="31.33027"/><path class="cls-2" d="M17.87531,26.28573c-.07369-.91045-.1084-1.76013-.1257-2.51882a36.22984,36.22984,0,0,1,.35993-6.26055l.32947-1.9337,1.59107,1.14894A36.01784,36.01784,0,0,1,24.67774,20.94c.29488.31217.60705.65041.92788,1.0146l-.06943.22106a37.31037,37.31037,0,0,0-1.61276,8.97011,36.98271,36.98271,0,0,0-4.02769-3.45535C19.1977,27.17451,18.52134,26.70631,17.87531,26.28573Zm27.07976,0c.07356-.91045.1084-1.76013.12557-2.51882a36.27669,36.27669,0,0,0-.35967-6.26055l-.32959-1.9337L42.8003,16.7216A36.00354,36.00354,0,0,0,38.15252,20.94c-.29476.31217-.60693.65041-.92763,1.0146l.06918.22545A37.30936,37.30936,0,0,1,38.907,31.1502a36.99534,36.99534,0,0,1,4.0277-3.45536c.698-.51594,1.37439-.98414,2.02042-1.40472Z"/><path class="cls-2" d="M31.41563,51.859c-9.78532.4682-19.57057-7.713-20.81919-26.13459L10.462,23.76477l1.82091.7414a36.43629,36.43629,0,0,1,12.72038,9.4427c-.00864-.29914-.013-.60267-.013-.90607a39.417,39.417,0,0,1,6.4296-20.9319,39.40528,39.40528,0,0,1,6.4296,20.9319c0,.3034-.00439.60693-.01291.90607a36.43775,36.43775,0,0,1,12.72022-9.4427l1.82091-.7414-.13434,1.95965C50.99467,44.146,41.20947,52.32721,31.42415,51.859Zm-2.15477-8.13359c-.49865,0-.70243.19525-.70243.6721,0,1.162,1.28329,2.10276,2.8572,2.10276,1.57817,0,2.85707-.94079,2.85707-2.10276,0-.47685-.20377-.66772-.7023-.66772a5.43566,5.43566,0,0,0-.79353.08234l-.02594.00451a9.20738,9.20738,0,0,1-1.3353.12119,9.269,9.269,0,0,1-1.33981-.12119,6.47587,6.47587,0,0,0-.81935-.08685Zm-5.13767-4.63463a2.29789,2.29789,0,1,1-2.29776,2.29777A2.29621,2.29621,0,0,1,24.12319,39.09079Zm14.58036,0a2.29789,2.29789,0,1,1-2.29776,2.29777A2.2961,2.2961,0,0,1,38.70355,39.09079Z"/></g></svg>