<?xml version="1.0" encoding="utf-8"?>
<!-- Generator: Adobe Illustrator 27.2.0, SVG Export Plug-In . SVG Version: 6.00 Build 0)  -->
<svg version="1.1" id="Symbols" xmlns="http://www.w3.org/2000/svg" xmlns:xlink="http://www.w3.org/1999/xlink" x="0px" y="0px"
	 viewBox="0 0 64 64" style="enable-background:new 0 0 64 64;" xml:space="preserve">
<style type="text/css">
	.st0{fill:#0D0624;}
	.st1{fill:#BEA0EB;}
	.st2{fill:#D35CFF;}
</style>
<path class="st0" d="M32,0.7C14.7,0.7,0.7,14.7,0.7,32s14,31.3,31.3,31.3c17.3,0,31.3-14,31.3-31.3c0,0,0,0,0,0
	C63.3,14.7,49.3,0.7,32,0.7z"/>
<g>
	<path class="st1" d="M34.4,32L20.5,45.9l3.8,3.8c1.4,1.4,3.7,1.4,5.1,0l15.2-15.2c1.4-1.4,1.4-3.7,0-5.1l-8.8-8.8l-6.3,6.3L34.4,32
		z"/>
	<path class="st2" d="M20.5,18.1l3.8-3.8c1.4-1.4,3.7-1.4,5.1,0l3.8,3.8l-6.3,6.3L20.5,18.1z"/>
</g>
</svg>
