<?xml version="1.0" encoding="utf-8"?>
<!-- Generator: Adobe Illustrator 26.0.3, SVG Export Plug-In . SVG Version: 6.00 Build 0)  -->
<svg version="1.1" id="Symbols" xmlns="http://www.w3.org/2000/svg" xmlns:xlink="http://www.w3.org/1999/xlink" x="0px" y="0px"
	 viewBox="0 0 64 64" style="enable-background:new 0 0 64 64;" xml:space="preserve">
<style type="text/css">
	.st0{display:none;fill:#FFFFFF;}
	.st1{fill:#59C6F2;}
</style>
<circle class="st0" cx="32" cy="32" r="31.4779"/>
<path class="st1" d="M42.818,13.2387v-0.0001l-2.8732,0v0.0001c-0.0001,4.3351-3.4752,7.87-7.8097,7.944
	c-0.0454-0.0006-0.0906-0.0017-0.136-0.0017s-0.0907,0.0012-0.136,0.0017c-4.3345-0.074-7.8096-3.6089-7.8097-7.944v-0.0001
	l-2.8732,0v0.0001c-0.0016,3.8727,2.0678,7.4507,5.4254,9.3806c-5.1812,2.98-6.9661,9.5952-3.9861,14.7764
	c0.9532,1.6573,2.3284,3.0325,3.9862,3.985c-3.3576,1.9299-5.427,5.5079-5.4254,9.3807v0.0001l2.8732,0v-0.0001
	c0.0001-4.3362,3.4769-7.8715,7.8125-7.9441c0.0444,0.0005,0.0887,0.0017,0.1333,0.0017c0.0446,0,0.0888-0.0012,0.1333-0.0017
	c4.3356,0.0725,7.8124,3.6078,7.8125,7.9441v0.0001l2.8732,0v-0.0001c0.0016-3.8728-2.0678-7.4508-5.4254-9.3807
	c5.1817-2.9791,6.9682-9.5931,3.9892-14.7748c-0.9535-1.6585-2.3296-3.0347-3.9891-3.9865
	C40.7502,20.6894,42.8196,17.1114,42.818,13.2387z M39.9448,32c-0.0001,4.3362-3.4769,7.8715-7.8125,7.9441
	c-0.0444-0.0005-0.0887-0.0017-0.1333-0.0017c-0.0446,0-0.0888,0.0011-0.1333,0.0017c-4.3874-0.0733-7.8846-3.6894-7.8113-8.0768
	c0.0716-4.283,3.5256-7.7382,7.8086-7.8113c0.0454,0.0006,0.0906,0.0017,0.136,0.0017s0.0907-0.0012,0.136-0.0017
	C36.4696,24.13,39.9447,27.6648,39.9448,32z"/>
</svg>
