<?xml version="1.0" encoding="utf-8"?>
<!-- Generator: Adobe Illustrator 27.7.0, SVG Export Plug-In . SVG Version: 6.00 Build 0)  -->
<svg version="1.1" id="Ebene_1" xmlns="http://www.w3.org/2000/svg" xmlns:xlink="http://www.w3.org/1999/xlink" x="0px" y="0px"
	 viewBox="0 0 48 48" style="enable-background:new 0 0 48 48;" xml:space="preserve">
<g>
	<path d="M14.1,27.3c1.4,0,2.7-0.5,3.8-1.3l-8.7-8.7C7.1,20,7.6,23.9,10.3,26C11.4,26.9,12.7,27.3,14.1,27.3z"/>
	<path d="M40.1,21.1c0-1.4-0.5-2.7-1.3-3.8L30.1,26c2.7,2.1,6.6,1.6,8.7-1.1C39.7,23.8,40.1,22.5,40.1,21.1z"/>
	<path d="M44.5,11.6l-3.9,3.9c3.1,3.7,2.6,9.3-1.1,12.4c-3.3,2.7-8,2.7-11.3,0L24,32.1l-4.2-4.2C16,31,10.5,30.5,7.3,26.7
		c-2.7-3.3-2.7-8,0-11.3l-2-2l-1.9-1.9C1.2,15.3,0,19.6,0,24c0,13.3,10.7,24,24,24c13.3,0,24-10.7,24-24
		C48,19.6,46.8,15.3,44.5,11.6z"/>
	<path d="M41.4,7.4C32.2-2.2,17-2.5,7.4,6.6C7.2,6.9,6.9,7.2,6.6,7.4C6,8.1,5.5,8.7,5,9.4l19,19.1L43,9.4C42.5,8.7,42,8.1,41.4,7.4z
		 M24,3.1c5.6,0,10.8,2.2,14.8,6.1L24,24L9.2,9.3C13.2,5.3,18.4,3.1,24,3.1z"/>
</g>
</svg>
