<svg id="Symbols" xmlns="http://www.w3.org/2000/svg" viewBox="0 0 64 64"><defs><style>.cls-1{fill:#0097a7;}.cls-1,.cls-2{fill-rule:evenodd;}.cls-2{fill:#fff;}</style></defs><g id="Eporio"><path class="cls-1" d="M32,.44954a31.5834,31.5834,0,0,0-2.08077,63.09814c-.91362-1.60817-2.0195-3.63458-3.12865-5.85989a77.57745,77.57745,0,0,1-3.71073-8.57515,27.23335,27.23335,0,0,1-1.78915-8.39277c-.04444-5.36282,3.072-9.34481,5.90408-11.85968a26.495,26.495,0,0,1,3.49752-2.60891L21.782,16.0458l-2.88257-3.30162H48.22957v3.98341H27.66528l7.64351,8.75472,1.75555,2.01083L34.64015,28.602l-.00085.00031h0l-.00029.0002-.00085.0004-.0111.00515-.01337.00634-.05378.02581c-.06288.03059-.161.07933-.28965.146-.2575.13356-.63478.33842-1.09174.61271a22.69307,22.69307,0,0,0-3.339,2.43984c-2.44969,2.17522-4.59624,5.14856-4.56557,8.848a23.4649,23.4649,0,0,0,1.56264,7.10128A73.66925,73.66925,0,0,0,30.3557,55.9109c1.28778,2.58353,2.57557,4.89789,3.54211,6.56723.22108.38212.42537.72982.60861,1.0391A31.58369,31.58369,0,0,0,32,.44954Z"/><path class="cls-2" d="M29.91923,63.54768c-.91362-1.60817-2.0195-3.63458-3.12865-5.85989a77.57745,77.57745,0,0,1-3.71073-8.57515,27.23335,27.23335,0,0,1-1.78915-8.39277c-.04444-5.36282,3.072-9.34481,5.90408-11.85968a26.495,26.495,0,0,1,3.49752-2.60891L21.782,16.0458l-2.88257-3.30162H48.22957v3.98341H27.66528l7.64351,8.75472,1.75555,2.01083L34.64015,28.602l-.00085.00031h0l-.00029.0002-.00085.0004-.0111.00515-.01337.00634-.05378.02581c-.06288.03059-.161.07933-.28965.146-.2575.13356-.63478.33842-1.09174.61271a22.69307,22.69307,0,0,0-3.339,2.43984c-2.44969,2.17522-4.59624,5.14856-4.56557,8.848a23.4649,23.4649,0,0,0,1.56264,7.10128A73.66925,73.66925,0,0,0,30.3557,55.9109c1.28778,2.58353,2.57557,4.89789,3.54211,6.56723.22108.38212.42537.72982.60861,1.0391,0,0-1.81412.08049-2.4193.08353C31.545,63.60347,29.91923,63.54768,29.91923,63.54768Z"/></g></svg>