<?xml version="1.0" encoding="utf-8"?>
<!-- Generator: Adobe Illustrator 26.0.3, SVG Export Plug-In . SVG Version: 6.00 Build 0)  -->
<svg version="1.1" id="Symbols" xmlns="http://www.w3.org/2000/svg" xmlns:xlink="http://www.w3.org/1999/xlink" x="0px" y="0px"
	 viewBox="0 0 64 64" style="enable-background:new 0 0 64 64;" xml:space="preserve">
<style type="text/css">
	.st0{fill:#FFFFFF;filter:url(#Adobe_OpacityMaskFilter);}
	.st1{mask:url(#mask0_112_7146_00000008845039539712777760000007286939943601532295_);}
	.st2{fill-rule:evenodd;clip-rule:evenodd;fill:#FFFFFF;}
	.st3{fill-rule:evenodd;clip-rule:evenodd;fill:#94A6C3;}
	.st4{fill-rule:evenodd;clip-rule:evenodd;fill:#1B314F;}
	.st5{fill-rule:evenodd;clip-rule:evenodd;fill:#FFD923;}
	.st6{fill-rule:evenodd;clip-rule:evenodd;fill:#D82122;}
	.st7{fill:#40649F;}
	.st8{fill:#0000FF;}
	.st9{fill:#0028FF;}
	.st10{fill:#0018FF;}
	.st11{fill:#0000F1;}
	.st12{fill:#0000DA;}
	.st13{fill:#0058FF;}
	.st14{fill:#0048FF;}
	.st15{fill:#0014FF;}
	.st16{fill:#0000E8;}
	.st17{fill:#0000C4;}
	.st18{fill:#003CFF;}
	.st19{fill:#0008FF;}
	.st20{fill:#0000C8;}
	.st21{fill:#0090FF;}
	.st22{fill:#0084FF;}
	.st23{fill:#0068FF;}
	.st24{fill:#0000F6;}
	.st25{fill:#0000D1;}
	.st26{fill:#0000AD;}
	.st27{fill:#0000BB;}
	.st28{fill:#009CFF;}
	.st29{fill:#0078FF;}
	.st30{fill:#0000ED;}
	.st31{fill:#00CCFF;}
	.st32{fill:#002CFF;}
	.st33{fill:#00C4FF;}
	.st34{fill:#0050FF;}
	.st35{fill:#0000A4;}
	.st36{fill:#0000B6;}
	.st37{fill:#0000D6;}
	.st38{fill:#0004FF;}
	.st39{fill:#0000BF;}
	.st40{fill:#00D8FF;}
	.st41{fill:#0034FF;}
	.st42{fill:#00009F;}
	.st43{fill:#00BCFF;}
	.st44{fill:#23FFD4;}
	.st45{fill:#00ACFF;}
	.st46{fill:#1CFFDB;}
	.st47{fill:#0070FF;}
	.st48{fill:#000096;}
	.st49{fill:#26FFD1;}
	.st50{fill:#0044FF;}
	.st51{fill:#00E0FB;}
	.st52{fill:#0064FF;}
	.st53{fill:#19FFDE;}
	.st54{fill:#001CFF;}
	.st55{fill:#0000A8;}
	.st56{fill:#5AFF9D;}
	.st57{fill:#008CFF;}
	.st58{fill:#00B8FF;}
	.st59{fill:#00009B;}
	.st60{fill:#000092;}
	.st61{fill:#000CFF;}
	.st62{fill:#5DFF9A;}
	.st63{fill:#2CFFCA;}
	.st64{fill:#56FFA0;}
	.st65{fill:#000089;}
	.st66{fill:#006CFF;}
	.st67{fill:#16FFE1;}
	.st68{fill:#06ECF1;}
	.st69{fill:#94FF63;}
	.st70{fill:#0024FF;}
	.st71{fill:#005CFF;}
	.st72{fill:#0000DF;}
	.st73{fill:#0038FF;}
	.st74{fill:#90FF66;}
	.st75{fill:#00008D;}
	.st76{fill:#0030FF;}
	.st77{fill:#00A0FF;}
	.st78{fill:#33FFC4;}
	.st79{fill:#00B0FF;}
	.st80{fill:#00C8FF;}
	.st81{fill:#CAFF2C;}
	.st82{fill:#0000CD;}
	.st83{fill:#CEFF29;}
	.st84{fill:#C7FF30;}
	.st85{fill:#60FF97;}
	.st86{fill:#0040FF;}
	.st87{fill:#000080;}
	.st88{fill:#0FF8E7;}
	.st89{fill:#0060FF;}
	.st90{fill:#0054FF;}
	.st91{fill:#0074FF;}
	.st92{fill:#C1FF36;}
	.st93{fill:#000084;}
	.st94{fill:#97FF60;}
	.st95{fill:#004CFF;}
	.st96{fill:#D1FF26;}
	.st97{fill:#36FFC1;}
	.st98{fill:#8DFF6A;}
	.st99{fill:#FFEA00;}
	.st100{fill:#FBF100;}
	.st101{fill:#0080FF;}
	.st102{fill:#FFE200;}
	.st103{fill:#53FFA4;}
	.st104{fill:#007CFF;}
	.st105{fill:#63FF94;}
	.st106{fill:#0000FA;}
	.st107{fill:#F1FC06;}
	.st108{fill:#BEFF39;}
	.st109{fill:#D4FF23;}
	.st110{fill:#FFDB00;}
	.st111{fill:#0094FF;}
	.st112{fill:#FFB200;}
	.st113{fill:#13FCE4;}
	.st114{fill:#FFBD00;}
	.st115{fill:#0020FF;}
	.st116{fill:#FFA700;}
	.st117{fill:#3CFFBA;}
	.st118{fill:#00D0FF;}
	.st119{fill:#00A4FF;}
	.st120{fill:#EBFF0C;}
	.st121{fill:#FFC800;}
	.st122{fill:#00DCFE;}
	.st123{fill:#B7FF40;}
	.st124{fill:#FFD700;}
	.st125{fill:#FF7A00;}
	.st126{fill:#FF9C00;}
	.st127{fill:#FF8900;}
	.st128{fill:#00E4F8;}
	.st129{fill:#D7FF1F;}
	.st130{fill:#02E8F4;}
	.st131{fill:#FF6F00;}
	.st132{fill:#FF9800;}
	.st133{fill:#00A8FF;}
	.st134{fill:#1FFFD7;}
	.st135{fill:#E1FF16;}
	.st136{fill:#0CF4EB;}
	.st137{fill:#FF6000;}
	.st138{fill:#43FFB4;}
	.st139{fill:#FF4E00;}
	.st140{fill:#FFAB00;}
	.st141{fill:#FF9400;}
	.st142{fill:#FF6400;}
	.st143{fill:#50FFA7;}
	.st144{fill:#4DFFAA;}
	.st145{fill:#B4FF43;}
	.st146{fill:#00D4FF;}
	.st147{fill:#FF3F00;}
	.st148{fill:#FFD300;}
	.st149{fill:#49FFAD;}
	.st150{fill:#66FF90;}
	.st151{fill:#09F0EE;}
	.st152{fill:#FF3B00;}
	.st153{fill:#FF8600;}
	.st154{fill:#46FFB1;}
	.st155{fill:#FF2900;}
	.st156{fill:#80FF77;}
	.st157{fill:#FFB900;}
	.st158{fill:#8AFF6D;}
	.st159{fill:#29FFCE;}
	.st160{fill:#FF3000;}
	.st161{fill:#FF5900;}
	.st162{fill:#0098FF;}
	.st163{fill:#FF1600;}
	.st164{fill:#00B4FF;}
	.st165{fill:#FF9100;}
	.st166{fill:#39FFBE;}
	.st167{fill:#FF2200;}
	.st168{fill:#ADFF49;}
	.st169{fill:#FF3800;}
	.st170{fill:#F60B00;}
	.st171{fill:#00C0FF;}
	.st172{fill:#FFCC00;}
	.st173{fill:#AAFF4D;}
	.st174{fill:#BAFF3C;}
	.st175{fill:#FFD000;}
	.st176{fill:#F10800;}
	.st177{fill:#DF0000;}
	.st178{fill:#E4FF13;}
	.st179{fill:#FA0F00;}
	.st180{fill:#FF2500;}
	.st181{fill:#DBFF1C;}
	.st182{fill:#0000B2;}
	.st183{fill:#A7FF50;}
	.st184{fill:#FF5500;}
	.st185{fill:#30FFC7;}
	.st186{fill:#ED0400;}
	.st187{fill:#FF1E00;}
	.st188{fill:#C80000;}
	.st189{fill:#CD0000;}
	.st190{fill:#D10000;}
	.st191{fill:#A4FF53;}
	.st192{fill:#FF8D00;}
	.st193{fill:#FFB600;}
	.st194{fill:#E40000;}
	.st195{fill:#FFC100;}
	.st196{fill:#F8F500;}
	.st197{fill:#FF7E00;}
	.st198{fill:#83FF73;}
	.st199{fill:#FFC400;}
	.st200{fill:#40FFB7;}
	.st201{fill:#6AFF8D;}
	.st202{fill:#FF1300;}
	.st203{fill:#D60000;}
	.st204{fill:#FF4300;}
	.st205{fill:#FF6C00;}
	.st206{fill:#BB0000;}
	.st207{fill:#FF4700;}
	.st208{fill:#FFA300;}
	.st209{fill:#FF5200;}
	.st210{fill:#B20000;}
	.st211{fill:#A0FF56;}
	.st212{fill:#FF8200;}
	.st213{fill:#87FF70;}
	.st214{fill:#E7FF0F;}
	.st215{fill:#FF5D00;}
	.st216{fill:#FF3400;}
	.st217{fill:#BF0000;}
	.st218{fill:#FF6800;}
	.st219{fill:#7DFF7A;}
	.st220{fill:#FFE600;}
	.st221{fill:#FF7300;}
	.st222{fill:#A40000;}
	.st223{fill:#DA0000;}
	.st224{fill:#9DFF5A;}
	.st225{fill:#E80000;}
	.st226{fill:#FFAE00;}
	.st227{fill:#DEFF19;}
	.st228{fill:#9F0000;}
	.st229{fill:#A80000;}
	.st230{fill:#FEED00;}
	.st231{fill:#FF1A00;}
	.st232{fill:#C4FF33;}
	.st233{fill:#B60000;}
	.st234{fill:#9AFF5D;}
	.st235{fill:#960000;}
	.st236{fill:#F4F802;}
	.st237{fill:#EEFF09;}
	.st238{fill:#FF9F00;}
	.st239{fill:#FFDE00;}
	.st240{fill:#6DFF8A;}
	.st241{fill:#B1FF46;}
	.st242{fill:#890000;}
	.st243{fill:#FF2D00;}
	.st244{fill:#9B0000;}
	.st245{fill:#8D0000;}
	.st246{fill:#0010FF;}
	.st247{fill:#0000E3;}
	.st248{fill:#800000;}
	.st249{fill:#840000;}
	.st250{fill:#920000;}
	.st251{fill:#0088FF;}
	.st252{fill:#AD0000;}
	.st253{fill:#FF4A00;}
	.st254{fill:#C40000;}
	.st255{fill:#FF7700;}
	.st256{fill:url(#SVGID_1_);}
	.st257{fill:#FFFFFF;}
	.st258{fill:#357A6E;}
	.st259{fill-rule:evenodd;clip-rule:evenodd;fill:#2081E2;}
	.st260{opacity:0.3;}
	.st261{fill:#909090;}
	.st262{fill-rule:evenodd;clip-rule:evenodd;fill:#633001;}
	.st263{fill-rule:evenodd;clip-rule:evenodd;fill:#FEDC90;}
	.st264{fill-rule:evenodd;clip-rule:evenodd;fill:#D1884F;}
	.st265{fill:#005EDE;}
	.st266{fill:#294661;}
	.st267{fill:url(#Burn_00000139257971643435397460000004358608106467737266_);}
	.st268{fill:#C5C2C6;}
	.st269{fill-rule:evenodd;clip-rule:evenodd;fill:#12141E;}
	.st270{fill:#FFFFFF;filter:url(#Adobe_OpacityMaskFilter_00000132793955459628082110000013383394719446525327_);}
	.st271{mask:url(#mask0_112_10953_00000092452469575815252120000016433094664549502848_);}
	.st272{fill-rule:evenodd;clip-rule:evenodd;fill:#94FEBF;}
	.st273{fill:#FF007A;}
	.st274{fill-rule:evenodd;clip-rule:evenodd;fill:#FF007A;}
	.st275{fill:#253743;}
	.st276{fill-rule:evenodd;clip-rule:evenodd;fill:#FB6706;}
	.st277{fill:#FAD910;}
	.st278{fill:#FEDC10;}
	.st279{fill:#7CDFD4;}
	.st280{fill:#7CDFD5;}
	.st281{fill:#313838;}
	.st282{fill:#2D3538;}
	.st283{fill:#323A3D;}
	.st284{fill:#32393C;}
	.st285{fill:#2D3537;}
	.st286{opacity:0.5;fill-rule:evenodd;clip-rule:evenodd;fill:#FFFFFF;}
	.st287{fill:#FCFCFC;}
	.st288{fill:#AEB4BE;}
	.st289{fill:#3B382C;}
	.st290{fill:#3B3829;}
	.st291{fill:#5D5D5D;}
	.st292{fill:#575757;}
	.st293{fill:#282828;}
	.st294{fill:#1E1E1E;}
	.st295{fill:#CDB141;}
	.st296{fill:#D3B743;}
	.st297{fill:url(#SVGID_00000048489232916530581610000015159603884643686281_);}
	.st298{fill:#F5A676;}
	.st299{fill:url(#SVGID_00000148645118401375521030000018436352241555947965_);}
	.st300{fill:url(#SVGID_00000078730471712131894160000011688013281888861364_);}
	.st301{fill:url(#SVGID_00000065050422133362067530000000229099402738548379_);}
	.st302{fill-rule:evenodd;clip-rule:evenodd;fill:#0097A7;}
	.st303{fill:#4189C9;}
	.st304{fill:#262F71;}
	.st305{fill:#161F42;}
	.st306{fill:#5C94CE;}
	.st307{fill:#6497D0;}
	.st308{fill:#689AD1;}
	.st309{fill:#4E8FCC;}
	.st310{fill:#5591CD;}
	.st311{fill:#418AC9;}
	.st312{fill:#468CCA;}
	.st313{fill:#488DCA;}
	.st314{fill:#428AC9;}
	.st315{fill:#182144;}
	.st316{fill:#458CCA;}
	.st317{fill:#263154;}
	.st318{fill:#424A7F;}
	.st319{fill:#5A5D76;}
	.st320{fill:#4F668A;}
	.st321{fill:#555A73;}
	.st322{fill:#6D9CD2;}
	.st323{fill:#729FD4;}
	.st324{fill:#78A2D5;}
	.st325{fill:#7DA5D6;}
	.st326{fill:#81A7D8;}
	.st327{fill:#0E1F66;}
	.st328{fill:#699AD1;}
	.st329{fill:#88ABD9;}
	.st330{fill:url(#SVGID_00000038412306077733748190000004233402153159975567_);}
	.st331{fill:url(#SVGID_00000147193808302960151370000009760674584314232762_);}
	.st332{fill:url(#SVGID_00000079446896605943379030000004737857583212652453_);}
	.st333{fill:url(#SVGID_00000084515505903584927370000000524836550032848301_);}
	.st334{fill:url(#SVGID_00000157990200094468692770000002649515705580866494_);}
	.st335{fill:url(#SVGID_00000113329945678375502300000002760623491515332287_);}
	.st336{fill:url(#SVGID_00000016067930126868208840000009341463228215570597_);}
	.st337{fill:url(#SVGID_00000104675005507437164030000005720977520333817524_);}
	.st338{fill:url(#SVGID_00000080169682086366208690000010697100382786547340_);}
	.st339{fill:url(#SVGID_00000033368441760496261770000009665684239229229483_);}
	.st340{fill:url(#SVGID_00000178926085152095313590000011355959339502177966_);}
	.st341{fill:url(#SVGID_00000102546644620476866790000009512007188608594609_);}
</style>
<g id="UniSwap">
	<path class="st2" d="M62.8404,32c0,17.03167-13.80873,30.84039-30.8404,30.84039S1.1596,49.03167,1.1596,32
		S14.96834,1.15961,32,1.15961C49.03526,1.15961,62.8404,14.96833,62.8404,32z"/>
	<path class="st273" d="M32,63.50859C14.62597,63.50859,0.49141,49.37403,0.49141,32S14.62597,0.49141,32,0.49141
		S63.50859,14.62597,63.50859,32S49.37403,63.50859,32,63.50859z M32,1.75175C15.32137,1.75175,1.75175,15.32137,1.75175,32
		S15.32137,62.24825,32,62.24825S62.24825,48.67863,62.24825,32S48.67863,1.75175,32,1.75175z"/>
	<g>
		<path class="st273" d="M28.1426,20.6506c-0.51788-0.07234-0.54245-0.09642-0.29593-0.12049
			c0.46847-0.07234,1.55337,0.02407,2.31765,0.19283c1.77532,0.40961,3.37797,1.46994,5.07918,3.32554l0.44389,0.50603
			l0.64101-0.09642c2.73684-0.43369,5.54766-0.09629,7.89001,0.96404c0.64101,0.28912,1.65193,0.8675,1.77519,1.01206
			c0.0494,0.04827,0.12339,0.36147,0.17267,0.67479c0.17254,1.13267,0.09856,1.97609-0.27122,2.62668
			c-0.19724,0.36147-0.19724,0.45788-0.07398,0.7712c0.09869,0.24098,0.39449,0.40961,0.66571,0.40961
			c0.59174,0,1.20817-0.91564,1.5041-2.19287l0.12326-0.50615l0.22182,0.24098c1.25757,1.37365,2.24379,3.2774,2.39176,4.62697
			l0.04928,0.36147l-0.22195-0.31332c-0.36979-0.5543-0.71499-0.91576-1.18346-1.22896
			c-0.83825-0.5543-1.72591-0.72293-4.06826-0.84342c-2.1204-0.12049-3.32857-0.28925-4.51216-0.67479
			c-2.02172-0.65071-3.05734-1.49414-5.44897-4.60278c-1.0602-1.37365-1.72592-2.12065-2.39163-2.7473
			C31.49574,21.66279,30.04105,20.93973,28.1426,20.6506z"/>
		<path class="st273" d="M46.25046,23.79932c0.04689-0.87405,0.1641-1.44914,0.42209-1.97811
			c0.0939-0.20707,0.18767-0.39108,0.21111-0.39108c0.02344,0-0.02345,0.16107-0.09377,0.34508
			c-0.18766,0.50603-0.21111,1.219-0.09389,2.02411c0.16422,1.035,0.23455,1.173,1.36029,2.30013
			c0.51599,0.52897,1.12574,1.19607,1.36029,1.47208l0.39864,0.50603l-0.39864-0.36802
			c-0.49254-0.46002-1.61828-1.33407-1.87627-1.44914c-0.1641-0.092-0.18754-0.092-0.30488,0.02307
			c-0.09377,0.092-0.11721,0.23001-0.11721,0.89699c-0.02345,1.03512-0.16423,1.67916-0.51599,2.34613
			c-0.18766,0.34508-0.21111,0.27602-0.04689-0.11494c0.11721-0.29908,0.14066-0.43709,0.14066-1.42608
			c0-2.00117-0.23442-2.48414-1.66504-3.28925c-0.35176-0.20695-0.96164-0.50603-1.3134-0.66697
			c-0.37521-0.16107-0.65664-0.29908-0.6332-0.29908c0.04689-0.046,1.43062,0.34508,1.97005,0.5751
			c0.82086,0.32202,0.96151,0.34496,1.05529,0.32202C46.18013,24.5583,46.22702,24.37429,46.25046,23.79932z"/>
		<path class="st273" d="M29.14381,26.87872c-0.9532-1.33899-1.56598-3.41692-1.42986-4.96374l0.04537-0.48485l0.22699,0.04625
			c0.4086,0.06919,1.11213,0.34622,1.45255,0.55405c0.90782,0.55405,1.31643,1.31593,1.70222,3.20909
			c0.11356,0.55417,0.27236,1.20061,0.34042,1.40831c0.11356,0.34634,0.54472,1.15435,0.90795,1.66227
			c0.24955,0.36941,0.09075,0.55417-0.47666,0.50792C31.05033,28.72575,29.89284,27.91762,29.14381,26.87872z"/>
		<path class="st273" d="M45.707,36.88005c-4.78099-1.92076-6.47124-3.57736-6.47124-6.38641
			c0-0.40823,0.02407-0.74436,0.02407-0.74436c0.0242,0,0.19321,0.14406,0.4105,0.31219
			c0.96592,0.7683,2.05247,1.10444,5.07074,1.53661c1.76271,0.26404,2.77692,0.45612,3.69444,0.7683
			c2.92173,0.96038,4.73272,2.92904,5.16741,5.59416c0.12074,0.7683,0.04827,2.23282-0.14494,3.00113
			c-0.16901,0.60018-0.65197,1.70462-0.77271,1.72869c-0.02407,0-0.07235-0.12012-0.07235-0.31219
			c-0.0484-1.0084-0.55543-1.96866-1.40049-2.71302C50.19823,38.80082,48.89428,38.15262,45.707,36.88005z"/>
		<path class="st273" d="M42.25189,37.57765c-0.05041-0.35731-0.17645-0.8099-0.25194-1.00034l-0.12604-0.35731l0.22674,0.26202
			c0.32756,0.35718,0.57951,0.78595,0.80624,1.38147c0.17632,0.45259,0.17632,0.59551,0.17632,1.33382
			c0,0.71461-0.02521,0.88136-0.17632,1.2863c-0.25194,0.64316-0.5543,1.09562-1.05819,1.59585
			c-0.90694,0.88136-2.09103,1.35777-3.77901,1.57203c-0.30236,0.02382-1.15889,0.09528-1.91471,0.14292
			c-1.88951,0.09528-3.14909,0.28585-4.2829,0.66697c-0.15111,0.04764-0.30223,0.09528-0.32744,0.07146
			c-0.05042-0.04764,0.73062-0.47641,1.36041-0.76226c0.88174-0.40482,1.78868-0.61921,3.77902-0.95269
			c0.98256-0.14293,1.99033-0.33349,2.24228-0.42877C41.42044,41.6507,42.65495,39.81665,42.25189,37.57765z"/>
		<path class="st273" d="M43.72297,42.15181c-0.65639-1.3531-0.80788-2.63512-0.45436-3.84581
			c0.05042-0.11872,0.10096-0.23732,0.1515-0.23732c0.05041,0,0.2019,0.07121,0.3534,0.16611
			c0.30299,0.18993,0.93417,0.52229,2.55006,1.35323c2.04503,1.04445,3.20644,1.85157,4.01432,2.77742
			c0.70692,0.80725,1.1362,1.7331,1.3381,2.87258c0.12629,0.64088,0.05054,2.18405-0.12616,2.82493
			c-0.55544,2.01794-1.81792,3.63219-3.66092,4.55803c-0.27778,0.14242-0.50502,0.23745-0.53023,0.23745
			c-0.02521,0,0.07574-0.23745,0.22724-0.52229c0.60598-1.21081,0.68172-2.37398,0.22724-3.6797
			c-0.27778-0.80713-0.85842-1.78049-2.01982-3.41843C44.40469,43.33881,44.07649,42.84034,43.72297,42.15181z"/>
		<path class="st273" d="M26.28977,49.16764c1.8246-1.39633,4.06839-2.38734,6.13951-2.70255
			c0.88766-0.13523,2.36705-0.09011,3.18073,0.11255c1.30685,0.31534,2.49031,0.99101,3.10675,1.82423
			c0.59186,0.81078,0.86308,1.50901,1.13431,3.06301c0.09856,0.60812,0.22182,1.23867,0.24652,1.37378
			c0.19724,0.81078,0.59173,1.44145,1.0849,1.77923c0.7644,0.518,2.09583,0.54056,3.40268,0.09011
			c0.22182-0.06756,0.41906-0.13511,0.41906-0.11255c0.0494,0.04499-0.61643,0.45032-1.0602,0.65311
			c-0.61644,0.29278-1.10961,0.38289-1.77532,0.38289c-1.18346,0-2.19439-0.56313-3.00806-1.68924
			c-0.17267-0.22522-0.51788-0.87833-0.81368-1.48632c-0.86296-1.82434-1.30685-2.36478-2.31777-2.9729
			c-0.88766-0.518-2.02184-0.63068-2.8848-0.24779c-1.13431,0.49544-1.43011,1.82422-0.64114,2.635
			c0.32051,0.33789,0.91237,0.60812,1.40541,0.67567c0.91236,0.11267,1.70134-0.54044,1.70134-1.37378
			c0-0.54056-0.22195-0.8559-0.81368-1.10355c-0.78897-0.31534-1.65193,0.04499-1.62736,0.74322
			c0,0.29278,0.14797,0.47289,0.46847,0.60812c0.19724,0.08998,0.19724,0.08998,0.0494,0.06755
			c-0.71512-0.13524-0.88766-0.94602-0.32063-1.46402c0.69041-0.63055,2.14523-0.36033,2.63828,0.518
			c0.19725,0.36046,0.22195,1.08112,0.04941,1.53157c-0.41919,0.99088-1.60278,1.50888-2.81094,1.2161
			c-0.81368-0.20266-1.15889-0.40532-2.14511-1.32878c-1.72604-1.62156-2.39175-1.9369-4.85736-2.27467l-0.46847-0.06755
			L26.28977,49.16764z"/>
		<path class="st274" d="M13.13253,11.34738c5.64886,6.64415,14.35254,16.97431,14.78887,17.53768
			c0.36373,0.4696,0.21829,0.91564-0.38793,1.24434c-0.33941,0.18779-1.04243,0.37558-1.38184,0.37558
			c-0.38794,0-0.84859-0.18779-1.16368-0.49292c-0.21829-0.21136-1.1638-1.54959-3.29731-4.76599
			c-1.62433-2.46511-3.00617-4.50774-3.0305-4.53119C18.56323,20.668,18.56323,20.668,21.521,25.786
			c1.86682,3.21653,2.47292,4.36684,2.47292,4.50775c0,0.30525-0.09705,0.46948-0.48498,0.8922
			c-0.6545,0.70428-0.94551,1.50246-1.16368,3.16938c-0.24249,1.85472-0.89698,3.16951-2.76381,5.39982
			c-1.09095,1.31479-1.26072,1.54959-1.52741,2.08952c-0.33941,0.65739-0.43633,1.03298-0.48486,1.87817
			c-0.04852,0.8922,0.04852,1.4557,0.31521,2.30088c0.24236,0.75129,0.50905,1.24421,1.16368,2.20686
			c0.55758,0.84519,0.89699,1.47902,0.89699,1.71382c0,0.18779,0.04852,0.18779,0.92131,0
			c2.08499-0.46948,3.80636-1.26778,4.75187-2.25387c0.5819-0.61039,0.72734-0.93908,0.72734-1.78427
			c0-0.53993-0.02432-0.65739-0.16977-0.98597c-0.24236-0.51662-0.70302-0.93921-1.69705-1.59648
			c-1.30924-0.86876-1.86682-1.57304-2.01226-2.51212c-0.12125-0.7983,0.0242-1.33823,0.75154-2.81738
			c0.75154-1.52602,0.94551-2.15985,1.06676-3.70944c0.07272-0.98597,0.19397-1.38512,0.48486-1.69037
			c0.31521-0.3287,0.5819-0.44604,1.33344-0.53993c1.23652-0.16435,2.03659-0.4696,2.66689-1.05655
			c0.55758-0.49304,0.80007-0.98597,0.82426-1.71382l0.02432-0.53993l-0.31521-0.3287
			C28.1639,27.1478,12.38093,10.33784,12.30821,10.33784C12.28396,10.33784,12.67187,10.78392,13.13253,11.34738z
			 M20.57562,44.73237c0.26669-0.44603,0.12112-1.00953-0.31521-1.29122c-0.41213-0.25825-1.04255-0.14091-1.04255,0.21136
			c0,0.09389,0.04852,0.18779,0.19397,0.23468c0.21829,0.11746,0.24249,0.2348,0.07272,0.49304
			c-0.16964,0.25825-0.16964,0.49305,0.04852,0.6574C19.87247,45.29587,20.33313,45.15496,20.57562,44.73237z"/>
		<path class="st274" d="M30.93451,32.57333c-0.56375,0.14544-1.10394,0.68575-1.26841,1.22606
			c-0.0939,0.33248-0.04701,0.93505,0.11746,1.12209c0.25837,0.29101,0.4933,0.37407,1.15095,0.37407
			c1.29198,0,2.39591-0.49872,2.51338-1.10141c0.11747-0.49872-0.37583-1.18447-1.05705-1.49615
			C32.03857,32.53174,31.31035,32.46935,30.93451,32.57333z M32.43797,33.61236c0.18779-0.24942,0.11734-0.51952-0.23493-0.70655
			c-0.6342-0.35328-1.59723-0.06239-1.59723,0.47792c0,0.27009,0.49317,0.5611,0.96303,0.5611
			C31.87422,33.94484,32.29694,33.77859,32.43797,33.61236z"/>
	</g>
</g>
</svg>
