<svg id="Symbols" xmlns="http://www.w3.org/2000/svg" xmlns:xlink="http://www.w3.org/1999/xlink" viewBox="0 0 64 64"><defs><style>.cls-1{fill:#282828;}.cls-2{fill:url(#Unbenannter_Verlauf_11);}.cls-3{fill:#f5a676;}.cls-4{fill:url(#Unbenannter_Verlauf_9);}.cls-5{fill:url(#Unbenannter_Verlauf_13);}.cls-6{fill:url(#Unbenannter_Verlauf_15);}</style><linearGradient id="Unbenannter_Verlauf_11" x1="29.56437" y1="32.77383" x2="46.87793" y2="32.77383" gradientUnits="userSpaceOnUse"><stop offset="0" stop-color="#f6ab78"/><stop offset="1" stop-color="#f06a69"/></linearGradient><linearGradient id="Unbenannter_Verlauf_9" x1="37.95463" y1="32.90756" x2="51.19724" y2="32.90756" gradientUnits="userSpaceOnUse"><stop offset="0" stop-color="#f39072"/><stop offset="1" stop-color="#f05e67"/></linearGradient><linearGradient id="Unbenannter_Verlauf_13" x1="17.36401" y1="19.58124" x2="29.96716" y2="19.58124" gradientUnits="userSpaceOnUse"><stop offset="0" stop-color="#f6b67a"/><stop offset="1" stop-color="#f49873"/></linearGradient><linearGradient id="Unbenannter_Verlauf_15" x1="18.20459" y1="46.00485" x2="29.98804" y2="46.00485" gradientUnits="userSpaceOnUse"><stop offset="0" stop-color="#f8cd7f"/><stop offset="1" stop-color="#d08c63"/></linearGradient></defs><g id="xpollinate"><circle class="cls-1" cx="31.94495" cy="32" r="31.47793"/><g id="xpollinate-redrawn"><path class="cls-2" d="M46.87793,15.27936c-1.56738-2.20545-2.88867-2.62476-4.70044-.68634-2.49609,2.67059-5.22974,5.11688-7.80615,7.71429-6.36487,6.41675-6.41113,14.83283-.126,21.25739,2.23047,2.2799,4.51978,4.50213,6.7832,6.74969,2.5846,2.56616,2.58521,2.56561,5.79322-.38775-2.875-2.76093-5.61914-5.31134-8.26831-7.9571-6.42725-6.41931-6.44873-11.44488-.16822-17.89508C41.24036,21.14215,44.0719,18.18677,46.87793,15.27936Z"/><path class="cls-3" d="M14.427,18.48834c-.58349.86579-1.30823,1.94123-2.222,3.29712,2.77356,2.71082,5.34924,5.16461,7.85119,7.69159,2.53784,2.56329,2.5481,4.4342.0044,6.98639-2.43457,2.4425-4.96521,4.78888-7.56177,7.28119,1.04785,1.39831,1.85083,2.46973,2.59656,3.46472,3.16125-3.07489,6.24817-5.81958,9.02331-8.85028a7.67248,7.67248,0,0,0,.293-10.3089C21.36035,24.6618,17.8291,21.70654,14.427,18.48834Z"/><path class="cls-4" d="M49.68408,42.39758c-2.03662-1.78741-3.863-3.81952-5.73535-5.78839-2.512-2.64129-2.49194-4.59039.043-7.28461,1.605-1.706,3.15576-3.4804,4.90149-5.03161,1.81518-1.61292,1.97522-3.222.03906-5.88306-3.22082,3.37433-6.36706,6.436-9.22888,9.74451A7.50556,7.50556,0,0,0,39.5249,37.559c3.05518,3.49554,6.56568,6.59229,9.86731,9.84625C51.72839,45.7262,51.766,44.225,49.68408,42.39758Z"/><path class="cls-5" d="M20.38867,13.00378c-1.09509.85968-2.09375,1.64368-3.02466,2.37452,3.71717,3.70721,7.27246,7.25293,10.80933,10.78039,2.12378-3.095,2.2085-3.17767,1.05322-4.36285C26.35791,18.85278,23.4043,15.99261,20.38867,13.00378Z"/><path class="cls-6" d="M18.20459,50.29553c.78125.53943,1.8335,1.26593,2.46777,1.70386,3.23291-3.08527,6.25586-5.97,9.31568-8.89008-.58618-1.03509-1.18189-2.08667-1.75513-3.099C24.83691,43.49335,21.55884,46.85541,18.20459,50.29553Z"/></g></g></svg>