<svg id="Symbols" xmlns="http://www.w3.org/2000/svg" viewBox="0 0 64 64"><defs><style>.cls-1{fill:#fff;}</style></defs><g id="MinervaStreamingFarm"><path class="cls-1" d="M31.73258,18.24305a1.75187,1.75187,0,0,0-1.45682-.84428,1.05692,1.05692,0,0,0-1.1359.64053,1.28766,1.28766,0,0,0,.29162,1.28108,2.32221,2.32221,0,0,0,1.51411.64054,1.74073,1.74073,0,0,0,.66983-.14517.88641.88641,0,0,0,.37821-1.048A2.21369,2.21369,0,0,0,31.73258,18.24305Z"/><path class="cls-1" d="M33.13081,22.20472c.14517.29162.554,1.10662.554,1.10662.02929.05857.05857.08786.05857.05857.02929,0,.05858-.02929.08787-.05857l.554-1.10662a.39591.39591,0,0,0-.08787-.37821c-.52466-.52466-.52466-.52466-1.07733,0A.34907.34907,0,0,0,33.13081,22.20472Z"/><path class="cls-1" d="M35.9553,19.817a1.77812,1.77812,0,0,0,.69911.17446,2.19909,2.19909,0,0,0,1.48483-.66982,1.28766,1.28766,0,0,0,.29162-1.28108A1.05692,1.05692,0,0,0,37.295,17.4a1.75356,1.75356,0,0,0-1.45681.84429,2.2209,2.2209,0,0,0-.26233.52465A.85619.85619,0,0,0,35.9553,19.817Z"/><path class="cls-1" d="M32,.65433A31.34567,31.34567,0,1,0,63.34566,32,31.38077,31.38077,0,0,0,32,.65433Zm0,59.70513c-.06877,0-.13753-.00255-.2063-.00255-.48263-2.30619-1.034-4.99824-1.46318-7.917.01146-.00891.02165-.01655.03311-.0242-.014-.01528-.028-.03056-.0433-.04584q-.07449-.51192-.1439-1.03148c.49028-.67238.97291-1.33329,1.45427-1.99421.01783.00765.03566.01529.05348.0242h.01528c.02292.01273.04585.028.06877.042a7.12153,7.12153,0,0,0,7.23567.35147,6.88385,6.88385,0,0,0,3.40645-3.70443c.17319-.42788.27251-.885.419-1.32438a.21892.21892,0,0,0-.07514-.27634,6.937,6.937,0,0,0-4.74228-1.78663,7.11828,7.11828,0,0,0-6.72757,4.35516c-.13244.27506-.219.573-.32727.85957a.41427.41427,0,0,0,.17573-.0624c.56159-.31072,1.113-.64309,1.68858-.92707a12.34045,12.34045,0,0,1,3.91328-1.25051c.2203-.028.44315-.03947.66473-.05858-.01656.03947-.03566.04584-.056.04967a12.59805,12.59805,0,0,0-3.84451,1.62363,19.53905,19.53905,0,0,0-3.31858,2.70733c-.05348.05094-.10442.10315-.15663.15536a58.68922,58.68922,0,0,1-.41641-7.10833c.01273-1.91016.08914-3.69934.21139-5.35353q.49473-.47754.98054-.94871c.01019.00636.02038.014.03184.02037l.01019.00128a.49259.49259,0,0,0,.03947.0331,4.52643,4.52643,0,0,0,4.49269,1.006,4.37605,4.37605,0,0,0,2.53541-1.94963c.15536-.2496.26743-.52466.40623-.78444a.13646.13646,0,0,0-.01783-.18083,4.41021,4.41021,0,0,0-2.77482-1.63382,4.524,4.524,0,0,0-4.68625,1.99675c-.11206.15791-.19866.33492-.298.503a.24565.24565,0,0,0,.11588-.02037c.38585-.13371.76661-.28143,1.15883-.39732a7.87234,7.87234,0,0,1,2.58635-.35783c.14135.00636.28143.02292.42278.03565a.04424.04424,0,0,1-.04075.02547,8.00479,8.00479,0,0,0-2.5838.59979,12.168,12.168,0,0,0-2.31766,1.29891,52.2561,52.2561,0,0,1,1.78791-10.43709A8.08558,8.08558,0,1,0,30.817,26.188c-.21393.68766-.45334,1.60071-.694,2.71624-.03438-.02546-.06749-.05221-.10187-.07513a3.89875,3.89875,0,0,0-.74878-.42151,2.53624,2.53624,0,0,0-.815-.18974.01417.01417,0,0,1-.01274-.00764c.04457-.00382.08914-.00891.13371-.01146a2.46268,2.46268,0,0,1,.81628.11334c.12352.03692.24322.08277.36547.12479a.077.077,0,0,0,.03693.00637c-.03056-.05349-.05857-.10824-.09423-.15918a1.42871,1.42871,0,0,0-1.47846-.63035,1.39381,1.39381,0,0,0-.87613.51574.04291.04291,0,0,0-.00509.0573c.0433.0815.079.16937.12862.247a1.38,1.38,0,0,0,.79972.61507,1.42766,1.42766,0,0,0,1.41733-.31709l.01274-.01018H29.704l.01018-.00637c.121.11716.242.233.36421.35274l.00254-.00382a65.47516,65.47516,0,0,0-1.18175,8.89115c-.0382-.028-.0764-.05731-.11588-.084a12.33977,12.33977,0,0,0-2.37241-1.33456,8.03,8.03,0,0,0-2.58381-.59979.04309.04309,0,0,1-.04075-.02547c.14135-.01147.28143-.02929.42279-.03566a7.87242,7.87242,0,0,1,2.58635.35784c.39094.11588.773.2636,1.15883.39731a.249.249,0,0,0,.11588.02038c-.09933-.1681-.18592-.34511-.298-.503a4.524,4.524,0,0,0-4.68625-1.99675,4.40923,4.40923,0,0,0-2.77482,1.63381.1395.1395,0,0,0-.01782.18083c.1388.25979.25086.53485.40622.78444a4.37607,4.37607,0,0,0,2.53542,1.94963,4.5235,4.5235,0,0,0,4.49268-1.006.49077.49077,0,0,1,.03948-.03311l.01019-.00127c.01018-.00637.02037-.014.03183-.02038.34638.33619.694.67237,1.04677,1.01238-.0815,1.36131-.13244,2.80029-.14135,4.31568a61.04261,61.04261,0,0,0,.55267,8.271A22.68431,22.68431,0,0,0,25.42907,48.165a15.07643,15.07643,0,0,0-4.60348-1.94454.08391.08391,0,0,1-.06749-.05985c.26488.02292.531.03693.7959.07a14.76945,14.76945,0,0,1,4.68625,1.49756c.68893.34,1.34984.73732,2.02222,1.10916a.486.486,0,0,0,.21012.07386c-.12862-.34383-.233-.70039-.391-1.03021a8.52236,8.52236,0,0,0-8.057-5.21473A8.30416,8.30416,0,0,0,14.34635,44.807a.26143.26143,0,0,0-.09042.33109c.17446.52593.29416,1.07479.50174,1.58671a8.24812,8.24812,0,0,0,4.08009,4.43665,8.52475,8.52475,0,0,0,8.66447-.42023c.028-.01656.05476-.03439.08277-.04967.0051-.00254.01274,0,.01911,0,.02164-.00891.04329-.0191.06494-.028.59088.81118,1.183,1.62108,1.78536,2.44754l.06749-.05093c.4075,2.66785.908,5.13195,1.35621,7.27642A28.34138,28.34138,0,1,1,32,60.35946Zm1.77135-41.67834a3.23328,3.23328,0,1,1,6.40921.59469,6.43668,6.43668,0,0,1-12.84516-.5081V18.592a3.2041,3.2041,0,1,1,6.40793.05858l.03057.04966Z"/></g></svg>