<?xml version="1.0" encoding="utf-8"?>
<!-- Generator: Adobe Illustrator 27.2.0, SVG Export Plug-In . SVG Version: 6.00 Build 0)  -->
<svg version="1.1" id="Ebene_1" xmlns="http://www.w3.org/2000/svg" xmlns:xlink="http://www.w3.org/1999/xlink" x="0px" y="0px"
	 viewBox="0 0 64 64" style="enable-background:new 0 0 64 64;" xml:space="preserve">
<style type="text/css">
	.st0{fill-rule:evenodd;clip-rule:evenodd;fill:#FFFFFF;}
	.st1{fill-rule:evenodd;clip-rule:evenodd;}
</style>
<g id="Spread">
	<path class="st0" d="M62.8,32C62.8,49,49,62.8,32,62.8S1.2,49,1.2,32S15,1.2,32,1.2C49,1.2,62.8,15,62.8,32z"/>
	<path id="peb-bot" class="st1" d="M40.3,36.4c7.2,1.1,12.3,3.5,12.3,6.3c0,3.8-9.2,6.9-20.6,6.9s-20.6-3.1-20.6-6.9
		c0-2.8,5-5.2,12.3-6.3c2.5,0.5,5.3,0.8,8.3,0.8c2.9,0,5.7-0.3,8.1-0.8L40.3,36.4z"/>
	<path id="peb-med" class="st1" d="M37.2,25.1c6.5,0.7,11.3,2.8,11.3,5.2c0,3-7.4,5.5-16.5,5.5s-16.5-2.5-16.5-5.5
		c0-2.4,4.7-4.5,11.3-5.2c1.6,0.3,3.4,0.4,5.2,0.4c1.8,0,3.5-0.1,5-0.4L37.2,25.1z"/>
	<ellipse id="peb-sm" class="st1" cx="32" cy="20.3" rx="12.3" ry="4.1"/>
</g>
</svg>
