<svg id="Symbols" xmlns="http://www.w3.org/2000/svg" viewBox="0 0 64 64"><defs><style>.cls-1{fill:#fff;}</style></defs><g id="zeroalpha"><circle cx="32" cy="32" r="31.47793"/><path id="Zeroalpha_Logo" data-name="Zeroalpha Logo" class="cls-1" d="M39.41577,34.65921A7.57959,7.57959,0,0,1,25.95794,39.4443q6.491-6.491,12.98326-12.98331a7.41266,7.41266,0,0,1,.47457,2.64125ZM24.73071,37.29983a7.41016,7.41016,0,0,1-.47453-2.64062v-5.557A7.58,7.58,0,0,1,37.7146,24.31653q-6.49191,6.492-12.98389,12.9833m17.02956.26009V19.13558h-2.3445v3.49965a9.96372,9.96372,0,0,0-17.54372,6.467v5.557A9.96409,9.96409,0,0,0,39.999,40.373a6.66613,6.66613,0,0,0,5.924,3.85162l.04264.00059V41.841a4.28154,4.28154,0,0,1-4.20541-4.28112"/></g></svg>