<svg id="Symbols" xmlns="http://www.w3.org/2000/svg" viewBox="0 0 64 64"><defs><style>.cls-1{fill:#fff;}.cls-2{fill:#4189c9;}.cls-3{fill:#262f71;}.cls-4{fill:#161f42;}.cls-5{fill:#5c94ce;}.cls-6{fill:#6497d0;}.cls-7{fill:#689ad1;}.cls-8{fill:#4e8fcc;}.cls-9{fill:#5591cd;}.cls-10{fill:#418ac9;}.cls-11{fill:#468cca;}.cls-12{fill:#488dca;}.cls-13{fill:#428ac9;}.cls-14{fill:#182144;}.cls-15{fill:#458cca;}.cls-16{fill:#263154;}.cls-17{fill:#424a7f;}.cls-18{fill:#5a5d76;}.cls-19{fill:#4f668a;}.cls-20{fill:#555a73;}.cls-21{fill:#6d9cd2;}.cls-22{fill:#729fd4;}.cls-23{fill:#78a2d5;}.cls-24{fill:#7da5d6;}.cls-25{fill:#81a7d8;}.cls-26{fill:#0e1f66;}.cls-27{fill:#699ad1;}.cls-28{fill:#88abd9;}</style></defs><g id="Quickswap"><circle class="cls-1" cx="32" cy="32" r="31.52752"/><path class="cls-2" d="M11.30314,28.8901c.134.61918.21482,1.24792.34834,1.8682.08178.38.20606.28764.401.12392a9.27925,9.27925,0,0,1,1.15279-.89924.42841.42841,0,0,1,.244.2029A7.85218,7.85218,0,0,0,17.733,32.97977a14.20206,14.20206,0,0,0,2.43079.45137,4.10143,4.10143,0,0,1-.63875-.96037,1.40416,1.40416,0,0,1,.28539-1.66338,4.12961,4.12961,0,0,1,2.07337-1.04272,14.878,14.878,0,0,1,4.84515-.34014,19.4895,19.4895,0,0,1,3.87863.66133,11.21153,11.21153,0,0,1,3.03481,1.24305c.13173.10558.22226.2509.349.36163a6.8718,6.8718,0,0,1,1.9576,4.59119,6.57613,6.57613,0,0,1-.91635,3.45809,11.74488,11.74488,0,0,1-4.63114,4.41308,16.45094,16.45094,0,0,1-6.33966,2.00454,16.93315,16.93315,0,0,1-11.06323-2.5447A21.54249,21.54249,0,0,1,6.2427,36.66811a32.76188,32.76188,0,0,1-2.17405-4.12736c-.07833-.17369-.0967-.36742-.17653-.51082.05075.16936.14408.36006-.04088.54076a16.4435,16.4435,0,0,1,.04522-2.15428,27.67142,27.67142,0,0,1,.91568-5.845A28.27539,28.27539,0,0,1,21.65791,5.6711,27.70377,27.70377,0,0,1,29.433,3.81784,28.4107,28.4107,0,0,1,41.69093,5.39592c-.60457,1.14722-4.05707,4.221-6.73853,6.00024A9.064,9.064,0,0,0,34.42688,9.126c-.01374-.19451.16052-.25536.26883-.3485q.83628-.71891,1.68271-1.4261a1.6767,1.6767,0,0,0,.16274-.14345c.06367-.0689.17079-.12545.14863-.23214-.02408-.11594-.14931-.11107-.23865-.12528a4.47712,4.47712,0,0,0-.78888-.099,11.04851,11.04851,0,0,0-1.10064-.13347,6.01271,6.01271,0,0,0-.85215-.06649,2.74473,2.74473,0,0,1-.43477-.031,2.33431,2.33431,0,0,0-.73476-.04128,4.10852,4.10852,0,0,0-.4396.002,9.64832,9.64832,0,0,0-1.262.03243,1.26788,1.26788,0,0,1-.3103.03122c-.12129.002-.2427.00552-.36415.00385a1.19967,1.19967,0,0,0-.47.04461c-.44343.04018-.88734.07551-1.32594.15633-.52824.11166-1.07069.13884-1.5957.269-.48211.12538-.9776.19733-1.45026.36084-.62863.17336-1.24979.37134-1.86852.57658A25.59864,25.59864,0,0,0,20.77887,9.1013,24.02733,24.02733,0,0,0,15.404,12.66792a25.733,25.733,0,0,0-4.01753,4.38715A24.6146,24.6146,0,0,0,9.79,19.58076c-.30578.56931-.60079,1.14391-.86658,1.73319a14.84684,14.84684,0,0,0-.57709,1.36875c-.19262.47344-.35169.95846-.50354,1.44608-.18175.48852-.28726.99891-.42975,1.4986-.06145.19583-.0999.39741-.14758.59675-.06084.24045-.0978.48552-.14177.72932-.07515.41008-.14382.82107-.20271,1.23379a11.5885,11.5885,0,0,0-.15139,1.2832c-.07118.28412-.01906.57861-.071.86423a6.92055,6.92055,0,0,0-.0505,1.07791c-.01044.25188-.015.50451-.0088.757.00257.104-.04686.24853.06206.29881.1249.05763.21493-.07418.305-.14776.30713-.251.60689-.511.90739-.76967,1.011-.87042,2.03451-1.72618,3.04937-2.59207C11.05092,28.884,11.1463,28.68921,11.30314,28.8901Z"/><path class="cls-3" d="M33.63493,31.41967a13.48727,13.48727,0,0,0-3.83927-1.43994,19.07664,19.07664,0,0,0-5.376-.49323,9.59688,9.59688,0,0,0-3.71541.802,3.23565,3.23565,0,0,0-.40708.234,1.50574,1.50574,0,0,0-.40767,2.406c.14218.18993.30058.36774.49221.60058a8.34343,8.34343,0,0,1-1.7086-.22344,9.09885,9.09885,0,0,1-4.006-1.73438,6.05786,6.05786,0,0,1-1.46186-1.58831,1.64188,1.64188,0,0,1,.65428-.50868c.46576-.19535.88778-.47435,1.34814-.68459a20.04014,20.04014,0,0,1,6.50716-1.73953,20.7817,20.7817,0,0,1,2.7063-.13612,30.06431,30.06431,0,0,1,7.854,1.36527c.65572.20427,1.305.42926,1.988.66a.81672.81672,0,0,0-.18334-.43224,9.32149,9.32149,0,0,0-.94229-1.32585c-.1276-.15025-.30662-.28251-.30283-.515.36007.08218.72055.16268,1.08.2477.09349.02211.20916.08006.2711.001.082-.10466-.0415-.19532-.09461-.27445a11.14322,11.14322,0,0,0-1.89949-2.09353c.37542-.21753.76165-.04008,1.12736.00657a20.65538,20.65538,0,0,1,17.73192,16.178,17.44024,17.44024,0,0,1,.32626,5.00225,15.26934,15.26934,0,0,1-2.84352,7.973,3.00982,3.00982,0,0,0-.34874.45947,6.84178,6.84178,0,0,1-1.49,1.40228,20.02722,20.02722,0,0,1-9.76555,4.08217,29.95283,29.95283,0,0,1-8.4302.14827,27.81831,27.81831,0,0,1-12.29923-4.64748,19.60473,19.60473,0,0,1-2.55929-1.99094.06281.06281,0,0,1-.00559-.08861l.01-.00913c.1685-.06664.27464.05488.38525.13853a18.26209,18.26209,0,0,0,6.27237,3.04705,22.01689,22.01689,0,0,0,2.30442.458,2.84416,2.84416,0,0,0,.54211.06374.77572.77572,0,0,1,.10908.02276,17.94215,17.94215,0,0,0,5.24852-.22062,20.32456,20.32456,0,0,0,10.11362-4.84146,14.42616,14.42616,0,0,0,4.36887-6.36767,9.806,9.806,0,0,0-.45115-7.48133,6.36882,6.36882,0,0,1-1.5363,2.83723,10.26019,10.26019,0,0,1-2.51677,2.04584c-.11.06351-.23172.184-.35808.08709-.10915-.0837-.04387-.22883-.01027-.33941a13.454,13.454,0,0,0,.47753-2.336A8.24983,8.24983,0,0,0,34.993,32.28365,11.70905,11.70905,0,0,0,33.63493,31.41967Z"/><path class="cls-4" d="M22.62511,56.7766a14.52636,14.52636,0,0,1-2.8823-.58857,19.12236,19.12236,0,0,1-5.00814-2.35225,10.47336,10.47336,0,0,0-1.0852-.76116c-.23072-.0335-.32725-.25912-.51237-.35794a27.45789,27.45789,0,0,1-8.09362-12.6946,27.0561,27.0561,0,0,1-1.1922-7.45121l.03421-.676c.1889.421.33661.755.48817,1.08725a25.79309,25.79309,0,0,0,5.67145,8.21859A17.36939,17.36939,0,0,0,19.33,45.92593a16.53925,16.53925,0,0,0,11.80033-2.32348,10.16238,10.16238,0,0,0,4.15053-4.6003,6.37266,6.37266,0,0,0-.93116-6.75347c-.13812-.18187-.28508-.357-.428-.53528.18774-.16041.287.02491.39348.11439a8.03758,8.03758,0,0,1,2.18135,2.88639,8.47162,8.47162,0,0,1,.75811,3.39783,7.69348,7.69348,0,0,1-.76734,3.4634.51581.51581,0,0,0,.31239-.11368,9.40853,9.40853,0,0,0,1.41506-.99888c.13666-.11846.25757-.29754.4831-.27045A15.945,15.945,0,0,1,38.11,42.87147a12.69719,12.69719,0,0,0,1.66755-1.10779c.41842-.32636.75579-.73632,1.16619-1.0684.175.07457.17472.24784.21517.39378a8.698,8.698,0,0,1-1.00611,6.7876,17.0209,17.0209,0,0,1-6.04525,6.04946,20.58468,20.58468,0,0,1-6.49537,2.65957,13.73844,13.73844,0,0,1-4.40939.2603l.00027.00013C23.01958,56.74689,22.80989,56.86521,22.62511,56.7766Z"/><path class="cls-2" d="M59.13011,38.88261a20.46632,20.46632,0,0,0-2.00529-7.95139,21.13823,21.13823,0,0,0-2.9365-4.51247,24.485,24.485,0,0,0-3.53027-3.31965.4492.4492,0,0,1,.40919-.07741,22.85255,22.85255,0,0,1,5.19394,1.23371,7.78635,7.78635,0,0,1,1.20959.56554,3.68087,3.68087,0,0,1,.40137.2353c.03339.0187.05161.06632.10088.05594a.12334.12334,0,0,1-.021-.13239,23.823,23.823,0,0,0-3.97486-3.91035,29.20324,29.20324,0,0,0-5.61661-3.56254,27.77982,27.77982,0,0,0-8.84139-2.65,3.60944,3.60944,0,0,1-.82153-.09367c-.02311-.18285.13023-.24359.23629-.33193a16.11,16.11,0,0,0,4.27538-5.40175,15.2167,15.2167,0,0,0,.786-1.98172.84632.84632,0,0,1,.28831-.52588A27.84554,27.84554,0,0,1,52.82525,12.891,28.20326,28.20326,0,0,1,59.25969,38.955C59.1781,38.99961,59.1604,38.92984,59.13011,38.88261Z"/><path class="cls-4" d="M48.18494,54.16619c-.00295-.28411.2265-.44351.36588-.64252A15.62987,15.62987,0,0,0,51.09127,47.298a16.94046,16.94046,0,0,0,.18837-4.20675,18.49655,18.49655,0,0,0-1.56258-6.21988,20.56106,20.56106,0,0,0-2.38772-4.11063,21.38188,21.38188,0,0,0-3.49185-3.63209,20.034,20.034,0,0,0-6.81529-3.67537,19.09751,19.09751,0,0,0-4.07929-.83933,5.045,5.045,0,0,0-.75136-.067,15.509,15.509,0,0,0-2.77981-1.73137l.00687-.09776c.36148,0,.72307.00564,1.08444-.00085A21.52972,21.52972,0,0,1,44.30626,26.95,20.05342,20.05342,0,0,1,52.1602,39.58008a16.63945,16.63945,0,0,1-2.27448,12.4982A9.54751,9.54751,0,0,1,48.18494,54.16619Z"/><path class="cls-4" d="M44.28361,6.52193a17.76532,17.76532,0,0,1-2.05391,4.40233,16.71117,16.71117,0,0,1-3.323,3.64311c-.07363.06049-.1396.1303-.20911.19578a12.60037,12.60037,0,0,0-1.21616.83749,25.83616,25.83616,0,0,1-4.76827,2.46554.872.872,0,0,1-.12467.03082c-.07291-.10834.01328-.14767.05817-.19046A7.48779,7.48779,0,0,0,34.574,14.6567a.48008.48008,0,0,1,.30579-.35254,16.97063,16.97063,0,0,0,7.22159-5.59022c.175-.2261.34643-.455.56245-.739a7.65594,7.65594,0,0,0-1.55668.36839c-.09485.00557-.2186.08486-.241-.09446a20.79243,20.79243,0,0,0,4.039-7.3041c.05352-.17231-.00015-.40865.23934-.4952a.04218.04218,0,0,1,.02449.043q-.00464.02578-.01269.02579A22.2236,22.2236,0,0,1,44.35,6.17159C44.31773,6.28552,44.30526,6.405,44.28361,6.52193Z"/><path class="cls-4" d="M32.83462,26.66622A11.52422,11.52422,0,0,1,34.3854,28.829c.04109.07587.14836.16139.053.25136-.07213.068-.15625-.01556-.23219-.04382a33.66484,33.66484,0,0,0-6.04087-1.64569c-1.038-.17849-2.09123-.25727-3.14558-.33314a18.69321,18.69321,0,0,0-2.84308.04083A19.64494,19.64494,0,0,0,15.90236,28.601a13.13356,13.13356,0,0,0-1.82336.86792c-.06549.04118-.14418.10923-.21938.00523A19.27778,19.27778,0,0,1,19.57491,26.731a23.39589,23.39589,0,0,1,8.60758-.8163,31.722,31.722,0,0,1,4.41661.67052A2.15518,2.15518,0,0,1,32.83462,26.66622Z"/><path class="cls-5" d="M32.11028,6.37505l.4344-.0007c.23388.10087.49027-.027.72442.07129l.4335.00105c.03636.21012-.13612.29814-.25579.39924-2.00631,1.69483-3.99778,3.40714-6.00556,5.10028-.66306.55915-1.32048,1.12526-1.98295,1.68528a.58955.58955,0,0,0-.227.27316,5.62128,5.62128,0,0,0-2.31285,1.44209,6.1372,6.1372,0,0,0-.71912,1.10668,17.58877,17.58877,0,0,0-1.63792,1.3492c-1.42615,1.19869-2.8341,2.41907-4.26391,3.61356-.12017.10037-.20007.24158-.3399.31955a1.57022,1.57022,0,0,1-.13456-1.17015,3.11248,3.11248,0,0,1,.71887-.70322q2.07989-1.76377,4.15532-3.53266,2.026-1.71628,4.046-3.43943,2.32764-1.97458,4.65059-3.95476c.86166-.734,1.71852-1.47377,2.59268-2.19275C32.11923,6.63363,32.212,6.54651,32.11028,6.37505Z"/><path class="cls-4" d="M57.52152,24.91562a19.22033,19.22033,0,0,0-5.36227-1.63244,9.90065,9.90065,0,0,0-1.50126-.1841c-.649-.41-1.28514-.84249-1.94955-1.22594a20.23614,20.23614,0,0,0-6.969-2.48609,1.00161,1.00161,0,0,1-.15923-.06195,17.89283,17.89283,0,0,1,4.99371.72112,23.46966,23.46966,0,0,1,4.67993,1.83847,9.6425,9.6425,0,0,0-.61709-1.15988c-.01691-.10016-.15684-.18757-.06334-.29356.10016-.11347.1997.00753.28793.04763.251.11408.49114.25151.74326.36411a33.55012,33.55012,0,0,1,5.92818,3.90888C57.63436,24.88766,57.63436,24.88766,57.52152,24.91562Z"/><path class="cls-6" d="M32.11028,6.37505c.04506.10545.18557.02825.25263.14685-.404.35-.8078.70533-1.2176,1.0536q-1.11076.944-2.22718,1.88134-1.58175,1.33489-3.16277,2.67047c-.73181.62192-1.4528,1.25657-2.18457,1.87852-.88675.75367-1.78173,1.49764-2.66943,2.25019-.705.59771-1.40276,1.204-2.10686,1.80283q-1.11043.9444-2.2268,1.88183-.37144.31351-.7448.6248l.21222-.94194c-.12045-.30807.13052-.447.30164-.5896.67591-.56326,1.34041-1.13982,2.01114-1.709q2.34285-1.98823,4.6824-3.98039,2.01056-1.709,4.02208-3.417c1.247-1.06319,2.50319-2.11569,3.73812-3.193.09464-.08255.27494-.18038.01451-.28943A4.84558,4.84558,0,0,1,32.11028,6.37505Z"/><path class="cls-7" d="M30.80513,6.44519c.10109.01772.21211-.03578.31839.04674a5.06468,5.06468,0,0,1-.96267.91182c-.94824.8266-1.91055,1.63715-2.87133,2.44922-.87835.74232-1.76559,1.474-2.64205,2.21848-.88606.75263-1.76,1.51959-2.64611,2.27221-.87648.74444-1.76528,1.47437-2.64175,2.21884-.88605.75264-1.76454,1.51427-2.6444,2.27421-.26461.22857-.61425.38565-.68.78683-.46742.05306-.71432.4474-1.0566.6913-.54.38481-.95055.914-1.44873,1.347-.50081.35557-.94312.782-1.41019,1.17785-1.38865,1.17681-2.77053,2.36165-4.16446,3.53226a5.30614,5.30614,0,0,1-.58107.48849c-.09753.06063-.18412.17289-.32028.07834a1.61963,1.61963,0,0,1,.14579-.72451A18.97254,18.97254,0,0,0,9.09742,24.659c1.72682-1.44677,3.43847-2.91163,5.15385-4.372q2.55911-2.17864,5.11637-4.3595,2.50671-2.12864,5.01481-4.25578c1.707-1.45108,3.422-2.893,5.11564-4.35978.33679-.29168.69154-.56246,1.01893-.86551Z"/><path class="cls-8" d="M34.572,6.51861a8.31011,8.31011,0,0,1,1.15861.1447c.10487.23067-.09335.321-.21574.428-.48258.42188-.98732.81812-1.45732,1.25481-.05067-.067-.10472-.13168-.15136-.20134-.107-.15986-.18235-.11695-.25159.03147a7.40141,7.40141,0,0,1-2.61648,2.82908,19.51547,19.51547,0,0,1-3.85,2.1038c-.07282-.139-.07937-.14532.0454-.27424.2601-.26877.55782-.49606.84211-.73776,2.05565-1.74755,4.11753-3.48773,6.16074-5.24991C34.35528,6.74461,34.45751,6.62551,34.572,6.51861Z"/><path class="cls-9" d="M34.572,6.51861a.44107.44107,0,0,1-.16963.30306Q32.41387,8.50449,30.4316,10.1946q-1.51812,1.29341-3.02808,2.59616c-.09082.07885-.26105.13484-.2155.31839a18.22935,18.22935,0,0,1-1.95673.7955c-.22473-.06143-.03888-.14164.00335-.179q.592-.52393,1.19566-1.03459,1.108-.94213,2.21987-1.87978c.73139-.61811,1.46582-1.23264,2.19507-1.85329.72963-.621,1.459-1.24246,2.17886-1.87471a2.76756,2.76756,0,0,0,.67851-.63657A4.56678,4.56678,0,0,1,34.572,6.51861Z"/><path class="cls-4" d="M29.43492,15.21768a10.91969,10.91969,0,0,0,2.231-1.24877c.13869-.00532.12335.07422.09021.16362a5.66956,5.66956,0,0,1-5.167,4.47071,8.06688,8.06688,0,0,1-1.51493.05681c.06505-.1863.24221-.1705.38574-.20952a8.31346,8.31346,0,0,0,1.65714-.592,4.31736,4.31736,0,0,0,2.12046-2.30239A.8012.8012,0,0,1,29.43492,15.21768Z"/><path class="cls-10" d="M29.43492,15.21768a4.20215,4.20215,0,0,1-2.16121,2.66,10.05542,10.05542,0,0,1-2.19914.7825,1.43,1.43,0,0,1,.33993-1.40675,3.74583,3.74583,0,0,1,1.449-1.03245A26.82439,26.82439,0,0,1,29.43492,15.21768Z"/><path class="cls-6" d="M7.05385,26.93877a3.87941,3.87941,0,0,0,1.0433-.79942c1.09015-.89443,2.16093-1.81256,3.23527-2.72616.56481-.48027,1.12154-.97014,1.68179-1.45583a.871.871,0,0,1,.51553-.29555,12.69358,12.69358,0,0,0-1.54553,2.30971Q10.31947,25.382,8.65946,26.79806c-.51177.43768-1.03421.86278-1.538,1.3099-.07738.06868-.16458.15519-.28362.062A5.20639,5.20639,0,0,1,7.05385,26.93877Z"/><path class="cls-11" d="M11.30314,28.8901c-.34207.026-.49646.33242-.72273.515-.95117.7677-1.87806,1.56583-2.80377,2.36457-.30881.26643-.60839.5427-.93519.788-.21573.16194-.297.09938-.29391-.15281.00366-.30131.00084-.60271.00084-.904a12.19607,12.19607,0,0,1,1.10829-.96568c1.07927-.91511,2.14685-1.8441,3.23955-2.74329.09409-.07742.17285-.21859.33475-.12713Z"/><path class="cls-9" d="M15.95754,21.73563a.40019.40019,0,0,1,.18446-.297c.86892-.73381,1.742-1.46277,2.60991-2.19774q1.06949-.90561,2.13038-1.82132c.37269-.31993.74244-.64329,1.11239-.96638.07076-.06179.1363-.10774.20451.00021a3.7932,3.7932,0,0,0-.16565,1,13.80894,13.80894,0,0,1-1.29543,1.13919c-1.35013,1.15394-2.69871,2.30975-4.05823,3.45267a1.11034,1.11034,0,0,0-.14327.1615A.76419.76419,0,0,1,15.95754,21.73563Z"/><path class="cls-5" d="M6.8378,28.16991c.31205-.09606.49465-.368.72915-.56185,1.27167-1.0515,2.52366-2.12678,3.7826-3.19366.19762-.16746.337-.41863.63465-.44288a14.67,14.67,0,0,0-.58172,1.74269c-.2259-.023-.34108.15832-.47962.27744-1.311,1.12714-2.6343,2.23984-3.95138,3.35983-.07911.06727-.14912.16538-.27859.1219A4.3,4.3,0,0,1,6.8378,28.16991Z"/><path class="cls-8" d="M16.53666,22.20671c-.08978-.16208.06329-.21477.14232-.28238q1.66086-1.421,3.32957-2.83272.943-.79954,1.89172-1.59233a.40715.40715,0,0,1,.13333-.04587,2.91305,2.91305,0,0,0,.13294.8695A11.58326,11.58326,0,0,1,20.87442,19.468q-1.46232,1.26063-2.94027,2.50307a.334.334,0,0,0-.14848.19688A1.65408,1.65408,0,0,1,16.53666,22.20671Z"/><path class="cls-8" d="M11.231,27.66461a8.21372,8.21372,0,0,0-1.08877.866c-.94176.776-1.8698,1.56883-2.79429,2.36538a3.378,3.378,0,0,1-.7995.60474,3.95527,3.95527,0,0,1,.0721-1.15843q2.14084-1.82874,4.292-3.64537c.09852-.08317.19921-.18425.35174-.11942Z"/><path class="cls-9" d="M11.26418,26.57749a7.861,7.861,0,0,0-1.20908.954c-.93419.76781-1.84807,1.56029-2.77336,2.339-.20722.17438-.35185.43969-.66125.47183.03675-.28858-.0776-.58978.07243-.86891q1.3544-1.15515,2.70917-2.30982c.61208-.51994,1.2296-1.03348,1.84107-1.55417.19546-.16644.1419.01624.1594.1048Z"/><path class="cls-12" d="M17.78567,22.16789c-.13321-.09437-.04022-.168.03025-.22718.85157-.71462,1.70759-1.424,2.55816-2.13976.53083-.44672,1.05488-.90146,1.58055-1.35431.06395-.05509.119-.12034.21188-.12382l.21738.43388c-.16677.257-.43472.41781-.62261.65475a9.57457,9.57457,0,0,1-3.697,2.69521A1.9333,1.9333,0,0,1,17.78567,22.16789Z"/><path class="cls-11" d="M34.05756,8.34614c.13043-.41064.557-.528.80909-.81754.26846-.30833.70756-.44572.864-.8653a4.86967,4.86967,0,0,1,.92175.14c.26453.04955.2759.16422.09342.32715q-.59116.52777-1.19151,1.04529c-.37257.32049-.75132.63377-1.12736.95026Z"/><path class="cls-13" d="M16.18472,24.857c.06381.16039-.12831.24106-.10606.3885a.58645.58645,0,0,0-.78088-.5233,2.2792,2.2792,0,0,0-1.22006.70991c-.09033.09543-.18935.18261-.28439.27352-.07978-.09948.00158-.17989.03142-.26653a2.67413,2.67413,0,0,1,1.15156-1.43106,1.22351,1.22351,0,0,1,.3922-.17884c.62024-.14823.95982.15506.87436.78373A.79736.79736,0,0,1,16.18472,24.857Z"/><path class="cls-14" d="M16.18472,24.857c.00236-.09572.00538-.19144.007-.28717.01047-.63151-.3476-.87194-.93393-.60367A2.849,2.849,0,0,0,13.85828,25.491c-.06806.01259-.10383-.00687-.08245-.08307a3.21939,3.21939,0,0,1,1.30883-1.905,1.42238,1.42238,0,0,1,.56445-.2199.60338.60338,0,0,1,.71631.44485A1.4388,1.4388,0,0,1,16.18472,24.857Z"/><path class="cls-15" d="M21.76133,19.41146c-.12148-.09816-.01491-.13458.04994-.17978.20417-.14236.316-.396.57266-.475a2.505,2.505,0,0,0,1.39936.9429c.11.03927.225.06443.40418.11475a2.58091,2.58091,0,0,1-2.23523-.32157A.28614.28614,0,0,0,21.76133,19.41146Z"/><path class="cls-4" d="M51.60461,20.84306a3.1528,3.1528,0,0,1-.70892-.30244c-.09308-.03456-.18235-.15859-.28167-.07753-.08268.06751.05206.1686.02273.2618a1.23162,1.23162,0,0,1-.27609-.50316A6.32217,6.32217,0,0,1,51.60461,20.84306Z"/><path class="cls-16" d="M57.52152,24.91562c.07886-.04946.00514-.10936.01122-.1638l.4193.22793.22611.28959A2.10584,2.10584,0,0,1,57.52152,24.91562Z"/><path class="cls-17" d="M13.13714,52.71669c.22561.04088.3278.25835.51237.358l-.00877.08576A1.3708,1.3708,0,0,1,13.13714,52.71669Z"/><path class="cls-2" d="M59.13011,38.88261l.12958.07235a.78512.78512,0,0,1-.12958.4435Z"/><path class="cls-18" d="M40.86607,8.24884c.04923.11079.15964.06549.241.09446l-.38716.14941C40.68974,8.33929,40.7943,8.305,40.86607,8.24884Z"/><path class="cls-19" d="M13.77587,25.40793l.08248.083-.065.21477-.15619.20033A1.26172,1.26172,0,0,1,13.77587,25.40793Z"/><path class="cls-20" d="M31.75613,14.13253c-.02077-.05967-.01224-.1355-.09021-.16362.023-.05558.08533-.13372.11429-.10579C31.86745,13.94713,31.831,14.04778,31.75613,14.13253Z"/><path class="cls-21" d="M7.34378,25.6343a5.937,5.937,0,0,1,.43372-1.52181c.85237-.594,1.60156-1.31368,2.39377-1.98014q2.06139-1.73426,4.10591-3.48888,1.86941-1.59725,3.74553-3.18662,2.02755-1.7185,4.05017-3.44277c1.23059-1.04595,2.464-2.08868,3.68921-3.14094.85936-.738,1.73735-1.45434,2.5824-2.20917a5.13848,5.13848,0,0,1,1.37472-.14618A.13768.13768,0,0,1,29.86751,6.5c.10289.17491-.02813.27442-.13376.36376Q27.982,8.3454,26.23961,9.83817q-1.85659,1.5812-3.71448,3.161-1.71832,1.4652-3.44149,2.92483-2.09553,1.7744-4.18623,3.5545c-1.7359,1.4723-3.46393,2.95385-5.20377,4.42157-.67193.56683-1.33332,1.14644-2.01505,1.70159C7.59375,25.67064,7.47873,25.88834,7.34378,25.6343Z"/><path class="cls-22" d="M28.34443,6.66389c-.12177.40707-.51465.55932-.7936.80734-.91451.81322-1.8596,1.5921-2.79507,2.38165-1.04542.88236-2.09682,1.75765-3.13881,2.644-.90541.77019-1.79765,1.55587-2.70247,2.32676-.87686.74708-1.76505,1.48085-2.64326,2.22635-.87866.74588-1.74883,1.50176-2.627,2.24825-.87771.74611-1.76248,1.48389-2.64083,2.22934-.72312.61375-1.44032,1.23448-2.16205,1.84988-.29222.24912-.59.49182-.88422.73862-.063.05284-.12133.07886-.17967-.00362a5.82569,5.82569,0,0,1,.507-1.44807,16.86712,16.86712,0,0,0,1.821-1.479q2.05959-1.73578,4.10489-3.48878,2.11592-1.8095,4.23974-3.60971,1.749-1.48794,3.50054-2.9729c1.519-1.284,3.02469-2.58358,4.55-3.86012a.66573.66573,0,0,0,.24952-.30177A8.85657,8.85657,0,0,1,28.34443,6.66389Z"/><path class="cls-23" d="M26.75014,6.95215c.22516.05918.0412.14055-.00154.17882-.41114.36826-.82463.73415-1.24518,1.09165-.73067.62113-1.46751,1.235-2.20056,1.85341q-1.60831,1.35675-3.21417,2.71623c-.87706.746-1.74533,1.50245-2.62194,2.24908-.90358.76959-1.81458,1.53045-2.71852,2.29958-.877.74616-1.74684,1.50065-2.624,2.24653-.87679.74554-1.75868,1.48506-2.63858,2.22691-.3208.27046-.64052.54229-.96513.8081-.0639.05232-.1328.17017-.23585.042a5.726,5.726,0,0,1,.57812-1.37462c1.19071-1.01809,2.38728-2.02933,3.57846-3.04684q1.84184-1.57334,3.68933-3.1401,1.76227-1.49938,3.52694-2.9961,1.8591-1.58051,3.71875-3.16042c.64289-.54436,1.26449-1.11392,1.92621-1.636A5.60124,5.60124,0,0,1,26.75014,6.95215Z"/><path class="cls-24" d="M25.30251,7.31041A11.377,11.377,0,0,1,23.66125,8.8191c-.73038.64089-1.47945,1.26048-2.22136,1.88817-.72356.61218-1.44979,1.22122-2.172,1.83491-.72262.614-1.44015,1.234-2.163,1.84768-.73162.62119-1.46878,1.23586-2.20022,1.85726-.7135.6062-1.42114,1.21931-2.13443,1.82576q-1.3574,1.15408-2.71981,2.30229-.481.40669-.96383.81124a.32819.32819,0,0,1-.22384.10343,9.59362,9.59362,0,0,1,.87042-1.73744c1.653-1.34391,3.2601-2.74246,4.88183-4.12322,1.8787-1.59949,3.76571-3.1892,5.63329-4.80178,1.05634-.91213,2.15342-1.777,3.17144-2.7337A10.94506,10.94506,0,0,1,25.30251,7.31041Z"/><path class="cls-25" d="M23.41975,7.8937c.07276.129-.05726.16806-.11415.2179q-1.20421,1.05515-2.41894,2.09829c-.70986.60877-1.42592,1.2103-2.13962,1.81457q-1.33116,1.12707-2.66257,2.25383c-.722.61341-1.43942,1.23228-2.1616,1.84549q-1.357,1.15222-2.718,2.29963-.56276.477-1.12028.96011a.62171.62171,0,0,1-.35142.16888,15.28254,15.28254,0,0,1,1.59464-2.53361c.56044-.413,1.07216-.88508,1.60235-1.33422q2.06512-1.7492,4.12391-3.50595,1.59315-1.35764,3.18485-2.717a2.39112,2.39112,0,0,0,.495-.41446A14.59315,14.59315,0,0,1,23.41975,7.8937Z"/><path class="cls-26" d="M38.69786,40.19237a9.85223,9.85223,0,0,1-2.41729,1.62322,8.6,8.6,0,0,0,.64062-1.76109,8.25469,8.25469,0,0,0-1.4366-6.87838,12.31175,12.31175,0,0,0-1.2895-1.36c-.07-.07233-.147-.16331-.27335-.10273-.13019-.06421-.194-.193-.28681-.29371.063-.08.128-.03552.18984-.00048a9.5613,9.5613,0,0,1,4.10042,4.1212,8.24045,8.24045,0,0,1,.78943,2.89752A8.354,8.354,0,0,1,38.69786,40.19237Z"/><path class="cls-27" d="M7.34378,25.6343c.28905.10455.39079-.18412.5342-.3028,1.46892-1.21562,2.9173-2.45611,4.36736-3.69434,1.36825-1.16834,2.72736-2.34741,4.09842-3.51239,1.526-1.29664,3.06488-2.57812,4.59087-3.87475,1.37108-1.165,2.73088-2.34325,4.09826-3.51261q2.2149-1.89411,4.43518-3.782c.15162-.12908.36922-.19555.3967-.43661.08274-.0792.2061.00759.28906-.07075l.36317-.00162c-.111.38432-.48434.52-.74432.75379-.74905.67375-1.52965,1.31248-2.29945,1.96308-.87974.74351-1.76284,1.483-2.64138,2.228-.71413.60553-1.42164,1.21889-2.13571,1.82452-1.05234.89247-2.1095,1.77936-3.16155,2.67229-.71388.60588-1.42058,1.22024-2.134,1.82671-.905.7694-1.81516,1.53279-2.72012,2.30227-.71334.60654-1.42025,1.22057-2.13357,1.82719-.73115.62186-1.46862,1.23631-2.19945,1.85855-.73124.62257-1.45621,1.25248-2.187,1.87562-.25555.21786-.52022.42482-.78017.63746-.06178.05055-.12112.08163-.18068-.00156A1.126,1.126,0,0,1,7.34378,25.6343Z"/><path class="cls-28" d="M20.73388,9.04716c-.06094.34266-.39516.43276-.60739.62387-.73893.6651-1.50857,1.29615-2.26809,1.93827-.88759.75039-1.77857,1.49672-2.66484,2.24875-.713.605-1.42138,1.2154-2.13134,1.82394q-.77818.667-1.555,1.33571c-.0608.0523-.11908.084-.17943.00108a13.66317,13.66317,0,0,1,1.26879-1.65269,25.47414,25.47414,0,0,1,5.86385-5.07782A13.83256,13.83256,0,0,1,20.73388,9.04716Z"/><path class="cls-9" d="M33.2691,6.44564c-.24068-.03176-.495.07448-.72443-.0713C32.78544,6.40538,33.03967,6.29932,33.2691,6.44564Z"/><path class="cls-7" d="M30.15388,6.44815c-.07682.10343-.18964.0597-.28906.07076L29.7192,6.5177C29.8476,6.39147,30.00829,6.46693,30.15388,6.44815Z"/><path class="cls-26" d="M23.2028,56.84605a17.59263,17.59263,0,0,0,6.93352-1.09257A20.6474,20.6474,0,0,0,36.08478,52.406,15.32581,15.32581,0,0,0,40.33865,47.327a9.78168,9.78168,0,0,0,.98669-3.47994,8.4699,8.4699,0,0,0-.38158-3.15187c.03283-.25178.26264-.36685.39725-.54364a5.33522,5.33522,0,0,0,1.06139-2.265,2.70173,2.70173,0,0,1,.11738-.33095,10.739,10.739,0,0,1,.77425,2.0428A9.44008,9.44008,0,0,1,43.61537,42.63a11.89429,11.89429,0,0,1-1.55017,5.05167,16.50082,16.50082,0,0,1-3.34133,4.0915,19.28246,19.28246,0,0,1-3.8008,2.659,21.1754,21.1754,0,0,1-5.239,1.9994,20.112,20.112,0,0,1-3.48033.50176,14.10926,14.10926,0,0,1-1.69212.0447A5.48336,5.48336,0,0,1,23.2028,56.84605Z"/><path class="cls-26" d="M22.62511,56.7766c.19232.02594.39977-.07385.578.06958C23.01126,56.816,22.804,56.91383,22.62511,56.7766Z"/></g></svg>