<svg id="Symbols" xmlns="http://www.w3.org/2000/svg" viewBox="0 0 64 64"><defs><style>.cls-1,.cls-2{fill:#ff007a;}.cls-2{fill-rule:evenodd;}</style></defs><g id="UniSwap"><path class="cls-1" d="M32,63.50859A31.50859,31.50859,0,1,1,63.50859,32,31.54409,31.54409,0,0,1,32,63.50859ZM32,1.75175A30.24825,30.24825,0,1,0,62.24825,32,30.28291,30.28291,0,0,0,32,1.75175Z"/><path class="cls-1" d="M28.1426,20.6506c-.51788-.07234-.54245-.09641-.29593-.12048a8.31147,8.31147,0,0,1,2.31765.19283,9.98413,9.98413,0,0,1,5.07918,3.32554l.44389.506.641-.09642a14.03944,14.03944,0,0,1,7.89.964A10.27356,10.27356,0,0,1,45.9936,26.4342a2.28341,2.28341,0,0,1,.17267.67479,4.00281,4.00281,0,0,1-.27123,2.62668.6922.6922,0,0,0-.074.7712.744.744,0,0,0,.66571.40961c.59174,0,1.20817-.91564,1.5041-2.19287l.12326-.50615.22182.241a9.409,9.409,0,0,1,2.39176,4.627l.04928.36147-.22195-.31333a4.10763,4.10763,0,0,0-1.18346-1.229c-.83826-.5543-1.72592-.72293-4.06827-.84342a17.02573,17.02573,0,0,1-4.51216-.67479c-2.02171-.65071-3.05734-1.49413-5.449-4.60277a22.30242,22.30242,0,0,0-2.39162-2.7473A8.43551,8.43551,0,0,0,28.1426,20.6506Z"/><path class="cls-1" d="M46.25046,23.79932a4.8925,4.8925,0,0,1,.42209-1.97811,1.57934,1.57934,0,0,1,.21111-.39108c.02344,0-.02344.16107-.09377.34508a4.31156,4.31156,0,0,0-.0939,2.02411c.16423,1.035.23455,1.173,1.36029,2.30013.516.529,1.12574,1.19606,1.36029,1.47208l.39864.506-.39864-.368a14.24989,14.24989,0,0,0-1.87627-1.44915c-.1641-.092-.18754-.092-.30488.02307-.09377.092-.11721.23-.11721.897a4.849,4.849,0,0,1-.516,2.34613c-.18766.34508-.2111.276-.04688-.115a3.29363,3.29363,0,0,0,.14065-1.42608c0-2.00117-.23442-2.48413-1.665-3.28924-.35176-.20695-.96164-.506-1.3134-.667a5.24394,5.24394,0,0,1-.6332-.29908,10.63952,10.63952,0,0,1,1.97.5751c.82086.322.96152.345,1.05529.322C46.18013,24.5583,46.227,24.37429,46.25046,23.79932Z"/><path class="cls-1" d="M29.14382,26.87872A8.25991,8.25991,0,0,1,27.714,21.915l.04538-.48485.227.04625a5.26547,5.26547,0,0,1,1.45254.55405c.90783.55405,1.31643,1.31592,1.70222,3.20909.11356.55417.27236,1.2006.34042,1.40831a8.37827,8.37827,0,0,0,.90795,1.66226c.24955.36941.09075.55417-.47666.50792A4.64793,4.64793,0,0,1,29.14382,26.87872Z"/><path class="cls-1" d="M45.707,36.88005c-4.781-1.92076-6.47124-3.57736-6.47124-6.38641,0-.40823.02408-.74436.02408-.74436a4.5144,4.5144,0,0,1,.41049.31219c.96593.7683,2.05247,1.10443,5.07074,1.53661a21.12228,21.12228,0,0,1,3.69445.7683,7.02888,7.02888,0,0,1,5.16741,5.59416,9.655,9.655,0,0,1-.14494,3.00113,6.00334,6.00334,0,0,1-.77272,1.72869c-.02407,0-.07234-.12011-.07234-.31218a3.9,3.9,0,0,0-1.4005-2.713C50.19823,38.80081,48.89428,38.15262,45.707,36.88005Z"/><path class="cls-1" d="M42.25189,37.57765A5.39326,5.39326,0,0,0,42,36.57732l-.126-.35731.22674.262a4.13337,4.13337,0,0,1,.80625,1.38147,2.8246,2.8246,0,0,1,.17632,1.33382,2.88789,2.88789,0,0,1-.17632,1.2863,4.28345,4.28345,0,0,1-1.05819,1.59585,6.22665,6.22665,0,0,1-3.779,1.572c-.30236.02382-1.15889.09528-1.91472.14292a15.55215,15.55215,0,0,0-4.2829.667c-.15111.04765-.30223.09529-.32744.07147a5.7733,5.7733,0,0,1,1.36042-.76226,14.3363,14.3363,0,0,1,3.779-.95269,18.13646,18.13646,0,0,0,2.24228-.42877C41.42044,41.6507,42.655,39.81665,42.25189,37.57765Z"/><path class="cls-1" d="M43.723,42.15181a5.2417,5.2417,0,0,1-.45436-3.84581c.05042-.11872.101-.23732.1515-.23732a1.11838,1.11838,0,0,1,.3534.16611c.303.18994.93416.52229,2.55,1.35323a12.85522,12.85522,0,0,1,4.01432,2.77743A5.70673,5.70673,0,0,1,51.676,45.238a8.86233,8.86233,0,0,1-.12616,2.82493,7.06655,7.06655,0,0,1-3.66092,4.558,3.6284,3.6284,0,0,1-.53023.23745,1.82152,1.82152,0,0,1,.22724-.52229,4.45637,4.45637,0,0,0,.22724-3.6797A14.85981,14.85981,0,0,0,45.79333,45.238,22.37331,22.37331,0,0,1,43.723,42.15181Z"/><path class="cls-1" d="M26.28977,49.16764a13.97237,13.97237,0,0,1,6.13951-2.70255,9.9842,9.9842,0,0,1,3.18073.11255,5.55876,5.55876,0,0,1,3.10674,1.82422,6.35768,6.35768,0,0,1,1.13431,3.063c.09856.60812.22182,1.23867.24653,1.37378a2.973,2.973,0,0,0,1.0849,1.77923,4.06892,4.06892,0,0,0,3.40268.09011,1.777,1.777,0,0,1,.41906-.11255,3.80425,3.80425,0,0,1-1.0602.65311,3.7625,3.7625,0,0,1-1.77532.38289,3.622,3.622,0,0,1-3.00806-1.68924,12.25561,12.25561,0,0,1-.81368-1.48632c-.863-1.82434-1.30685-2.36478-2.31777-2.97289a3.28665,3.28665,0,0,0-2.8848-.24779,1.62467,1.62467,0,0,0-.64114,2.635,2.60452,2.60452,0,0,0,1.40541.67567A1.46169,1.46169,0,0,0,35.61,51.1721a1.08285,1.08285,0,0,0-.81368-1.10356c-.789-.31534-1.65193.045-1.62736.74322a.62465.62465,0,0,0,.46847.60812c.19725.09.19725.09.04941.06756a.81077.81077,0,0,1-.32063-1.464,1.87062,1.87062,0,0,1,2.63827.518A2.16823,2.16823,0,0,1,36.0539,52.073a2.37174,2.37174,0,0,1-2.81094,1.2161,4.06982,4.06982,0,0,1-2.14511-1.32877,6.77063,6.77063,0,0,0-4.85736-2.27467L25.772,49.6181Z"/><path class="cls-2" d="M13.13253,11.34738c5.64886,6.64415,14.35255,16.97431,14.78888,17.53768.36373.4696.21829.91564-.38794,1.24434a3.80334,3.80334,0,0,1-1.38184.37558,1.77725,1.77725,0,0,1-1.16367-.49292c-.21829-.21136-1.1638-1.54959-3.29731-4.766-1.62433-2.46511-3.00618-4.50775-3.0305-4.53119-.09692-.04688-.09692-.04688,2.86085,5.07112a40.63721,40.63721,0,0,1,2.47292,4.50775c0,.30525-.097.46947-.485.89219a5.12849,5.12849,0,0,0-1.16367,3.16939c-.24249,1.85472-.897,3.16951-2.76381,5.39982a9.66159,9.66159,0,0,0-1.52741,2.08952,3.87186,3.87186,0,0,0-.48485,1.87817,5.70111,5.70111,0,0,0,.31521,2.30088,7.7473,7.7473,0,0,0,1.16367,2.20686,5.39211,5.39211,0,0,1,.897,1.71382c0,.18779.04852.18779.92131,0a9.70929,9.70929,0,0,0,4.75188-2.25387,2.08991,2.08991,0,0,0,.72734-1.78428,1.8614,1.8614,0,0,0-.16977-.986,4.2816,4.2816,0,0,0-1.69705-1.59648c-1.30925-.86876-1.86682-1.573-2.01227-2.51212-.12124-.7983.0242-1.33823.75155-2.81737a8.21879,8.21879,0,0,0,1.06675-3.70944c.07272-.986.194-1.38512.48486-1.69038a1.835,1.835,0,0,1,1.33344-.53993A4.51892,4.51892,0,0,0,28.77,30.998a2.1789,2.1789,0,0,0,.82426-1.71382l.02433-.53993-.31522-.3287C28.1639,27.1478,12.38093,10.33784,12.30821,10.33784,12.284,10.33784,12.67187,10.78392,13.13253,11.34738Zm7.44309,33.385a.951.951,0,0,0-.31521-1.29122c-.41213-.25825-1.04256-.14091-1.04256.21136a.24089.24089,0,0,0,.194.23468c.21829.11746.24249.2348.07272.493-.16964.25825-.16964.49305.04852.6574A.70387.70387,0,0,0,20.57562,44.73237Z"/><path class="cls-2" d="M30.93451,32.57333a1.953,1.953,0,0,0-1.26841,1.22606,1.60136,1.60136,0,0,0,.11746,1.12209c.25837.291.4933.37407,1.15095.37407,1.292,0,2.39592-.49872,2.51338-1.10142.11746-.49872-.37584-1.18447-1.05705-1.49615A2.67632,2.67632,0,0,0,30.93451,32.57333Zm1.50346,1.039c.1878-.24942.11734-.51952-.23492-.70655-.63421-.35327-1.59724-.06239-1.59724.47792,0,.27009.49318.56111.963.56111A1.38169,1.38169,0,0,0,32.438,33.61236Z"/></g></svg>