<?xml version="1.0" encoding="utf-8"?>
<!-- Generator: Adobe Illustrator 26.0.3, SVG Export Plug-In . SVG Version: 6.00 Build 0)  -->
<svg version="1.1" id="Symbols" xmlns="http://www.w3.org/2000/svg" xmlns:xlink="http://www.w3.org/1999/xlink" x="0px" y="0px"
	 viewBox="0 0 64 64" style="enable-background:new 0 0 64 64;" xml:space="preserve">
<style type="text/css">
	.st0{fill:#33363F;}
	.st1{fill:#FFE804;}
</style>
<g id="DODO">
	<circle class="st0" cx="32" cy="32" r="31.4779"/>
	<g>
		<path class="st1" d="M9.9361,42.0375c-0.2408-9.8341,4.3634-19.8608,16.8002-23.347c-0.3392-0.4145-0.707-0.7599-0.9453-1.1788
			c-0.4001-0.7034-0.8472-1.4209-1.0422-2.1912c-0.3619-1.4302,0.4777-2.2839,1.9316-2.0724
			c0.4155,0.0604,0.8226,0.2323,1.2123,0.4019c0.3883,0.169,0.75,0.3995,1.1963,0.6428c0.27-0.7451,0.4788-1.4795,0.7979-2.1625
			c0.411-0.8797,1.0225-1.6452,2.0928-1.6347c1.0697,0.0105,1.6615,0.7964,2.0694,1.6719c0.2934,0.6297,0.4673,1.315,0.7299,2.0781
			c0.6099-0.2826,1.201-0.7176,1.8414-0.81c0.7102-0.1024,1.7208-0.1494,2.1296,0.255c0.41,0.4056,0.4906,1.4876,0.2663,2.112
			c-0.368,1.0247-1.0989,1.9191-1.7268,2.9506c6.0721,1.6045,10.7769,5.0571,13.9038,10.5763
			c2.2059,3.8937,2.7226,8.1543,2.8794,12.6135c-1.7727,0-3.4695,0-5.3281,0c-0.1531-1.3868-0.2822-2.8077-0.4706-4.2208
			c-1.0722-8.0425-7.5336-13.8092-15.6722-14.0038c-8.7161-0.2085-15.5325,5.2558-16.8833,13.5707
			c-0.1997,1.2295-0.2804,2.4823-0.3465,3.7281c-0.0374,0.7038-0.2122,1.0662-1.0171,1.0361
			C12.8818,41.9981,11.405,42.0375,9.9361,42.0375z"/>
		<path class="st1" d="M28.3875,34.3677c0,1.1607-0.1944,1.8694-0.6475,2.6468c-0.6119,1.0499-1.6324,1.0127-2.3672,0.0568
			c-1.0086-1.3121-0.9832-4.2214,0.0483-5.52c0.7188-0.905,1.7091-0.9363,2.2824,0.0724
			C28.1677,32.4408,28.4133,33.1812,28.3875,34.3677z"/>
		<path class="st1" d="M39.2337,34.3312c0,1.1607-0.1944,1.8694-0.6475,2.6468c-0.6119,1.0499-1.6324,1.0127-2.3672,0.0568
			c-1.0086-1.3121-0.9832-4.2214,0.0482-5.52c0.7188-0.905,1.7091-0.9363,2.2824,0.0724
			C39.0139,32.4043,39.2595,33.1447,39.2337,34.3312z"/>
	</g>
</g>
</svg>
