<svg id="Symbols" xmlns="http://www.w3.org/2000/svg" viewBox="0 0 64 64"><defs><style>.cls-1{fill:#253743;}.cls-2{fill:#fb6706;fill-rule:evenodd;}</style></defs><g id="Symmetric"><circle class="cls-1" cx="32" cy="32" r="31.47793"/><path class="cls-2" d="M48.504,18.16312s-.26913-.34119-1.667-.3334-17.00441,0-17.00441,0l3.50091-6.50157s5.45075-.00071,7.6686,0c2.342.00074,3.83634.75411,5.3346,3.16756C47.47382,16.32663,47.78369,16.86767,48.504,18.16312Z"/><path class="cls-2" d="M27.33212,11.32814S19.409,25.32568,18.49642,26.99881s-1.5053,2.14619-1.50031,3.66761.31673,3.85189,3.66761,3.83429c0,0,16.45559.01667,18.00442,0,1.31083-.01425,1.68739.22672,1.6672.6668a9.52537,9.52537,0,0,1-1.33362,2.50069c-.30543.50788-.65976,1.09912-1.00039,1.667-.4762.79423-.835,1.501-1.83372,1.50031,0,0-18.69771.01092-20.67181,0-2.37161-.013-3.29716-.43695-4.83465-3.16731S8.84617,34.66,8.82744,32.66683s.49478-2.49495,1.83381-4.83451,5.8402-10.24413,7.50185-13.00321,3.49794-3.50173,5.8349-3.501h3.33421Z"/><path id="Shape_7_copy" data-name="Shape 7 copy" class="cls-2" d="M15.49579,45.838s.26894.34117,1.667.3334,17.00421,0,17.00421,0l-3.50089,6.5004s-5.45075.00074-7.6686,0c-2.34178-.00073-3.83616-.754-5.33461-3.16695C16.526,47.67415,16.21613,47.13329,15.49579,45.838Z"/><path id="Shape_8_copy" data-name="Shape 8 copy" class="cls-2" d="M36.66773,52.67183s7.92309-13.9949,8.83551-15.66782,1.5053-2.14581,1.50049-3.66686S46.687,29.486,43.33614,29.50359c0,0-16.45577-.01687-18.0046,0-1.31064.01407-1.68719-.2269-1.667-.6668a9.52207,9.52207,0,0,1,1.33362-2.50014c.30525-.50789.65976-1.09911,1.0002-1.66682.47639-.79423.83517-1.50087,1.83389-1.50012,0,0,18.69771-.01092,20.67182,0,2.3716.013,3.29715.437,4.8345,3.167s1.815,3.00747,1.8339,5.00029-.49472,2.49459-1.8339,4.83377-5.84008,10.24228-7.50191,13.001-3.49794,3.50091-5.83471,3.50015h-3.3342Z"/></g></svg>