<?xml version="1.0" encoding="utf-8"?>
<!-- Generator: Adobe Illustrator 27.7.0, SVG Export Plug-In . SVG Version: 6.00 Build 0)  -->
<svg version="1.1" id="Ebene_1" xmlns="http://www.w3.org/2000/svg" xmlns:xlink="http://www.w3.org/1999/xlink" x="0px" y="0px"
	 viewBox="0 0 24 24" style="enable-background:new 0 0 24 24;" xml:space="preserve">
<style type="text/css">
	.st0{fill-rule:evenodd;clip-rule:evenodd;}
	.st1{fill-rule:evenodd;clip-rule:evenodd;fill:#FFFFFF;}
</style>
<path class="st0" d="M24,12c0,6.62738-5.37262,12-12,12C5.37256,24,0,18.62738,0,12C0,5.37256,5.37256,0,12,0
	C18.62738,0,24,5.37256,24,12z"/>
<path class="st1" d="M19.68,12c0,4.24152-3.43848,7.68-7.68,7.68c-4.24156,0-7.68-3.43848-7.68-7.68
	c0-4.24156,3.43844-7.68,7.68-7.68C16.24152,4.32,19.68,7.75844,19.68,12z M21.6,12c0,5.30192-4.29808,9.6-9.6,9.6
	S2.4,17.30192,2.4,12S6.69808,2.4,12,2.4S21.6,6.69808,21.6,12z M8.04064,12.38392c0-2.29268,1.8586-4.15132,4.15136-4.15132
	V6.28667c-3.36748,0-6.09732,2.72985-6.09732,6.09725H8.04064z"/>
</svg>
