<svg id="Symbols" xmlns="http://www.w3.org/2000/svg" viewBox="0 0 64 64"><defs><style>.cls-1{fill:#2081e2;}.cls-1,.cls-2{fill-rule:evenodd;}.cls-2{fill:#fff;}</style></defs><g id="OpenSea"><path class="cls-1" d="M63.38533,32A31.38533,31.38533,0,1,1,32,.61468,31.38664,31.38664,0,0,1,63.38533,32Z"/><path class="cls-2" d="M16.09932,33.05455l.13546-.2128,8.16458-12.77244a.279.279,0,0,1,.49.0354c1.364,3.05693,2.54095,6.8587,1.98958,9.22553a14.4168,14.4168,0,0,1-1.6058,3.51151c-.09353.17739-.19673.35152-.30632.51924a.27756.27756,0,0,1-.23213.12253H16.33785A.27872.27872,0,0,1,16.09932,33.05455Z"/><path class="cls-2" d="M52.49161,35.428v2.02172a.29017.29017,0,0,1-.17413.26439,10.05407,10.05407,0,0,0-3.69531,2.51522c-2.2959,3.19552-4.05009,7.76473-7.97111,7.76473H24.2929A10.51255,10.51255,0,0,1,13.797,37.46268v-.18706a.28072.28072,0,0,1,.28059-.28058h9.11894a.31039.31039,0,0,1,.29665.34511,3.113,3.113,0,0,0,.32566,1.75092,3.20884,3.20884,0,0,0,2.8764,1.78633H31.2096V37.35308H26.74673a.28757.28757,0,0,1-.23213-.45157c.04834-.07407.1032-.15153.1612-.23853.42245-.59971,1.02542-1.53173,1.62526-2.59255A20.33767,20.33767,0,0,0,29.42641,31.823c.06453-.13873.11612-.28059.1676-.41931.08712-.24506.17739-.47405.24192-.70291.0644-.19345.116-.39658.16759-.5869a9.07868,9.07868,0,0,0,.21618-2.05725c0-.28046-.01293-.574-.03879-.85456-.01293-.30632-.05159-.61264-.09026-.919-.02586-.27079-.0742-.53845-.12579-.819-.06453-.40952-.1548-.81577-.258-1.22528l-.0354-.1548c-.07746-.28046-.14187-.54824-.23225-.82869-.2546-.8803-.54812-1.738-.8577-2.541-.11286-.31925-.2418-.62557-.37085-.93189-.1902-.46112-.38366-.8803-.56105-1.277-.09026-.18053-.16772-.345-.245-.51258-.087-.19032-.17739-.38052-.26753-.56117-.06453-.1386-.13873-.26753-.19032-.39659l-.55138-1.01889a.17985.17985,0,0,1,.20313-.26125l3.45025.93516h.00966c.00641,0,.00967.00313.01294.00313l.45471.1258.49978.14186.18379.05159V14.96179a1.78281,1.78281,0,0,1,1.77352-1.79286,1.75077,1.75077,0,0,1,1.25428.52552,1.80265,1.80265,0,0,1,.51911,1.26734v3.04387l.36759.1032a.29234.29234,0,0,1,.084.04193c.09014.06766.21919.16772.38365.29025.12893.10319.26765.22886.43525.35792.33218.26765.72877.61264,1.16415,1.00922.116.10006.229.20313.33205.30645.56117.52225,1.18988,1.135,1.78972,1.81219.1676.19019.33206.38365.49978.58678.1676.20639.345.40951.49978.61277.20313.27079.42232.55125.61264.84476.09027.13872.19346.28059.28059.41918.245.37085.46111.75463.6675,1.13829.087.17726.17726.37085.25472.561a8.20483,8.20483,0,0,1,.52552,1.55747,1.92978,1.92978,0,0,1,.07419.34511V28.018a2.96,2.96,0,0,1,.06453.487,5.2097,5.2097,0,0,1-.09026,1.60894,5.85425,5.85425,0,0,1-.19032.6739c-.07734.21932-.1548.44818-.25473.66437a9.00935,9.00935,0,0,1-.69324,1.31554c-.08712.1548-.19019.31926-.29351.474-.11286.16446-.22886.31925-.33206.47078-.14186.19346-.29339.39658-.44818.57711a6.13562,6.13562,0,0,1-.43538.54824c-.216.25472-.42232.49664-.6385.72877-.12893.15153-.26753.30632-.40951.44492-.1386.15479-.28046.29351-.4094.42244-.21618.21606-.39671.38378-.54823.52238l-.35478.32565a.28879.28879,0,0,1-.1902.07106H34.75651V40.8774h3.45678a3.23407,3.23407,0,0,0,2.10245-.7771A25.23332,25.23332,0,0,0,42.45358,37.998a.26774.26774,0,0,1,.13219-.08073l9.54792-2.76015A.28168.28168,0,0,1,52.49161,35.428Z"/></g></svg>