<?xml version="1.0" encoding="utf-8"?>
<!-- Generator: Adobe Illustrator 28.0.0, SVG Export Plug-In . SVG Version: 6.00 Build 0)  -->
<svg version="1.1" id="Ebene_1" xmlns="http://www.w3.org/2000/svg" xmlns:xlink="http://www.w3.org/1999/xlink" x="0px" y="0px"
	 viewBox="0 0 64 64" style="enable-background:new 0 0 64 64;" xml:space="preserve">
<style type="text/css">
	.st0{fill-rule:evenodd;clip-rule:evenodd;fill:#FFFFFF;}
	.st1{fill-rule:evenodd;clip-rule:evenodd;}
</style>
<g id="Spread">
	<path class="st0" d="M62.8,32C62.8,49,49,62.8,32,62.8S1.2,49,1.2,32S15,1.2,32,1.2S62.8,15,62.8,32z"/>
</g>
<g>
	<path d="M47.356,14.286c-3.26,0-4.988,1.775-11.428,2.761c0,0-0.628-0.426-2.474-0.592c-1.846-0.165-2.867,0.118-2.867,0.118
		c-4.006-0.552-8.326-4.326-10.9-4.326c-1.47,0.263-2.963,3.103-3.112,4.553c0.503-0.384,6.79-1.375,10.365,0.76
		c3.576,2.135,5.218,6.272,5.279,7.933c0,0,1.157-4.698,6.734-6.986c5.577-2.288,10.564,0,10.564,0
		C49.516,16.021,47.356,14.286,47.356,14.286z M31.967,27.153c-0.01,0.04-2.03,5.122-7.31,7.607
		c-5.28,2.485-10.873,0.488-10.873,0.488s0.034,3.496,1.84,6.81c1.807,3.314,4.899,5.08,4.899,5.08
		c0.128-0.228,1.031-1.412,2.64-0.971c1.609,0.44,1.494,1.611,1.494,1.769c0.079-0.118,1.296-1.183,2.671-0.631
		c1.374,0.552,1.649,1.657,1.649,2.84c0-1.184,0.746-2.407,1.885-2.682c1.139-0.276,2.111,0.264,2.323,0.395
		c0.06-0.021,0.74-1.815,2.625-1.657c1.885,0.158,2.241,2.155,2.241,2.243c0,0,2.472-0.034,6.169-3.92
		c3.697-3.886,4.129-7.269,4.129-7.269s-5.427,1.038-10.298-1.58C33.18,33.056,31.917,27.305,31.967,27.153z M30.902,33.418
		l2.828,1.736c-0.039,1.538-2.773,4.533-3.377,5.483c-0.363-0.829-2.278-4.221-2.345-5.617
		C28.128,34.899,30.518,33.641,30.902,33.418z"/>
	<path class="st1" d="M45.64,34.142c4.233-1.058,6.88-5.081,5.913-8.985c-0.967-3.905-5.182-6.213-9.415-5.155
		c-4.233,1.058-6.88,5.081-5.913,8.985C37.192,32.891,41.407,35.199,45.64,34.142z M43.743,27.081
		c1.411-0.353,2.293-1.694,1.971-2.995c-0.322-1.302-1.727-2.071-3.138-1.718c-1.411,0.353-2.293,1.694-1.971,2.995
		S42.332,27.433,43.743,27.081z"/>
	<path class="st1" d="M21.862,33.089c4.233-1.058,6.88-5.081,5.913-8.985c-0.967-3.905-5.182-6.213-9.415-5.155
		c-4.233,1.058-6.88,5.081-5.913,8.985C13.414,31.839,17.629,34.147,21.862,33.089z M22.638,26.595
		c1.411-0.353,2.293-1.694,1.971-2.995c-0.322-1.302-1.727-2.071-3.138-1.718c-1.411,0.353-2.293,1.694-1.971,2.995
		C19.822,26.178,21.227,26.947,22.638,26.595z"/>
	<path d="M31.12,51.55c0,0-0.982-1.194-0.09-2.207c0.892-1.013,2.07-0.191,2.188-0.066c0.09,0.094,0.219,0.197,0.31-0.125
		c0.098-0.345,1.025-1.335,2.321-0.823c1.296,0.513,1.296,1.973,0.982,2.683c-0.157,0.118-0.982,0.538-2.788,0.67
		C32.236,51.816,31.333,51.604,31.12,51.55z"/>
	<path d="M26.535,51.576c0,0,0.982-1.194,0.09-2.207c-0.892-1.013-2.07-0.191-2.188-0.067c-0.09,0.095-0.219,0.197-0.31-0.125
		c-0.098-0.345-1.025-1.335-2.321-0.822c-1.296,0.513-1.296,1.973-0.982,2.682c0.157,0.118,0.982,0.538,2.788,0.671
		C25.419,51.842,26.322,51.63,26.535,51.576z"/>
</g>
</svg>
