<svg width="51" height="50" viewBox="0 0 51 50" fill="none" xmlns="http://www.w3.org/2000/svg">
<mask id="mask0_112_10837" style="mask-type:alpha" maskUnits="userSpaceOnUse" x="0" y="0" width="51" height="50">
<path fill-rule="evenodd" clip-rule="evenodd" d="M25.0973 0C11.29 0 0.09729 11.193 0.09729 25C0.09729 38.8073 11.29 50 25.0973 50C38.9043 50 50.0973 38.8073 50.0973 25C50.0973 11.193 38.9043 0 25.0973 0Z" fill="white"/>
</mask>
<g mask="url(#mask0_112_10837)">
<path d="M25.0973 0C11.29 0 0.09729 11.193 0.09729 25C0.09729 38.8073 11.29 50 25.0973 50C38.9043 50 50.0973 38.8073 50.0973 25C50.0973 11.193 38.9043 0 25.0973 0Z" fill="url(#paint0_linear_112_10837)"/>
</g>
<mask id="mask1_112_10837" style="mask-type:alpha" maskUnits="userSpaceOnUse" x="5" y="15" width="41" height="30">
<path fill-rule="evenodd" clip-rule="evenodd" d="M5.10104 24.742C5.09929 24.828 5.09729 24.914 5.09729 25C5.09729 25.086 5.09929 25.1723 5.10104 25.258C5.23754 36.186 14.1383 45 25.0993 45C36.0603 45 44.961 36.186 45.0973 25.258C44.961 30.66 40.5368 32.75 35.1 32.75C29.5365 31.1618 27.572 29.256 25.0993 25C25.0993 19.478 20.6208 15 15.0983 15C9.66179 15 5.23754 19.3403 5.10104 24.742ZM11.644 26.951C10.7158 25.8738 10.1583 24.4378 10.7158 23.0018C11.2728 21.5655 12.7588 20.8478 14.244 21.0273C16.1015 21.0273 17.773 22.1043 18.7228 23.675C19.0825 24.1885 19.3593 24.7445 19.5183 25.317C20.0018 26.5918 19.4445 27.8483 18.3303 28.5665C17.656 28.8673 16.9673 29 16.2885 29C14.536 29 12.849 28.1155 11.644 26.951ZM24.863 39.4035C24.863 39.4035 23.5998 36.8432 23.1788 35.99C22.97 35.5672 23.204 35.0492 23.4128 34.8442C25.0973 33.1887 25.0905 33.182 26.7818 34.8442C26.9905 35.0492 27.2243 35.5672 27.016 35.99L25.3318 39.4035C25.267 39.5345 25.1823 39.6 25.0973 39.6C25.0125 39.6 24.9278 39.5345 24.863 39.4035Z" fill="white"/>
</mask>
<g mask="url(#mask1_112_10837)">
<path fill-rule="evenodd" clip-rule="evenodd" d="M5.10104 24.742L5.10045 24.7707C5.09887 24.8471 5.09729 24.9236 5.09729 25C5.09729 25.0768 5.09888 25.1538 5.10047 25.2304L5.10104 25.258C5.23754 36.186 14.1383 45 25.0993 45C36.0603 45 44.961 36.186 45.0973 25.258C44.961 30.66 40.5368 32.75 35.1 32.75C29.5365 31.1618 27.572 29.256 25.0993 25C25.0993 19.478 20.6208 15 15.0983 15C9.66179 15 5.23754 19.3403 5.10104 24.742ZM11.644 26.951C10.7158 25.8738 10.1583 24.4378 10.7158 23.0018C11.2728 21.5655 12.7588 20.8478 14.244 21.0273C16.1015 21.0273 17.773 22.1043 18.7228 23.675C19.0825 24.1885 19.3593 24.7445 19.5183 25.317C20.0018 26.5918 19.4445 27.8483 18.3303 28.5665C17.656 28.8673 16.9673 29 16.2885 29C14.536 29 12.849 28.1155 11.644 26.951ZM23.1788 35.99L24.863 39.4035C24.9278 39.5345 25.0125 39.6 25.0973 39.6C25.1823 39.6 25.267 39.5345 25.3318 39.4035L27.016 35.99C27.2243 35.5672 26.9905 35.0492 26.7818 34.8442C25.0973 33.1887 25.0973 33.1887 23.433 34.8244L23.4128 34.8442C23.204 35.0492 22.97 35.5672 23.1788 35.99Z" fill="url(#paint1_linear_112_10837)"/>
</g>
<mask id="mask2_112_10837" style="mask-type:alpha" maskUnits="userSpaceOnUse" x="25" y="15" width="21" height="20">
<path fill-rule="evenodd" clip-rule="evenodd" d="M25.0973 25C25.0973 30.5227 29.5743 35 35.097 35C40.6203 35 45.0973 30.5227 45.0973 25C45.0973 19.477 40.6203 15 35.097 15C29.5743 15 25.0973 19.477 25.0973 25ZM31.86 28.5665C30.7458 27.8483 30.1888 26.5918 30.6725 25.317C30.8313 24.7445 31.1078 24.1885 31.4678 23.675C32.4175 22.1043 34.089 21.0273 35.946 21.0273C37.432 20.8478 38.9178 21.5655 39.475 23.0018C40.0323 24.4378 39.475 25.8738 38.5463 26.951C37.3418 28.1153 35.6543 29 33.902 29C33.223 29 32.5345 28.8673 31.86 28.5665Z" fill="white"/>
</mask>
<g mask="url(#mask2_112_10837)">
<path fill-rule="evenodd" clip-rule="evenodd" d="M35.097 35C29.5743 35 25.0973 30.5227 25.0973 25C25.0973 19.477 29.5743 15 35.097 15C40.6203 15 45.0973 19.477 45.0973 25C45.0973 30.5227 40.6203 35 35.097 35ZM30.6725 25.317C30.1888 26.5918 30.7458 27.8483 31.86 28.5665C32.5345 28.8673 33.223 29 33.902 29C35.6543 29 37.3418 28.1153 38.5463 26.951C39.475 25.8738 40.0323 24.4378 39.475 23.0018C38.9178 21.5655 37.432 20.8478 35.946 21.0273C34.089 21.0273 32.4175 22.1043 31.4678 23.675C31.1078 24.1885 30.8313 24.7445 30.6725 25.317Z" fill="url(#paint2_linear_112_10837)"/>
</g>
<defs>
<linearGradient id="paint0_linear_112_10837" x1="0.09729" y1="50" x2="50.0973" y2="50" gradientUnits="userSpaceOnUse">
<stop stop-color="#8449D1"/>
<stop offset="1" stop-color="#443AD2"/>
</linearGradient>
<linearGradient id="paint1_linear_112_10837" x1="45.0973" y1="15" x2="5.09726" y2="15" gradientUnits="userSpaceOnUse">
<stop stop-color="#D3D3E9"/>
<stop offset="1" stop-color="white"/>
</linearGradient>
<linearGradient id="paint2_linear_112_10837" x1="25.0973" y1="35" x2="45.0973" y2="35" gradientUnits="userSpaceOnUse">
<stop stop-color="#D3D3E9"/>
<stop offset="1" stop-color="white"/>
</linearGradient>
</defs>
</svg>
