<svg width="51" height="50" viewBox="0 0 51 50" fill="none" xmlns="http://www.w3.org/2000/svg">
<circle cx="25.0973" cy="25" r="25" fill="#243641"/>
<mask id="mask0_112_10871" style="mask-type:alpha" maskUnits="userSpaceOnUse" x="0" y="0" width="51" height="50">
<circle cx="25.0973" cy="25" r="25" fill="white"/>
</mask>
<g mask="url(#mask0_112_10871)">
<path fill-rule="evenodd" clip-rule="evenodd" d="M50.0973 25C50.0973 38.8063 38.9036 50 25.0973 50C11.291 50 0.09729 38.8063 0.09729 25C0.09729 11.1937 11.291 0 25.0973 0C38.9065 0 50.0973 11.1937 50.0973 25Z" fill="#2081E2"/>
<path fill-rule="evenodd" clip-rule="evenodd" d="M12.4316 25.84L12.5395 25.6705L19.043 15.4966C19.138 15.3476 19.3615 15.3631 19.4333 15.5248C20.5198 17.9598 21.4573 20.9881 21.0181 22.8734C20.8306 23.6491 20.317 24.6996 19.739 25.6705C19.6645 25.8118 19.5823 25.9505 19.495 26.0841C19.4539 26.1457 19.3846 26.1817 19.3101 26.1817H12.6216C12.4418 26.1817 12.3366 25.9865 12.4316 25.84Z" fill="white"/>
<path fill-rule="evenodd" clip-rule="evenodd" d="M41.4199 27.7306V29.341C41.4199 29.4335 41.3634 29.5157 41.2812 29.5516C40.7778 29.7674 39.0543 30.5585 38.3377 31.5551C36.5089 34.1005 35.1116 37.7401 31.9883 37.7401H18.9582C14.34 37.7401 10.5977 33.9849 10.5977 29.3513V29.2023C10.5977 29.079 10.6978 28.9788 10.8212 28.9788H18.0849C18.2287 28.9788 18.334 29.1124 18.3212 29.2537C18.2698 29.7263 18.3572 30.2092 18.5806 30.6484C19.0122 31.5242 19.906 32.0713 20.8718 32.0713H24.4677V29.264H20.9128C20.7305 29.264 20.6226 29.0533 20.7279 28.9043C20.7664 28.8453 20.8101 28.7836 20.8563 28.7143C21.1928 28.2366 21.6731 27.4942 22.1509 26.6492C22.477 26.079 22.793 25.4702 23.0473 24.859C23.0987 24.7485 23.1398 24.6355 23.1808 24.525C23.2502 24.3298 23.3221 24.1474 23.3735 23.9651C23.4248 23.811 23.4659 23.6492 23.507 23.4976C23.6278 22.9788 23.6792 22.4291 23.6792 21.8589C23.6792 21.6355 23.6689 21.4017 23.6483 21.1782C23.638 20.9342 23.6072 20.6902 23.5764 20.4462C23.5558 20.2305 23.5173 20.0173 23.4762 19.7938C23.4248 19.4676 23.3529 19.144 23.2707 18.8178L23.2425 18.6945C23.1808 18.4711 23.1295 18.2578 23.0575 18.0344C22.8547 17.3332 22.6209 16.65 22.3743 16.0104C22.2844 15.7561 22.1817 15.5121 22.0789 15.2681C21.9274 14.9008 21.7733 14.5669 21.632 14.2509C21.5601 14.1071 21.4984 13.9761 21.4368 13.8426C21.3675 13.691 21.2955 13.5395 21.2237 13.3956C21.1723 13.2852 21.1132 13.1825 21.0721 13.0797L20.6329 12.2681C20.5712 12.1576 20.674 12.0266 20.7947 12.06L23.543 12.8049H23.5507C23.5558 12.8049 23.5584 12.8074 23.561 12.8074L23.9232 12.9076L24.3213 13.0206L24.4677 13.0617V11.4282C24.4677 10.6396 25.0995 10.0001 25.8804 10.0001C26.2708 10.0001 26.6252 10.1593 26.8795 10.4187C27.1338 10.6782 27.293 11.0326 27.293 11.4282V13.8528L27.5858 13.935C27.609 13.9427 27.6321 13.953 27.6527 13.9684C27.7245 14.0223 27.8273 14.102 27.9583 14.1996C28.061 14.2818 28.1715 14.3819 28.305 14.4847C28.5696 14.6979 28.8855 14.9727 29.2323 15.2886C29.3247 15.3683 29.4147 15.4504 29.4968 15.5327C29.9438 15.9487 30.4446 16.4368 30.9224 16.9762C31.0559 17.1277 31.1869 17.2818 31.3205 17.4436C31.454 17.608 31.5953 17.7698 31.7186 17.9317C31.8804 18.1474 32.055 18.3708 32.2066 18.6046C32.2785 18.7151 32.3607 18.8281 32.4301 18.9385C32.6253 19.2339 32.7974 19.5396 32.9618 19.8452C33.0311 19.9864 33.103 20.1406 33.1647 20.2921C33.347 20.7005 33.4909 21.1166 33.5833 21.5327C33.6116 21.6226 33.6322 21.7202 33.6424 21.8076V21.8281C33.6732 21.9514 33.6835 22.0824 33.6938 22.216C33.7349 22.6423 33.7143 23.0687 33.6219 23.4976C33.5833 23.68 33.532 23.8521 33.4703 24.0344C33.4087 24.2091 33.347 24.3914 33.2674 24.5636C33.1133 24.9206 32.9309 25.2776 32.7152 25.6115C32.6458 25.7348 32.5637 25.8658 32.4814 25.9891C32.3915 26.1201 32.2991 26.2434 32.2169 26.3641C32.1039 26.5182 31.9832 26.68 31.8599 26.8238C31.7494 26.9754 31.6364 27.1269 31.5131 27.2605C31.341 27.4634 31.1767 27.6561 31.0045 27.841C30.9018 27.9617 30.7914 28.085 30.6783 28.1954C30.5679 28.3187 30.4549 28.4292 30.3522 28.5319C30.18 28.704 30.0362 28.8376 29.9155 28.948L29.6329 29.2074C29.5919 29.2434 29.5379 29.264 29.4814 29.264H27.293V32.0713H30.0465C30.6629 32.0713 31.2485 31.853 31.7212 31.4523C31.883 31.3111 32.5893 30.6997 33.4241 29.7777C33.4523 29.7468 33.4883 29.7237 33.5294 29.7134L41.1348 27.5148C41.276 27.4737 41.4199 27.5816 41.4199 27.7306Z" fill="white"/>
</g>
</svg>
