<svg width="51" height="50" viewBox="0 0 51 50" fill="none" xmlns="http://www.w3.org/2000/svg">
<circle cx="25.0973" cy="25" r="25" fill="white"/>
<mask id="mask0_112_10890" style="mask-type:alpha" maskUnits="userSpaceOnUse" x="0" y="0" width="51" height="50">
<circle cx="25.0973" cy="25" r="25" fill="white"/>
</mask>
<g mask="url(#mask0_112_10890)">
<path fill-rule="evenodd" clip-rule="evenodd" d="M14.0908 13.1836C13.5486 10.3906 15.7174 7.8125 18.5368 7.8125C21.0309 7.8125 23.0912 9.85351 23.0912 12.3242V17.9102C23.7418 17.9102 24.3924 17.8027 25.0431 17.8027C25.6937 17.8027 26.2359 17.8027 26.8865 17.9102V12.3242C26.8865 9.85351 28.9469 7.8125 31.441 7.8125C34.2604 7.8125 36.4291 10.3906 35.9954 13.1836L34.8026 19.7363C39.0316 21.5625 42.2848 24.7852 42.2848 28.7598V31.2305C42.2848 34.5605 40.116 37.3535 36.9713 39.1797C33.8266 41.1133 29.7059 42.1875 25.0431 42.1875C20.3802 42.1875 16.2596 41.1133 13.1148 39.1797C10.0786 37.3535 7.90979 34.5605 7.90979 31.2305V28.7598C7.90979 24.7852 11.0545 21.5625 15.2836 19.7363L14.0908 13.1836Z" fill="#633001"/>
<path fill-rule="evenodd" clip-rule="evenodd" d="M33.1762 20.5957L34.5859 12.8613C34.9112 10.9277 33.5015 9.10156 31.4412 9.10156C29.7061 9.10156 28.2964 10.498 28.2964 12.2168V19.3066C27.8627 19.1992 27.3205 19.1992 26.8867 19.1992C26.2361 19.1992 25.6939 19.0918 25.0433 19.0918C24.3927 19.0918 23.742 19.0918 23.0914 19.1992C22.6576 19.1992 22.1155 19.3066 21.6817 19.3066V12.3242C21.6817 10.6055 20.272 9.20899 18.537 9.20899C16.5851 9.20899 15.0669 11.0352 15.5007 12.9688L16.9104 20.7031C12.356 22.4219 9.3197 25.4297 9.3197 28.8672V31.3379C9.3197 36.6016 16.3682 40.8984 25.0433 40.8984C33.7184 40.8984 40.7669 36.6016 40.7669 31.3379V28.8672C40.8753 25.3223 37.839 22.3145 33.1762 20.5957Z" fill="#633001"/>
<path fill-rule="evenodd" clip-rule="evenodd" d="M40.8752 31.2305C40.8752 36.4941 33.8267 40.791 25.1516 40.791C16.4765 40.791 9.42804 36.4941 9.42804 31.2305V28.7598H40.9837V31.2305H40.8752Z" fill="#FEDC90"/>
<path fill-rule="evenodd" clip-rule="evenodd" d="M15.5006 12.9687C15.0668 11.0352 16.585 9.20898 18.5369 9.20898C20.2719 9.20898 21.6816 10.6055 21.6816 12.3242V19.4141C22.766 19.3066 23.8504 19.1992 25.0432 19.1992C26.1276 19.1992 27.212 19.3066 28.2964 19.4141V12.3242C28.2964 10.6055 29.706 9.20898 31.4411 9.20898C33.393 9.20898 34.9111 11.0352 34.5858 12.9687L33.1761 20.7031C37.7305 22.4219 40.8752 25.4297 40.8752 28.8672C40.8752 34.1309 33.8267 38.4277 25.1516 38.4277C16.4765 38.4277 9.42804 34.1309 9.42804 28.8672C9.42804 25.4297 12.4643 22.4219 17.0187 20.7031L15.5006 12.9687Z" fill="#D1884F"/>
<path fill-rule="evenodd" clip-rule="evenodd" d="M20.7053 28.1152C20.7053 29.5117 19.9462 30.6934 18.9702 30.6934C17.9943 30.6934 17.2352 29.5117 17.2352 28.1152C17.2352 26.7187 17.9943 25.5371 18.9702 25.5371C19.9462 25.5371 20.7053 26.7187 20.7053 28.1152Z" fill="#633001"/>
<path fill-rule="evenodd" clip-rule="evenodd" d="M32.7421 28.1152C32.7421 29.5117 31.9831 30.6934 31.0071 30.6934C30.0312 30.6934 29.2721 29.5117 29.2721 28.1152C29.2721 26.7187 30.0312 25.5371 31.0071 25.5371C31.9831 25.5371 32.7421 26.7187 32.7421 28.1152Z" fill="#633001"/>
</g>
<path d="M49.5973 25C49.5973 38.531 38.6283 49.5 25.0973 49.5C11.5663 49.5 0.59729 38.531 0.59729 25C0.59729 11.469 11.5663 0.5 25.0973 0.5C38.6283 0.5 49.5973 11.469 49.5973 25Z" stroke="#909090" stroke-opacity="0.3"/>
</svg>
