<?xml version="1.0" encoding="utf-8"?>
<!-- Generator: Adobe Illustrator 26.0.2, SVG Export Plug-In . SVG Version: 6.00 Build 0)  -->
<svg version="1.1" id="Ebene_1" xmlns="http://www.w3.org/2000/svg" xmlns:xlink="http://www.w3.org/1999/xlink" x="0px" y="0px"
	 viewBox="0 0 50 50" style="enable-background:new 0 0 50 50;" xml:space="preserve">
<style type="text/css">
	.st0{fill:#06141F;}
	.st1{fill:url(#Burn_00000049910333073505682060000012191450581900120233_);}
	.st2{fill:#C5C2C6;}
</style>
<circle class="st0" cx="25" cy="25" r="25"/>
<g id="Gradient">
	
		<linearGradient id="Burn_00000014623283748779235490000001729477177129170617_" gradientUnits="userSpaceOnUse" x1="5.78221" y1="24.89236" x2="38.36238" y2="24.89236">
		<stop  offset="0" style="stop-color:#6194C3"/>
		<stop  offset="1" style="stop-color:#B5CBE2"/>
	</linearGradient>
	
		<path id="Burn_00000168838512689466312920000012608097738276139146_" style="fill:url(#Burn_00000014623283748779235490000001729477177129170617_);" d="
		M30.4869,16.92338l-15.4821-0.03295l3.84154,3.02648L5.78221,24.80117l13.20927,4.99793l-3.82772,3.0952l15.32314-0.21994
		c4.34951,0,7.87548-3.52597,7.87548-7.87548C38.36238,20.08877,34.02504,16.89043,30.4869,16.92338z M30.4869,30.94224
		c-3.39289,0-6.14338-2.75048-6.14338-6.14338s2.75049-6.14338,6.14338-6.14338s6.14338,2.75048,6.14338,6.14338
		S33.8798,30.94224,30.4869,30.94224z"/>
	<g>
		<path class="st2" d="M29.20308,28.6785h-1.4188v-4.36034c0,0,1.41903,0.09278,1.41903,0.93462L29.20308,28.6785z"/>
		<path class="st2" d="M27.86407,20.06837H31.329c0.98386,0,2.75371,0.33487,2.75371,2.67871
			c0,2.39171-2.29597,2.48746-2.29597,2.48746l2.169,3.44396H32.5219l-1.88269-2.96571v-1.39463
			c0,0,2.05684,0.29452,2.05684-1.61849c0-1.43612-1.43612-1.43612-1.43612-1.43612l-2.67871-0.09551
			C28.58122,21.16803,27.86407,20.97724,27.86407,20.06837z"/>
	</g>
</g>
</svg>
