<?xml version="1.0" encoding="utf-8"?>
<!-- Generator: Adobe Illustrator 26.0.3, SVG Export Plug-In . SVG Version: 6.00 Build 0)  -->
<svg version="1.1" id="Ebene_1" xmlns="http://www.w3.org/2000/svg" xmlns:xlink="http://www.w3.org/1999/xlink" x="0px" y="0px"
	 viewBox="0 0 51 50" style="enable-background:new 0 0 51 50;" xml:space="preserve">
<style type="text/css">
	.st0{fill:#6441D2;}
</style>
<g>
	<path class="st0" d="M25.29,14.197c-0.252-0.389-0.663-0.663-1.144-0.663c-0.366-0.046-0.755,0.137-0.892,0.503
		c-0.137,0.366,0,0.732,0.229,1.006c0.297,0.274,0.732,0.503,1.189,0.503c0.183,0,0.366-0.046,0.526-0.114
		c0.274-0.183,0.412-0.503,0.297-0.823C25.45,14.472,25.381,14.335,25.29,14.197z"/>
	<path class="st0" d="M26.388,17.308c0.114,0.229,0.435,0.869,0.435,0.869c0.023,0.046,0.046,0.069,0.046,0.046
		c0.023,0,0.046-0.023,0.069-0.046l0.435-0.869c0.046-0.114-0.023-0.252-0.069-0.297c-0.412-0.412-0.412-0.412-0.846,0
		C26.388,17.079,26.342,17.194,26.388,17.308z"/>
	<path class="st0" d="M28.606,15.433c0.16,0.091,0.343,0.114,0.549,0.137c0.435,0,0.869-0.229,1.166-0.526
		c0.229-0.274,0.366-0.64,0.229-1.006c-0.137-0.366-0.526-0.549-0.892-0.503c-0.48,0-0.892,0.274-1.144,0.663
		c-0.091,0.137-0.16,0.274-0.206,0.412C28.172,14.929,28.332,15.25,28.606,15.433z"/>
	<path class="st0" d="M25.5,0.385C11.927,0.385,0.885,11.427,0.885,25c0,13.573,11.042,24.615,24.615,24.615
		c13.573,0,24.615-11.042,24.615-24.615C50.115,11.427,39.073,0.385,25.5,0.385z M25.5,47.27c-0.054,0-0.108-0.002-0.162-0.002
		c-0.379-1.811-0.812-3.925-1.149-6.217c0.009-0.007,0.017-0.013,0.026-0.019c-0.011-0.012-0.022-0.024-0.034-0.036
		c-0.039-0.268-0.077-0.538-0.113-0.81c0.385-0.528,0.764-1.047,1.142-1.566c0.014,0.006,0.028,0.012,0.042,0.019
		c0.004,0,0.009-0.002,0.012,0c0.018,0.01,0.036,0.022,0.054,0.033c1.844,1.116,3.747,1.231,5.682,0.276
		c1.256-0.62,2.148-1.608,2.675-2.909c0.136-0.336,0.214-0.695,0.329-1.04c0.032-0.097,0.016-0.152-0.059-0.217
		c-1.07-0.924-2.318-1.425-3.724-1.403c-2.455,0.038-4.221,1.203-5.283,3.42c-0.104,0.216-0.172,0.45-0.257,0.675
		c0.066-0.007,0.101-0.029,0.138-0.049c0.441-0.244,0.874-0.505,1.326-0.728c0.974-0.481,1.988-0.844,3.073-0.982
		c0.173-0.022,0.348-0.031,0.522-0.046c-0.013,0.031-0.028,0.036-0.044,0.039c-1.085,0.238-2.075,0.701-3.019,1.275
		c-0.968,0.588-1.795,1.348-2.606,2.126c-0.042,0.04-0.082,0.081-0.123,0.122c-0.208-1.795-0.339-3.673-0.327-5.582
		c0.01-1.5,0.07-2.905,0.166-4.204c0.259-0.25,0.515-0.498,0.77-0.745c0.008,0.005,0.016,0.011,0.025,0.016
		c0.003,0,0.006,0,0.008,0.001c0.01,0.009,0.02,0.018,0.031,0.026c1.034,0.899,2.213,1.178,3.528,0.79
		c0.854-0.252,1.52-0.774,1.991-1.531c0.122-0.196,0.21-0.412,0.319-0.616c0.031-0.057,0.027-0.094-0.014-0.142
		c-0.57-0.695-1.297-1.144-2.179-1.283c-1.542-0.243-2.774,0.295-3.68,1.568c-0.088,0.124-0.156,0.263-0.234,0.395
		c0.042,0.003,0.066-0.007,0.091-0.016c0.303-0.105,0.602-0.221,0.91-0.312c0.662-0.195,1.337-0.312,2.031-0.281
		c0.111,0.005,0.221,0.018,0.332,0.028c-0.011,0.018-0.021,0.019-0.032,0.02c-0.705,0.031-1.375,0.214-2.029,0.471
		c-0.654,0.257-1.242,0.631-1.82,1.02c0.322-3.861,0.943-6.713,1.404-8.196c0.527,0.142,1.081,0.219,1.652,0.219
		c3.499,0,6.335-2.836,6.335-6.336c0-3.499-2.836-6.336-6.335-6.336c-3.499,0-6.336,2.836-6.336,6.336
		c0,2.68,1.664,4.97,4.016,5.895c-0.168,0.54-0.356,1.257-0.545,2.133c-0.027-0.02-0.053-0.041-0.08-0.059
		c-0.187-0.126-0.376-0.248-0.588-0.331c-0.206-0.081-0.418-0.139-0.64-0.149c-0.003,0-0.007-0.001-0.01-0.006
		c0.035-0.003,0.07-0.007,0.105-0.009c0.219-0.01,0.432,0.027,0.641,0.089c0.097,0.029,0.191,0.065,0.287,0.098
		c0.008,0.003,0.016,0.006,0.029,0.005c-0.024-0.042-0.046-0.085-0.074-0.125c-0.286-0.402-0.675-0.571-1.161-0.495
		c-0.279,0.044-0.508,0.186-0.688,0.405c-0.013,0.015-0.014,0.027-0.004,0.045c0.034,0.064,0.062,0.133,0.101,0.194
		c0.149,0.239,0.359,0.404,0.628,0.483c0.415,0.122,0.787,0.035,1.113-0.249c0.003-0.003,0.006-0.006,0.01-0.008
		c0.001,0,0.002,0,0.002,0c0.003-0.002,0.005-0.003,0.008-0.005c0.095,0.092,0.19,0.183,0.286,0.277
		c0.001-0.001,0.002-0.002,0.002-0.003c-0.37,1.758-0.733,4.128-0.928,6.982c-0.03-0.022-0.06-0.045-0.091-0.066
		c-0.592-0.4-1.193-0.785-1.863-1.048c-0.654-0.257-1.323-0.439-2.029-0.471c-0.01,0-0.021-0.002-0.032-0.02
		c0.111-0.009,0.221-0.023,0.332-0.028c0.694-0.031,1.369,0.086,2.031,0.281c0.307,0.091,0.607,0.207,0.91,0.312
		c0.025,0.009,0.05,0.019,0.091,0.016c-0.078-0.132-0.146-0.271-0.234-0.395c-0.906-1.273-2.138-1.811-3.68-1.568
		c-0.883,0.139-1.61,0.589-2.179,1.283c-0.04,0.049-0.044,0.085-0.014,0.142c0.109,0.204,0.197,0.42,0.319,0.616
		c0.471,0.757,1.137,1.279,1.991,1.531c1.315,0.388,2.494,0.11,3.528-0.79c0.01-0.009,0.02-0.018,0.031-0.026
		c0.002-0.001,0.005-0.001,0.008-0.001c0.008-0.005,0.016-0.011,0.025-0.016c0.272,0.264,0.545,0.528,0.822,0.795
		c-0.064,1.069-0.104,2.199-0.111,3.389c-0.014,2.238,0.164,4.43,0.434,6.495c-0.937-0.897-1.897-1.766-3.014-2.445
		c-1.131-0.688-2.316-1.242-3.615-1.527c-0.019-0.004-0.038-0.011-0.053-0.047c0.208,0.018,0.417,0.029,0.625,0.055
		c1.299,0.165,2.514,0.6,3.68,1.176c0.541,0.267,1.06,0.579,1.588,0.871c0.044,0.024,0.086,0.05,0.165,0.058
		c-0.101-0.27-0.183-0.55-0.307-0.809c-1.272-2.655-3.386-4.05-6.327-4.095c-1.684-0.026-3.178,0.574-4.459,1.681
		c-0.09,0.078-0.11,0.144-0.071,0.26c0.137,0.413,0.231,0.844,0.394,1.246c0.631,1.558,1.7,2.741,3.204,3.484
		c2.317,1.144,4.595,1.007,6.804-0.33c0.022-0.013,0.043-0.027,0.065-0.039c0.004-0.002,0.01,0,0.015,0
		c0.017-0.007,0.034-0.015,0.051-0.022c0.464,0.637,0.929,1.273,1.402,1.922c0.017-0.013,0.036-0.027,0.053-0.04
		c0.32,2.095,0.713,4.03,1.065,5.714C12.744,46.785,3.23,36.984,3.23,25c0-12.28,9.99-22.27,22.27-22.27S47.77,12.72,47.77,25
		S37.78,47.27,25.5,47.27z M26.891,14.541c0-1.395,1.144-2.539,2.539-2.539c1.395,0,2.539,1.144,2.539,2.539
		c0,0.16-0.017,0.316-0.045,0.467c-0.236,2.57-2.407,4.587-5.032,4.587c-2.768,0-5.032-2.219-5.055-4.986c0-0.023,0-0.046,0-0.069
		c0-0.023,0-0.046,0-0.069c0.023-1.372,1.144-2.47,2.493-2.493c1.395,0,2.539,1.144,2.539,2.539
		c0.008,0.013,0.016,0.026,0.024,0.039C26.892,14.551,26.891,14.546,26.891,14.541z"/>
</g>
</svg>
