<svg width="51" height="50" viewBox="0 0 51 50" fill="none" xmlns="http://www.w3.org/2000/svg">
<circle cx="25.0973" cy="25" r="25" fill="black"/>
<mask id="mask0_112_10953" style="mask-type:alpha" maskUnits="userSpaceOnUse" x="0" y="0" width="51" height="50">
<circle cx="25.0973" cy="25" r="25" fill="white"/>
</mask>
<g mask="url(#mask0_112_10953)">
<path fill-rule="evenodd" clip-rule="evenodd" d="M32.441 16.0938C36.8942 16.4844 40.4098 20.0781 40.6442 24.5312C40.4098 17.1875 34.316 11.3281 26.8942 11.5625C22.5192 11.7188 18.4567 13.9062 16.1129 17.5781C16.5035 13.125 20.0973 9.60938 24.5504 9.375C17.1285 9.6875 11.4254 16.0156 11.7379 23.4375C11.8942 27.6562 14.0817 31.5625 17.5973 33.9062C13.1442 33.5156 9.70667 29.9219 9.47229 25.4688C9.62854 32.8125 15.8004 38.6719 23.1442 38.5156C27.5192 38.4375 31.5035 36.1719 33.9254 32.5781C33.5348 36.9531 29.941 40.3906 25.566 40.625C32.9098 40.3906 38.6911 34.2188 38.4567 26.7969C38.3004 22.5 36.1129 18.4375 32.441 16.0938ZM25.0188 30.625C23.5345 30.625 22.1282 30.0781 21.1126 28.9844C18.9251 26.7969 19.0032 23.2813 21.1126 21.1719C23.222 19.0625 26.8157 19.0625 28.9251 21.1719C31.0345 23.2813 31.0345 26.875 28.9251 28.9844C27.9095 30.0781 26.5032 30.625 25.0188 30.625Z" fill="#94FEBF"/>
<path fill-rule="evenodd" clip-rule="evenodd" d="M33.9789 14.3125C39.336 14.7812 43.5654 19.0938 43.8473 24.4375C43.5654 15.625 36.2345 8.59375 27.3059 8.875C22.0428 9.0625 17.1556 11.6875 14.336 16.0938C14.8059 10.75 19.1292 6.53125 24.4864 6.25C15.5578 6.625 8.69691 14.2188 9.07285 23.125C9.26082 28.1875 11.8924 32.875 16.1217 35.6875C10.7646 35.2188 6.62924 30.9062 6.34729 25.5625C6.53526 34.375 13.9601 41.4062 22.7947 41.2188C28.0578 41.125 32.8511 38.4062 35.7646 34.0938C35.2947 39.3438 30.9714 43.4687 25.7082 43.75C34.5428 43.4688 41.4977 36.0625 41.2157 27.1562C41.0277 22 38.3962 17.125 33.9789 14.3125ZM25.0503 31.75C23.2645 31.75 21.5728 31.0938 20.351 29.7813C17.7194 27.1563 17.8134 22.9375 20.351 20.4063C22.8886 17.875 27.2119 17.875 29.7495 20.4063C32.2871 22.9375 32.2871 27.25 29.7495 29.7813C28.5277 31.0938 26.836 31.75 25.0503 31.75Z" fill="#94FEBF"/>
</g>
</svg>
