<svg width="51" height="50" viewBox="0 0 51 50" fill="none" xmlns="http://www.w3.org/2000/svg">
<path d="M25.0973 50C38.9044 50 50.0973 38.8071 50.0973 25C50.0973 11.1929 38.9044 0 25.0973 0C11.2902 0 0.09729 11.1929 0.09729 25C0.09729 38.8071 11.2902 50 25.0973 50Z" fill="white"/>
<path d="M49.5973 25C49.5973 38.531 38.6283 49.5 25.0973 49.5C11.5663 49.5 0.59729 38.531 0.59729 25C0.59729 11.469 11.5663 0.5 25.0973 0.5C38.6283 0.5 49.5973 11.469 49.5973 25Z" stroke="#486FFF" stroke-opacity="0.3"/>
<path d="M22.0367 15.995C21.6258 15.9376 21.6063 15.9185 21.8019 15.8994C22.1736 15.842 23.0344 15.9185 23.6408 16.0524C25.0494 16.3774 26.321 17.2187 27.6708 18.691L28.023 19.0925L28.5316 19.016C30.7031 18.6719 32.9333 18.9396 34.7918 19.7809C35.3004 20.0103 36.1025 20.4692 36.2003 20.5839C36.2395 20.6222 36.2982 20.8707 36.3373 21.1193C36.4742 22.018 36.4155 22.6872 36.1221 23.2034C35.9656 23.4902 35.9656 23.5667 36.0634 23.8153C36.1417 24.0065 36.3764 24.1403 36.5916 24.1403C37.0611 24.1403 37.5502 23.4138 37.785 22.4004L37.8828 21.9988L38.0588 22.19C39.0566 23.2799 39.8391 24.7904 39.9565 25.8612L39.9956 26.148L39.8195 25.8994C39.5261 25.4596 39.2522 25.1728 38.8805 24.9243C38.2154 24.4845 37.5111 24.3507 35.6526 24.2551C33.9702 24.1595 33.0116 24.0256 32.0725 23.7197C30.4684 23.2034 29.6467 22.5342 27.7491 20.0677C26.9079 18.9778 26.3797 18.3851 25.8515 17.8879C24.6972 16.7981 23.543 16.2244 22.0367 15.995Z" fill="#FF007A"/>
<path d="M36.4041 18.4933C36.4413 17.7998 36.5343 17.3435 36.739 16.9238C36.8135 16.7595 36.8879 16.6135 36.9065 16.6135C36.9251 16.6135 36.8879 16.7413 36.8321 16.8873C36.6832 17.2888 36.6646 17.8545 36.7576 18.4933C36.8879 19.3145 36.9437 19.424 37.8369 20.3183C38.2463 20.738 38.7301 21.2673 38.9162 21.4863L39.2325 21.8878L38.9162 21.5958C38.5254 21.2308 37.6322 20.5373 37.4275 20.446C37.2973 20.373 37.2787 20.373 37.1856 20.4643C37.1112 20.5373 37.0926 20.6468 37.0926 21.176C37.074 21.9973 36.9623 22.5083 36.6832 23.0375C36.5343 23.3113 36.5157 23.2565 36.646 22.9463C36.739 22.709 36.7576 22.5995 36.7576 21.8148C36.7576 20.227 36.5716 19.8438 35.4365 19.205C35.1574 19.0408 34.6735 18.8035 34.3944 18.6758C34.0967 18.548 33.8734 18.4385 33.892 18.4385C33.9292 18.402 35.0271 18.7123 35.4551 18.8948C36.1064 19.1503 36.218 19.1685 36.2924 19.1503C36.3483 19.0955 36.3855 18.9495 36.4041 18.4933Z" fill="#FF007A"/>
<path d="M22.8311 20.9366C22.0748 19.8742 21.5886 18.2255 21.6966 16.9982L21.7326 16.6135L21.9127 16.6502C22.2369 16.7051 22.7951 16.9249 23.0652 17.0898C23.7855 17.5294 24.1097 18.1339 24.4158 19.636C24.5059 20.0757 24.6319 20.5886 24.6859 20.7534C24.776 21.0282 25.1181 21.6693 25.4063 22.0723C25.6043 22.3654 25.4783 22.512 25.0281 22.4753C24.3438 22.4021 23.4254 21.7609 22.8311 20.9366Z" fill="#FF007A"/>
<path d="M35.9729 28.872C32.1795 27.348 30.8384 26.0336 30.8384 23.8048C30.8384 23.4809 30.8575 23.2142 30.8575 23.2142C30.8767 23.2142 31.0108 23.3285 31.1832 23.4619C31.9496 24.0715 32.8117 24.3382 35.2065 24.6811C36.6051 24.8906 37.4098 25.043 38.1378 25.2907C40.456 26.0527 41.8929 27.6147 42.2378 29.7293C42.3336 30.3389 42.2761 31.5009 42.1228 32.1105C41.9887 32.5867 41.6055 33.463 41.5097 33.4821C41.4906 33.4821 41.4523 33.3868 41.4523 33.2344C41.4139 32.4343 41.0116 31.6724 40.3411 31.0818C39.5364 30.396 38.5018 29.8817 35.9729 28.872Z" fill="#FF007A"/>
<path d="M33.2315 29.4255C33.1915 29.142 33.0915 28.7829 33.0316 28.6318L32.9316 28.3483L33.1115 28.5562C33.3714 28.8396 33.5713 29.1798 33.7512 29.6523C33.8911 30.0114 33.8911 30.1248 33.8911 30.7106C33.8911 31.2776 33.8711 31.4099 33.7512 31.7312C33.5513 32.2415 33.3114 32.6005 32.9116 32.9974C32.192 33.6967 31.2525 34.0747 29.9132 34.2447C29.6733 34.2636 28.9937 34.3203 28.394 34.3581C26.8948 34.4337 25.8954 34.5849 24.9958 34.8873C24.8759 34.9251 24.756 34.9629 24.736 34.944C24.696 34.9062 25.3157 34.566 25.8154 34.3392C26.515 34.018 27.2346 33.8479 28.8138 33.5833C29.5934 33.4699 30.393 33.3187 30.5929 33.2431C32.5718 32.6572 33.5513 31.202 33.2315 29.4255Z" fill="#FF007A"/>
<path d="M34.3987 33.0548C33.8779 31.9812 33.7577 30.964 34.0382 30.0034C34.0782 29.9092 34.1183 29.8151 34.1584 29.8151C34.1984 29.8151 34.3186 29.8716 34.4388 29.9469C34.6792 30.0976 35.18 30.3613 36.4621 31.0206C38.0847 31.8493 39.0062 32.4897 39.6472 33.2243C40.2081 33.8648 40.5487 34.5994 40.7089 35.5035C40.8091 36.012 40.749 37.2364 40.6088 37.7449C40.1681 39.346 39.1664 40.6268 37.7041 41.3614C37.4837 41.4744 37.3034 41.5498 37.2834 41.5498C37.2634 41.5498 37.3435 41.3614 37.4637 41.1354C37.9445 40.1747 38.0046 39.2518 37.644 38.2158C37.4236 37.5754 36.9629 36.8031 36.0414 35.5035C34.9396 33.9966 34.6792 33.6011 34.3987 33.0548Z" fill="#FF007A"/>
<path d="M20.5666 38.6214C22.0143 37.5135 23.7946 36.7272 25.4379 36.4771C26.1422 36.3698 27.316 36.4056 27.9616 36.5664C28.9985 36.8166 29.9375 37.3527 30.4266 38.0138C30.8962 38.6571 31.1114 39.2111 31.3266 40.4441C31.4048 40.9266 31.5026 41.4269 31.5222 41.5341C31.6787 42.1774 31.9917 42.6778 32.383 42.9458C32.9895 43.3568 34.0459 43.3747 35.0828 43.0173C35.2588 42.9637 35.4153 42.9101 35.4153 42.928C35.4545 42.9637 34.9262 43.2853 34.5741 43.4462C34.085 43.6785 33.6937 43.75 33.1655 43.75C32.2265 43.75 31.4244 43.3032 30.7788 42.4097C30.6418 42.231 30.3679 41.7128 30.1332 41.2304C29.4485 39.7829 29.0963 39.3541 28.2942 38.8716C27.5899 38.4606 26.69 38.3712 26.0053 38.675C25.1053 39.0681 24.8706 40.1224 25.4966 40.7657C25.7509 41.0338 26.2205 41.2482 26.6117 41.3018C27.3356 41.3912 27.9616 40.873 27.9616 40.2118C27.9616 39.7829 27.7855 39.5327 27.316 39.3362C26.69 39.086 26.0053 39.3719 26.0248 39.9259C26.0248 40.1582 26.1422 40.3011 26.3965 40.4084C26.553 40.4798 26.553 40.4798 26.4357 40.462C25.8683 40.3547 25.7314 39.7114 26.1813 39.3004C26.7291 38.8001 27.8834 39.0145 28.2746 39.7114C28.4311 39.9974 28.4507 40.5692 28.3138 40.9266C27.9812 41.7128 27.0421 42.1238 26.0835 41.8915C25.4379 41.7307 25.164 41.5699 24.3815 40.8372C23.012 39.5506 22.4838 39.3004 20.5275 39.0324L20.1558 38.9788L20.5666 38.6214Z" fill="#FF007A"/>
<path fill-rule="evenodd" clip-rule="evenodd" d="M10.1272 8.6135C14.6092 13.8852 21.515 22.0815 21.8612 22.5285C22.1498 22.9011 22.0344 23.255 21.5534 23.5158C21.2841 23.6648 20.7263 23.8138 20.457 23.8138C20.1492 23.8138 19.7837 23.6648 19.5337 23.4227C19.3605 23.255 18.6103 22.1932 16.9175 19.6412C15.6287 17.6853 14.5323 16.0646 14.513 16.046C14.4361 16.0088 14.4361 16.0088 16.7829 20.0696C18.2641 22.6217 18.745 23.5344 18.745 23.6462C18.745 23.8884 18.668 24.0187 18.3602 24.3541C17.8409 24.9129 17.61 25.5462 17.4369 26.8688C17.2445 28.3404 16.7252 29.3836 15.244 31.1532C14.3784 32.1964 14.2437 32.3827 14.0321 32.8111C13.7628 33.3327 13.6859 33.6307 13.6474 34.3013C13.6089 35.0092 13.6859 35.4563 13.8975 36.1269C14.0898 36.723 14.3014 37.1141 14.8208 37.8779C15.2632 38.5485 15.5325 39.0514 15.5325 39.2377C15.5325 39.3867 15.571 39.3867 16.2635 39.2377C17.9178 38.8652 19.2836 38.2318 20.0338 37.4494C20.4955 36.9651 20.6109 36.7043 20.6109 36.0337C20.6109 35.6053 20.5916 35.5121 20.4762 35.2514C20.2839 34.8415 19.9184 34.5062 19.1297 33.9847C18.0909 33.2954 17.6485 32.7366 17.5331 31.9915C17.4369 31.3581 17.5523 30.9297 18.1294 29.7561C18.7257 28.5453 18.8796 28.0424 18.9758 26.8129C19.0335 26.0306 19.1297 25.7139 19.3605 25.4717C19.6106 25.2109 19.8222 25.1178 20.4185 25.0433C21.3996 24.9129 22.0344 24.6707 22.5345 24.205C22.9769 23.8138 23.1693 23.4227 23.1885 22.8452L23.2078 22.4168L22.9577 22.156C22.0536 21.1501 9.53085 7.8125 9.47315 7.8125C9.45391 7.8125 9.76169 8.16643 10.1272 8.6135ZM16.0328 35.1023C16.2444 34.7484 16.1289 34.3013 15.7827 34.0778C15.4557 33.8729 14.9555 33.966 14.9555 34.2455C14.9555 34.32 14.994 34.3945 15.1094 34.4317C15.2826 34.5249 15.3018 34.618 15.1671 34.8229C15.0325 35.0278 15.0325 35.2141 15.2056 35.3445C15.4749 35.5494 15.8404 35.4376 16.0328 35.1023Z" fill="#FF007A"/>
<path fill-rule="evenodd" clip-rule="evenodd" d="M24.2519 25.4549C23.8046 25.5703 23.376 25.999 23.2455 26.4277C23.171 26.6915 23.2082 27.1696 23.3387 27.318C23.5437 27.5489 23.7301 27.6148 24.2519 27.6148C25.277 27.6148 26.1529 27.2191 26.2461 26.7409C26.3393 26.3452 25.9479 25.8011 25.4074 25.5538C25.1279 25.4219 24.5501 25.3724 24.2519 25.4549ZM25.4448 26.2793C25.5938 26.0814 25.5379 25.8671 25.2584 25.7187C24.7552 25.4384 23.9911 25.6692 23.9911 26.0979C23.9911 26.3122 24.3824 26.5431 24.7552 26.5431C24.9975 26.5431 25.3329 26.4112 25.4448 26.2793Z" fill="#FF007A"/>
</svg>
